  0
SECTION
  2
HEADER
  9
$ACADVER
  1
AC1009
  9
$DWGCODEPAGE
  3
ANSI_1252
  9
$EXTMIN
 10
1e+20
 20
1e+20
 30
1e+20
  9
$EXTMAX
 10
-1e+20
 20
-1e+20
 30
-1e+20
  9
$LIMMIN
 10
0.0
 20
0.0
  9
$LIMMAX
 10
420.0
 20
297.0
  9
$TDCREATE
 40
2461236.985775463
  9
$TDUPDATE
 40
2461236.985775463
  9
$PEXTMIN
 10
1e+20
 20
1e+20
 30
1e+20
  9
$PEXTMAX
 10
-1e+20
 20
-1e+20
 30
-1e+20
  9
$PLIMMIN
 10
0.0
 20
0.0
  9
$PLIMMAX
 10
420.0
 20
297.0
  0
ENDSEC
  0
SECTION
  2
TABLES
  0
TABLE
  2
VPORT
 70
1
  0
VPORT
  2
*Active
 70
0
 10
0.0
 20
0.0
 11
1.0
 21
1.0
 12
0.0
 22
0.0
 13
0.0
 23
0.0
 14
0.5
 24
0.5
 15
0.5
 25
0.5
 16
0.0
 26
0.0
 36
1.0
 17
0.0
 27
0.0
 37
0.0
 40
1000.0
 41
1.34
 42
50.0
 43
0.0
 44
0.0
 50
0.0
 51
0.0
 71
0
 72
1000
 73
1
 74
3
 75
0
 76
0
 77
0
 78
0
  0
ENDTAB
  0
TABLE
  2
LTYPE
 70
3
  0
LTYPE
  2
ByBlock
 70
0
  3

 72
65
 73
0
 40
0.0
  0
LTYPE
  2
ByLayer
 70
0
  3

 72
65
 73
0
 40
0.0
  0
LTYPE
  2
Continuous
 70
0
  3

 72
65
 73
0
 40
0.0
  0
ENDTAB
  0
TABLE
  2
LAYER
 70
2
  0
LAYER
  2
0
 70
0
 62
7
  6
Continuous
  0
LAYER
  2
Defpoints
 70
0
 62
7
  6
Continuous
  0
ENDTAB
  0
TABLE
  2
STYLE
 70
1
  0
STYLE
  2
Standard
 70
0
 40
0.0
 41
1.0
 50
0.0
 71
0
 42
2.5
  3
txt
  4

  0
ENDTAB
  0
TABLE
  2
VIEW
 70
0
  0
ENDTAB
  0
TABLE
  2
UCS
 70
0
  0
ENDTAB
  0
TABLE
  2
APPID
 70
3
  0
APPID
  2
ACAD
 70
0
  0
APPID
  2
HATCHBACKGROUNDCOLOR
 70
0
  0
APPID
  2
EZDXF
 70
0
  0
ENDTAB
  0
TABLE
  2
DIMSTYLE
 70
1
  0
DIMSTYLE
  2
Standard
 70
0
  3

  4

  5

  6

  7

 40
1.0
 41
2.5
 42
0.625
 43
3.75
 44
1.25
 45
0.0
 46
0.0
 47
0.0
 48
0.0
140
2.5
141
2.5
142
0.0
143
0.03937007874
144
1.0
145
0.0
146
1.0
147
0.625
 71
0
 72
0
 73
0
 74
0
 75
0
 76
0
 77
1
 78
8
170
0
171
3
172
1
173
0
174
0
175
0
176
0
177
0
178
0
  0
ENDTAB
  0
ENDSEC
  0
SECTION
  2
BLOCKS
  0
BLOCK
  8
0
  2
$Model_Space
 70
0
 10
0.0
 20
0.0
 30
0.0
  3
$Model_Space
  1

1001
EZDXF
1000
WRITTEN_BY_EZDXF
1000
1.4.3 @ 2026-07-14T18:09:31.283016+00:00
  0
ENDBLK
  8
0
  0
BLOCK
  8
0
  2
$Paper_Space
 70
0
 10
0.0
 20
0.0
 30
0.0
  3
$Paper_Space
  1

  0
ENDBLK
  8
0
  0
BLOCK
  8
1
  2
2_M
 70
64
 10
0.0
 20
0.0
 30
0.0
  3
2_M
  1

  0
POLYLINE
  8
1
 66
1
 10
0.0
 20
0.0
 30
0.0
 70
1
  0
VERTEX
  8
1
 10
1337.446289
 20
904.490051
 30
0.0
 70
0
  0
VERTEX
  8
1
 10
1067.446289
 20
904.490051
 30
0.0
 70
0
  0
VERTEX
  8
1
 10
1047.348633
 20
1316.75647
 30
0.0
 70
0
  0
VERTEX
  8
1
 10
1056.37207
 20
1320.770752
 30
0.0
 70
0
  0
VERTEX
  8
1
 10
1064.65332
 20
1325.83374
 30
0.0
 70
0
  0
VERTEX
  8
1
 10
1072.314453
 20
1331.949219
 30
0.0
 70
0
  0
VERTEX
  8
1
 10
1079.047852
 20
1339.043457
 30
0.0
 70
0
  0
VERTEX
  8
1
 10
1084.541016
 20
1347.114502
 30
0.0
 70
0
  0
VERTEX
  8
1
 10
1089.0625
 20
1355.837158
 30
0.0
 70
0
  0
VERTEX
  8
1
 10
1092.783203
 20
1364.884033
 30
0.0
 70
0
  0
VERTEX
  8
1
 10
1095.805664
 20
1374.213379
 30
0.0
 70
0
  0
VERTEX
  8
1
 10
1098.28125
 20
1383.688232
 30
0.0
 70
0
  0
VERTEX
  8
1
 10
1100.27832
 20
1393.285156
 30
0.0
 70
0
  0
VERTEX
  8
1
 10
1101.923828
 20
1402.94165
 30
0.0
 70
0
  0
VERTEX
  8
1
 10
1103.237305
 20
1412.652588
 30
0.0
 70
0
  0
VERTEX
  8
1
 10
1104.267578
 20
1422.394775
 30
0.0
 70
0
  0
VERTEX
  8
1
 10
1105.048828
 20
1432.161865
 30
0.0
 70
0
  0
VERTEX
  8
1
 10
1106.035156
 20
1451.732666
 30
0.0
 70
0
  0
VERTEX
  8
1
 10
1106.660156
 20
1464.945801
 30
0.0
 70
0
  0
VERTEX
  8
1
 10
1106.884766
 20
1471.310303
 30
0.0
 70
0
  0
VERTEX
  8
1
 10
1106.962891
 20
1474.941162
 30
0.0
 70
0
  0
VERTEX
  8
1
 10
1107.045898
 20
1490.904785
 30
0.0
 70
0
  0
VERTEX
  8
1
 10
1106.635742
 20
1510.496094
 30
0.0
 70
0
  0
VERTEX
  8
1
 10
1106.201172
 20
1520.285645
 30
0.0
 70
0
  0
VERTEX
  8
1
 10
1105.522461
 20
1530.057861
 30
0.0
 70
0
  0
VERTEX
  8
1
 10
1104.516602
 20
1539.804688
 30
0.0
 70
0
  0
VERTEX
  8
1
 10
1103.15918
 20
1549.506592
 30
0.0
 70
0
  0
VERTEX
  8
1
 10
1101.401367
 20
1559.136963
 30
0.0
 70
0
  0
VERTEX
  8
1
 10
1099.262695
 20
1568.707275
 30
0.0
 70
0
  0
VERTEX
  8
1
 10
1234.599609
 20
1623.052979
 30
0.0
 70
0
  0
VERTEX
  8
1
 10
1241.09375
 20
1614.697021
 30
0.0
 70
0
  0
VERTEX
  8
1
 10
1248.154297
 20
1607.397949
 30
0.0
 70
0
  0
VERTEX
  8
1
 10
1251.411133
 20
1604.662598
 30
0.0
 70
0
  0
VERTEX
  8
1
 10
1256.733398
 20
1600.74585
 30
0.0
 70
0
  0
VERTEX
  8
1
 10
1266.118164
 20
1595.327393
 30
0.0
 70
0
  0
VERTEX
  8
1
 10
1275.898438
 20
1591.623047
 30
0.0
 70
0
  0
VERTEX
  8
1
 10
1286.118164
 20
1589.095703
 30
0.0
 70
0
  0
VERTEX
  8
1
 10
1295.332031
 20
1587.729004
 30
0.0
 70
0
  0
VERTEX
  8
1
 10
1304.663086
 20
1587.026123
 30
0.0
 70
0
  0
VERTEX
  8
1
 10
1312.988281
 20
1586.707275
 30
0.0
 70
0
  0
VERTEX
  8
1
 10
1321.337891
 20
1586.623047
 30
0.0
 70
0
  0
VERTEX
  8
1
 10
1337.446289
 20
1586.552979
 30
0.0
 70
0
  0
VERTEX
  8
1
 10
1353.554688
 20
1586.623047
 30
0.0
 70
0
  0
VERTEX
  8
1
 10
1361.904297
 20
1586.707275
 30
0.0
 70
0
  0
VERTEX
  8
1
 10
1370.229492
 20
1587.026123
 30
0.0
 70
0
  0
VERTEX
  8
1
 10
1379.560547
 20
1587.729004
 30
0.0
 70
0
  0
VERTEX
  8
1
 10
1388.774414
 20
1589.095703
 30
0.0
 70
0
  0
VERTEX
  8
1
 10
1398.994141
 20
1591.623047
 30
0.0
 70
0
  0
VERTEX
  8
1
 10
1408.774414
 20
1595.327393
 30
0.0
 70
0
  0
VERTEX
  8
1
 10
1418.15918
 20
1600.74585
 30
0.0
 70
0
  0
VERTEX
  8
1
 10
1423.481445
 20
1604.662598
 30
0.0
 70
0
  0
VERTEX
  8
1
 10
1426.738281
 20
1607.397949
 30
0.0
 70
0
  0
VERTEX
  8
1
 10
1433.798828
 20
1614.697021
 30
0.0
 70
0
  0
VERTEX
  8
1
 10
1440.292969
 20
1623.052979
 30
0.0
 70
0
  0
VERTEX
  8
1
 10
1575.629883
 20
1568.707275
 30
0.0
 70
0
  0
VERTEX
  8
1
 10
1573.491211
 20
1559.136963
 30
0.0
 70
0
  0
VERTEX
  8
1
 10
1571.733398
 20
1549.506592
 30
0.0
 70
0
  0
VERTEX
  8
1
 10
1570.375977
 20
1539.804688
 30
0.0
 70
0
  0
VERTEX
  8
1
 10
1569.370117
 20
1530.057861
 30
0.0
 70
0
  0
VERTEX
  8
1
 10
1568.691406
 20
1520.285645
 30
0.0
 70
0
  0
VERTEX
  8
1
 10
1568.256836
 20
1510.496094
 30
0.0
 70
0
  0
VERTEX
  8
1
 10
1567.84668
 20
1490.904785
 30
0.0
 70
0
  0
VERTEX
  8
1
 10
1567.929688
 20
1474.941162
 30
0.0
 70
0
  0
VERTEX
  8
1
 10
1568.007812
 20
1471.310303
 30
0.0
 70
0
  0
VERTEX
  8
1
 10
1568.232422
 20
1464.945801
 30
0.0
 70
0
  0
VERTEX
  8
1
 10
1568.857422
 20
1451.732666
 30
0.0
 70
0
  0
VERTEX
  8
1
 10
1569.84375
 20
1432.161865
 30
0.0
 70
0
  0
VERTEX
  8
1
 10
1570.625
 20
1422.394775
 30
0.0
 70
0
  0
VERTEX
  8
1
 10
1571.655273
 20
1412.652588
 30
0.0
 70
0
  0
VERTEX
  8
1
 10
1572.96875
 20
1402.94165
 30
0.0
 70
0
  0
VERTEX
  8
1
 10
1574.614258
 20
1393.285156
 30
0.0
 70
0
  0
VERTEX
  8
1
 10
1576.611328
 20
1383.688232
 30
0.0
 70
0
  0
VERTEX
  8
1
 10
1579.086914
 20
1374.213379
 30
0.0
 70
0
  0
VERTEX
  8
1
 10
1582.109375
 20
1364.884033
 30
0.0
 70
0
  0
VERTEX
  8
1
 10
1585.830078
 20
1355.837158
 30
0.0
 70
0
  0
VERTEX
  8
1
 10
1590.351562
 20
1347.114502
 30
0.0
 70
0
  0
VERTEX
  8
1
 10
1595.844727
 20
1339.043457
 30
0.0
 70
0
  0
VERTEX
  8
1
 10
1602.578125
 20
1331.949219
 30
0.0
 70
0
  0
VERTEX
  8
1
 10
1610.239258
 20
1325.83374
 30
0.0
 70
0
  0
VERTEX
  8
1
 10
1618.520508
 20
1320.770752
 30
0.0
 70
0
  0
VERTEX
  8
1
 10
1627.543945
 20
1316.75647
 30
0.0
 70
0
  0
VERTEX
  8
1
 10
1607.446289
 20
904.490051
 30
0.0
 70
0
  0
SEQEND
  8
0
  0
TEXT
  8
1
 10
1337.446289
 20
904.490051
 30
0.0
 40
0.25
  1
# -1
  7
STANDARD
  0
TEXT
  8
1
 10
1067.446289
 20
904.490051
 30
0.0
 40
0.25
  1
# -1
  7
STANDARD
  0
TEXT
  8
1
 10
1047.348633
 20
1316.75647
 30
0.0
 40
0.25
  1
# -1
  7
STANDARD
  0
TEXT
  8
1
 10
1056.37207
 20
1320.770752
 30
0.0
 40
0.25
  1
# -1
  7
STANDARD
  0
TEXT
  8
1
 10
1064.65332
 20
1325.83374
 30
0.0
 40
0.25
  1
# -1
  7
STANDARD
  0
TEXT
  8
1
 10
1072.314453
 20
1331.949219
 30
0.0
 40
0.25
  1
# -1
  7
STANDARD
  0
TEXT
  8
1
 10
1079.047852
 20
1339.043457
 30
0.0
 40
0.25
  1
# -1
  7
STANDARD
  0
TEXT
  8
1
 10
1084.541016
 20
1347.114502
 30
0.0
 40
0.25
  1
# -1
  7
STANDARD
  0
TEXT
  8
1
 10
1089.0625
 20
1355.837158
 30
0.0
 40
0.25
  1
# -1
  7
STANDARD
  0
TEXT
  8
1
 10
1092.783203
 20
1364.884033
 30
0.0
 40
0.25
  1
# -1
  7
STANDARD
  0
TEXT
  8
1
 10
1095.805664
 20
1374.213379
 30
0.0
 40
0.25
  1
# -1
  7
STANDARD
  0
TEXT
  8
1
 10
1098.28125
 20
1383.688232
 30
0.0
 40
0.25
  1
# -1
  7
STANDARD
  0
TEXT
  8
1
 10
1100.27832
 20
1393.285156
 30
0.0
 40
0.25
  1
# -1
  7
STANDARD
  0
TEXT
  8
1
 10
1101.923828
 20
1402.94165
 30
0.0
 40
0.25
  1
# -1
  7
STANDARD
  0
TEXT
  8
1
 10
1103.237305
 20
1412.652588
 30
0.0
 40
0.25
  1
# -1
  7
STANDARD
  0
TEXT
  8
1
 10
1104.267578
 20
1422.394775
 30
0.0
 40
0.25
  1
# -1
  7
STANDARD
  0
TEXT
  8
1
 10
1105.048828
 20
1432.161865
 30
0.0
 40
0.25
  1
# -1
  7
STANDARD
  0
TEXT
  8
1
 10
1106.035156
 20
1451.732666
 30
0.0
 40
0.25
  1
# -1
  7
STANDARD
  0
TEXT
  8
1
 10
1106.660156
 20
1464.945801
 30
0.0
 40
0.25
  1
# -1
  7
STANDARD
  0
TEXT
  8
1
 10
1106.884766
 20
1471.310303
 30
0.0
 40
0.25
  1
# -1
  7
STANDARD
  0
TEXT
  8
1
 10
1106.962891
 20
1474.941162
 30
0.0
 40
0.25
  1
# -1
  7
STANDARD
  0
TEXT
  8
1
 10
1107.045898
 20
1490.904785
 30
0.0
 40
0.25
  1
# -1
  7
STANDARD
  0
TEXT
  8
1
 10
1106.635742
 20
1510.496094
 30
0.0
 40
0.25
  1
# -1
  7
STANDARD
  0
TEXT
  8
1
 10
1106.201172
 20
1520.285645
 30
0.0
 40
0.25
  1
# -1
  7
STANDARD
  0
TEXT
  8
1
 10
1105.522461
 20
1530.057861
 30
0.0
 40
0.25
  1
# -1
  7
STANDARD
  0
TEXT
  8
1
 10
1104.516602
 20
1539.804688
 30
0.0
 40
0.25
  1
# -1
  7
STANDARD
  0
TEXT
  8
1
 10
1103.15918
 20
1549.506592
 30
0.0
 40
0.25
  1
# -1
  7
STANDARD
  0
TEXT
  8
1
 10
1101.401367
 20
1559.136963
 30
0.0
 40
0.25
  1
# -1
  7
STANDARD
  0
TEXT
  8
1
 10
1099.262695
 20
1568.707275
 30
0.0
 40
0.25
  1
# -1
  7
STANDARD
  0
TEXT
  8
1
 10
1234.599609
 20
1623.052979
 30
0.0
 40
0.25
  1
# -1
  7
STANDARD
  0
TEXT
  8
1
 10
1241.09375
 20
1614.697021
 30
0.0
 40
0.25
  1
# -1
  7
STANDARD
  0
TEXT
  8
1
 10
1248.154297
 20
1607.397949
 30
0.0
 40
0.25
  1
# -1
  7
STANDARD
  0
TEXT
  8
1
 10
1251.411133
 20
1604.662598
 30
0.0
 40
0.25
  1
# -1
  7
STANDARD
  0
TEXT
  8
1
 10
1256.733398
 20
1600.74585
 30
0.0
 40
0.25
  1
# -1
  7
STANDARD
  0
TEXT
  8
1
 10
1266.118164
 20
1595.327393
 30
0.0
 40
0.25
  1
# -1
  7
STANDARD
  0
TEXT
  8
1
 10
1275.898438
 20
1591.623047
 30
0.0
 40
0.25
  1
# -1
  7
STANDARD
  0
TEXT
  8
1
 10
1286.118164
 20
1589.095703
 30
0.0
 40
0.25
  1
# -1
  7
STANDARD
  0
TEXT
  8
1
 10
1295.332031
 20
1587.729004
 30
0.0
 40
0.25
  1
# -1
  7
STANDARD
  0
TEXT
  8
1
 10
1304.663086
 20
1587.026123
 30
0.0
 40
0.25
  1
# -1
  7
STANDARD
  0
TEXT
  8
1
 10
1312.988281
 20
1586.707275
 30
0.0
 40
0.25
  1
# -1
  7
STANDARD
  0
TEXT
  8
1
 10
1321.337891
 20
1586.623047
 30
0.0
 40
0.25
  1
# -1
  7
STANDARD
  0
TEXT
  8
1
 10
1337.446289
 20
1586.552979
 30
0.0
 40
0.25
  1
# -1
  7
STANDARD
  0
TEXT
  8
1
 10
1353.554688
 20
1586.623047
 30
0.0
 40
0.25
  1
# -1
  7
STANDARD
  0
TEXT
  8
1
 10
1361.904297
 20
1586.707275
 30
0.0
 40
0.25
  1
# -1
  7
STANDARD
  0
TEXT
  8
1
 10
1370.229492
 20
1587.026123
 30
0.0
 40
0.25
  1
# -1
  7
STANDARD
  0
TEXT
  8
1
 10
1379.560547
 20
1587.729004
 30
0.0
 40
0.25
  1
# -1
  7
STANDARD
  0
TEXT
  8
1
 10
1388.774414
 20
1589.095703
 30
0.0
 40
0.25
  1
# -1
  7
STANDARD
  0
TEXT
  8
1
 10
1398.994141
 20
1591.623047
 30
0.0
 40
0.25
  1
# -1
  7
STANDARD
  0
TEXT
  8
1
 10
1408.774414
 20
1595.327393
 30
0.0
 40
0.25
  1
# -1
  7
STANDARD
  0
TEXT
  8
1
 10
1418.15918
 20
1600.74585
 30
0.0
 40
0.25
  1
# -1
  7
STANDARD
  0
TEXT
  8
1
 10
1423.481445
 20
1604.662598
 30
0.0
 40
0.25
  1
# -1
  7
STANDARD
  0
TEXT
  8
1
 10
1426.738281
 20
1607.397949
 30
0.0
 40
0.25
  1
# -1
  7
STANDARD
  0
TEXT
  8
1
 10
1433.798828
 20
1614.697021
 30
0.0
 40
0.25
  1
# -1
  7
STANDARD
  0
TEXT
  8
1
 10
1440.292969
 20
1623.052979
 30
0.0
 40
0.25
  1
# -1
  7
STANDARD
  0
TEXT
  8
1
 10
1575.629883
 20
1568.707275
 30
0.0
 40
0.25
  1
# -1
  7
STANDARD
  0
TEXT
  8
1
 10
1573.491211
 20
1559.136963
 30
0.0
 40
0.25
  1
# -1
  7
STANDARD
  0
TEXT
  8
1
 10
1571.733398
 20
1549.506592
 30
0.0
 40
0.25
  1
# -1
  7
STANDARD
  0
TEXT
  8
1
 10
1570.375977
 20
1539.804688
 30
0.0
 40
0.25
  1
# -1
  7
STANDARD
  0
TEXT
  8
1
 10
1569.370117
 20
1530.057861
 30
0.0
 40
0.25
  1
# -1
  7
STANDARD
  0
TEXT
  8
1
 10
1568.691406
 20
1520.285645
 30
0.0
 40
0.25
  1
# -1
  7
STANDARD
  0
TEXT
  8
1
 10
1568.256836
 20
1510.496094
 30
0.0
 40
0.25
  1
# -1
  7
STANDARD
  0
TEXT
  8
1
 10
1567.84668
 20
1490.904785
 30
0.0
 40
0.25
  1
# -1
  7
STANDARD
  0
TEXT
  8
1
 10
1567.929688
 20
1474.941162
 30
0.0
 40
0.25
  1
# -1
  7
STANDARD
  0
TEXT
  8
1
 10
1568.007812
 20
1471.310303
 30
0.0
 40
0.25
  1
# -1
  7
STANDARD
  0
TEXT
  8
1
 10
1568.232422
 20
1464.945801
 30
0.0
 40
0.25
  1
# -1
  7
STANDARD
  0
TEXT
  8
1
 10
1568.857422
 20
1451.732666
 30
0.0
 40
0.25
  1
# -1
  7
STANDARD
  0
TEXT
  8
1
 10
1569.84375
 20
1432.161865
 30
0.0
 40
0.25
  1
# -1
  7
STANDARD
  0
TEXT
  8
1
 10
1570.625
 20
1422.394775
 30
0.0
 40
0.25
  1
# -1
  7
STANDARD
  0
TEXT
  8
1
 10
1571.655273
 20
1412.652588
 30
0.0
 40
0.25
  1
# -1
  7
STANDARD
  0
TEXT
  8
1
 10
1572.96875
 20
1402.94165
 30
0.0
 40
0.25
  1
# -1
  7
STANDARD
  0
TEXT
  8
1
 10
1574.614258
 20
1393.285156
 30
0.0
 40
0.25
  1
# -1
  7
STANDARD
  0
TEXT
  8
1
 10
1576.611328
 20
1383.688232
 30
0.0
 40
0.25
  1
# -1
  7
STANDARD
  0
TEXT
  8
1
 10
1579.086914
 20
1374.213379
 30
0.0
 40
0.25
  1
# -1
  7
STANDARD
  0
TEXT
  8
1
 10
1582.109375
 20
1364.884033
 30
0.0
 40
0.25
  1
# -1
  7
STANDARD
  0
TEXT
  8
1
 10
1585.830078
 20
1355.837158
 30
0.0
 40
0.25
  1
# -1
  7
STANDARD
  0
TEXT
  8
1
 10
1590.351562
 20
1347.114502
 30
0.0
 40
0.25
  1
# -1
  7
STANDARD
  0
TEXT
  8
1
 10
1595.844727
 20
1339.043457
 30
0.0
 40
0.25
  1
# -1
  7
STANDARD
  0
TEXT
  8
1
 10
1602.578125
 20
1331.949219
 30
0.0
 40
0.25
  1
# -1
  7
STANDARD
  0
TEXT
  8
1
 10
1610.239258
 20
1325.83374
 30
0.0
 40
0.25
  1
# -1
  7
STANDARD
  0
TEXT
  8
1
 10
1618.520508
 20
1320.770752
 30
0.0
 40
0.25
  1
# -1
  7
STANDARD
  0
TEXT
  8
1
 10
1627.543945
 20
1316.75647
 30
0.0
 40
0.25
  1
# -1
  7
STANDARD
  0
TEXT
  8
1
 10
1607.446289
 20
904.490051
 30
0.0
 40
0.25
  1
# -1
  7
STANDARD
  0
POINT
  8
2
 10
1337.446289
 20
904.490051
 30
0.0
  0
POINT
  8
2
 10
1067.446289
 20
904.490051
 30
0.0
  0
POINT
  8
2
 10
1047.348633
 20
1316.75647
 30
0.0
  0
POINT
  8
2
 10
1099.262695
 20
1568.707275
 30
0.0
  0
POINT
  8
2
 10
1234.599609
 20
1623.052979
 30
0.0
  0
POINT
  8
2
 10
1337.446289
 20
1586.552979
 30
0.0
  0
POINT
  8
2
 10
1440.292969
 20
1623.052979
 30
0.0
  0
POINT
  8
2
 10
1575.629883
 20
1568.707275
 30
0.0
  0
POINT
  8
2
 10
1627.543945
 20
1316.75647
 30
0.0
  0
POINT
  8
2
 10
1607.446289
 20
904.490051
 30
0.0
  0
POINT
  8
3
 10
1056.37207
 20
1320.770752
 30
0.0
  0
POINT
  8
3
 10
1064.65332
 20
1325.83374
 30
0.0
  0
POINT
  8
3
 10
1072.314453
 20
1331.949219
 30
0.0
  0
POINT
  8
3
 10
1079.047852
 20
1339.043457
 30
0.0
  0
POINT
  8
3
 10
1084.541016
 20
1347.114502
 30
0.0
  0
POINT
  8
3
 10
1089.0625
 20
1355.837158
 30
0.0
  0
POINT
  8
3
 10
1092.783203
 20
1364.884033
 30
0.0
  0
POINT
  8
3
 10
1095.805664
 20
1374.213379
 30
0.0
  0
POINT
  8
3
 10
1098.28125
 20
1383.688232
 30
0.0
  0
POINT
  8
3
 10
1100.27832
 20
1393.285156
 30
0.0
  0
POINT
  8
3
 10
1101.923828
 20
1402.94165
 30
0.0
  0
POINT
  8
3
 10
1103.237305
 20
1412.652588
 30
0.0
  0
POINT
  8
3
 10
1104.267578
 20
1422.394775
 30
0.0
  0
POINT
  8
3
 10
1105.048828
 20
1432.161865
 30
0.0
  0
POINT
  8
3
 10
1106.035156
 20
1451.732666
 30
0.0
  0
POINT
  8
3
 10
1106.660156
 20
1464.945801
 30
0.0
  0
POINT
  8
3
 10
1106.884766
 20
1471.310303
 30
0.0
  0
POINT
  8
3
 10
1106.962891
 20
1474.941162
 30
0.0
  0
POINT
  8
3
 10
1107.045898
 20
1490.904785
 30
0.0
  0
POINT
  8
3
 10
1106.635742
 20
1510.496094
 30
0.0
  0
POINT
  8
3
 10
1106.201172
 20
1520.285645
 30
0.0
  0
POINT
  8
3
 10
1105.522461
 20
1530.057861
 30
0.0
  0
POINT
  8
3
 10
1104.516602
 20
1539.804688
 30
0.0
  0
POINT
  8
3
 10
1103.15918
 20
1549.506592
 30
0.0
  0
POINT
  8
3
 10
1101.401367
 20
1559.136963
 30
0.0
  0
POINT
  8
3
 10
1241.09375
 20
1614.697021
 30
0.0
  0
POINT
  8
3
 10
1248.154297
 20
1607.397949
 30
0.0
  0
POINT
  8
3
 10
1251.411133
 20
1604.662598
 30
0.0
  0
POINT
  8
3
 10
1256.733398
 20
1600.74585
 30
0.0
  0
POINT
  8
3
 10
1266.118164
 20
1595.327393
 30
0.0
  0
POINT
  8
3
 10
1275.898438
 20
1591.623047
 30
0.0
  0
POINT
  8
3
 10
1286.118164
 20
1589.095703
 30
0.0
  0
POINT
  8
3
 10
1295.332031
 20
1587.729004
 30
0.0
  0
POINT
  8
3
 10
1304.663086
 20
1587.026123
 30
0.0
  0
POINT
  8
3
 10
1312.988281
 20
1586.707275
 30
0.0
  0
POINT
  8
3
 10
1321.337891
 20
1586.623047
 30
0.0
  0
POINT
  8
3
 10
1353.554688
 20
1586.623047
 30
0.0
  0
POINT
  8
3
 10
1361.904297
 20
1586.707275
 30
0.0
  0
POINT
  8
3
 10
1370.229492
 20
1587.026123
 30
0.0
  0
POINT
  8
3
 10
1379.560547
 20
1587.729004
 30
0.0
  0
POINT
  8
3
 10
1388.774414
 20
1589.095703
 30
0.0
  0
POINT
  8
3
 10
1398.994141
 20
1591.623047
 30
0.0
  0
POINT
  8
3
 10
1408.774414
 20
1595.327393
 30
0.0
  0
POINT
  8
3
 10
1418.15918
 20
1600.74585
 30
0.0
  0
POINT
  8
3
 10
1423.481445
 20
1604.662598
 30
0.0
  0
POINT
  8
3
 10
1426.738281
 20
1607.397949
 30
0.0
  0
POINT
  8
3
 10
1433.798828
 20
1614.697021
 30
0.0
  0
POINT
  8
3
 10
1573.491211
 20
1559.136963
 30
0.0
  0
POINT
  8
3
 10
1571.733398
 20
1549.506592
 30
0.0
  0
POINT
  8
3
 10
1570.375977
 20
1539.804688
 30
0.0
  0
POINT
  8
3
 10
1569.370117
 20
1530.057861
 30
0.0
  0
POINT
  8
3
 10
1568.691406
 20
1520.285645
 30
0.0
  0
POINT
  8
3
 10
1568.256836
 20
1510.496094
 30
0.0
  0
POINT
  8
3
 10
1567.84668
 20
1490.904785
 30
0.0
  0
POINT
  8
3
 10
1567.929688
 20
1474.941162
 30
0.0
  0
POINT
  8
3
 10
1568.007812
 20
1471.310303
 30
0.0
  0
POINT
  8
3
 10
1568.232422
 20
1464.945801
 30
0.0
  0
POINT
  8
3
 10
1568.857422
 20
1451.732666
 30
0.0
  0
POINT
  8
3
 10
1569.84375
 20
1432.161865
 30
0.0
  0
POINT
  8
3
 10
1570.625
 20
1422.394775
 30
0.0
  0
POINT
  8
3
 10
1571.655273
 20
1412.652588
 30
0.0
  0
POINT
  8
3
 10
1572.96875
 20
1402.94165
 30
0.0
  0
POINT
  8
3
 10
1574.614258
 20
1393.285156
 30
0.0
  0
POINT
  8
3
 10
1576.611328
 20
1383.688232
 30
0.0
  0
POINT
  8
3
 10
1579.086914
 20
1374.213379
 30
0.0
  0
POINT
  8
3
 10
1582.109375
 20
1364.884033
 30
0.0
  0
POINT
  8
3
 10
1585.830078
 20
1355.837158
 30
0.0
  0
POINT
  8
3
 10
1590.351562
 20
1347.114502
 30
0.0
  0
POINT
  8
3
 10
1595.844727
 20
1339.043457
 30
0.0
  0
POINT
  8
3
 10
1602.578125
 20
1331.949219
 30
0.0
  0
POINT
  8
3
 10
1610.239258
 20
1325.83374
 30
0.0
  0
POINT
  8
3
 10
1618.520508
 20
1320.770752
 30
0.0
  0
POINT
  8
4
 10
1106.660156
 20
1464.945679
 30
7.0
 50
357.768402
  0
POINT
  8
4
 10
1106.962891
 20
1474.941162
 30
7.0
 50
358.552063
  0
POINT
  8
4
 10
1567.929688
 20
1474.941162
 30
7.0
 50
180.356079
  0
POINT
  8
4
 10
1568.232422
 20
1464.945801
 30
7.0
 50
181.594711
  0
POLYLINE
  8
84
 66
1
 10
0.0
 20
0.0
 30
0.0
 70
1
  0
VERTEX
  8
84
 10
1067.446289
 20
904.490051
 30
0.0
 70
0
  0
VERTEX
  8
84
 10
1047.348633
 20
1316.75647
 30
0.0
 70
0
  0
VERTEX
  8
84
 10
1051.906494
 20
1318.670166
 30
0.0
 70
0
  0
VERTEX
  8
84
 10
1056.37207
 20
1320.770752
 30
0.0
 70
0
  0
VERTEX
  8
84
 10
1059.20874
 20
1322.326172
 30
0.0
 70
0
  0
VERTEX
  8
84
 10
1061.967896
 20
1324.020386
 30
0.0
 70
0
  0
VERTEX
  8
84
 10
1064.65332
 20
1325.83374
 30
0.0
 70
0
  0
VERTEX
  8
84
 10
1067.290527
 20
1327.768311
 30
0.0
 70
0
  0
VERTEX
  8
84
 10
1069.846069
 20
1329.805054
 30
0.0
 70
0
  0
VERTEX
  8
84
 10
1072.314453
 20
1331.949219
 30
0.0
 70
0
  0
VERTEX
  8
84
 10
1074.68042
 20
1334.198486
 30
0.0
 70
0
  0
VERTEX
  8
84
 10
1076.931152
 20
1336.561279
 30
0.0
 70
0
  0
VERTEX
  8
84
 10
1079.047852
 20
1339.043457
 30
0.0
 70
0
  0
VERTEX
  8
84
 10
1081.012451
 20
1341.639648
 30
0.0
 70
0
  0
VERTEX
  8
84
 10
1082.837891
 20
1344.336548
 30
0.0
 70
0
  0
VERTEX
  8
84
 10
1084.541016
 20
1347.114502
 30
0.0
 70
0
  0
VERTEX
  8
84
 10
1086.909546
 20
1351.420654
 30
0.0
 70
0
  0
VERTEX
  8
84
 10
1089.0625
 20
1355.837158
 30
0.0
 70
0
  0
VERTEX
  8
84
 10
1091.015869
 20
1360.32251
 30
0.0
 70
0
  0
VERTEX
  8
84
 10
1092.783203
 20
1364.884033
 30
0.0
 70
0
  0
VERTEX
  8
84
 10
1094.372559
 20
1369.523071
 30
0.0
 70
0
  0
VERTEX
  8
84
 10
1095.805664
 20
1374.213379
 30
0.0
 70
0
  0
VERTEX
  8
84
 10
1097.106934
 20
1378.93457
 30
0.0
 70
0
  0
VERTEX
  8
84
 10
1098.28125
 20
1383.688232
 30
0.0
 70
0
  0
VERTEX
  8
84
 10
1100.27832
 20
1393.285156
 30
0.0
 70
0
  0
VERTEX
  8
84
 10
1101.923828
 20
1402.94165
 30
0.0
 70
0
  0
VERTEX
  8
84
 10
1103.237305
 20
1412.652588
 30
0.0
 70
0
  0
VERTEX
  8
84
 10
1104.267578
 20
1422.394775
 30
0.0
 70
0
  0
VERTEX
  8
84
 10
1105.048828
 20
1432.161865
 30
0.0
 70
0
  0
VERTEX
  8
84
 10
1105.589844
 20
1441.944458
 30
0.0
 70
0
  0
VERTEX
  8
84
 10
1106.035156
 20
1451.732666
 30
0.0
 70
0
  0
VERTEX
  8
84
 10
1106.660156
 20
1464.945801
 30
0.0
 70
0
  0
VERTEX
  8
84
 10
1106.884766
 20
1471.310303
 30
0.0
 70
0
  0
VERTEX
  8
84
 10
1106.962891
 20
1474.941162
 30
0.0
 70
0
  0
VERTEX
  8
84
 10
1107.052856
 20
1482.922607
 30
0.0
 70
0
  0
VERTEX
  8
84
 10
1107.045898
 20
1490.904785
 30
0.0
 70
0
  0
VERTEX
  8
84
 10
1106.971436
 20
1497.437134
 30
0.0
 70
0
  0
VERTEX
  8
84
 10
1106.834961
 20
1503.966309
 30
0.0
 70
0
  0
VERTEX
  8
84
 10
1106.635742
 20
1510.496094
 30
0.0
 70
0
  0
VERTEX
  8
84
 10
1106.201172
 20
1520.285645
 30
0.0
 70
0
  0
VERTEX
  8
84
 10
1105.522461
 20
1530.057861
 30
0.0
 70
0
  0
VERTEX
  8
84
 10
1104.516602
 20
1539.804688
 30
0.0
 70
0
  0
VERTEX
  8
84
 10
1103.15918
 20
1549.506592
 30
0.0
 70
0
  0
VERTEX
  8
84
 10
1101.401367
 20
1559.136963
 30
0.0
 70
0
  0
VERTEX
  8
84
 10
1099.262695
 20
1568.707275
 30
0.0
 70
0
  0
VERTEX
  8
84
 10
1234.599609
 20
1623.052979
 30
0.0
 70
0
  0
VERTEX
  8
84
 10
1237.78186
 20
1618.823608
 30
0.0
 70
0
  0
VERTEX
  8
84
 10
1241.09375
 20
1614.697021
 30
0.0
 70
0
  0
VERTEX
  8
84
 10
1243.335571
 20
1612.156494
 30
0.0
 70
0
  0
VERTEX
  8
84
 10
1245.687134
 20
1609.718262
 30
0.0
 70
0
  0
VERTEX
  8
84
 10
1248.154297
 20
1607.397949
 30
0.0
 70
0
  0
VERTEX
  8
84
 10
1251.411133
 20
1604.662598
 30
0.0
 70
0
  0
VERTEX
  8
84
 10
1256.733398
 20
1600.74585
 30
0.0
 70
0
  0
VERTEX
  8
84
 10
1259.769897
 20
1598.780273
 30
0.0
 70
0
  0
VERTEX
  8
84
 10
1262.896851
 20
1596.965332
 30
0.0
 70
0
  0
VERTEX
  8
84
 10
1266.118164
 20
1595.327393
 30
0.0
 70
0
  0
VERTEX
  8
84
 10
1269.314087
 20
1593.932251
 30
0.0
 70
0
  0
VERTEX
  8
84
 10
1272.57959
 20
1592.705444
 30
0.0
 70
0
  0
VERTEX
  8
84
 10
1275.898438
 20
1591.623047
 30
0.0
 70
0
  0
VERTEX
  8
84
 10
1279.276001
 20
1590.65979
 30
0.0
 70
0
  0
VERTEX
  8
84
 10
1282.683228
 20
1589.818359
 30
0.0
 70
0
  0
VERTEX
  8
84
 10
1286.118164
 20
1589.095703
 30
0.0
 70
0
  0
VERTEX
  8
84
 10
1290.710693
 20
1588.31543
 30
0.0
 70
0
  0
VERTEX
  8
84
 10
1295.332031
 20
1587.729004
 30
0.0
 70
0
  0
VERTEX
  8
84
 10
1304.663086
 20
1587.026123
 30
0.0
 70
0
  0
VERTEX
  8
84
 10
1312.988281
 20
1586.707275
 30
0.0
 70
0
  0
VERTEX
  8
84
 10
1321.337891
 20
1586.623047
 30
0.0
 70
0
  0
VERTEX
  8
84
 10
1337.446289
 20
1586.552979
 30
0.0
 70
0
  0
VERTEX
  8
84
 10
1353.554688
 20
1586.623047
 30
0.0
 70
0
  0
VERTEX
  8
84
 10
1361.904297
 20
1586.707275
 30
0.0
 70
0
  0
VERTEX
  8
84
 10
1370.229492
 20
1587.026123
 30
0.0
 70
0
  0
VERTEX
  8
84
 10
1379.560547
 20
1587.729004
 30
0.0
 70
0
  0
VERTEX
  8
84
 10
1384.181885
 20
1588.31543
 30
0.0
 70
0
  0
VERTEX
  8
84
 10
1388.774414
 20
1589.095703
 30
0.0
 70
0
  0
VERTEX
  8
84
 10
1392.209351
 20
1589.818359
 30
0.0
 70
0
  0
VERTEX
  8
84
 10
1395.616577
 20
1590.659912
 30
0.0
 70
0
  0
VERTEX
  8
84
 10
1398.994141
 20
1591.623047
 30
0.0
 70
0
  0
VERTEX
  8
84
 10
1402.312988
 20
1592.705444
 30
0.0
 70
0
  0
VERTEX
  8
84
 10
1405.578491
 20
1593.932251
 30
0.0
 70
0
  0
VERTEX
  8
84
 10
1408.774414
 20
1595.327393
 30
0.0
 70
0
  0
VERTEX
  8
84
 10
1411.995728
 20
1596.965332
 30
0.0
 70
0
  0
VERTEX
  8
84
 10
1415.122681
 20
1598.780273
 30
0.0
 70
0
  0
VERTEX
  8
84
 10
1418.15918
 20
1600.74585
 30
0.0
 70
0
  0
VERTEX
  8
84
 10
1423.481445
 20
1604.662598
 30
0.0
 70
0
  0
VERTEX
  8
84
 10
1426.738281
 20
1607.397949
 30
0.0
 70
0
  0
VERTEX
  8
84
 10
1429.205444
 20
1609.718262
 30
0.0
 70
0
  0
VERTEX
  8
84
 10
1431.557007
 20
1612.156494
 30
0.0
 70
0
  0
VERTEX
  8
84
 10
1433.798828
 20
1614.697021
 30
0.0
 70
0
  0
VERTEX
  8
84
 10
1437.110718
 20
1618.823608
 30
0.0
 70
0
  0
VERTEX
  8
84
 10
1440.292969
 20
1623.052979
 30
0.0
 70
0
  0
VERTEX
  8
84
 10
1575.629883
 20
1568.707275
 30
0.0
 70
0
  0
VERTEX
  8
84
 10
1573.491211
 20
1559.136963
 30
0.0
 70
0
  0
VERTEX
  8
84
 10
1571.733398
 20
1549.506592
 30
0.0
 70
0
  0
VERTEX
  8
84
 10
1570.375977
 20
1539.804688
 30
0.0
 70
0
  0
VERTEX
  8
84
 10
1569.370117
 20
1530.057861
 30
0.0
 70
0
  0
VERTEX
  8
84
 10
1568.691406
 20
1520.285645
 30
0.0
 70
0
  0
VERTEX
  8
84
 10
1568.256836
 20
1510.496094
 30
0.0
 70
0
  0
VERTEX
  8
84
 10
1568.057617
 20
1503.966309
 30
0.0
 70
0
  0
VERTEX
  8
84
 10
1567.921143
 20
1497.437134
 30
0.0
 70
0
  0
VERTEX
  8
84
 10
1567.84668
 20
1490.904785
 30
0.0
 70
0
  0
VERTEX
  8
84
 10
1567.839722
 20
1482.922607
 30
0.0
 70
0
  0
VERTEX
  8
84
 10
1567.929688
 20
1474.941162
 30
0.0
 70
0
  0
VERTEX
  8
84
 10
1568.007812
 20
1471.310303
 30
0.0
 70
0
  0
VERTEX
  8
84
 10
1568.232422
 20
1464.945801
 30
0.0
 70
0
  0
VERTEX
  8
84
 10
1568.857422
 20
1451.732666
 30
0.0
 70
0
  0
VERTEX
  8
84
 10
1569.302734
 20
1441.944458
 30
0.0
 70
0
  0
VERTEX
  8
84
 10
1569.84375
 20
1432.161865
 30
0.0
 70
0
  0
VERTEX
  8
84
 10
1570.625
 20
1422.394775
 30
0.0
 70
0
  0
VERTEX
  8
84
 10
1571.655273
 20
1412.652588
 30
0.0
 70
0
  0
VERTEX
  8
84
 10
1572.96875
 20
1402.94165
 30
0.0
 70
0
  0
VERTEX
  8
84
 10
1574.614258
 20
1393.285156
 30
0.0
 70
0
  0
VERTEX
  8
84
 10
1576.611328
 20
1383.688232
 30
0.0
 70
0
  0
VERTEX
  8
84
 10
1577.785645
 20
1378.93457
 30
0.0
 70
0
  0
VERTEX
  8
84
 10
1579.086914
 20
1374.213379
 30
0.0
 70
0
  0
VERTEX
  8
84
 10
1580.52002
 20
1369.523071
 30
0.0
 70
0
  0
VERTEX
  8
84
 10
1582.109375
 20
1364.884033
 30
0.0
 70
0
  0
VERTEX
  8
84
 10
1583.876709
 20
1360.32251
 30
0.0
 70
0
  0
VERTEX
  8
84
 10
1585.830078
 20
1355.837158
 30
0.0
 70
0
  0
VERTEX
  8
84
 10
1587.983032
 20
1351.420654
 30
0.0
 70
0
  0
VERTEX
  8
84
 10
1590.351562
 20
1347.114502
 30
0.0
 70
0
  0
VERTEX
  8
84
 10
1592.054688
 20
1344.336548
 30
0.0
 70
0
  0
VERTEX
  8
84
 10
1593.880127
 20
1341.639648
 30
0.0
 70
0
  0
VERTEX
  8
84
 10
1595.844727
 20
1339.043457
 30
0.0
 70
0
  0
VERTEX
  8
84
 10
1597.961426
 20
1336.561279
 30
0.0
 70
0
  0
VERTEX
  8
84
 10
1600.212158
 20
1334.198486
 30
0.0
 70
0
  0
VERTEX
  8
84
 10
1602.578125
 20
1331.949219
 30
0.0
 70
0
  0
VERTEX
  8
84
 10
1605.046509
 20
1329.805054
 30
0.0
 70
0
  0
VERTEX
  8
84
 10
1607.602051
 20
1327.768311
 30
0.0
 70
0
  0
VERTEX
  8
84
 10
1610.239258
 20
1325.83374
 30
0.0
 70
0
  0
VERTEX
  8
84
 10
1612.924683
 20
1324.020386
 30
0.0
 70
0
  0
VERTEX
  8
84
 10
1615.683838
 20
1322.326172
 30
0.0
 70
0
  0
VERTEX
  8
84
 10
1618.520508
 20
1320.770752
 30
0.0
 70
0
  0
VERTEX
  8
84
 10
1622.986084
 20
1318.670166
 30
0.0
 70
0
  0
VERTEX
  8
84
 10
1627.543945
 20
1316.75647
 30
0.0
 70
0
  0
VERTEX
  8
84
 10
1607.446289
 20
904.490051
 30
0.0
 70
0
  0
VERTEX
  8
84
 10
1337.446289
 20
904.490051
 30
0.0
 70
0
  0
SEQEND
  8
0
  0
LINE
  8
7
 10
1337.446289
 20
1173.771484
 30
0.0
 11
1337.446289
 21
1353.771484
 31
0.0
  0
POLYLINE
  8
14
 66
1
 10
0.0
 20
0.0
 30
0.0
 70
1
  0
VERTEX
  8
14
 10
1337.446289
 20
904.490051
 30
0.0
 70
0
  0
VERTEX
  8
14
 10
1067.446289
 20
904.490051
 30
0.0
 70
0
  0
VERTEX
  8
14
 10
1047.348633
 20
1316.75647
 30
0.0
 70
0
  0
VERTEX
  8
14
 10
1056.37207
 20
1320.770752
 30
0.0
 70
0
  0
VERTEX
  8
14
 10
1064.65332
 20
1325.83374
 30
0.0
 70
0
  0
VERTEX
  8
14
 10
1072.314453
 20
1331.949219
 30
0.0
 70
0
  0
VERTEX
  8
14
 10
1079.047852
 20
1339.043457
 30
0.0
 70
0
  0
VERTEX
  8
14
 10
1084.541016
 20
1347.114502
 30
0.0
 70
0
  0
VERTEX
  8
14
 10
1089.0625
 20
1355.837158
 30
0.0
 70
0
  0
VERTEX
  8
14
 10
1092.783203
 20
1364.884033
 30
0.0
 70
0
  0
VERTEX
  8
14
 10
1095.805664
 20
1374.213379
 30
0.0
 70
0
  0
VERTEX
  8
14
 10
1098.28125
 20
1383.688232
 30
0.0
 70
0
  0
VERTEX
  8
14
 10
1100.27832
 20
1393.285156
 30
0.0
 70
0
  0
VERTEX
  8
14
 10
1101.923828
 20
1402.94165
 30
0.0
 70
0
  0
VERTEX
  8
14
 10
1103.237305
 20
1412.652588
 30
0.0
 70
0
  0
VERTEX
  8
14
 10
1104.267578
 20
1422.394775
 30
0.0
 70
0
  0
VERTEX
  8
14
 10
1105.048828
 20
1432.161865
 30
0.0
 70
0
  0
VERTEX
  8
14
 10
1106.035156
 20
1451.732666
 30
0.0
 70
0
  0
VERTEX
  8
14
 10
1106.660156
 20
1464.945801
 30
0.0
 70
0
  0
VERTEX
  8
14
 10
1106.884766
 20
1471.310303
 30
0.0
 70
0
  0
VERTEX
  8
14
 10
1106.962891
 20
1474.941162
 30
0.0
 70
0
  0
VERTEX
  8
14
 10
1107.045898
 20
1490.904785
 30
0.0
 70
0
  0
VERTEX
  8
14
 10
1106.635742
 20
1510.496094
 30
0.0
 70
0
  0
VERTEX
  8
14
 10
1106.201172
 20
1520.285645
 30
0.0
 70
0
  0
VERTEX
  8
14
 10
1105.522461
 20
1530.057861
 30
0.0
 70
0
  0
VERTEX
  8
14
 10
1104.516602
 20
1539.804688
 30
0.0
 70
0
  0
VERTEX
  8
14
 10
1103.15918
 20
1549.506592
 30
0.0
 70
0
  0
VERTEX
  8
14
 10
1101.401367
 20
1559.136963
 30
0.0
 70
0
  0
VERTEX
  8
14
 10
1099.262695
 20
1568.707275
 30
0.0
 70
0
  0
VERTEX
  8
14
 10
1234.599609
 20
1623.052979
 30
0.0
 70
0
  0
VERTEX
  8
14
 10
1241.09375
 20
1614.697021
 30
0.0
 70
0
  0
VERTEX
  8
14
 10
1248.154297
 20
1607.397949
 30
0.0
 70
0
  0
VERTEX
  8
14
 10
1251.411133
 20
1604.662598
 30
0.0
 70
0
  0
VERTEX
  8
14
 10
1256.733398
 20
1600.74585
 30
0.0
 70
0
  0
VERTEX
  8
14
 10
1266.118164
 20
1595.327393
 30
0.0
 70
0
  0
VERTEX
  8
14
 10
1275.898438
 20
1591.623047
 30
0.0
 70
0
  0
VERTEX
  8
14
 10
1286.118164
 20
1589.095703
 30
0.0
 70
0
  0
VERTEX
  8
14
 10
1295.332031
 20
1587.729004
 30
0.0
 70
0
  0
VERTEX
  8
14
 10
1304.663086
 20
1587.026123
 30
0.0
 70
0
  0
VERTEX
  8
14
 10
1312.988281
 20
1586.707275
 30
0.0
 70
0
  0
VERTEX
  8
14
 10
1321.337891
 20
1586.623047
 30
0.0
 70
0
  0
VERTEX
  8
14
 10
1337.446289
 20
1586.552979
 30
0.0
 70
0
  0
VERTEX
  8
14
 10
1353.554688
 20
1586.623047
 30
0.0
 70
0
  0
VERTEX
  8
14
 10
1361.904297
 20
1586.707275
 30
0.0
 70
0
  0
VERTEX
  8
14
 10
1370.229492
 20
1587.026123
 30
0.0
 70
0
  0
VERTEX
  8
14
 10
1379.560547
 20
1587.729004
 30
0.0
 70
0
  0
VERTEX
  8
14
 10
1388.774414
 20
1589.095703
 30
0.0
 70
0
  0
VERTEX
  8
14
 10
1398.994141
 20
1591.623047
 30
0.0
 70
0
  0
VERTEX
  8
14
 10
1408.774414
 20
1595.327393
 30
0.0
 70
0
  0
VERTEX
  8
14
 10
1418.15918
 20
1600.74585
 30
0.0
 70
0
  0
VERTEX
  8
14
 10
1423.481445
 20
1604.662598
 30
0.0
 70
0
  0
VERTEX
  8
14
 10
1426.738281
 20
1607.397949
 30
0.0
 70
0
  0
VERTEX
  8
14
 10
1433.798828
 20
1614.697021
 30
0.0
 70
0
  0
VERTEX
  8
14
 10
1440.292969
 20
1623.052979
 30
0.0
 70
0
  0
VERTEX
  8
14
 10
1575.629883
 20
1568.707275
 30
0.0
 70
0
  0
VERTEX
  8
14
 10
1573.491211
 20
1559.136963
 30
0.0
 70
0
  0
VERTEX
  8
14
 10
1571.733398
 20
1549.506592
 30
0.0
 70
0
  0
VERTEX
  8
14
 10
1570.375977
 20
1539.804688
 30
0.0
 70
0
  0
VERTEX
  8
14
 10
1569.370117
 20
1530.057861
 30
0.0
 70
0
  0
VERTEX
  8
14
 10
1568.691406
 20
1520.285645
 30
0.0
 70
0
  0
VERTEX
  8
14
 10
1568.256836
 20
1510.496094
 30
0.0
 70
0
  0
VERTEX
  8
14
 10
1567.84668
 20
1490.904785
 30
0.0
 70
0
  0
VERTEX
  8
14
 10
1567.929688
 20
1474.941162
 30
0.0
 70
0
  0
VERTEX
  8
14
 10
1568.007812
 20
1471.310303
 30
0.0
 70
0
  0
VERTEX
  8
14
 10
1568.232422
 20
1464.945801
 30
0.0
 70
0
  0
VERTEX
  8
14
 10
1568.857422
 20
1451.732666
 30
0.0
 70
0
  0
VERTEX
  8
14
 10
1569.84375
 20
1432.161865
 30
0.0
 70
0
  0
VERTEX
  8
14
 10
1570.625
 20
1422.394775
 30
0.0
 70
0
  0
VERTEX
  8
14
 10
1571.655273
 20
1412.652588
 30
0.0
 70
0
  0
VERTEX
  8
14
 10
1572.96875
 20
1402.94165
 30
0.0
 70
0
  0
VERTEX
  8
14
 10
1574.614258
 20
1393.285156
 30
0.0
 70
0
  0
VERTEX
  8
14
 10
1576.611328
 20
1383.688232
 30
0.0
 70
0
  0
VERTEX
  8
14
 10
1579.086914
 20
1374.213379
 30
0.0
 70
0
  0
VERTEX
  8
14
 10
1582.109375
 20
1364.884033
 30
0.0
 70
0
  0
VERTEX
  8
14
 10
1585.830078
 20
1355.837158
 30
0.0
 70
0
  0
VERTEX
  8
14
 10
1590.351562
 20
1347.114502
 30
0.0
 70
0
  0
VERTEX
  8
14
 10
1595.844727
 20
1339.043457
 30
0.0
 70
0
  0
VERTEX
  8
14
 10
1602.578125
 20
1331.949219
 30
0.0
 70
0
  0
VERTEX
  8
14
 10
1610.239258
 20
1325.83374
 30
0.0
 70
0
  0
VERTEX
  8
14
 10
1618.520508
 20
1320.770752
 30
0.0
 70
0
  0
VERTEX
  8
14
 10
1627.543945
 20
1316.75647
 30
0.0
 70
0
  0
VERTEX
  8
14
 10
1607.446289
 20
904.490051
 30
0.0
 70
0
  0
SEQEND
  8
0
  0
TEXT
  8
14
 10
1337.446289
 20
904.490051
 30
0.0
 40
0.25
  1
# -1
  7
STANDARD
  0
TEXT
  8
14
 10
1067.446289
 20
904.490051
 30
0.0
 40
0.25
  1
# -1
  7
STANDARD
  0
TEXT
  8
14
 10
1047.348633
 20
1316.75647
 30
0.0
 40
0.25
  1
# -1
  7
STANDARD
  0
TEXT
  8
14
 10
1056.37207
 20
1320.770752
 30
0.0
 40
0.25
  1
# -1
  7
STANDARD
  0
TEXT
  8
14
 10
1064.65332
 20
1325.83374
 30
0.0
 40
0.25
  1
# -1
  7
STANDARD
  0
TEXT
  8
14
 10
1072.314453
 20
1331.949219
 30
0.0
 40
0.25
  1
# -1
  7
STANDARD
  0
TEXT
  8
14
 10
1079.047852
 20
1339.043457
 30
0.0
 40
0.25
  1
# -1
  7
STANDARD
  0
TEXT
  8
14
 10
1084.541016
 20
1347.114502
 30
0.0
 40
0.25
  1
# -1
  7
STANDARD
  0
TEXT
  8
14
 10
1089.0625
 20
1355.837158
 30
0.0
 40
0.25
  1
# -1
  7
STANDARD
  0
TEXT
  8
14
 10
1092.783203
 20
1364.884033
 30
0.0
 40
0.25
  1
# -1
  7
STANDARD
  0
TEXT
  8
14
 10
1095.805664
 20
1374.213379
 30
0.0
 40
0.25
  1
# -1
  7
STANDARD
  0
TEXT
  8
14
 10
1098.28125
 20
1383.688232
 30
0.0
 40
0.25
  1
# -1
  7
STANDARD
  0
TEXT
  8
14
 10
1100.27832
 20
1393.285156
 30
0.0
 40
0.25
  1
# -1
  7
STANDARD
  0
TEXT
  8
14
 10
1101.923828
 20
1402.94165
 30
0.0
 40
0.25
  1
# -1
  7
STANDARD
  0
TEXT
  8
14
 10
1103.237305
 20
1412.652588
 30
0.0
 40
0.25
  1
# -1
  7
STANDARD
  0
TEXT
  8
14
 10
1104.267578
 20
1422.394775
 30
0.0
 40
0.25
  1
# -1
  7
STANDARD
  0
TEXT
  8
14
 10
1105.048828
 20
1432.161865
 30
0.0
 40
0.25
  1
# -1
  7
STANDARD
  0
TEXT
  8
14
 10
1106.035156
 20
1451.732666
 30
0.0
 40
0.25
  1
# -1
  7
STANDARD
  0
TEXT
  8
14
 10
1106.660156
 20
1464.945801
 30
0.0
 40
0.25
  1
# -1
  7
STANDARD
  0
TEXT
  8
14
 10
1106.884766
 20
1471.310303
 30
0.0
 40
0.25
  1
# -1
  7
STANDARD
  0
TEXT
  8
14
 10
1106.962891
 20
1474.941162
 30
0.0
 40
0.25
  1
# -1
  7
STANDARD
  0
TEXT
  8
14
 10
1107.045898
 20
1490.904785
 30
0.0
 40
0.25
  1
# -1
  7
STANDARD
  0
TEXT
  8
14
 10
1106.635742
 20
1510.496094
 30
0.0
 40
0.25
  1
# -1
  7
STANDARD
  0
TEXT
  8
14
 10
1106.201172
 20
1520.285645
 30
0.0
 40
0.25
  1
# -1
  7
STANDARD
  0
TEXT
  8
14
 10
1105.522461
 20
1530.057861
 30
0.0
 40
0.25
  1
# -1
  7
STANDARD
  0
TEXT
  8
14
 10
1104.516602
 20
1539.804688
 30
0.0
 40
0.25
  1
# -1
  7
STANDARD
  0
TEXT
  8
14
 10
1103.15918
 20
1549.506592
 30
0.0
 40
0.25
  1
# -1
  7
STANDARD
  0
TEXT
  8
14
 10
1101.401367
 20
1559.136963
 30
0.0
 40
0.25
  1
# -1
  7
STANDARD
  0
TEXT
  8
14
 10
1099.262695
 20
1568.707275
 30
0.0
 40
0.25
  1
# -1
  7
STANDARD
  0
TEXT
  8
14
 10
1234.599609
 20
1623.052979
 30
0.0
 40
0.25
  1
# -1
  7
STANDARD
  0
TEXT
  8
14
 10
1241.09375
 20
1614.697021
 30
0.0
 40
0.25
  1
# -1
  7
STANDARD
  0
TEXT
  8
14
 10
1248.154297
 20
1607.397949
 30
0.0
 40
0.25
  1
# -1
  7
STANDARD
  0
TEXT
  8
14
 10
1251.411133
 20
1604.662598
 30
0.0
 40
0.25
  1
# -1
  7
STANDARD
  0
TEXT
  8
14
 10
1256.733398
 20
1600.74585
 30
0.0
 40
0.25
  1
# -1
  7
STANDARD
  0
TEXT
  8
14
 10
1266.118164
 20
1595.327393
 30
0.0
 40
0.25
  1
# -1
  7
STANDARD
  0
TEXT
  8
14
 10
1275.898438
 20
1591.623047
 30
0.0
 40
0.25
  1
# -1
  7
STANDARD
  0
TEXT
  8
14
 10
1286.118164
 20
1589.095703
 30
0.0
 40
0.25
  1
# -1
  7
STANDARD
  0
TEXT
  8
14
 10
1295.332031
 20
1587.729004
 30
0.0
 40
0.25
  1
# -1
  7
STANDARD
  0
TEXT
  8
14
 10
1304.663086
 20
1587.026123
 30
0.0
 40
0.25
  1
# -1
  7
STANDARD
  0
TEXT
  8
14
 10
1312.988281
 20
1586.707275
 30
0.0
 40
0.25
  1
# -1
  7
STANDARD
  0
TEXT
  8
14
 10
1321.337891
 20
1586.623047
 30
0.0
 40
0.25
  1
# -1
  7
STANDARD
  0
TEXT
  8
14
 10
1337.446289
 20
1586.552979
 30
0.0
 40
0.25
  1
# -1
  7
STANDARD
  0
TEXT
  8
14
 10
1353.554688
 20
1586.623047
 30
0.0
 40
0.25
  1
# -1
  7
STANDARD
  0
TEXT
  8
14
 10
1361.904297
 20
1586.707275
 30
0.0
 40
0.25
  1
# -1
  7
STANDARD
  0
TEXT
  8
14
 10
1370.229492
 20
1587.026123
 30
0.0
 40
0.25
  1
# -1
  7
STANDARD
  0
TEXT
  8
14
 10
1379.560547
 20
1587.729004
 30
0.0
 40
0.25
  1
# -1
  7
STANDARD
  0
TEXT
  8
14
 10
1388.774414
 20
1589.095703
 30
0.0
 40
0.25
  1
# -1
  7
STANDARD
  0
TEXT
  8
14
 10
1398.994141
 20
1591.623047
 30
0.0
 40
0.25
  1
# -1
  7
STANDARD
  0
TEXT
  8
14
 10
1408.774414
 20
1595.327393
 30
0.0
 40
0.25
  1
# -1
  7
STANDARD
  0
TEXT
  8
14
 10
1418.15918
 20
1600.74585
 30
0.0
 40
0.25
  1
# -1
  7
STANDARD
  0
TEXT
  8
14
 10
1423.481445
 20
1604.662598
 30
0.0
 40
0.25
  1
# -1
  7
STANDARD
  0
TEXT
  8
14
 10
1426.738281
 20
1607.397949
 30
0.0
 40
0.25
  1
# -1
  7
STANDARD
  0
TEXT
  8
14
 10
1433.798828
 20
1614.697021
 30
0.0
 40
0.25
  1
# -1
  7
STANDARD
  0
TEXT
  8
14
 10
1440.292969
 20
1623.052979
 30
0.0
 40
0.25
  1
# -1
  7
STANDARD
  0
TEXT
  8
14
 10
1575.629883
 20
1568.707275
 30
0.0
 40
0.25
  1
# -1
  7
STANDARD
  0
TEXT
  8
14
 10
1573.491211
 20
1559.136963
 30
0.0
 40
0.25
  1
# -1
  7
STANDARD
  0
TEXT
  8
14
 10
1571.733398
 20
1549.506592
 30
0.0
 40
0.25
  1
# -1
  7
STANDARD
  0
TEXT
  8
14
 10
1570.375977
 20
1539.804688
 30
0.0
 40
0.25
  1
# -1
  7
STANDARD
  0
TEXT
  8
14
 10
1569.370117
 20
1530.057861
 30
0.0
 40
0.25
  1
# -1
  7
STANDARD
  0
TEXT
  8
14
 10
1568.691406
 20
1520.285645
 30
0.0
 40
0.25
  1
# -1
  7
STANDARD
  0
TEXT
  8
14
 10
1568.256836
 20
1510.496094
 30
0.0
 40
0.25
  1
# -1
  7
STANDARD
  0
TEXT
  8
14
 10
1567.84668
 20
1490.904785
 30
0.0
 40
0.25
  1
# -1
  7
STANDARD
  0
TEXT
  8
14
 10
1567.929688
 20
1474.941162
 30
0.0
 40
0.25
  1
# -1
  7
STANDARD
  0
TEXT
  8
14
 10
1568.007812
 20
1471.310303
 30
0.0
 40
0.25
  1
# -1
  7
STANDARD
  0
TEXT
  8
14
 10
1568.232422
 20
1464.945801
 30
0.0
 40
0.25
  1
# -1
  7
STANDARD
  0
TEXT
  8
14
 10
1568.857422
 20
1451.732666
 30
0.0
 40
0.25
  1
# -1
  7
STANDARD
  0
TEXT
  8
14
 10
1569.84375
 20
1432.161865
 30
0.0
 40
0.25
  1
# -1
  7
STANDARD
  0
TEXT
  8
14
 10
1570.625
 20
1422.394775
 30
0.0
 40
0.25
  1
# -1
  7
STANDARD
  0
TEXT
  8
14
 10
1571.655273
 20
1412.652588
 30
0.0
 40
0.25
  1
# -1
  7
STANDARD
  0
TEXT
  8
14
 10
1572.96875
 20
1402.94165
 30
0.0
 40
0.25
  1
# -1
  7
STANDARD
  0
TEXT
  8
14
 10
1574.614258
 20
1393.285156
 30
0.0
 40
0.25
  1
# -1
  7
STANDARD
  0
TEXT
  8
14
 10
1576.611328
 20
1383.688232
 30
0.0
 40
0.25
  1
# -1
  7
STANDARD
  0
TEXT
  8
14
 10
1579.086914
 20
1374.213379
 30
0.0
 40
0.25
  1
# -1
  7
STANDARD
  0
TEXT
  8
14
 10
1582.109375
 20
1364.884033
 30
0.0
 40
0.25
  1
# -1
  7
STANDARD
  0
TEXT
  8
14
 10
1585.830078
 20
1355.837158
 30
0.0
 40
0.25
  1
# -1
  7
STANDARD
  0
TEXT
  8
14
 10
1590.351562
 20
1347.114502
 30
0.0
 40
0.25
  1
# -1
  7
STANDARD
  0
TEXT
  8
14
 10
1595.844727
 20
1339.043457
 30
0.0
 40
0.25
  1
# -1
  7
STANDARD
  0
TEXT
  8
14
 10
1602.578125
 20
1331.949219
 30
0.0
 40
0.25
  1
# -1
  7
STANDARD
  0
TEXT
  8
14
 10
1610.239258
 20
1325.83374
 30
0.0
 40
0.25
  1
# -1
  7
STANDARD
  0
TEXT
  8
14
 10
1618.520508
 20
1320.770752
 30
0.0
 40
0.25
  1
# -1
  7
STANDARD
  0
TEXT
  8
14
 10
1627.543945
 20
1316.75647
 30
0.0
 40
0.25
  1
# -1
  7
STANDARD
  0
TEXT
  8
14
 10
1607.446289
 20
904.490051
 30
0.0
 40
0.25
  1
# -1
  7
STANDARD
  0
POINT
  8
2
 10
1337.446289
 20
904.490051
 30
0.0
  0
POINT
  8
2
 10
1067.446289
 20
904.490051
 30
0.0
  0
POINT
  8
2
 10
1047.348633
 20
1316.75647
 30
0.0
  0
POINT
  8
2
 10
1099.262695
 20
1568.707275
 30
0.0
  0
POINT
  8
2
 10
1234.599609
 20
1623.052979
 30
0.0
  0
POINT
  8
2
 10
1337.446289
 20
1586.552979
 30
0.0
  0
POINT
  8
2
 10
1440.292969
 20
1623.052979
 30
0.0
  0
POINT
  8
2
 10
1575.629883
 20
1568.707275
 30
0.0
  0
POINT
  8
2
 10
1627.543945
 20
1316.75647
 30
0.0
  0
POINT
  8
2
 10
1607.446289
 20
904.490051
 30
0.0
  0
POINT
  8
3
 10
1056.37207
 20
1320.770752
 30
0.0
  0
POINT
  8
3
 10
1064.65332
 20
1325.83374
 30
0.0
  0
POINT
  8
3
 10
1072.314453
 20
1331.949219
 30
0.0
  0
POINT
  8
3
 10
1079.047852
 20
1339.043457
 30
0.0
  0
POINT
  8
3
 10
1084.541016
 20
1347.114502
 30
0.0
  0
POINT
  8
3
 10
1089.0625
 20
1355.837158
 30
0.0
  0
POINT
  8
3
 10
1092.783203
 20
1364.884033
 30
0.0
  0
POINT
  8
3
 10
1095.805664
 20
1374.213379
 30
0.0
  0
POINT
  8
3
 10
1098.28125
 20
1383.688232
 30
0.0
  0
POINT
  8
3
 10
1100.27832
 20
1393.285156
 30
0.0
  0
POINT
  8
3
 10
1101.923828
 20
1402.94165
 30
0.0
  0
POINT
  8
3
 10
1103.237305
 20
1412.652588
 30
0.0
  0
POINT
  8
3
 10
1104.267578
 20
1422.394775
 30
0.0
  0
POINT
  8
3
 10
1105.048828
 20
1432.161865
 30
0.0
  0
POINT
  8
3
 10
1106.035156
 20
1451.732666
 30
0.0
  0
POINT
  8
3
 10
1106.660156
 20
1464.945801
 30
0.0
  0
POINT
  8
3
 10
1106.884766
 20
1471.310303
 30
0.0
  0
POINT
  8
3
 10
1106.962891
 20
1474.941162
 30
0.0
  0
POINT
  8
3
 10
1107.045898
 20
1490.904785
 30
0.0
  0
POINT
  8
3
 10
1106.635742
 20
1510.496094
 30
0.0
  0
POINT
  8
3
 10
1106.201172
 20
1520.285645
 30
0.0
  0
POINT
  8
3
 10
1105.522461
 20
1530.057861
 30
0.0
  0
POINT
  8
3
 10
1104.516602
 20
1539.804688
 30
0.0
  0
POINT
  8
3
 10
1103.15918
 20
1549.506592
 30
0.0
  0
POINT
  8
3
 10
1101.401367
 20
1559.136963
 30
0.0
  0
POINT
  8
3
 10
1241.09375
 20
1614.697021
 30
0.0
  0
POINT
  8
3
 10
1248.154297
 20
1607.397949
 30
0.0
  0
POINT
  8
3
 10
1251.411133
 20
1604.662598
 30
0.0
  0
POINT
  8
3
 10
1256.733398
 20
1600.74585
 30
0.0
  0
POINT
  8
3
 10
1266.118164
 20
1595.327393
 30
0.0
  0
POINT
  8
3
 10
1275.898438
 20
1591.623047
 30
0.0
  0
POINT
  8
3
 10
1286.118164
 20
1589.095703
 30
0.0
  0
POINT
  8
3
 10
1295.332031
 20
1587.729004
 30
0.0
  0
POINT
  8
3
 10
1304.663086
 20
1587.026123
 30
0.0
  0
POINT
  8
3
 10
1312.988281
 20
1586.707275
 30
0.0
  0
POINT
  8
3
 10
1321.337891
 20
1586.623047
 30
0.0
  0
POINT
  8
3
 10
1353.554688
 20
1586.623047
 30
0.0
  0
POINT
  8
3
 10
1361.904297
 20
1586.707275
 30
0.0
  0
POINT
  8
3
 10
1370.229492
 20
1587.026123
 30
0.0
  0
POINT
  8
3
 10
1379.560547
 20
1587.729004
 30
0.0
  0
POINT
  8
3
 10
1388.774414
 20
1589.095703
 30
0.0
  0
POINT
  8
3
 10
1398.994141
 20
1591.623047
 30
0.0
  0
POINT
  8
3
 10
1408.774414
 20
1595.327393
 30
0.0
  0
POINT
  8
3
 10
1418.15918
 20
1600.74585
 30
0.0
  0
POINT
  8
3
 10
1423.481445
 20
1604.662598
 30
0.0
  0
POINT
  8
3
 10
1426.738281
 20
1607.397949
 30
0.0
  0
POINT
  8
3
 10
1433.798828
 20
1614.697021
 30
0.0
  0
POINT
  8
3
 10
1573.491211
 20
1559.136963
 30
0.0
  0
POINT
  8
3
 10
1571.733398
 20
1549.506592
 30
0.0
  0
POINT
  8
3
 10
1570.375977
 20
1539.804688
 30
0.0
  0
POINT
  8
3
 10
1569.370117
 20
1530.057861
 30
0.0
  0
POINT
  8
3
 10
1568.691406
 20
1520.285645
 30
0.0
  0
POINT
  8
3
 10
1568.256836
 20
1510.496094
 30
0.0
  0
POINT
  8
3
 10
1567.84668
 20
1490.904785
 30
0.0
  0
POINT
  8
3
 10
1567.929688
 20
1474.941162
 30
0.0
  0
POINT
  8
3
 10
1568.007812
 20
1471.310303
 30
0.0
  0
POINT
  8
3
 10
1568.232422
 20
1464.945801
 30
0.0
  0
POINT
  8
3
 10
1568.857422
 20
1451.732666
 30
0.0
  0
POINT
  8
3
 10
1569.84375
 20
1432.161865
 30
0.0
  0
POINT
  8
3
 10
1570.625
 20
1422.394775
 30
0.0
  0
POINT
  8
3
 10
1571.655273
 20
1412.652588
 30
0.0
  0
POINT
  8
3
 10
1572.96875
 20
1402.94165
 30
0.0
  0
POINT
  8
3
 10
1574.614258
 20
1393.285156
 30
0.0
  0
POINT
  8
3
 10
1576.611328
 20
1383.688232
 30
0.0
  0
POINT
  8
3
 10
1579.086914
 20
1374.213379
 30
0.0
  0
POINT
  8
3
 10
1582.109375
 20
1364.884033
 30
0.0
  0
POINT
  8
3
 10
1585.830078
 20
1355.837158
 30
0.0
  0
POINT
  8
3
 10
1590.351562
 20
1347.114502
 30
0.0
  0
POINT
  8
3
 10
1595.844727
 20
1339.043457
 30
0.0
  0
POINT
  8
3
 10
1602.578125
 20
1331.949219
 30
0.0
  0
POINT
  8
3
 10
1610.239258
 20
1325.83374
 30
0.0
  0
POINT
  8
3
 10
1618.520508
 20
1320.770752
 30
0.0
  0
POINT
  8
4
 10
1106.660156
 20
1464.945679
 30
7.0
 50
357.768402
  0
POINT
  8
4
 10
1106.962891
 20
1474.941162
 30
7.0
 50
358.552063
  0
POINT
  8
4
 10
1567.929688
 20
1474.941162
 30
7.0
 50
180.356079
  0
POINT
  8
4
 10
1568.232422
 20
1464.945801
 30
7.0
 50
181.594711
  0
POLYLINE
  8
87
 66
1
 10
0.0
 20
0.0
 30
0.0
 70
1
  0
VERTEX
  8
87
 10
1067.446289
 20
904.490051
 30
0.0
 70
0
  0
VERTEX
  8
87
 10
1047.348633
 20
1316.75647
 30
0.0
 70
0
  0
VERTEX
  8
87
 10
1051.906494
 20
1318.670166
 30
0.0
 70
0
  0
VERTEX
  8
87
 10
1056.37207
 20
1320.770752
 30
0.0
 70
0
  0
VERTEX
  8
87
 10
1059.20874
 20
1322.326172
 30
0.0
 70
0
  0
VERTEX
  8
87
 10
1061.967896
 20
1324.020386
 30
0.0
 70
0
  0
VERTEX
  8
87
 10
1064.65332
 20
1325.83374
 30
0.0
 70
0
  0
VERTEX
  8
87
 10
1067.290527
 20
1327.768311
 30
0.0
 70
0
  0
VERTEX
  8
87
 10
1069.846069
 20
1329.805054
 30
0.0
 70
0
  0
VERTEX
  8
87
 10
1072.314453
 20
1331.949219
 30
0.0
 70
0
  0
VERTEX
  8
87
 10
1074.68042
 20
1334.198486
 30
0.0
 70
0
  0
VERTEX
  8
87
 10
1076.931152
 20
1336.561279
 30
0.0
 70
0
  0
VERTEX
  8
87
 10
1079.047852
 20
1339.043457
 30
0.0
 70
0
  0
VERTEX
  8
87
 10
1081.012451
 20
1341.639648
 30
0.0
 70
0
  0
VERTEX
  8
87
 10
1082.837891
 20
1344.336548
 30
0.0
 70
0
  0
VERTEX
  8
87
 10
1084.541016
 20
1347.114502
 30
0.0
 70
0
  0
VERTEX
  8
87
 10
1086.909546
 20
1351.420654
 30
0.0
 70
0
  0
VERTEX
  8
87
 10
1089.0625
 20
1355.837158
 30
0.0
 70
0
  0
VERTEX
  8
87
 10
1091.015869
 20
1360.32251
 30
0.0
 70
0
  0
VERTEX
  8
87
 10
1092.783203
 20
1364.884033
 30
0.0
 70
0
  0
VERTEX
  8
87
 10
1094.372559
 20
1369.523071
 30
0.0
 70
0
  0
VERTEX
  8
87
 10
1095.805664
 20
1374.213379
 30
0.0
 70
0
  0
VERTEX
  8
87
 10
1097.106934
 20
1378.93457
 30
0.0
 70
0
  0
VERTEX
  8
87
 10
1098.28125
 20
1383.688232
 30
0.0
 70
0
  0
VERTEX
  8
87
 10
1100.27832
 20
1393.285156
 30
0.0
 70
0
  0
VERTEX
  8
87
 10
1101.923828
 20
1402.94165
 30
0.0
 70
0
  0
VERTEX
  8
87
 10
1103.237305
 20
1412.652588
 30
0.0
 70
0
  0
VERTEX
  8
87
 10
1104.267578
 20
1422.394775
 30
0.0
 70
0
  0
VERTEX
  8
87
 10
1105.048828
 20
1432.161865
 30
0.0
 70
0
  0
VERTEX
  8
87
 10
1105.589844
 20
1441.944458
 30
0.0
 70
0
  0
VERTEX
  8
87
 10
1106.035156
 20
1451.732666
 30
0.0
 70
0
  0
VERTEX
  8
87
 10
1106.660156
 20
1464.945801
 30
0.0
 70
0
  0
VERTEX
  8
87
 10
1106.884766
 20
1471.310303
 30
0.0
 70
0
  0
VERTEX
  8
87
 10
1106.962891
 20
1474.941162
 30
0.0
 70
0
  0
VERTEX
  8
87
 10
1107.052856
 20
1482.922607
 30
0.0
 70
0
  0
VERTEX
  8
87
 10
1107.045898
 20
1490.904785
 30
0.0
 70
0
  0
VERTEX
  8
87
 10
1106.971436
 20
1497.437134
 30
0.0
 70
0
  0
VERTEX
  8
87
 10
1106.834961
 20
1503.966309
 30
0.0
 70
0
  0
VERTEX
  8
87
 10
1106.635742
 20
1510.496094
 30
0.0
 70
0
  0
VERTEX
  8
87
 10
1106.201172
 20
1520.285645
 30
0.0
 70
0
  0
VERTEX
  8
87
 10
1105.522461
 20
1530.057861
 30
0.0
 70
0
  0
VERTEX
  8
87
 10
1104.516602
 20
1539.804688
 30
0.0
 70
0
  0
VERTEX
  8
87
 10
1103.15918
 20
1549.506592
 30
0.0
 70
0
  0
VERTEX
  8
87
 10
1101.401367
 20
1559.136963
 30
0.0
 70
0
  0
VERTEX
  8
87
 10
1099.262695
 20
1568.707275
 30
0.0
 70
0
  0
VERTEX
  8
87
 10
1234.599609
 20
1623.052979
 30
0.0
 70
0
  0
VERTEX
  8
87
 10
1237.78186
 20
1618.823608
 30
0.0
 70
0
  0
VERTEX
  8
87
 10
1241.09375
 20
1614.697021
 30
0.0
 70
0
  0
VERTEX
  8
87
 10
1243.335571
 20
1612.156494
 30
0.0
 70
0
  0
VERTEX
  8
87
 10
1245.687134
 20
1609.718262
 30
0.0
 70
0
  0
VERTEX
  8
87
 10
1248.154297
 20
1607.397949
 30
0.0
 70
0
  0
VERTEX
  8
87
 10
1251.411133
 20
1604.662598
 30
0.0
 70
0
  0
VERTEX
  8
87
 10
1256.733398
 20
1600.74585
 30
0.0
 70
0
  0
VERTEX
  8
87
 10
1259.769897
 20
1598.780273
 30
0.0
 70
0
  0
VERTEX
  8
87
 10
1262.896851
 20
1596.965332
 30
0.0
 70
0
  0
VERTEX
  8
87
 10
1266.118164
 20
1595.327393
 30
0.0
 70
0
  0
VERTEX
  8
87
 10
1269.314087
 20
1593.932251
 30
0.0
 70
0
  0
VERTEX
  8
87
 10
1272.57959
 20
1592.705444
 30
0.0
 70
0
  0
VERTEX
  8
87
 10
1275.898438
 20
1591.623047
 30
0.0
 70
0
  0
VERTEX
  8
87
 10
1279.276001
 20
1590.65979
 30
0.0
 70
0
  0
VERTEX
  8
87
 10
1282.683228
 20
1589.818359
 30
0.0
 70
0
  0
VERTEX
  8
87
 10
1286.118164
 20
1589.095703
 30
0.0
 70
0
  0
VERTEX
  8
87
 10
1290.710693
 20
1588.31543
 30
0.0
 70
0
  0
VERTEX
  8
87
 10
1295.332031
 20
1587.729004
 30
0.0
 70
0
  0
VERTEX
  8
87
 10
1304.663086
 20
1587.026123
 30
0.0
 70
0
  0
VERTEX
  8
87
 10
1312.988281
 20
1586.707275
 30
0.0
 70
0
  0
VERTEX
  8
87
 10
1321.337891
 20
1586.623047
 30
0.0
 70
0
  0
VERTEX
  8
87
 10
1337.446289
 20
1586.552979
 30
0.0
 70
0
  0
VERTEX
  8
87
 10
1353.554688
 20
1586.623047
 30
0.0
 70
0
  0
VERTEX
  8
87
 10
1361.904297
 20
1586.707275
 30
0.0
 70
0
  0
VERTEX
  8
87
 10
1370.229492
 20
1587.026123
 30
0.0
 70
0
  0
VERTEX
  8
87
 10
1379.560547
 20
1587.729004
 30
0.0
 70
0
  0
VERTEX
  8
87
 10
1384.181885
 20
1588.31543
 30
0.0
 70
0
  0
VERTEX
  8
87
 10
1388.774414
 20
1589.095703
 30
0.0
 70
0
  0
VERTEX
  8
87
 10
1392.209351
 20
1589.818359
 30
0.0
 70
0
  0
VERTEX
  8
87
 10
1395.616577
 20
1590.659912
 30
0.0
 70
0
  0
VERTEX
  8
87
 10
1398.994141
 20
1591.623047
 30
0.0
 70
0
  0
VERTEX
  8
87
 10
1402.312988
 20
1592.705444
 30
0.0
 70
0
  0
VERTEX
  8
87
 10
1405.578491
 20
1593.932251
 30
0.0
 70
0
  0
VERTEX
  8
87
 10
1408.774414
 20
1595.327393
 30
0.0
 70
0
  0
VERTEX
  8
87
 10
1411.995728
 20
1596.965332
 30
0.0
 70
0
  0
VERTEX
  8
87
 10
1415.122681
 20
1598.780273
 30
0.0
 70
0
  0
VERTEX
  8
87
 10
1418.15918
 20
1600.74585
 30
0.0
 70
0
  0
VERTEX
  8
87
 10
1423.481445
 20
1604.662598
 30
0.0
 70
0
  0
VERTEX
  8
87
 10
1426.738281
 20
1607.397949
 30
0.0
 70
0
  0
VERTEX
  8
87
 10
1429.205444
 20
1609.718262
 30
0.0
 70
0
  0
VERTEX
  8
87
 10
1431.557007
 20
1612.156494
 30
0.0
 70
0
  0
VERTEX
  8
87
 10
1433.798828
 20
1614.697021
 30
0.0
 70
0
  0
VERTEX
  8
87
 10
1437.110718
 20
1618.823608
 30
0.0
 70
0
  0
VERTEX
  8
87
 10
1440.292969
 20
1623.052979
 30
0.0
 70
0
  0
VERTEX
  8
87
 10
1575.629883
 20
1568.707275
 30
0.0
 70
0
  0
VERTEX
  8
87
 10
1573.491211
 20
1559.136963
 30
0.0
 70
0
  0
VERTEX
  8
87
 10
1571.733398
 20
1549.506592
 30
0.0
 70
0
  0
VERTEX
  8
87
 10
1570.375977
 20
1539.804688
 30
0.0
 70
0
  0
VERTEX
  8
87
 10
1569.370117
 20
1530.057861
 30
0.0
 70
0
  0
VERTEX
  8
87
 10
1568.691406
 20
1520.285645
 30
0.0
 70
0
  0
VERTEX
  8
87
 10
1568.256836
 20
1510.496094
 30
0.0
 70
0
  0
VERTEX
  8
87
 10
1568.057617
 20
1503.966309
 30
0.0
 70
0
  0
VERTEX
  8
87
 10
1567.921143
 20
1497.437134
 30
0.0
 70
0
  0
VERTEX
  8
87
 10
1567.84668
 20
1490.904785
 30
0.0
 70
0
  0
VERTEX
  8
87
 10
1567.839722
 20
1482.922607
 30
0.0
 70
0
  0
VERTEX
  8
87
 10
1567.929688
 20
1474.941162
 30
0.0
 70
0
  0
VERTEX
  8
87
 10
1568.007812
 20
1471.310303
 30
0.0
 70
0
  0
VERTEX
  8
87
 10
1568.232422
 20
1464.945801
 30
0.0
 70
0
  0
VERTEX
  8
87
 10
1568.857422
 20
1451.732666
 30
0.0
 70
0
  0
VERTEX
  8
87
 10
1569.302734
 20
1441.944458
 30
0.0
 70
0
  0
VERTEX
  8
87
 10
1569.84375
 20
1432.161865
 30
0.0
 70
0
  0
VERTEX
  8
87
 10
1570.625
 20
1422.394775
 30
0.0
 70
0
  0
VERTEX
  8
87
 10
1571.655273
 20
1412.652588
 30
0.0
 70
0
  0
VERTEX
  8
87
 10
1572.96875
 20
1402.94165
 30
0.0
 70
0
  0
VERTEX
  8
87
 10
1574.614258
 20
1393.285156
 30
0.0
 70
0
  0
VERTEX
  8
87
 10
1576.611328
 20
1383.688232
 30
0.0
 70
0
  0
VERTEX
  8
87
 10
1577.785645
 20
1378.93457
 30
0.0
 70
0
  0
VERTEX
  8
87
 10
1579.086914
 20
1374.213379
 30
0.0
 70
0
  0
VERTEX
  8
87
 10
1580.52002
 20
1369.523071
 30
0.0
 70
0
  0
VERTEX
  8
87
 10
1582.109375
 20
1364.884033
 30
0.0
 70
0
  0
VERTEX
  8
87
 10
1583.876709
 20
1360.32251
 30
0.0
 70
0
  0
VERTEX
  8
87
 10
1585.830078
 20
1355.837158
 30
0.0
 70
0
  0
VERTEX
  8
87
 10
1587.983032
 20
1351.420654
 30
0.0
 70
0
  0
VERTEX
  8
87
 10
1590.351562
 20
1347.114502
 30
0.0
 70
0
  0
VERTEX
  8
87
 10
1592.054688
 20
1344.336548
 30
0.0
 70
0
  0
VERTEX
  8
87
 10
1593.880127
 20
1341.639648
 30
0.0
 70
0
  0
VERTEX
  8
87
 10
1595.844727
 20
1339.043457
 30
0.0
 70
0
  0
VERTEX
  8
87
 10
1597.961426
 20
1336.561279
 30
0.0
 70
0
  0
VERTEX
  8
87
 10
1600.212158
 20
1334.198486
 30
0.0
 70
0
  0
VERTEX
  8
87
 10
1602.578125
 20
1331.949219
 30
0.0
 70
0
  0
VERTEX
  8
87
 10
1605.046509
 20
1329.805054
 30
0.0
 70
0
  0
VERTEX
  8
87
 10
1607.602051
 20
1327.768311
 30
0.0
 70
0
  0
VERTEX
  8
87
 10
1610.239258
 20
1325.83374
 30
0.0
 70
0
  0
VERTEX
  8
87
 10
1612.924683
 20
1324.020386
 30
0.0
 70
0
  0
VERTEX
  8
87
 10
1615.683838
 20
1322.326172
 30
0.0
 70
0
  0
VERTEX
  8
87
 10
1618.520508
 20
1320.770752
 30
0.0
 70
0
  0
VERTEX
  8
87
 10
1622.986084
 20
1318.670166
 30
0.0
 70
0
  0
VERTEX
  8
87
 10
1627.543945
 20
1316.75647
 30
0.0
 70
0
  0
VERTEX
  8
87
 10
1607.446289
 20
904.490051
 30
0.0
 70
0
  0
VERTEX
  8
87
 10
1337.446289
 20
904.490051
 30
0.0
 70
0
  0
SEQEND
  8
0
  0
POLYLINE
  8
8
 66
1
 10
0.0
 20
0.0
 30
0.0
 70
0
  0
VERTEX
  8
8
 10
1337.446289
 20
924.490051
 30
0.0
 70
0
  0
VERTEX
  8
8
 10
1066.470703
 20
924.506287
 30
0.0
 70
0
  0
SEQEND
  8
0
  0
TEXT
  8
8
 10
1337.446289
 20
924.490051
 30
0.0
 40
0.25
  1
# 25
  7
STANDARD
  0
TEXT
  8
8
 10
1066.470703
 20
924.506287
 30
0.0
 40
0.25
  1
# 26
  7
STANDARD
  0
POINT
  8
2
 10
1337.446289
 20
924.490051
 30
0.0
  0
POINT
  8
2
 10
1066.470703
 20
924.506287
 30
0.0
  0
POLYLINE
  8
85
 66
1
 10
0.0
 20
0.0
 30
0.0
 70
0
  0
VERTEX
  8
85
 10
1066.470703
 20
924.506287
 30
0.0
 70
0
  0
SEQEND
  8
0
  0
POLYLINE
  8
8
 66
1
 10
0.0
 20
0.0
 30
0.0
 70
0
  0
VERTEX
  8
8
 10
1337.446289
 20
919.490051
 30
0.0
 70
0
  0
VERTEX
  8
8
 10
1066.713379
 20
919.526672
 30
0.0
 70
0
  0
SEQEND
  8
0
  0
TEXT
  8
8
 10
1337.446289
 20
919.490051
 30
0.0
 40
0.25
  1
# 27
  7
STANDARD
  0
TEXT
  8
8
 10
1066.713379
 20
919.526672
 30
0.0
 40
0.25
  1
# 28
  7
STANDARD
  0
POINT
  8
2
 10
1337.446289
 20
919.490051
 30
0.0
  0
POINT
  8
2
 10
1066.713379
 20
919.526672
 30
0.0
  0
POLYLINE
  8
85
 66
1
 10
0.0
 20
0.0
 30
0.0
 70
0
  0
VERTEX
  8
85
 10
1066.713379
 20
919.526672
 30
0.0
 70
0
  0
SEQEND
  8
0
  0
POLYLINE
  8
8
 66
1
 10
0.0
 20
0.0
 30
0.0
 70
0
  0
VERTEX
  8
8
 10
1047.348877
 20
1316.756348
 30
0.0
 70
0
  0
VERTEX
  8
8
 10
1337.446289
 20
1316.756592
 30
0.0
 70
0
  0
SEQEND
  8
0
  0
TEXT
  8
8
 10
1047.348877
 20
1316.756348
 30
0.0
 40
0.25
  1
# 16
  7
STANDARD
  0
TEXT
  8
8
 10
1337.446289
 20
1316.756592
 30
0.0
 40
0.25
  1
# 30
  7
STANDARD
  0
POINT
  8
2
 10
1047.348877
 20
1316.756348
 30
0.0
  0
POINT
  8
2
 10
1337.446289
 20
1316.756592
 30
0.0
  0
POLYLINE
  8
85
 66
1
 10
0.0
 20
0.0
 30
0.0
 70
0
  0
VERTEX
  8
85
 10
1337.446289
 20
1316.756592
 30
0.0
 70
0
  0
SEQEND
  8
0
  0
POLYLINE
  8
8
 66
1
 10
0.0
 20
0.0
 30
0.0
 70
0
  0
VERTEX
  8
8
 10
1337.446289
 20
1586.552979
 30
0.0
 70
0
  0
VERTEX
  8
8
 10
1337.446289
 20
904.490051
 30
0.0
 70
0
  0
SEQEND
  8
0
  0
TEXT
  8
8
 10
1337.446289
 20
1586.552979
 30
0.0
 40
0.25
  1
# 22
  7
STANDARD
  0
TEXT
  8
8
 10
1337.446289
 20
904.490051
 30
0.0
 40
0.25
  1
# 23
  7
STANDARD
  0
POINT
  8
2
 10
1337.446289
 20
1586.552979
 30
0.0
  0
POINT
  8
2
 10
1337.446289
 20
904.490051
 30
0.0
  0
POLYLINE
  8
85
 66
1
 10
0.0
 20
0.0
 30
0.0
 70
0
  0
VERTEX
  8
85
 10
1337.446289
 20
904.490051
 30
0.0
 70
0
  0
SEQEND
  8
0
  0
POLYLINE
  8
8
 66
1
 10
0.0
 20
0.0
 30
0.0
 70
0
  0
VERTEX
  8
8
 10
1337.446289
 20
924.490051
 30
0.0
 70
0
  0
VERTEX
  8
8
 10
1608.421875
 20
924.506287
 30
0.0
 70
0
  0
SEQEND
  8
0
  0
TEXT
  8
8
 10
1337.446289
 20
924.490051
 30
0.0
 40
0.25
  1
# 25
  7
STANDARD
  0
TEXT
  8
8
 10
1608.421875
 20
924.506287
 30
0.0
 40
0.25
  1
# 26
  7
STANDARD
  0
POINT
  8
2
 10
1337.446289
 20
924.490051
 30
0.0
  0
POINT
  8
2
 10
1608.421875
 20
924.506287
 30
0.0
  0
POLYLINE
  8
85
 66
1
 10
0.0
 20
0.0
 30
0.0
 70
0
  0
VERTEX
  8
85
 10
1608.421875
 20
924.506287
 30
0.0
 70
0
  0
SEQEND
  8
0
  0
POLYLINE
  8
8
 66
1
 10
0.0
 20
0.0
 30
0.0
 70
0
  0
VERTEX
  8
8
 10
1337.446289
 20
919.490051
 30
0.0
 70
0
  0
VERTEX
  8
8
 10
1608.179199
 20
919.526672
 30
0.0
 70
0
  0
SEQEND
  8
0
  0
TEXT
  8
8
 10
1337.446289
 20
919.490051
 30
0.0
 40
0.25
  1
# 27
  7
STANDARD
  0
TEXT
  8
8
 10
1608.179199
 20
919.526672
 30
0.0
 40
0.25
  1
# 28
  7
STANDARD
  0
POINT
  8
2
 10
1337.446289
 20
919.490051
 30
0.0
  0
POINT
  8
2
 10
1608.179199
 20
919.526672
 30
0.0
  0
POLYLINE
  8
85
 66
1
 10
0.0
 20
0.0
 30
0.0
 70
0
  0
VERTEX
  8
85
 10
1608.179199
 20
919.526672
 30
0.0
 70
0
  0
SEQEND
  8
0
  0
POLYLINE
  8
8
 66
1
 10
0.0
 20
0.0
 30
0.0
 70
0
  0
VERTEX
  8
8
 10
1627.543701
 20
1316.756348
 30
0.0
 70
0
  0
VERTEX
  8
8
 10
1337.446289
 20
1316.756592
 30
0.0
 70
0
  0
SEQEND
  8
0
  0
TEXT
  8
8
 10
1627.543701
 20
1316.756348
 30
0.0
 40
0.25
  1
# 16
  7
STANDARD
  0
TEXT
  8
8
 10
1337.446289
 20
1316.756592
 30
0.0
 40
0.25
  1
# 30
  7
STANDARD
  0
POINT
  8
2
 10
1627.543701
 20
1316.756348
 30
0.0
  0
POINT
  8
2
 10
1337.446289
 20
1316.756592
 30
0.0
  0
POLYLINE
  8
85
 66
1
 10
0.0
 20
0.0
 30
0.0
 70
0
  0
VERTEX
  8
85
 10
1337.446289
 20
1316.756592
 30
0.0
 70
0
  0
SEQEND
  8
0
  0
POLYLINE
  8
8
 66
1
 10
0.0
 20
0.0
 30
0.0
 70
0
  0
VERTEX
  8
8
 10
1337.446289
 20
1586.552979
 30
0.0
 70
0
  0
VERTEX
  8
8
 10
1337.446289
 20
904.490051
 30
0.0
 70
0
  0
SEQEND
  8
0
  0
TEXT
  8
8
 10
1337.446289
 20
1586.552979
 30
0.0
 40
0.25
  1
# 22
  7
STANDARD
  0
TEXT
  8
8
 10
1337.446289
 20
904.490051
 30
0.0
 40
0.25
  1
# 23
  7
STANDARD
  0
POINT
  8
2
 10
1337.446289
 20
1586.552979
 30
0.0
  0
POINT
  8
2
 10
1337.446289
 20
904.490051
 30
0.0
  0
POLYLINE
  8
85
 66
1
 10
0.0
 20
0.0
 30
0.0
 70
0
  0
VERTEX
  8
85
 10
1337.446289
 20
904.490051
 30
0.0
 70
0
  0
SEQEND
  8
0
  0
TEXT
  8
1
 10
1337.446289
 20
1263.771484
 30
0.0
 40
2.5
  1
PIECE NAME: 2
  7
STANDARD
  0
TEXT
  8
1
 10
1337.446289
 20
1258.771484
 30
0.0
 40
2.5
  1
SIZE: M
  7
STANDARD
  0
TEXT
  8
1
 10
1337.446289
 20
1248.771484
 30
0.0
 40
2.5
  1
QUANTITY: 1
  7
STANDARD
  0
ENDBLK
  8
0
  0
ENDSEC
  0
SECTION
  2
ENTITIES
  0
INSERT
  8
1
  2
2_M
 10
0.0
 20
0.0
 30
0.0
  0
TEXT
  8
1
 10
0.0
 20
0.0
 30
0.0
 40
0.25
  1
STYLE NAME: back_panel
  7
STANDARD
  0
TEXT
  8
1
 10
0.0
 20
0.0
 30
0.0
 40
0.25
  1
CREATION DATE: 01-06-2026
  7
STANDARD
  0
TEXT
  8
1
 10
0.0
 20
0.0
 30
0.0
 40
0.25
  1
CREATION TIME: 13:08
  7
STANDARD
  0
TEXT
  8
1
 10
0.0
 20
0.0
 30
0.0
 40
0.25
  1
AUTHOR: CLO Virtual Fashion Inc.
  7
STANDARD
  0
TEXT
  8
1
 10
0.0
 20
0.0
 30
0.0
 40
0.25
  1
PRODUCT: CLO Standalone OnlineAuth 2026.0.300
  7
STANDARD
  0
TEXT
  8
1
 10
0.0
 20
0.0
 30
0.0
 40
0.25
  1
VERSION: 3
  7
STANDARD
  0
TEXT
  8
1
 10
0.0
 20
0.0
 30
0.0
 40
0.25
  1
SAMPLE SIZE: M
  7
STANDARD
  0
TEXT
  8
1
 10
0.0
 20
0.0
 30
0.0
 40
0.25
  1
UNITS: METRIC
  7
STANDARD
  0
ENDSEC
  0
EOF
