  0
SECTION
  2
HEADER
  9
$ACADVER
  1
AC1009
  9
$DWGCODEPAGE
  3
ANSI_1252
  9
$EXTMIN
 10
1e+20
 20
1e+20
 30
1e+20
  9
$EXTMAX
 10
-1e+20
 20
-1e+20
 30
-1e+20
  9
$LIMMIN
 10
0.0
 20
0.0
  9
$LIMMAX
 10
420.0
 20
297.0
  9
$TDCREATE
 40
2461236.985775463
  9
$TDUPDATE
 40
2461236.985775463
  9
$PEXTMIN
 10
1e+20
 20
1e+20
 30
1e+20
  9
$PEXTMAX
 10
-1e+20
 20
-1e+20
 30
-1e+20
  9
$PLIMMIN
 10
0.0
 20
0.0
  9
$PLIMMAX
 10
420.0
 20
297.0
  0
ENDSEC
  0
SECTION
  2
TABLES
  0
TABLE
  2
VPORT
 70
1
  0
VPORT
  2
*Active
 70
0
 10
0.0
 20
0.0
 11
1.0
 21
1.0
 12
0.0
 22
0.0
 13
0.0
 23
0.0
 14
0.5
 24
0.5
 15
0.5
 25
0.5
 16
0.0
 26
0.0
 36
1.0
 17
0.0
 27
0.0
 37
0.0
 40
1000.0
 41
1.34
 42
50.0
 43
0.0
 44
0.0
 50
0.0
 51
0.0
 71
0
 72
1000
 73
1
 74
3
 75
0
 76
0
 77
0
 78
0
  0
ENDTAB
  0
TABLE
  2
LTYPE
 70
3
  0
LTYPE
  2
ByBlock
 70
0
  3

 72
65
 73
0
 40
0.0
  0
LTYPE
  2
ByLayer
 70
0
  3

 72
65
 73
0
 40
0.0
  0
LTYPE
  2
Continuous
 70
0
  3

 72
65
 73
0
 40
0.0
  0
ENDTAB
  0
TABLE
  2
LAYER
 70
2
  0
LAYER
  2
0
 70
0
 62
7
  6
Continuous
  0
LAYER
  2
Defpoints
 70
0
 62
7
  6
Continuous
  0
ENDTAB
  0
TABLE
  2
STYLE
 70
1
  0
STYLE
  2
Standard
 70
0
 40
0.0
 41
1.0
 50
0.0
 71
0
 42
2.5
  3
txt
  4

  0
ENDTAB
  0
TABLE
  2
VIEW
 70
0
  0
ENDTAB
  0
TABLE
  2
UCS
 70
0
  0
ENDTAB
  0
TABLE
  2
APPID
 70
3
  0
APPID
  2
ACAD
 70
0
  0
APPID
  2
HATCHBACKGROUNDCOLOR
 70
0
  0
APPID
  2
EZDXF
 70
0
  0
ENDTAB
  0
TABLE
  2
DIMSTYLE
 70
1
  0
DIMSTYLE
  2
Standard
 70
0
  3

  4

  5

  6

  7

 40
1.0
 41
2.5
 42
0.625
 43
3.75
 44
1.25
 45
0.0
 46
0.0
 47
0.0
 48
0.0
140
2.5
141
2.5
142
0.0
143
0.03937007874
144
1.0
145
0.0
146
1.0
147
0.625
 71
0
 72
0
 73
0
 74
0
 75
0
 76
0
 77
1
 78
8
170
0
171
3
172
1
173
0
174
0
175
0
176
0
177
0
178
0
  0
ENDTAB
  0
ENDSEC
  0
SECTION
  2
BLOCKS
  0
BLOCK
  8
0
  2
$Model_Space
 70
0
 10
0.0
 20
0.0
 30
0.0
  3
$Model_Space
  1

1001
EZDXF
1000
WRITTEN_BY_EZDXF
1000
1.4.3 @ 2026-07-14T18:09:31.185646+00:00
  0
ENDBLK
  8
0
  0
BLOCK
  8
0
  2
$Paper_Space
 70
0
 10
0.0
 20
0.0
 30
0.0
  3
$Paper_Space
  1

  0
ENDBLK
  8
0
  0
BLOCK
  8
1
  2
1_M
 70
64
 10
0.0
 20
0.0
 30
0.0
  3
1_M
  1

  0
POLYLINE
  8
1
 66
1
 10
0.0
 20
0.0
 30
0.0
 70
1
  0
VERTEX
  8
1
 10
-0.000122
 20
1521.960815
 30
0.0
 70
0
  0
VERTEX
  8
1
 10
6.025269
 20
1522.179565
 30
0.0
 70
0
  0
VERTEX
  8
1
 10
11.6698
 20
1522.679321
 30
0.0
 70
0
  0
VERTEX
  8
1
 10
17.309448
 20
1523.462036
 30
0.0
 70
0
  0
VERTEX
  8
1
 10
22.900269
 20
1524.54187
 30
0.0
 70
0
  0
VERTEX
  8
1
 10
28.725464
 20
1525.958862
 30
0.0
 70
0
  0
VERTEX
  8
1
 10
34.438354
 20
1527.746704
 30
0.0
 70
0
  0
VERTEX
  8
1
 10
40.326904
 20
1530.120972
 30
0.0
 70
0
  0
VERTEX
  8
1
 10
46.030151
 20
1532.915405
 30
0.0
 70
0
  0
VERTEX
  8
1
 10
51.186279
 20
1535.958618
 30
0.0
 70
0
  0
VERTEX
  8
1
 10
56.127686
 20
1539.360962
 30
0.0
 70
0
  0
VERTEX
  8
1
 10
60.8396
 20
1543.036255
 30
0.0
 70
0
  0
VERTEX
  8
1
 10
65.292847
 20
1547.022339
 30
0.0
 70
0
  0
VERTEX
  8
1
 10
69.643433
 20
1551.511353
 30
0.0
 70
0
  0
VERTEX
  8
1
 10
73.66687
 20
1556.293579
 30
0.0
 70
0
  0
VERTEX
  8
1
 10
77.187378
 20
1561.203003
 30
0.0
 70
0
  0
VERTEX
  8
1
 10
80.375854
 20
1566.342163
 30
0.0
 70
0
  0
VERTEX
  8
1
 10
83.178589
 20
1571.526245
 30
0.0
 70
0
  0
VERTEX
  8
1
 10
85.697998
 20
1576.855103
 30
0.0
 70
0
  0
VERTEX
  8
1
 10
87.685303
 20
1581.607788
 30
0.0
 70
0
  0
VERTEX
  8
1
 10
89.457886
 20
1586.447632
 30
0.0
 70
0
  0
VERTEX
  8
1
 10
93.100464
 20
1598.073608
 30
0.0
 70
0
  0
VERTEX
  8
1
 10
95.395386
 20
1607.624634
 30
0.0
 70
0
  0
VERTEX
  8
1
 10
97.314331
 20
1618.430054
 30
0.0
 70
0
  0
VERTEX
  8
1
 10
97.866089
 20
1623.053101
 30
0.0
 70
0
  0
VERTEX
  8
1
 10
233.281128
 20
1568.915405
 30
0.0
 70
0
  0
VERTEX
  8
1
 10
229.819092
 20
1559.159058
 30
0.0
 70
0
  0
VERTEX
  8
1
 10
226.79187
 20
1549.280396
 30
0.0
 70
0
  0
VERTEX
  8
1
 10
224.194092
 20
1539.267456
 30
0.0
 70
0
  0
VERTEX
  8
1
 10
222.026245
 20
1529.152466
 30
0.0
 70
0
  0
VERTEX
  8
1
 10
220.307495
 20
1518.9552
 30
0.0
 70
0
  0
VERTEX
  8
1
 10
218.935303
 20
1508.699097
 30
0.0
 70
0
  0
VERTEX
  8
1
 10
217.826904
 20
1498.414673
 30
0.0
 70
0
  0
VERTEX
  8
1
 10
217.011597
 20
1488.103149
 30
0.0
 70
0
  0
VERTEX
  8
1
 10
216.47937
 20
1477.772583
 30
0.0
 70
0
  0
VERTEX
  8
1
 10
216.220581
 20
1467.431274
 30
0.0
 70
0
  0
VERTEX
  8
1
 10
216.205933
 20
1457.087769
 30
0.0
 70
0
  0
VERTEX
  8
1
 10
216.298584
 20
1451.231079
 30
0.0
 70
0
  0
VERTEX
  8
1
 10
216.420776
 20
1446.745483
 30
0.0
 70
0
  0
VERTEX
  8
1
 10
216.840698
 20
1436.423706
 30
0.0
 70
0
  0
VERTEX
  8
1
 10
217.470581
 20
1426.113892
 30
0.0
 70
0
  0
VERTEX
  8
1
 10
218.285889
 20
1415.784302
 30
0.0
 70
0
  0
VERTEX
  8
1
 10
219.433472
 20
1405.492554
 30
0.0
 70
0
  0
VERTEX
  8
1
 10
221.010498
 20
1395.265991
 30
0.0
 70
0
  0
VERTEX
  8
1
 10
223.095581
 20
1385.139526
 30
0.0
 70
0
  0
VERTEX
  8
1
 10
225.727295
 20
1375.123657
 30
0.0
 70
0
  0
VERTEX
  8
1
 10
229.10144
 20
1365.36145
 30
0.0
 70
0
  0
VERTEX
  8
1
 10
233.393433
 20
1355.937622
 30
0.0
 70
0
  0
VERTEX
  8
1
 10
238.647339
 20
1347.044067
 30
0.0
 70
0
  0
VERTEX
  8
1
 10
244.9021
 20
1338.773804
 30
0.0
 70
0
  0
VERTEX
  8
1
 10
252.201904
 20
1331.500488
 30
0.0
 70
0
  0
VERTEX
  8
1
 10
260.649292
 20
1325.559326
 30
0.0
 70
0
  0
VERTEX
  8
1
 10
269.946167
 20
1321.053223
 30
0.0
 70
0
  0
VERTEX
  8
1
 10
279.716675
 20
1318.117188
 30
0.0
 70
0
  0
VERTEX
  8
1
 10
290.097534
 20
1316.754395
 30
0.0
 70
0
  0
VERTEX
  8
1
 10
269.999878
 20
904.464539
 30
0.0
 70
0
  0
VERTEX
  8
1
 10
-0.000122
 20
904.464539
 30
0.0
 70
0
  0
VERTEX
  8
1
 10
-270.0
 20
904.464539
 30
0.0
 70
0
  0
VERTEX
  8
1
 10
-290.097656
 20
1316.754395
 30
0.0
 70
0
  0
VERTEX
  8
1
 10
-279.716797
 20
1318.117188
 30
0.0
 70
0
  0
VERTEX
  8
1
 10
-269.946289
 20
1321.053223
 30
0.0
 70
0
  0
VERTEX
  8
1
 10
-260.649414
 20
1325.559204
 30
0.0
 70
0
  0
VERTEX
  8
1
 10
-252.202026
 20
1331.500488
 30
0.0
 70
0
  0
VERTEX
  8
1
 10
-244.902344
 20
1338.773926
 30
0.0
 70
0
  0
VERTEX
  8
1
 10
-238.647461
 20
1347.044067
 30
0.0
 70
0
  0
VERTEX
  8
1
 10
-233.393555
 20
1355.937744
 30
0.0
 70
0
  0
VERTEX
  8
1
 10
-229.101562
 20
1365.36145
 30
0.0
 70
0
  0
VERTEX
  8
1
 10
-225.727539
 20
1375.123779
 30
0.0
 70
0
  0
VERTEX
  8
1
 10
-223.095703
 20
1385.139404
 30
0.0
 70
0
  0
VERTEX
  8
1
 10
-221.010742
 20
1395.265991
 30
0.0
 70
0
  0
VERTEX
  8
1
 10
-219.433594
 20
1405.492554
 30
0.0
 70
0
  0
VERTEX
  8
1
 10
-218.286133
 20
1415.784424
 30
0.0
 70
0
  0
VERTEX
  8
1
 10
-217.470703
 20
1426.113892
 30
0.0
 70
0
  0
VERTEX
  8
1
 10
-216.84082
 20
1436.423706
 30
0.0
 70
0
  0
VERTEX
  8
1
 10
-216.420898
 20
1446.745483
 30
0.0
 70
0
  0
VERTEX
  8
1
 10
-216.298828
 20
1451.231079
 30
0.0
 70
0
  0
VERTEX
  8
1
 10
-216.206055
 20
1457.087769
 30
0.0
 70
0
  0
VERTEX
  8
1
 10
-216.220703
 20
1467.431274
 30
0.0
 70
0
  0
VERTEX
  8
1
 10
-216.479492
 20
1477.772583
 30
0.0
 70
0
  0
VERTEX
  8
1
 10
-217.011719
 20
1488.103149
 30
0.0
 70
0
  0
VERTEX
  8
1
 10
-217.827148
 20
1498.414673
 30
0.0
 70
0
  0
VERTEX
  8
1
 10
-218.935547
 20
1508.699097
 30
0.0
 70
0
  0
VERTEX
  8
1
 10
-220.307617
 20
1518.9552
 30
0.0
 70
0
  0
VERTEX
  8
1
 10
-222.026367
 20
1529.152466
 30
0.0
 70
0
  0
VERTEX
  8
1
 10
-224.194336
 20
1539.267456
 30
0.0
 70
0
  0
VERTEX
  8
1
 10
-226.791992
 20
1549.280518
 30
0.0
 70
0
  0
VERTEX
  8
1
 10
-229.819336
 20
1559.159058
 30
0.0
 70
0
  0
VERTEX
  8
1
 10
-233.28125
 20
1568.915405
 30
0.0
 70
0
  0
VERTEX
  8
1
 10
-97.866211
 20
1623.053101
 30
0.0
 70
0
  0
VERTEX
  8
1
 10
-97.314453
 20
1618.430054
 30
0.0
 70
0
  0
VERTEX
  8
1
 10
-95.395508
 20
1607.624634
 30
0.0
 70
0
  0
VERTEX
  8
1
 10
-93.100586
 20
1598.073608
 30
0.0
 70
0
  0
VERTEX
  8
1
 10
-89.458008
 20
1586.447754
 30
0.0
 70
0
  0
VERTEX
  8
1
 10
-87.685547
 20
1581.607788
 30
0.0
 70
0
  0
VERTEX
  8
1
 10
-85.698242
 20
1576.855225
 30
0.0
 70
0
  0
VERTEX
  8
1
 10
-83.178711
 20
1571.526367
 30
0.0
 70
0
  0
VERTEX
  8
1
 10
-80.376099
 20
1566.342285
 30
0.0
 70
0
  0
VERTEX
  8
1
 10
-77.187622
 20
1561.203125
 30
0.0
 70
0
  0
VERTEX
  8
1
 10
-73.667114
 20
1556.293579
 30
0.0
 70
0
  0
VERTEX
  8
1
 10
-69.643677
 20
1551.511353
 30
0.0
 70
0
  0
VERTEX
  8
1
 10
-65.293091
 20
1547.022339
 30
0.0
 70
0
  0
VERTEX
  8
1
 10
-60.839966
 20
1543.036377
 30
0.0
 70
0
  0
VERTEX
  8
1
 10
-56.128052
 20
1539.360962
 30
0.0
 70
0
  0
VERTEX
  8
1
 10
-51.186646
 20
1535.958618
 30
0.0
 70
0
  0
VERTEX
  8
1
 10
-46.030396
 20
1532.915527
 30
0.0
 70
0
  0
VERTEX
  8
1
 10
-40.327271
 20
1530.120972
 30
0.0
 70
0
  0
VERTEX
  8
1
 10
-34.438721
 20
1527.746826
 30
0.0
 70
0
  0
VERTEX
  8
1
 10
-28.72583
 20
1525.958984
 30
0.0
 70
0
  0
VERTEX
  8
1
 10
-22.900635
 20
1524.54187
 30
0.0
 70
0
  0
VERTEX
  8
1
 10
-17.309814
 20
1523.46228
 30
0.0
 70
0
  0
VERTEX
  8
1
 10
-11.670166
 20
1522.679321
 30
0.0
 70
0
  0
VERTEX
  8
1
 10
-6.025635
 20
1522.179688
 30
0.0
 70
0
  0
SEQEND
  8
0
  0
TEXT
  8
1
 10
-0.000122
 20
1521.960815
 30
0.0
 40
0.25
  1
# -1
  7
STANDARD
  0
TEXT
  8
1
 10
6.025269
 20
1522.179565
 30
0.0
 40
0.25
  1
# -1
  7
STANDARD
  0
TEXT
  8
1
 10
11.6698
 20
1522.679321
 30
0.0
 40
0.25
  1
# -1
  7
STANDARD
  0
TEXT
  8
1
 10
17.309448
 20
1523.462036
 30
0.0
 40
0.25
  1
# -1
  7
STANDARD
  0
TEXT
  8
1
 10
22.900269
 20
1524.54187
 30
0.0
 40
0.25
  1
# -1
  7
STANDARD
  0
TEXT
  8
1
 10
28.725464
 20
1525.958862
 30
0.0
 40
0.25
  1
# -1
  7
STANDARD
  0
TEXT
  8
1
 10
34.438354
 20
1527.746704
 30
0.0
 40
0.25
  1
# -1
  7
STANDARD
  0
TEXT
  8
1
 10
40.326904
 20
1530.120972
 30
0.0
 40
0.25
  1
# -1
  7
STANDARD
  0
TEXT
  8
1
 10
46.030151
 20
1532.915405
 30
0.0
 40
0.25
  1
# -1
  7
STANDARD
  0
TEXT
  8
1
 10
51.186279
 20
1535.958618
 30
0.0
 40
0.25
  1
# -1
  7
STANDARD
  0
TEXT
  8
1
 10
56.127686
 20
1539.360962
 30
0.0
 40
0.25
  1
# -1
  7
STANDARD
  0
TEXT
  8
1
 10
60.8396
 20
1543.036255
 30
0.0
 40
0.25
  1
# -1
  7
STANDARD
  0
TEXT
  8
1
 10
65.292847
 20
1547.022339
 30
0.0
 40
0.25
  1
# -1
  7
STANDARD
  0
TEXT
  8
1
 10
69.643433
 20
1551.511353
 30
0.0
 40
0.25
  1
# -1
  7
STANDARD
  0
TEXT
  8
1
 10
73.66687
 20
1556.293579
 30
0.0
 40
0.25
  1
# -1
  7
STANDARD
  0
TEXT
  8
1
 10
77.187378
 20
1561.203003
 30
0.0
 40
0.25
  1
# -1
  7
STANDARD
  0
TEXT
  8
1
 10
80.375854
 20
1566.342163
 30
0.0
 40
0.25
  1
# -1
  7
STANDARD
  0
TEXT
  8
1
 10
83.178589
 20
1571.526245
 30
0.0
 40
0.25
  1
# -1
  7
STANDARD
  0
TEXT
  8
1
 10
85.697998
 20
1576.855103
 30
0.0
 40
0.25
  1
# -1
  7
STANDARD
  0
TEXT
  8
1
 10
87.685303
 20
1581.607788
 30
0.0
 40
0.25
  1
# -1
  7
STANDARD
  0
TEXT
  8
1
 10
89.457886
 20
1586.447632
 30
0.0
 40
0.25
  1
# -1
  7
STANDARD
  0
TEXT
  8
1
 10
93.100464
 20
1598.073608
 30
0.0
 40
0.25
  1
# -1
  7
STANDARD
  0
TEXT
  8
1
 10
95.395386
 20
1607.624634
 30
0.0
 40
0.25
  1
# -1
  7
STANDARD
  0
TEXT
  8
1
 10
97.314331
 20
1618.430054
 30
0.0
 40
0.25
  1
# -1
  7
STANDARD
  0
TEXT
  8
1
 10
97.866089
 20
1623.053101
 30
0.0
 40
0.25
  1
# -1
  7
STANDARD
  0
TEXT
  8
1
 10
233.281128
 20
1568.915405
 30
0.0
 40
0.25
  1
# -1
  7
STANDARD
  0
TEXT
  8
1
 10
229.819092
 20
1559.159058
 30
0.0
 40
0.25
  1
# -1
  7
STANDARD
  0
TEXT
  8
1
 10
226.79187
 20
1549.280396
 30
0.0
 40
0.25
  1
# -1
  7
STANDARD
  0
TEXT
  8
1
 10
224.194092
 20
1539.267456
 30
0.0
 40
0.25
  1
# -1
  7
STANDARD
  0
TEXT
  8
1
 10
222.026245
 20
1529.152466
 30
0.0
 40
0.25
  1
# -1
  7
STANDARD
  0
TEXT
  8
1
 10
220.307495
 20
1518.9552
 30
0.0
 40
0.25
  1
# -1
  7
STANDARD
  0
TEXT
  8
1
 10
218.935303
 20
1508.699097
 30
0.0
 40
0.25
  1
# -1
  7
STANDARD
  0
TEXT
  8
1
 10
217.826904
 20
1498.414673
 30
0.0
 40
0.25
  1
# -1
  7
STANDARD
  0
TEXT
  8
1
 10
217.011597
 20
1488.103149
 30
0.0
 40
0.25
  1
# -1
  7
STANDARD
  0
TEXT
  8
1
 10
216.47937
 20
1477.772583
 30
0.0
 40
0.25
  1
# -1
  7
STANDARD
  0
TEXT
  8
1
 10
216.220581
 20
1467.431274
 30
0.0
 40
0.25
  1
# -1
  7
STANDARD
  0
TEXT
  8
1
 10
216.205933
 20
1457.087769
 30
0.0
 40
0.25
  1
# -1
  7
STANDARD
  0
TEXT
  8
1
 10
216.298584
 20
1451.231079
 30
0.0
 40
0.25
  1
# -1
  7
STANDARD
  0
TEXT
  8
1
 10
216.420776
 20
1446.745483
 30
0.0
 40
0.25
  1
# -1
  7
STANDARD
  0
TEXT
  8
1
 10
216.840698
 20
1436.423706
 30
0.0
 40
0.25
  1
# -1
  7
STANDARD
  0
TEXT
  8
1
 10
217.470581
 20
1426.113892
 30
0.0
 40
0.25
  1
# -1
  7
STANDARD
  0
TEXT
  8
1
 10
218.285889
 20
1415.784302
 30
0.0
 40
0.25
  1
# -1
  7
STANDARD
  0
TEXT
  8
1
 10
219.433472
 20
1405.492554
 30
0.0
 40
0.25
  1
# -1
  7
STANDARD
  0
TEXT
  8
1
 10
221.010498
 20
1395.265991
 30
0.0
 40
0.25
  1
# -1
  7
STANDARD
  0
TEXT
  8
1
 10
223.095581
 20
1385.139526
 30
0.0
 40
0.25
  1
# -1
  7
STANDARD
  0
TEXT
  8
1
 10
225.727295
 20
1375.123657
 30
0.0
 40
0.25
  1
# -1
  7
STANDARD
  0
TEXT
  8
1
 10
229.10144
 20
1365.36145
 30
0.0
 40
0.25
  1
# -1
  7
STANDARD
  0
TEXT
  8
1
 10
233.393433
 20
1355.937622
 30
0.0
 40
0.25
  1
# -1
  7
STANDARD
  0
TEXT
  8
1
 10
238.647339
 20
1347.044067
 30
0.0
 40
0.25
  1
# -1
  7
STANDARD
  0
TEXT
  8
1
 10
244.9021
 20
1338.773804
 30
0.0
 40
0.25
  1
# -1
  7
STANDARD
  0
TEXT
  8
1
 10
252.201904
 20
1331.500488
 30
0.0
 40
0.25
  1
# -1
  7
STANDARD
  0
TEXT
  8
1
 10
260.649292
 20
1325.559326
 30
0.0
 40
0.25
  1
# -1
  7
STANDARD
  0
TEXT
  8
1
 10
269.946167
 20
1321.053223
 30
0.0
 40
0.25
  1
# -1
  7
STANDARD
  0
TEXT
  8
1
 10
279.716675
 20
1318.117188
 30
0.0
 40
0.25
  1
# -1
  7
STANDARD
  0
TEXT
  8
1
 10
290.097534
 20
1316.754395
 30
0.0
 40
0.25
  1
# -1
  7
STANDARD
  0
TEXT
  8
1
 10
269.999878
 20
904.464539
 30
0.0
 40
0.25
  1
# -1
  7
STANDARD
  0
TEXT
  8
1
 10
-0.000122
 20
904.464539
 30
0.0
 40
0.25
  1
# -1
  7
STANDARD
  0
TEXT
  8
1
 10
-270.0
 20
904.464539
 30
0.0
 40
0.25
  1
# -1
  7
STANDARD
  0
TEXT
  8
1
 10
-290.097656
 20
1316.754395
 30
0.0
 40
0.25
  1
# -1
  7
STANDARD
  0
TEXT
  8
1
 10
-279.716797
 20
1318.117188
 30
0.0
 40
0.25
  1
# -1
  7
STANDARD
  0
TEXT
  8
1
 10
-269.946289
 20
1321.053223
 30
0.0
 40
0.25
  1
# -1
  7
STANDARD
  0
TEXT
  8
1
 10
-260.649414
 20
1325.559204
 30
0.0
 40
0.25
  1
# -1
  7
STANDARD
  0
TEXT
  8
1
 10
-252.202026
 20
1331.500488
 30
0.0
 40
0.25
  1
# -1
  7
STANDARD
  0
TEXT
  8
1
 10
-244.902344
 20
1338.773926
 30
0.0
 40
0.25
  1
# -1
  7
STANDARD
  0
TEXT
  8
1
 10
-238.647461
 20
1347.044067
 30
0.0
 40
0.25
  1
# -1
  7
STANDARD
  0
TEXT
  8
1
 10
-233.393555
 20
1355.937744
 30
0.0
 40
0.25
  1
# -1
  7
STANDARD
  0
TEXT
  8
1
 10
-229.101562
 20
1365.36145
 30
0.0
 40
0.25
  1
# -1
  7
STANDARD
  0
TEXT
  8
1
 10
-225.727539
 20
1375.123779
 30
0.0
 40
0.25
  1
# -1
  7
STANDARD
  0
TEXT
  8
1
 10
-223.095703
 20
1385.139404
 30
0.0
 40
0.25
  1
# -1
  7
STANDARD
  0
TEXT
  8
1
 10
-221.010742
 20
1395.265991
 30
0.0
 40
0.25
  1
# -1
  7
STANDARD
  0
TEXT
  8
1
 10
-219.433594
 20
1405.492554
 30
0.0
 40
0.25
  1
# -1
  7
STANDARD
  0
TEXT
  8
1
 10
-218.286133
 20
1415.784424
 30
0.0
 40
0.25
  1
# -1
  7
STANDARD
  0
TEXT
  8
1
 10
-217.470703
 20
1426.113892
 30
0.0
 40
0.25
  1
# -1
  7
STANDARD
  0
TEXT
  8
1
 10
-216.84082
 20
1436.423706
 30
0.0
 40
0.25
  1
# -1
  7
STANDARD
  0
TEXT
  8
1
 10
-216.420898
 20
1446.745483
 30
0.0
 40
0.25
  1
# -1
  7
STANDARD
  0
TEXT
  8
1
 10
-216.298828
 20
1451.231079
 30
0.0
 40
0.25
  1
# -1
  7
STANDARD
  0
TEXT
  8
1
 10
-216.206055
 20
1457.087769
 30
0.0
 40
0.25
  1
# -1
  7
STANDARD
  0
TEXT
  8
1
 10
-216.220703
 20
1467.431274
 30
0.0
 40
0.25
  1
# -1
  7
STANDARD
  0
TEXT
  8
1
 10
-216.479492
 20
1477.772583
 30
0.0
 40
0.25
  1
# -1
  7
STANDARD
  0
TEXT
  8
1
 10
-217.011719
 20
1488.103149
 30
0.0
 40
0.25
  1
# -1
  7
STANDARD
  0
TEXT
  8
1
 10
-217.827148
 20
1498.414673
 30
0.0
 40
0.25
  1
# -1
  7
STANDARD
  0
TEXT
  8
1
 10
-218.935547
 20
1508.699097
 30
0.0
 40
0.25
  1
# -1
  7
STANDARD
  0
TEXT
  8
1
 10
-220.307617
 20
1518.9552
 30
0.0
 40
0.25
  1
# -1
  7
STANDARD
  0
TEXT
  8
1
 10
-222.026367
 20
1529.152466
 30
0.0
 40
0.25
  1
# -1
  7
STANDARD
  0
TEXT
  8
1
 10
-224.194336
 20
1539.267456
 30
0.0
 40
0.25
  1
# -1
  7
STANDARD
  0
TEXT
  8
1
 10
-226.791992
 20
1549.280518
 30
0.0
 40
0.25
  1
# -1
  7
STANDARD
  0
TEXT
  8
1
 10
-229.819336
 20
1559.159058
 30
0.0
 40
0.25
  1
# -1
  7
STANDARD
  0
TEXT
  8
1
 10
-233.28125
 20
1568.915405
 30
0.0
 40
0.25
  1
# -1
  7
STANDARD
  0
TEXT
  8
1
 10
-97.866211
 20
1623.053101
 30
0.0
 40
0.25
  1
# -1
  7
STANDARD
  0
TEXT
  8
1
 10
-97.314453
 20
1618.430054
 30
0.0
 40
0.25
  1
# -1
  7
STANDARD
  0
TEXT
  8
1
 10
-95.395508
 20
1607.624634
 30
0.0
 40
0.25
  1
# -1
  7
STANDARD
  0
TEXT
  8
1
 10
-93.100586
 20
1598.073608
 30
0.0
 40
0.25
  1
# -1
  7
STANDARD
  0
TEXT
  8
1
 10
-89.458008
 20
1586.447754
 30
0.0
 40
0.25
  1
# -1
  7
STANDARD
  0
TEXT
  8
1
 10
-87.685547
 20
1581.607788
 30
0.0
 40
0.25
  1
# -1
  7
STANDARD
  0
TEXT
  8
1
 10
-85.698242
 20
1576.855225
 30
0.0
 40
0.25
  1
# -1
  7
STANDARD
  0
TEXT
  8
1
 10
-83.178711
 20
1571.526367
 30
0.0
 40
0.25
  1
# -1
  7
STANDARD
  0
TEXT
  8
1
 10
-80.376099
 20
1566.342285
 30
0.0
 40
0.25
  1
# -1
  7
STANDARD
  0
TEXT
  8
1
 10
-77.187622
 20
1561.203125
 30
0.0
 40
0.25
  1
# -1
  7
STANDARD
  0
TEXT
  8
1
 10
-73.667114
 20
1556.293579
 30
0.0
 40
0.25
  1
# -1
  7
STANDARD
  0
TEXT
  8
1
 10
-69.643677
 20
1551.511353
 30
0.0
 40
0.25
  1
# -1
  7
STANDARD
  0
TEXT
  8
1
 10
-65.293091
 20
1547.022339
 30
0.0
 40
0.25
  1
# -1
  7
STANDARD
  0
TEXT
  8
1
 10
-60.839966
 20
1543.036377
 30
0.0
 40
0.25
  1
# -1
  7
STANDARD
  0
TEXT
  8
1
 10
-56.128052
 20
1539.360962
 30
0.0
 40
0.25
  1
# -1
  7
STANDARD
  0
TEXT
  8
1
 10
-51.186646
 20
1535.958618
 30
0.0
 40
0.25
  1
# -1
  7
STANDARD
  0
TEXT
  8
1
 10
-46.030396
 20
1532.915527
 30
0.0
 40
0.25
  1
# -1
  7
STANDARD
  0
TEXT
  8
1
 10
-40.327271
 20
1530.120972
 30
0.0
 40
0.25
  1
# -1
  7
STANDARD
  0
TEXT
  8
1
 10
-34.438721
 20
1527.746826
 30
0.0
 40
0.25
  1
# -1
  7
STANDARD
  0
TEXT
  8
1
 10
-28.72583
 20
1525.958984
 30
0.0
 40
0.25
  1
# -1
  7
STANDARD
  0
TEXT
  8
1
 10
-22.900635
 20
1524.54187
 30
0.0
 40
0.25
  1
# -1
  7
STANDARD
  0
TEXT
  8
1
 10
-17.309814
 20
1523.46228
 30
0.0
 40
0.25
  1
# -1
  7
STANDARD
  0
TEXT
  8
1
 10
-11.670166
 20
1522.679321
 30
0.0
 40
0.25
  1
# -1
  7
STANDARD
  0
TEXT
  8
1
 10
-6.025635
 20
1522.179688
 30
0.0
 40
0.25
  1
# -1
  7
STANDARD
  0
POINT
  8
2
 10
-0.000122
 20
1521.960815
 30
0.0
  0
POINT
  8
2
 10
97.866089
 20
1623.053101
 30
0.0
  0
POINT
  8
2
 10
233.281128
 20
1568.915405
 30
0.0
  0
POINT
  8
2
 10
290.097534
 20
1316.754395
 30
0.0
  0
POINT
  8
2
 10
269.999878
 20
904.464539
 30
0.0
  0
POINT
  8
2
 10
-0.000122
 20
904.464539
 30
0.0
  0
POINT
  8
2
 10
-270.0
 20
904.464539
 30
0.0
  0
POINT
  8
2
 10
-290.097656
 20
1316.754395
 30
0.0
  0
POINT
  8
2
 10
-233.28125
 20
1568.915405
 30
0.0
  0
POINT
  8
2
 10
-97.866211
 20
1623.053101
 30
0.0
  0
POINT
  8
3
 10
6.025269
 20
1522.179565
 30
0.0
  0
POINT
  8
3
 10
11.6698
 20
1522.679321
 30
0.0
  0
POINT
  8
3
 10
17.309448
 20
1523.462036
 30
0.0
  0
POINT
  8
3
 10
22.900269
 20
1524.54187
 30
0.0
  0
POINT
  8
3
 10
28.725464
 20
1525.958862
 30
0.0
  0
POINT
  8
3
 10
34.438354
 20
1527.746704
 30
0.0
  0
POINT
  8
3
 10
40.326904
 20
1530.120972
 30
0.0
  0
POINT
  8
3
 10
46.030151
 20
1532.915405
 30
0.0
  0
POINT
  8
3
 10
51.186279
 20
1535.958618
 30
0.0
  0
POINT
  8
3
 10
56.127686
 20
1539.360962
 30
0.0
  0
POINT
  8
3
 10
60.8396
 20
1543.036255
 30
0.0
  0
POINT
  8
3
 10
65.292847
 20
1547.022339
 30
0.0
  0
POINT
  8
3
 10
69.643433
 20
1551.511353
 30
0.0
  0
POINT
  8
3
 10
73.66687
 20
1556.293579
 30
0.0
  0
POINT
  8
3
 10
77.187378
 20
1561.203003
 30
0.0
  0
POINT
  8
3
 10
80.375854
 20
1566.342163
 30
0.0
  0
POINT
  8
3
 10
83.178589
 20
1571.526245
 30
0.0
  0
POINT
  8
3
 10
85.697998
 20
1576.855103
 30
0.0
  0
POINT
  8
3
 10
87.685303
 20
1581.607788
 30
0.0
  0
POINT
  8
3
 10
89.457886
 20
1586.447632
 30
0.0
  0
POINT
  8
3
 10
93.100464
 20
1598.073608
 30
0.0
  0
POINT
  8
3
 10
95.395386
 20
1607.624634
 30
0.0
  0
POINT
  8
3
 10
97.314331
 20
1618.430054
 30
0.0
  0
POINT
  8
3
 10
229.819092
 20
1559.159058
 30
0.0
  0
POINT
  8
3
 10
226.79187
 20
1549.280396
 30
0.0
  0
POINT
  8
3
 10
224.194092
 20
1539.267456
 30
0.0
  0
POINT
  8
3
 10
222.026245
 20
1529.152466
 30
0.0
  0
POINT
  8
3
 10
220.307495
 20
1518.9552
 30
0.0
  0
POINT
  8
3
 10
218.935303
 20
1508.699097
 30
0.0
  0
POINT
  8
3
 10
217.826904
 20
1498.414673
 30
0.0
  0
POINT
  8
3
 10
217.011597
 20
1488.103149
 30
0.0
  0
POINT
  8
3
 10
216.47937
 20
1477.772583
 30
0.0
  0
POINT
  8
3
 10
216.220581
 20
1467.431274
 30
0.0
  0
POINT
  8
3
 10
216.205933
 20
1457.087769
 30
0.0
  0
POINT
  8
3
 10
216.298584
 20
1451.231079
 30
0.0
  0
POINT
  8
3
 10
216.420776
 20
1446.745483
 30
0.0
  0
POINT
  8
3
 10
216.840698
 20
1436.423706
 30
0.0
  0
POINT
  8
3
 10
217.470581
 20
1426.113892
 30
0.0
  0
POINT
  8
3
 10
218.285889
 20
1415.784302
 30
0.0
  0
POINT
  8
3
 10
219.433472
 20
1405.492554
 30
0.0
  0
POINT
  8
3
 10
221.010498
 20
1395.265991
 30
0.0
  0
POINT
  8
3
 10
223.095581
 20
1385.139526
 30
0.0
  0
POINT
  8
3
 10
225.727295
 20
1375.123657
 30
0.0
  0
POINT
  8
3
 10
229.10144
 20
1365.36145
 30
0.0
  0
POINT
  8
3
 10
233.393433
 20
1355.937622
 30
0.0
  0
POINT
  8
3
 10
238.647339
 20
1347.044067
 30
0.0
  0
POINT
  8
3
 10
244.9021
 20
1338.773804
 30
0.0
  0
POINT
  8
3
 10
252.201904
 20
1331.500488
 30
0.0
  0
POINT
  8
3
 10
260.649292
 20
1325.559326
 30
0.0
  0
POINT
  8
3
 10
269.946167
 20
1321.053223
 30
0.0
  0
POINT
  8
3
 10
279.716675
 20
1318.117188
 30
0.0
  0
POINT
  8
3
 10
-279.716797
 20
1318.117188
 30
0.0
  0
POINT
  8
3
 10
-269.946289
 20
1321.053223
 30
0.0
  0
POINT
  8
3
 10
-260.649414
 20
1325.559204
 30
0.0
  0
POINT
  8
3
 10
-252.202026
 20
1331.500488
 30
0.0
  0
POINT
  8
3
 10
-244.902344
 20
1338.773926
 30
0.0
  0
POINT
  8
3
 10
-238.647461
 20
1347.044067
 30
0.0
  0
POINT
  8
3
 10
-233.393555
 20
1355.937744
 30
0.0
  0
POINT
  8
3
 10
-229.101562
 20
1365.36145
 30
0.0
  0
POINT
  8
3
 10
-225.727539
 20
1375.123779
 30
0.0
  0
POINT
  8
3
 10
-223.095703
 20
1385.139404
 30
0.0
  0
POINT
  8
3
 10
-221.010742
 20
1395.265991
 30
0.0
  0
POINT
  8
3
 10
-219.433594
 20
1405.492554
 30
0.0
  0
POINT
  8
3
 10
-218.286133
 20
1415.784424
 30
0.0
  0
POINT
  8
3
 10
-217.470703
 20
1426.113892
 30
0.0
  0
POINT
  8
3
 10
-216.84082
 20
1436.423706
 30
0.0
  0
POINT
  8
3
 10
-216.420898
 20
1446.745483
 30
0.0
  0
POINT
  8
3
 10
-216.298828
 20
1451.231079
 30
0.0
  0
POINT
  8
3
 10
-216.206055
 20
1457.087769
 30
0.0
  0
POINT
  8
3
 10
-216.220703
 20
1467.431274
 30
0.0
  0
POINT
  8
3
 10
-216.479492
 20
1477.772583
 30
0.0
  0
POINT
  8
3
 10
-217.011719
 20
1488.103149
 30
0.0
  0
POINT
  8
3
 10
-217.827148
 20
1498.414673
 30
0.0
  0
POINT
  8
3
 10
-218.935547
 20
1508.699097
 30
0.0
  0
POINT
  8
3
 10
-220.307617
 20
1518.9552
 30
0.0
  0
POINT
  8
3
 10
-222.026367
 20
1529.152466
 30
0.0
  0
POINT
  8
3
 10
-224.194336
 20
1539.267456
 30
0.0
  0
POINT
  8
3
 10
-226.791992
 20
1549.280518
 30
0.0
  0
POINT
  8
3
 10
-229.819336
 20
1559.159058
 30
0.0
  0
POINT
  8
3
 10
-97.314453
 20
1618.430054
 30
0.0
  0
POINT
  8
3
 10
-95.395508
 20
1607.624634
 30
0.0
  0
POINT
  8
3
 10
-93.100586
 20
1598.073608
 30
0.0
  0
POINT
  8
3
 10
-89.458008
 20
1586.447754
 30
0.0
  0
POINT
  8
3
 10
-87.685547
 20
1581.607788
 30
0.0
  0
POINT
  8
3
 10
-85.698242
 20
1576.855225
 30
0.0
  0
POINT
  8
3
 10
-83.178711
 20
1571.526367
 30
0.0
  0
POINT
  8
3
 10
-80.376099
 20
1566.342285
 30
0.0
  0
POINT
  8
3
 10
-77.187622
 20
1561.203125
 30
0.0
  0
POINT
  8
3
 10
-73.667114
 20
1556.293579
 30
0.0
  0
POINT
  8
3
 10
-69.643677
 20
1551.511353
 30
0.0
  0
POINT
  8
3
 10
-65.293091
 20
1547.022339
 30
0.0
  0
POINT
  8
3
 10
-60.839966
 20
1543.036377
 30
0.0
  0
POINT
  8
3
 10
-56.128052
 20
1539.360962
 30
0.0
  0
POINT
  8
3
 10
-51.186646
 20
1535.958618
 30
0.0
  0
POINT
  8
3
 10
-46.030396
 20
1532.915527
 30
0.0
  0
POINT
  8
3
 10
-40.327271
 20
1530.120972
 30
0.0
  0
POINT
  8
3
 10
-34.438721
 20
1527.746826
 30
0.0
  0
POINT
  8
3
 10
-28.72583
 20
1525.958984
 30
0.0
  0
POINT
  8
3
 10
-22.900635
 20
1524.54187
 30
0.0
  0
POINT
  8
3
 10
-17.309814
 20
1523.46228
 30
0.0
  0
POINT
  8
3
 10
-11.670166
 20
1522.679321
 30
0.0
  0
POINT
  8
3
 10
-6.025635
 20
1522.179688
 30
0.0
  0
POINT
  8
4
 10
216.298584
 20
1451.231079
 30
7.0
 50
180.594467
  0
POINT
  8
4
 10
-216.298828
 20
1451.231079
 30
7.0
 50
358.118317
  0
POLYLINE
  8
84
 66
1
 10
0.0
 20
0.0
 30
0.0
 70
1
  0
VERTEX
  8
84
 10
6.025269
 20
1522.179565
 30
0.0
 70
0
  0
VERTEX
  8
84
 10
11.6698
 20
1522.679321
 30
0.0
 70
0
  0
VERTEX
  8
84
 10
17.309448
 20
1523.462036
 30
0.0
 70
0
  0
VERTEX
  8
84
 10
22.900269
 20
1524.54187
 30
0.0
 70
0
  0
VERTEX
  8
84
 10
28.725464
 20
1525.958862
 30
0.0
 70
0
  0
VERTEX
  8
84
 10
34.438354
 20
1527.746704
 30
0.0
 70
0
  0
VERTEX
  8
84
 10
40.326904
 20
1530.120972
 30
0.0
 70
0
  0
VERTEX
  8
84
 10
46.030151
 20
1532.915405
 30
0.0
 70
0
  0
VERTEX
  8
84
 10
51.186279
 20
1535.958618
 30
0.0
 70
0
  0
VERTEX
  8
84
 10
56.127686
 20
1539.360962
 30
0.0
 70
0
  0
VERTEX
  8
84
 10
60.8396
 20
1543.036255
 30
0.0
 70
0
  0
VERTEX
  8
84
 10
65.292847
 20
1547.022339
 30
0.0
 70
0
  0
VERTEX
  8
84
 10
69.643433
 20
1551.511353
 30
0.0
 70
0
  0
VERTEX
  8
84
 10
73.66687
 20
1556.293579
 30
0.0
 70
0
  0
VERTEX
  8
84
 10
77.187378
 20
1561.203003
 30
0.0
 70
0
  0
VERTEX
  8
84
 10
80.375854
 20
1566.342163
 30
0.0
 70
0
  0
VERTEX
  8
84
 10
83.178589
 20
1571.526245
 30
0.0
 70
0
  0
VERTEX
  8
84
 10
85.697998
 20
1576.855103
 30
0.0
 70
0
  0
VERTEX
  8
84
 10
87.685303
 20
1581.607788
 30
0.0
 70
0
  0
VERTEX
  8
84
 10
89.457886
 20
1586.447632
 30
0.0
 70
0
  0
VERTEX
  8
84
 10
91.379326
 20
1592.230103
 30
0.0
 70
0
  0
VERTEX
  8
84
 10
93.100464
 20
1598.073608
 30
0.0
 70
0
  0
VERTEX
  8
84
 10
94.315773
 20
1602.832031
 30
0.0
 70
0
  0
VERTEX
  8
84
 10
95.395386
 20
1607.624634
 30
0.0
 70
0
  0
VERTEX
  8
84
 10
96.457901
 20
1613.010376
 30
0.0
 70
0
  0
VERTEX
  8
84
 10
97.314331
 20
1618.430054
 30
0.0
 70
0
  0
VERTEX
  8
84
 10
97.866089
 20
1623.053101
 30
0.0
 70
0
  0
VERTEX
  8
84
 10
233.281128
 20
1568.915405
 30
0.0
 70
0
  0
VERTEX
  8
84
 10
229.819092
 20
1559.159058
 30
0.0
 70
0
  0
VERTEX
  8
84
 10
228.246246
 20
1554.238281
 30
0.0
 70
0
  0
VERTEX
  8
84
 10
226.79187
 20
1549.280396
 30
0.0
 70
0
  0
VERTEX
  8
84
 10
224.194092
 20
1539.267456
 30
0.0
 70
0
  0
VERTEX
  8
84
 10
222.026245
 20
1529.152466
 30
0.0
 70
0
  0
VERTEX
  8
84
 10
220.307495
 20
1518.9552
 30
0.0
 70
0
  0
VERTEX
  8
84
 10
218.935303
 20
1508.699097
 30
0.0
 70
0
  0
VERTEX
  8
84
 10
217.826904
 20
1498.414673
 30
0.0
 70
0
  0
VERTEX
  8
84
 10
217.011597
 20
1488.103149
 30
0.0
 70
0
  0
VERTEX
  8
84
 10
216.47937
 20
1477.772583
 30
0.0
 70
0
  0
VERTEX
  8
84
 10
216.220581
 20
1467.431274
 30
0.0
 70
0
  0
VERTEX
  8
84
 10
216.205933
 20
1457.087769
 30
0.0
 70
0
  0
VERTEX
  8
84
 10
216.298584
 20
1451.231079
 30
0.0
 70
0
  0
VERTEX
  8
84
 10
216.420776
 20
1446.745483
 30
0.0
 70
0
  0
VERTEX
  8
84
 10
216.840698
 20
1436.423706
 30
0.0
 70
0
  0
VERTEX
  8
84
 10
217.470581
 20
1426.113892
 30
0.0
 70
0
  0
VERTEX
  8
84
 10
218.285889
 20
1415.784302
 30
0.0
 70
0
  0
VERTEX
  8
84
 10
219.433472
 20
1405.492554
 30
0.0
 70
0
  0
VERTEX
  8
84
 10
220.162048
 20
1400.369873
 30
0.0
 70
0
  0
VERTEX
  8
84
 10
221.010498
 20
1395.265991
 30
0.0
 70
0
  0
VERTEX
  8
84
 10
221.98909
 20
1390.189819
 30
0.0
 70
0
  0
VERTEX
  8
84
 10
223.095581
 20
1385.139526
 30
0.0
 70
0
  0
VERTEX
  8
84
 10
224.332474
 20
1380.110596
 30
0.0
 70
0
  0
VERTEX
  8
84
 10
225.727295
 20
1375.123657
 30
0.0
 70
0
  0
VERTEX
  8
84
 10
227.308716
 20
1370.206177
 30
0.0
 70
0
  0
VERTEX
  8
84
 10
229.10144
 20
1365.36145
 30
0.0
 70
0
  0
VERTEX
  8
84
 10
230.426056
 20
1362.172119
 30
0.0
 70
0
  0
VERTEX
  8
84
 10
231.855484
 20
1359.029541
 30
0.0
 70
0
  0
VERTEX
  8
84
 10
233.393433
 20
1355.937622
 30
0.0
 70
0
  0
VERTEX
  8
84
 10
235.037094
 20
1352.910156
 30
0.0
 70
0
  0
VERTEX
  8
84
 10
236.788605
 20
1349.944824
 30
0.0
 70
0
  0
VERTEX
  8
84
 10
238.647339
 20
1347.044067
 30
0.0
 70
0
  0
VERTEX
  8
84
 10
240.61969
 20
1344.203003
 30
0.0
 70
0
  0
VERTEX
  8
84
 10
242.702393
 20
1341.443359
 30
0.0
 70
0
  0
VERTEX
  8
84
 10
244.9021
 20
1338.773804
 30
0.0
 70
0
  0
VERTEX
  8
84
 10
247.208618
 20
1336.222778
 30
0.0
 70
0
  0
VERTEX
  8
84
 10
249.639664
 20
1333.792236
 30
0.0
 70
0
  0
VERTEX
  8
84
 10
252.201904
 20
1331.500488
 30
0.0
 70
0
  0
VERTEX
  8
84
 10
254.902267
 20
1329.360107
 30
0.0
 70
0
  0
VERTEX
  8
84
 10
257.722595
 20
1327.380127
 30
0.0
 70
0
  0
VERTEX
  8
84
 10
260.649292
 20
1325.559326
 30
0.0
 70
0
  0
VERTEX
  8
84
 10
263.668549
 20
1323.897461
 30
0.0
 70
0
  0
VERTEX
  8
84
 10
266.76947
 20
1322.395996
 30
0.0
 70
0
  0
VERTEX
  8
84
 10
269.946167
 20
1321.053223
 30
0.0
 70
0
  0
VERTEX
  8
84
 10
273.148865
 20
1319.887573
 30
0.0
 70
0
  0
VERTEX
  8
84
 10
276.407898
 20
1318.901245
 30
0.0
 70
0
  0
VERTEX
  8
84
 10
279.716675
 20
1318.117188
 30
0.0
 70
0
  0
VERTEX
  8
84
 10
283.153564
 20
1317.530273
 30
0.0
 70
0
  0
VERTEX
  8
84
 10
286.61792
 20
1317.102905
 30
0.0
 70
0
  0
VERTEX
  8
84
 10
290.097534
 20
1316.754395
 30
0.0
 70
0
  0
VERTEX
  8
84
 10
269.999878
 20
904.464539
 30
0.0
 70
0
  0
VERTEX
  8
84
 10
-0.000122
 20
904.464539
 30
0.0
 70
0
  0
VERTEX
  8
84
 10
-270.0
 20
904.464539
 30
0.0
 70
0
  0
VERTEX
  8
84
 10
-290.097656
 20
1316.754395
 30
0.0
 70
0
  0
VERTEX
  8
84
 10
-286.618042
 20
1317.102905
 30
0.0
 70
0
  0
VERTEX
  8
84
 10
-283.153687
 20
1317.530273
 30
0.0
 70
0
  0
VERTEX
  8
84
 10
-279.716797
 20
1318.117188
 30
0.0
 70
0
  0
VERTEX
  8
84
 10
-276.40802
 20
1318.901245
 30
0.0
 70
0
  0
VERTEX
  8
84
 10
-273.148987
 20
1319.887573
 30
0.0
 70
0
  0
VERTEX
  8
84
 10
-269.946289
 20
1321.053223
 30
0.0
 70
0
  0
VERTEX
  8
84
 10
-266.769592
 20
1322.395874
 30
0.0
 70
0
  0
VERTEX
  8
84
 10
-263.668671
 20
1323.897461
 30
0.0
 70
0
  0
VERTEX
  8
84
 10
-260.649414
 20
1325.559204
 30
0.0
 70
0
  0
VERTEX
  8
84
 10
-257.722717
 20
1327.380005
 30
0.0
 70
0
  0
VERTEX
  8
84
 10
-254.902374
 20
1329.360107
 30
0.0
 70
0
  0
VERTEX
  8
84
 10
-252.202026
 20
1331.500488
 30
0.0
 70
0
  0
VERTEX
  8
84
 10
-249.639847
 20
1333.792358
 30
0.0
 70
0
  0
VERTEX
  8
84
 10
-247.208832
 20
1336.2229
 30
0.0
 70
0
  0
VERTEX
  8
84
 10
-244.902344
 20
1338.773926
 30
0.0
 70
0
  0
VERTEX
  8
84
 10
-242.702591
 20
1341.443481
 30
0.0
 70
0
  0
VERTEX
  8
84
 10
-240.619873
 20
1344.203125
 30
0.0
 70
0
  0
VERTEX
  8
84
 10
-238.647461
 20
1347.044067
 30
0.0
 70
0
  0
VERTEX
  8
84
 10
-236.788712
 20
1349.944946
 30
0.0
 70
0
  0
VERTEX
  8
84
 10
-235.037216
 20
1352.910278
 30
0.0
 70
0
  0
VERTEX
  8
84
 10
-233.393555
 20
1355.937744
 30
0.0
 70
0
  0
VERTEX
  8
84
 10
-231.855606
 20
1359.029663
 30
0.0
 70
0
  0
VERTEX
  8
84
 10
-230.426178
 20
1362.172119
 30
0.0
 70
0
  0
VERTEX
  8
84
 10
-229.101562
 20
1365.36145
 30
0.0
 70
0
  0
VERTEX
  8
84
 10
-227.308899
 20
1370.206177
 30
0.0
 70
0
  0
VERTEX
  8
84
 10
-225.727539
 20
1375.123779
 30
0.0
 70
0
  0
VERTEX
  8
84
 10
-224.332657
 20
1380.110596
 30
0.0
 70
0
  0
VERTEX
  8
84
 10
-223.095703
 20
1385.139404
 30
0.0
 70
0
  0
VERTEX
  8
84
 10
-221.989273
 20
1390.189819
 30
0.0
 70
0
  0
VERTEX
  8
84
 10
-221.010742
 20
1395.265991
 30
0.0
 70
0
  0
VERTEX
  8
84
 10
-220.162231
 20
1400.369873
 30
0.0
 70
0
  0
VERTEX
  8
84
 10
-219.433594
 20
1405.492554
 30
0.0
 70
0
  0
VERTEX
  8
84
 10
-218.286133
 20
1415.784424
 30
0.0
 70
0
  0
VERTEX
  8
84
 10
-217.470703
 20
1426.113892
 30
0.0
 70
0
  0
VERTEX
  8
84
 10
-216.84082
 20
1436.423706
 30
0.0
 70
0
  0
VERTEX
  8
84
 10
-216.420898
 20
1446.745483
 30
0.0
 70
0
  0
VERTEX
  8
84
 10
-216.298828
 20
1451.231079
 30
0.0
 70
0
  0
VERTEX
  8
84
 10
-216.206055
 20
1457.087769
 30
0.0
 70
0
  0
VERTEX
  8
84
 10
-216.220703
 20
1467.431274
 30
0.0
 70
0
  0
VERTEX
  8
84
 10
-216.479492
 20
1477.772583
 30
0.0
 70
0
  0
VERTEX
  8
84
 10
-217.011719
 20
1488.103149
 30
0.0
 70
0
  0
VERTEX
  8
84
 10
-217.827148
 20
1498.414673
 30
0.0
 70
0
  0
VERTEX
  8
84
 10
-218.935547
 20
1508.699097
 30
0.0
 70
0
  0
VERTEX
  8
84
 10
-220.307617
 20
1518.9552
 30
0.0
 70
0
  0
VERTEX
  8
84
 10
-222.026367
 20
1529.152466
 30
0.0
 70
0
  0
VERTEX
  8
84
 10
-224.194336
 20
1539.267456
 30
0.0
 70
0
  0
VERTEX
  8
84
 10
-226.791992
 20
1549.280518
 30
0.0
 70
0
  0
VERTEX
  8
84
 10
-228.246414
 20
1554.238281
 30
0.0
 70
0
  0
VERTEX
  8
84
 10
-229.819336
 20
1559.159058
 30
0.0
 70
0
  0
VERTEX
  8
84
 10
-233.28125
 20
1568.915405
 30
0.0
 70
0
  0
VERTEX
  8
84
 10
-97.866211
 20
1623.053101
 30
0.0
 70
0
  0
VERTEX
  8
84
 10
-97.314453
 20
1618.430054
 30
0.0
 70
0
  0
VERTEX
  8
84
 10
-96.458015
 20
1613.010376
 30
0.0
 70
0
  0
VERTEX
  8
84
 10
-95.395508
 20
1607.624634
 30
0.0
 70
0
  0
VERTEX
  8
84
 10
-94.31591
 20
1602.832031
 30
0.0
 70
0
  0
VERTEX
  8
84
 10
-93.100586
 20
1598.073608
 30
0.0
 70
0
  0
VERTEX
  8
84
 10
-91.379402
 20
1592.230225
 30
0.0
 70
0
  0
VERTEX
  8
84
 10
-89.458008
 20
1586.447754
 30
0.0
 70
0
  0
VERTEX
  8
84
 10
-87.685547
 20
1581.607788
 30
0.0
 70
0
  0
VERTEX
  8
84
 10
-85.698242
 20
1576.855225
 30
0.0
 70
0
  0
VERTEX
  8
84
 10
-83.178711
 20
1571.526367
 30
0.0
 70
0
  0
VERTEX
  8
84
 10
-80.376099
 20
1566.342285
 30
0.0
 70
0
  0
VERTEX
  8
84
 10
-77.187622
 20
1561.203125
 30
0.0
 70
0
  0
VERTEX
  8
84
 10
-73.667114
 20
1556.293579
 30
0.0
 70
0
  0
VERTEX
  8
84
 10
-69.643677
 20
1551.511353
 30
0.0
 70
0
  0
VERTEX
  8
84
 10
-65.293091
 20
1547.022339
 30
0.0
 70
0
  0
VERTEX
  8
84
 10
-60.839966
 20
1543.036377
 30
0.0
 70
0
  0
VERTEX
  8
84
 10
-56.128052
 20
1539.360962
 30
0.0
 70
0
  0
VERTEX
  8
84
 10
-51.186646
 20
1535.958618
 30
0.0
 70
0
  0
VERTEX
  8
84
 10
-46.030396
 20
1532.915527
 30
0.0
 70
0
  0
VERTEX
  8
84
 10
-40.327271
 20
1530.120972
 30
0.0
 70
0
  0
VERTEX
  8
84
 10
-34.438721
 20
1527.746826
 30
0.0
 70
0
  0
VERTEX
  8
84
 10
-28.72583
 20
1525.958984
 30
0.0
 70
0
  0
VERTEX
  8
84
 10
-22.900635
 20
1524.54187
 30
0.0
 70
0
  0
VERTEX
  8
84
 10
-17.309814
 20
1523.46228
 30
0.0
 70
0
  0
VERTEX
  8
84
 10
-11.670166
 20
1522.679321
 30
0.0
 70
0
  0
VERTEX
  8
84
 10
-6.025635
 20
1522.179688
 30
0.0
 70
0
  0
VERTEX
  8
84
 10
-0.000122
 20
1521.960815
 30
0.0
 70
0
  0
SEQEND
  8
0
  0
LINE
  8
7
 10
-6.1e-05
 20
1173.758789
 30
0.0
 11
-6.1e-05
 21
1353.758789
 31
0.0
  0
POLYLINE
  8
14
 66
1
 10
0.0
 20
0.0
 30
0.0
 70
1
  0
VERTEX
  8
14
 10
-0.000122
 20
1521.960815
 30
0.0
 70
0
  0
VERTEX
  8
14
 10
6.025269
 20
1522.179565
 30
0.0
 70
0
  0
VERTEX
  8
14
 10
11.6698
 20
1522.679321
 30
0.0
 70
0
  0
VERTEX
  8
14
 10
17.309448
 20
1523.462036
 30
0.0
 70
0
  0
VERTEX
  8
14
 10
22.900269
 20
1524.54187
 30
0.0
 70
0
  0
VERTEX
  8
14
 10
28.725464
 20
1525.958862
 30
0.0
 70
0
  0
VERTEX
  8
14
 10
34.438354
 20
1527.746704
 30
0.0
 70
0
  0
VERTEX
  8
14
 10
40.326904
 20
1530.120972
 30
0.0
 70
0
  0
VERTEX
  8
14
 10
46.030151
 20
1532.915405
 30
0.0
 70
0
  0
VERTEX
  8
14
 10
51.186279
 20
1535.958618
 30
0.0
 70
0
  0
VERTEX
  8
14
 10
56.127686
 20
1539.360962
 30
0.0
 70
0
  0
VERTEX
  8
14
 10
60.8396
 20
1543.036255
 30
0.0
 70
0
  0
VERTEX
  8
14
 10
65.292847
 20
1547.022339
 30
0.0
 70
0
  0
VERTEX
  8
14
 10
69.643433
 20
1551.511353
 30
0.0
 70
0
  0
VERTEX
  8
14
 10
73.66687
 20
1556.293579
 30
0.0
 70
0
  0
VERTEX
  8
14
 10
77.187378
 20
1561.203003
 30
0.0
 70
0
  0
VERTEX
  8
14
 10
80.375854
 20
1566.342163
 30
0.0
 70
0
  0
VERTEX
  8
14
 10
83.178589
 20
1571.526245
 30
0.0
 70
0
  0
VERTEX
  8
14
 10
85.697998
 20
1576.855103
 30
0.0
 70
0
  0
VERTEX
  8
14
 10
87.685303
 20
1581.607788
 30
0.0
 70
0
  0
VERTEX
  8
14
 10
89.457886
 20
1586.447632
 30
0.0
 70
0
  0
VERTEX
  8
14
 10
93.100464
 20
1598.073608
 30
0.0
 70
0
  0
VERTEX
  8
14
 10
95.395386
 20
1607.624634
 30
0.0
 70
0
  0
VERTEX
  8
14
 10
97.314331
 20
1618.430054
 30
0.0
 70
0
  0
VERTEX
  8
14
 10
97.866089
 20
1623.053101
 30
0.0
 70
0
  0
VERTEX
  8
14
 10
233.281128
 20
1568.915405
 30
0.0
 70
0
  0
VERTEX
  8
14
 10
229.819092
 20
1559.159058
 30
0.0
 70
0
  0
VERTEX
  8
14
 10
226.79187
 20
1549.280396
 30
0.0
 70
0
  0
VERTEX
  8
14
 10
224.194092
 20
1539.267456
 30
0.0
 70
0
  0
VERTEX
  8
14
 10
222.026245
 20
1529.152466
 30
0.0
 70
0
  0
VERTEX
  8
14
 10
220.307495
 20
1518.9552
 30
0.0
 70
0
  0
VERTEX
  8
14
 10
218.935303
 20
1508.699097
 30
0.0
 70
0
  0
VERTEX
  8
14
 10
217.826904
 20
1498.414673
 30
0.0
 70
0
  0
VERTEX
  8
14
 10
217.011597
 20
1488.103149
 30
0.0
 70
0
  0
VERTEX
  8
14
 10
216.47937
 20
1477.772583
 30
0.0
 70
0
  0
VERTEX
  8
14
 10
216.220581
 20
1467.431274
 30
0.0
 70
0
  0
VERTEX
  8
14
 10
216.205933
 20
1457.087769
 30
0.0
 70
0
  0
VERTEX
  8
14
 10
216.298584
 20
1451.231079
 30
0.0
 70
0
  0
VERTEX
  8
14
 10
216.420776
 20
1446.745483
 30
0.0
 70
0
  0
VERTEX
  8
14
 10
216.840698
 20
1436.423706
 30
0.0
 70
0
  0
VERTEX
  8
14
 10
217.470581
 20
1426.113892
 30
0.0
 70
0
  0
VERTEX
  8
14
 10
218.285889
 20
1415.784302
 30
0.0
 70
0
  0
VERTEX
  8
14
 10
219.433472
 20
1405.492554
 30
0.0
 70
0
  0
VERTEX
  8
14
 10
221.010498
 20
1395.265991
 30
0.0
 70
0
  0
VERTEX
  8
14
 10
223.095581
 20
1385.139526
 30
0.0
 70
0
  0
VERTEX
  8
14
 10
225.727295
 20
1375.123657
 30
0.0
 70
0
  0
VERTEX
  8
14
 10
229.10144
 20
1365.36145
 30
0.0
 70
0
  0
VERTEX
  8
14
 10
233.393433
 20
1355.937622
 30
0.0
 70
0
  0
VERTEX
  8
14
 10
238.647339
 20
1347.044067
 30
0.0
 70
0
  0
VERTEX
  8
14
 10
244.9021
 20
1338.773804
 30
0.0
 70
0
  0
VERTEX
  8
14
 10
252.201904
 20
1331.500488
 30
0.0
 70
0
  0
VERTEX
  8
14
 10
260.649292
 20
1325.559326
 30
0.0
 70
0
  0
VERTEX
  8
14
 10
269.946167
 20
1321.053223
 30
0.0
 70
0
  0
VERTEX
  8
14
 10
279.716675
 20
1318.117188
 30
0.0
 70
0
  0
VERTEX
  8
14
 10
290.097534
 20
1316.754395
 30
0.0
 70
0
  0
VERTEX
  8
14
 10
269.999878
 20
904.464539
 30
0.0
 70
0
  0
VERTEX
  8
14
 10
-0.000122
 20
904.464539
 30
0.0
 70
0
  0
VERTEX
  8
14
 10
-270.0
 20
904.464539
 30
0.0
 70
0
  0
VERTEX
  8
14
 10
-290.097656
 20
1316.754395
 30
0.0
 70
0
  0
VERTEX
  8
14
 10
-279.716797
 20
1318.117188
 30
0.0
 70
0
  0
VERTEX
  8
14
 10
-269.946289
 20
1321.053223
 30
0.0
 70
0
  0
VERTEX
  8
14
 10
-260.649414
 20
1325.559204
 30
0.0
 70
0
  0
VERTEX
  8
14
 10
-252.202026
 20
1331.500488
 30
0.0
 70
0
  0
VERTEX
  8
14
 10
-244.902344
 20
1338.773926
 30
0.0
 70
0
  0
VERTEX
  8
14
 10
-238.647461
 20
1347.044067
 30
0.0
 70
0
  0
VERTEX
  8
14
 10
-233.393555
 20
1355.937744
 30
0.0
 70
0
  0
VERTEX
  8
14
 10
-229.101562
 20
1365.36145
 30
0.0
 70
0
  0
VERTEX
  8
14
 10
-225.727539
 20
1375.123779
 30
0.0
 70
0
  0
VERTEX
  8
14
 10
-223.095703
 20
1385.139404
 30
0.0
 70
0
  0
VERTEX
  8
14
 10
-221.010742
 20
1395.265991
 30
0.0
 70
0
  0
VERTEX
  8
14
 10
-219.433594
 20
1405.492554
 30
0.0
 70
0
  0
VERTEX
  8
14
 10
-218.286133
 20
1415.784424
 30
0.0
 70
0
  0
VERTEX
  8
14
 10
-217.470703
 20
1426.113892
 30
0.0
 70
0
  0
VERTEX
  8
14
 10
-216.84082
 20
1436.423706
 30
0.0
 70
0
  0
VERTEX
  8
14
 10
-216.420898
 20
1446.745483
 30
0.0
 70
0
  0
VERTEX
  8
14
 10
-216.298828
 20
1451.231079
 30
0.0
 70
0
  0
VERTEX
  8
14
 10
-216.206055
 20
1457.087769
 30
0.0
 70
0
  0
VERTEX
  8
14
 10
-216.220703
 20
1467.431274
 30
0.0
 70
0
  0
VERTEX
  8
14
 10
-216.479492
 20
1477.772583
 30
0.0
 70
0
  0
VERTEX
  8
14
 10
-217.011719
 20
1488.103149
 30
0.0
 70
0
  0
VERTEX
  8
14
 10
-217.827148
 20
1498.414673
 30
0.0
 70
0
  0
VERTEX
  8
14
 10
-218.935547
 20
1508.699097
 30
0.0
 70
0
  0
VERTEX
  8
14
 10
-220.307617
 20
1518.9552
 30
0.0
 70
0
  0
VERTEX
  8
14
 10
-222.026367
 20
1529.152466
 30
0.0
 70
0
  0
VERTEX
  8
14
 10
-224.194336
 20
1539.267456
 30
0.0
 70
0
  0
VERTEX
  8
14
 10
-226.791992
 20
1549.280518
 30
0.0
 70
0
  0
VERTEX
  8
14
 10
-229.819336
 20
1559.159058
 30
0.0
 70
0
  0
VERTEX
  8
14
 10
-233.28125
 20
1568.915405
 30
0.0
 70
0
  0
VERTEX
  8
14
 10
-97.866211
 20
1623.053101
 30
0.0
 70
0
  0
VERTEX
  8
14
 10
-97.314453
 20
1618.430054
 30
0.0
 70
0
  0
VERTEX
  8
14
 10
-95.395508
 20
1607.624634
 30
0.0
 70
0
  0
VERTEX
  8
14
 10
-93.100586
 20
1598.073608
 30
0.0
 70
0
  0
VERTEX
  8
14
 10
-89.458008
 20
1586.447754
 30
0.0
 70
0
  0
VERTEX
  8
14
 10
-87.685547
 20
1581.607788
 30
0.0
 70
0
  0
VERTEX
  8
14
 10
-85.698242
 20
1576.855225
 30
0.0
 70
0
  0
VERTEX
  8
14
 10
-83.178711
 20
1571.526367
 30
0.0
 70
0
  0
VERTEX
  8
14
 10
-80.376099
 20
1566.342285
 30
0.0
 70
0
  0
VERTEX
  8
14
 10
-77.187622
 20
1561.203125
 30
0.0
 70
0
  0
VERTEX
  8
14
 10
-73.667114
 20
1556.293579
 30
0.0
 70
0
  0
VERTEX
  8
14
 10
-69.643677
 20
1551.511353
 30
0.0
 70
0
  0
VERTEX
  8
14
 10
-65.293091
 20
1547.022339
 30
0.0
 70
0
  0
VERTEX
  8
14
 10
-60.839966
 20
1543.036377
 30
0.0
 70
0
  0
VERTEX
  8
14
 10
-56.128052
 20
1539.360962
 30
0.0
 70
0
  0
VERTEX
  8
14
 10
-51.186646
 20
1535.958618
 30
0.0
 70
0
  0
VERTEX
  8
14
 10
-46.030396
 20
1532.915527
 30
0.0
 70
0
  0
VERTEX
  8
14
 10
-40.327271
 20
1530.120972
 30
0.0
 70
0
  0
VERTEX
  8
14
 10
-34.438721
 20
1527.746826
 30
0.0
 70
0
  0
VERTEX
  8
14
 10
-28.72583
 20
1525.958984
 30
0.0
 70
0
  0
VERTEX
  8
14
 10
-22.900635
 20
1524.54187
 30
0.0
 70
0
  0
VERTEX
  8
14
 10
-17.309814
 20
1523.46228
 30
0.0
 70
0
  0
VERTEX
  8
14
 10
-11.670166
 20
1522.679321
 30
0.0
 70
0
  0
VERTEX
  8
14
 10
-6.025635
 20
1522.179688
 30
0.0
 70
0
  0
SEQEND
  8
0
  0
TEXT
  8
14
 10
-0.000122
 20
1521.960815
 30
0.0
 40
0.25
  1
# -1
  7
STANDARD
  0
TEXT
  8
14
 10
6.025269
 20
1522.179565
 30
0.0
 40
0.25
  1
# -1
  7
STANDARD
  0
TEXT
  8
14
 10
11.6698
 20
1522.679321
 30
0.0
 40
0.25
  1
# -1
  7
STANDARD
  0
TEXT
  8
14
 10
17.309448
 20
1523.462036
 30
0.0
 40
0.25
  1
# -1
  7
STANDARD
  0
TEXT
  8
14
 10
22.900269
 20
1524.54187
 30
0.0
 40
0.25
  1
# -1
  7
STANDARD
  0
TEXT
  8
14
 10
28.725464
 20
1525.958862
 30
0.0
 40
0.25
  1
# -1
  7
STANDARD
  0
TEXT
  8
14
 10
34.438354
 20
1527.746704
 30
0.0
 40
0.25
  1
# -1
  7
STANDARD
  0
TEXT
  8
14
 10
40.326904
 20
1530.120972
 30
0.0
 40
0.25
  1
# -1
  7
STANDARD
  0
TEXT
  8
14
 10
46.030151
 20
1532.915405
 30
0.0
 40
0.25
  1
# -1
  7
STANDARD
  0
TEXT
  8
14
 10
51.186279
 20
1535.958618
 30
0.0
 40
0.25
  1
# -1
  7
STANDARD
  0
TEXT
  8
14
 10
56.127686
 20
1539.360962
 30
0.0
 40
0.25
  1
# -1
  7
STANDARD
  0
TEXT
  8
14
 10
60.8396
 20
1543.036255
 30
0.0
 40
0.25
  1
# -1
  7
STANDARD
  0
TEXT
  8
14
 10
65.292847
 20
1547.022339
 30
0.0
 40
0.25
  1
# -1
  7
STANDARD
  0
TEXT
  8
14
 10
69.643433
 20
1551.511353
 30
0.0
 40
0.25
  1
# -1
  7
STANDARD
  0
TEXT
  8
14
 10
73.66687
 20
1556.293579
 30
0.0
 40
0.25
  1
# -1
  7
STANDARD
  0
TEXT
  8
14
 10
77.187378
 20
1561.203003
 30
0.0
 40
0.25
  1
# -1
  7
STANDARD
  0
TEXT
  8
14
 10
80.375854
 20
1566.342163
 30
0.0
 40
0.25
  1
# -1
  7
STANDARD
  0
TEXT
  8
14
 10
83.178589
 20
1571.526245
 30
0.0
 40
0.25
  1
# -1
  7
STANDARD
  0
TEXT
  8
14
 10
85.697998
 20
1576.855103
 30
0.0
 40
0.25
  1
# -1
  7
STANDARD
  0
TEXT
  8
14
 10
87.685303
 20
1581.607788
 30
0.0
 40
0.25
  1
# -1
  7
STANDARD
  0
TEXT
  8
14
 10
89.457886
 20
1586.447632
 30
0.0
 40
0.25
  1
# -1
  7
STANDARD
  0
TEXT
  8
14
 10
93.100464
 20
1598.073608
 30
0.0
 40
0.25
  1
# -1
  7
STANDARD
  0
TEXT
  8
14
 10
95.395386
 20
1607.624634
 30
0.0
 40
0.25
  1
# -1
  7
STANDARD
  0
TEXT
  8
14
 10
97.314331
 20
1618.430054
 30
0.0
 40
0.25
  1
# -1
  7
STANDARD
  0
TEXT
  8
14
 10
97.866089
 20
1623.053101
 30
0.0
 40
0.25
  1
# -1
  7
STANDARD
  0
TEXT
  8
14
 10
233.281128
 20
1568.915405
 30
0.0
 40
0.25
  1
# -1
  7
STANDARD
  0
TEXT
  8
14
 10
229.819092
 20
1559.159058
 30
0.0
 40
0.25
  1
# -1
  7
STANDARD
  0
TEXT
  8
14
 10
226.79187
 20
1549.280396
 30
0.0
 40
0.25
  1
# -1
  7
STANDARD
  0
TEXT
  8
14
 10
224.194092
 20
1539.267456
 30
0.0
 40
0.25
  1
# -1
  7
STANDARD
  0
TEXT
  8
14
 10
222.026245
 20
1529.152466
 30
0.0
 40
0.25
  1
# -1
  7
STANDARD
  0
TEXT
  8
14
 10
220.307495
 20
1518.9552
 30
0.0
 40
0.25
  1
# -1
  7
STANDARD
  0
TEXT
  8
14
 10
218.935303
 20
1508.699097
 30
0.0
 40
0.25
  1
# -1
  7
STANDARD
  0
TEXT
  8
14
 10
217.826904
 20
1498.414673
 30
0.0
 40
0.25
  1
# -1
  7
STANDARD
  0
TEXT
  8
14
 10
217.011597
 20
1488.103149
 30
0.0
 40
0.25
  1
# -1
  7
STANDARD
  0
TEXT
  8
14
 10
216.47937
 20
1477.772583
 30
0.0
 40
0.25
  1
# -1
  7
STANDARD
  0
TEXT
  8
14
 10
216.220581
 20
1467.431274
 30
0.0
 40
0.25
  1
# -1
  7
STANDARD
  0
TEXT
  8
14
 10
216.205933
 20
1457.087769
 30
0.0
 40
0.25
  1
# -1
  7
STANDARD
  0
TEXT
  8
14
 10
216.298584
 20
1451.231079
 30
0.0
 40
0.25
  1
# -1
  7
STANDARD
  0
TEXT
  8
14
 10
216.420776
 20
1446.745483
 30
0.0
 40
0.25
  1
# -1
  7
STANDARD
  0
TEXT
  8
14
 10
216.840698
 20
1436.423706
 30
0.0
 40
0.25
  1
# -1
  7
STANDARD
  0
TEXT
  8
14
 10
217.470581
 20
1426.113892
 30
0.0
 40
0.25
  1
# -1
  7
STANDARD
  0
TEXT
  8
14
 10
218.285889
 20
1415.784302
 30
0.0
 40
0.25
  1
# -1
  7
STANDARD
  0
TEXT
  8
14
 10
219.433472
 20
1405.492554
 30
0.0
 40
0.25
  1
# -1
  7
STANDARD
  0
TEXT
  8
14
 10
221.010498
 20
1395.265991
 30
0.0
 40
0.25
  1
# -1
  7
STANDARD
  0
TEXT
  8
14
 10
223.095581
 20
1385.139526
 30
0.0
 40
0.25
  1
# -1
  7
STANDARD
  0
TEXT
  8
14
 10
225.727295
 20
1375.123657
 30
0.0
 40
0.25
  1
# -1
  7
STANDARD
  0
TEXT
  8
14
 10
229.10144
 20
1365.36145
 30
0.0
 40
0.25
  1
# -1
  7
STANDARD
  0
TEXT
  8
14
 10
233.393433
 20
1355.937622
 30
0.0
 40
0.25
  1
# -1
  7
STANDARD
  0
TEXT
  8
14
 10
238.647339
 20
1347.044067
 30
0.0
 40
0.25
  1
# -1
  7
STANDARD
  0
TEXT
  8
14
 10
244.9021
 20
1338.773804
 30
0.0
 40
0.25
  1
# -1
  7
STANDARD
  0
TEXT
  8
14
 10
252.201904
 20
1331.500488
 30
0.0
 40
0.25
  1
# -1
  7
STANDARD
  0
TEXT
  8
14
 10
260.649292
 20
1325.559326
 30
0.0
 40
0.25
  1
# -1
  7
STANDARD
  0
TEXT
  8
14
 10
269.946167
 20
1321.053223
 30
0.0
 40
0.25
  1
# -1
  7
STANDARD
  0
TEXT
  8
14
 10
279.716675
 20
1318.117188
 30
0.0
 40
0.25
  1
# -1
  7
STANDARD
  0
TEXT
  8
14
 10
290.097534
 20
1316.754395
 30
0.0
 40
0.25
  1
# -1
  7
STANDARD
  0
TEXT
  8
14
 10
269.999878
 20
904.464539
 30
0.0
 40
0.25
  1
# -1
  7
STANDARD
  0
TEXT
  8
14
 10
-0.000122
 20
904.464539
 30
0.0
 40
0.25
  1
# -1
  7
STANDARD
  0
TEXT
  8
14
 10
-270.0
 20
904.464539
 30
0.0
 40
0.25
  1
# -1
  7
STANDARD
  0
TEXT
  8
14
 10
-290.097656
 20
1316.754395
 30
0.0
 40
0.25
  1
# -1
  7
STANDARD
  0
TEXT
  8
14
 10
-279.716797
 20
1318.117188
 30
0.0
 40
0.25
  1
# -1
  7
STANDARD
  0
TEXT
  8
14
 10
-269.946289
 20
1321.053223
 30
0.0
 40
0.25
  1
# -1
  7
STANDARD
  0
TEXT
  8
14
 10
-260.649414
 20
1325.559204
 30
0.0
 40
0.25
  1
# -1
  7
STANDARD
  0
TEXT
  8
14
 10
-252.202026
 20
1331.500488
 30
0.0
 40
0.25
  1
# -1
  7
STANDARD
  0
TEXT
  8
14
 10
-244.902344
 20
1338.773926
 30
0.0
 40
0.25
  1
# -1
  7
STANDARD
  0
TEXT
  8
14
 10
-238.647461
 20
1347.044067
 30
0.0
 40
0.25
  1
# -1
  7
STANDARD
  0
TEXT
  8
14
 10
-233.393555
 20
1355.937744
 30
0.0
 40
0.25
  1
# -1
  7
STANDARD
  0
TEXT
  8
14
 10
-229.101562
 20
1365.36145
 30
0.0
 40
0.25
  1
# -1
  7
STANDARD
  0
TEXT
  8
14
 10
-225.727539
 20
1375.123779
 30
0.0
 40
0.25
  1
# -1
  7
STANDARD
  0
TEXT
  8
14
 10
-223.095703
 20
1385.139404
 30
0.0
 40
0.25
  1
# -1
  7
STANDARD
  0
TEXT
  8
14
 10
-221.010742
 20
1395.265991
 30
0.0
 40
0.25
  1
# -1
  7
STANDARD
  0
TEXT
  8
14
 10
-219.433594
 20
1405.492554
 30
0.0
 40
0.25
  1
# -1
  7
STANDARD
  0
TEXT
  8
14
 10
-218.286133
 20
1415.784424
 30
0.0
 40
0.25
  1
# -1
  7
STANDARD
  0
TEXT
  8
14
 10
-217.470703
 20
1426.113892
 30
0.0
 40
0.25
  1
# -1
  7
STANDARD
  0
TEXT
  8
14
 10
-216.84082
 20
1436.423706
 30
0.0
 40
0.25
  1
# -1
  7
STANDARD
  0
TEXT
  8
14
 10
-216.420898
 20
1446.745483
 30
0.0
 40
0.25
  1
# -1
  7
STANDARD
  0
TEXT
  8
14
 10
-216.298828
 20
1451.231079
 30
0.0
 40
0.25
  1
# -1
  7
STANDARD
  0
TEXT
  8
14
 10
-216.206055
 20
1457.087769
 30
0.0
 40
0.25
  1
# -1
  7
STANDARD
  0
TEXT
  8
14
 10
-216.220703
 20
1467.431274
 30
0.0
 40
0.25
  1
# -1
  7
STANDARD
  0
TEXT
  8
14
 10
-216.479492
 20
1477.772583
 30
0.0
 40
0.25
  1
# -1
  7
STANDARD
  0
TEXT
  8
14
 10
-217.011719
 20
1488.103149
 30
0.0
 40
0.25
  1
# -1
  7
STANDARD
  0
TEXT
  8
14
 10
-217.827148
 20
1498.414673
 30
0.0
 40
0.25
  1
# -1
  7
STANDARD
  0
TEXT
  8
14
 10
-218.935547
 20
1508.699097
 30
0.0
 40
0.25
  1
# -1
  7
STANDARD
  0
TEXT
  8
14
 10
-220.307617
 20
1518.9552
 30
0.0
 40
0.25
  1
# -1
  7
STANDARD
  0
TEXT
  8
14
 10
-222.026367
 20
1529.152466
 30
0.0
 40
0.25
  1
# -1
  7
STANDARD
  0
TEXT
  8
14
 10
-224.194336
 20
1539.267456
 30
0.0
 40
0.25
  1
# -1
  7
STANDARD
  0
TEXT
  8
14
 10
-226.791992
 20
1549.280518
 30
0.0
 40
0.25
  1
# -1
  7
STANDARD
  0
TEXT
  8
14
 10
-229.819336
 20
1559.159058
 30
0.0
 40
0.25
  1
# -1
  7
STANDARD
  0
TEXT
  8
14
 10
-233.28125
 20
1568.915405
 30
0.0
 40
0.25
  1
# -1
  7
STANDARD
  0
TEXT
  8
14
 10
-97.866211
 20
1623.053101
 30
0.0
 40
0.25
  1
# -1
  7
STANDARD
  0
TEXT
  8
14
 10
-97.314453
 20
1618.430054
 30
0.0
 40
0.25
  1
# -1
  7
STANDARD
  0
TEXT
  8
14
 10
-95.395508
 20
1607.624634
 30
0.0
 40
0.25
  1
# -1
  7
STANDARD
  0
TEXT
  8
14
 10
-93.100586
 20
1598.073608
 30
0.0
 40
0.25
  1
# -1
  7
STANDARD
  0
TEXT
  8
14
 10
-89.458008
 20
1586.447754
 30
0.0
 40
0.25
  1
# -1
  7
STANDARD
  0
TEXT
  8
14
 10
-87.685547
 20
1581.607788
 30
0.0
 40
0.25
  1
# -1
  7
STANDARD
  0
TEXT
  8
14
 10
-85.698242
 20
1576.855225
 30
0.0
 40
0.25
  1
# -1
  7
STANDARD
  0
TEXT
  8
14
 10
-83.178711
 20
1571.526367
 30
0.0
 40
0.25
  1
# -1
  7
STANDARD
  0
TEXT
  8
14
 10
-80.376099
 20
1566.342285
 30
0.0
 40
0.25
  1
# -1
  7
STANDARD
  0
TEXT
  8
14
 10
-77.187622
 20
1561.203125
 30
0.0
 40
0.25
  1
# -1
  7
STANDARD
  0
TEXT
  8
14
 10
-73.667114
 20
1556.293579
 30
0.0
 40
0.25
  1
# -1
  7
STANDARD
  0
TEXT
  8
14
 10
-69.643677
 20
1551.511353
 30
0.0
 40
0.25
  1
# -1
  7
STANDARD
  0
TEXT
  8
14
 10
-65.293091
 20
1547.022339
 30
0.0
 40
0.25
  1
# -1
  7
STANDARD
  0
TEXT
  8
14
 10
-60.839966
 20
1543.036377
 30
0.0
 40
0.25
  1
# -1
  7
STANDARD
  0
TEXT
  8
14
 10
-56.128052
 20
1539.360962
 30
0.0
 40
0.25
  1
# -1
  7
STANDARD
  0
TEXT
  8
14
 10
-51.186646
 20
1535.958618
 30
0.0
 40
0.25
  1
# -1
  7
STANDARD
  0
TEXT
  8
14
 10
-46.030396
 20
1532.915527
 30
0.0
 40
0.25
  1
# -1
  7
STANDARD
  0
TEXT
  8
14
 10
-40.327271
 20
1530.120972
 30
0.0
 40
0.25
  1
# -1
  7
STANDARD
  0
TEXT
  8
14
 10
-34.438721
 20
1527.746826
 30
0.0
 40
0.25
  1
# -1
  7
STANDARD
  0
TEXT
  8
14
 10
-28.72583
 20
1525.958984
 30
0.0
 40
0.25
  1
# -1
  7
STANDARD
  0
TEXT
  8
14
 10
-22.900635
 20
1524.54187
 30
0.0
 40
0.25
  1
# -1
  7
STANDARD
  0
TEXT
  8
14
 10
-17.309814
 20
1523.46228
 30
0.0
 40
0.25
  1
# -1
  7
STANDARD
  0
TEXT
  8
14
 10
-11.670166
 20
1522.679321
 30
0.0
 40
0.25
  1
# -1
  7
STANDARD
  0
TEXT
  8
14
 10
-6.025635
 20
1522.179688
 30
0.0
 40
0.25
  1
# -1
  7
STANDARD
  0
POINT
  8
2
 10
-0.000122
 20
1521.960815
 30
0.0
  0
POINT
  8
2
 10
97.866089
 20
1623.053101
 30
0.0
  0
POINT
  8
2
 10
233.281128
 20
1568.915405
 30
0.0
  0
POINT
  8
2
 10
290.097534
 20
1316.754395
 30
0.0
  0
POINT
  8
2
 10
269.999878
 20
904.464539
 30
0.0
  0
POINT
  8
2
 10
-0.000122
 20
904.464539
 30
0.0
  0
POINT
  8
2
 10
-270.0
 20
904.464539
 30
0.0
  0
POINT
  8
2
 10
-290.097656
 20
1316.754395
 30
0.0
  0
POINT
  8
2
 10
-233.28125
 20
1568.915405
 30
0.0
  0
POINT
  8
2
 10
-97.866211
 20
1623.053101
 30
0.0
  0
POINT
  8
3
 10
6.025269
 20
1522.179565
 30
0.0
  0
POINT
  8
3
 10
11.6698
 20
1522.679321
 30
0.0
  0
POINT
  8
3
 10
17.309448
 20
1523.462036
 30
0.0
  0
POINT
  8
3
 10
22.900269
 20
1524.54187
 30
0.0
  0
POINT
  8
3
 10
28.725464
 20
1525.958862
 30
0.0
  0
POINT
  8
3
 10
34.438354
 20
1527.746704
 30
0.0
  0
POINT
  8
3
 10
40.326904
 20
1530.120972
 30
0.0
  0
POINT
  8
3
 10
46.030151
 20
1532.915405
 30
0.0
  0
POINT
  8
3
 10
51.186279
 20
1535.958618
 30
0.0
  0
POINT
  8
3
 10
56.127686
 20
1539.360962
 30
0.0
  0
POINT
  8
3
 10
60.8396
 20
1543.036255
 30
0.0
  0
POINT
  8
3
 10
65.292847
 20
1547.022339
 30
0.0
  0
POINT
  8
3
 10
69.643433
 20
1551.511353
 30
0.0
  0
POINT
  8
3
 10
73.66687
 20
1556.293579
 30
0.0
  0
POINT
  8
3
 10
77.187378
 20
1561.203003
 30
0.0
  0
POINT
  8
3
 10
80.375854
 20
1566.342163
 30
0.0
  0
POINT
  8
3
 10
83.178589
 20
1571.526245
 30
0.0
  0
POINT
  8
3
 10
85.697998
 20
1576.855103
 30
0.0
  0
POINT
  8
3
 10
87.685303
 20
1581.607788
 30
0.0
  0
POINT
  8
3
 10
89.457886
 20
1586.447632
 30
0.0
  0
POINT
  8
3
 10
93.100464
 20
1598.073608
 30
0.0
  0
POINT
  8
3
 10
95.395386
 20
1607.624634
 30
0.0
  0
POINT
  8
3
 10
97.314331
 20
1618.430054
 30
0.0
  0
POINT
  8
3
 10
229.819092
 20
1559.159058
 30
0.0
  0
POINT
  8
3
 10
226.79187
 20
1549.280396
 30
0.0
  0
POINT
  8
3
 10
224.194092
 20
1539.267456
 30
0.0
  0
POINT
  8
3
 10
222.026245
 20
1529.152466
 30
0.0
  0
POINT
  8
3
 10
220.307495
 20
1518.9552
 30
0.0
  0
POINT
  8
3
 10
218.935303
 20
1508.699097
 30
0.0
  0
POINT
  8
3
 10
217.826904
 20
1498.414673
 30
0.0
  0
POINT
  8
3
 10
217.011597
 20
1488.103149
 30
0.0
  0
POINT
  8
3
 10
216.47937
 20
1477.772583
 30
0.0
  0
POINT
  8
3
 10
216.220581
 20
1467.431274
 30
0.0
  0
POINT
  8
3
 10
216.205933
 20
1457.087769
 30
0.0
  0
POINT
  8
3
 10
216.298584
 20
1451.231079
 30
0.0
  0
POINT
  8
3
 10
216.420776
 20
1446.745483
 30
0.0
  0
POINT
  8
3
 10
216.840698
 20
1436.423706
 30
0.0
  0
POINT
  8
3
 10
217.470581
 20
1426.113892
 30
0.0
  0
POINT
  8
3
 10
218.285889
 20
1415.784302
 30
0.0
  0
POINT
  8
3
 10
219.433472
 20
1405.492554
 30
0.0
  0
POINT
  8
3
 10
221.010498
 20
1395.265991
 30
0.0
  0
POINT
  8
3
 10
223.095581
 20
1385.139526
 30
0.0
  0
POINT
  8
3
 10
225.727295
 20
1375.123657
 30
0.0
  0
POINT
  8
3
 10
229.10144
 20
1365.36145
 30
0.0
  0
POINT
  8
3
 10
233.393433
 20
1355.937622
 30
0.0
  0
POINT
  8
3
 10
238.647339
 20
1347.044067
 30
0.0
  0
POINT
  8
3
 10
244.9021
 20
1338.773804
 30
0.0
  0
POINT
  8
3
 10
252.201904
 20
1331.500488
 30
0.0
  0
POINT
  8
3
 10
260.649292
 20
1325.559326
 30
0.0
  0
POINT
  8
3
 10
269.946167
 20
1321.053223
 30
0.0
  0
POINT
  8
3
 10
279.716675
 20
1318.117188
 30
0.0
  0
POINT
  8
3
 10
-279.716797
 20
1318.117188
 30
0.0
  0
POINT
  8
3
 10
-269.946289
 20
1321.053223
 30
0.0
  0
POINT
  8
3
 10
-260.649414
 20
1325.559204
 30
0.0
  0
POINT
  8
3
 10
-252.202026
 20
1331.500488
 30
0.0
  0
POINT
  8
3
 10
-244.902344
 20
1338.773926
 30
0.0
  0
POINT
  8
3
 10
-238.647461
 20
1347.044067
 30
0.0
  0
POINT
  8
3
 10
-233.393555
 20
1355.937744
 30
0.0
  0
POINT
  8
3
 10
-229.101562
 20
1365.36145
 30
0.0
  0
POINT
  8
3
 10
-225.727539
 20
1375.123779
 30
0.0
  0
POINT
  8
3
 10
-223.095703
 20
1385.139404
 30
0.0
  0
POINT
  8
3
 10
-221.010742
 20
1395.265991
 30
0.0
  0
POINT
  8
3
 10
-219.433594
 20
1405.492554
 30
0.0
  0
POINT
  8
3
 10
-218.286133
 20
1415.784424
 30
0.0
  0
POINT
  8
3
 10
-217.470703
 20
1426.113892
 30
0.0
  0
POINT
  8
3
 10
-216.84082
 20
1436.423706
 30
0.0
  0
POINT
  8
3
 10
-216.420898
 20
1446.745483
 30
0.0
  0
POINT
  8
3
 10
-216.298828
 20
1451.231079
 30
0.0
  0
POINT
  8
3
 10
-216.206055
 20
1457.087769
 30
0.0
  0
POINT
  8
3
 10
-216.220703
 20
1467.431274
 30
0.0
  0
POINT
  8
3
 10
-216.479492
 20
1477.772583
 30
0.0
  0
POINT
  8
3
 10
-217.011719
 20
1488.103149
 30
0.0
  0
POINT
  8
3
 10
-217.827148
 20
1498.414673
 30
0.0
  0
POINT
  8
3
 10
-218.935547
 20
1508.699097
 30
0.0
  0
POINT
  8
3
 10
-220.307617
 20
1518.9552
 30
0.0
  0
POINT
  8
3
 10
-222.026367
 20
1529.152466
 30
0.0
  0
POINT
  8
3
 10
-224.194336
 20
1539.267456
 30
0.0
  0
POINT
  8
3
 10
-226.791992
 20
1549.280518
 30
0.0
  0
POINT
  8
3
 10
-229.819336
 20
1559.159058
 30
0.0
  0
POINT
  8
3
 10
-97.314453
 20
1618.430054
 30
0.0
  0
POINT
  8
3
 10
-95.395508
 20
1607.624634
 30
0.0
  0
POINT
  8
3
 10
-93.100586
 20
1598.073608
 30
0.0
  0
POINT
  8
3
 10
-89.458008
 20
1586.447754
 30
0.0
  0
POINT
  8
3
 10
-87.685547
 20
1581.607788
 30
0.0
  0
POINT
  8
3
 10
-85.698242
 20
1576.855225
 30
0.0
  0
POINT
  8
3
 10
-83.178711
 20
1571.526367
 30
0.0
  0
POINT
  8
3
 10
-80.376099
 20
1566.342285
 30
0.0
  0
POINT
  8
3
 10
-77.187622
 20
1561.203125
 30
0.0
  0
POINT
  8
3
 10
-73.667114
 20
1556.293579
 30
0.0
  0
POINT
  8
3
 10
-69.643677
 20
1551.511353
 30
0.0
  0
POINT
  8
3
 10
-65.293091
 20
1547.022339
 30
0.0
  0
POINT
  8
3
 10
-60.839966
 20
1543.036377
 30
0.0
  0
POINT
  8
3
 10
-56.128052
 20
1539.360962
 30
0.0
  0
POINT
  8
3
 10
-51.186646
 20
1535.958618
 30
0.0
  0
POINT
  8
3
 10
-46.030396
 20
1532.915527
 30
0.0
  0
POINT
  8
3
 10
-40.327271
 20
1530.120972
 30
0.0
  0
POINT
  8
3
 10
-34.438721
 20
1527.746826
 30
0.0
  0
POINT
  8
3
 10
-28.72583
 20
1525.958984
 30
0.0
  0
POINT
  8
3
 10
-22.900635
 20
1524.54187
 30
0.0
  0
POINT
  8
3
 10
-17.309814
 20
1523.46228
 30
0.0
  0
POINT
  8
3
 10
-11.670166
 20
1522.679321
 30
0.0
  0
POINT
  8
3
 10
-6.025635
 20
1522.179688
 30
0.0
  0
POINT
  8
4
 10
216.298584
 20
1451.231079
 30
7.0
 50
180.594467
  0
POINT
  8
4
 10
-216.298828
 20
1451.231079
 30
7.0
 50
358.118317
  0
POLYLINE
  8
87
 66
1
 10
0.0
 20
0.0
 30
0.0
 70
1
  0
VERTEX
  8
87
 10
6.025269
 20
1522.179565
 30
0.0
 70
0
  0
VERTEX
  8
87
 10
11.6698
 20
1522.679321
 30
0.0
 70
0
  0
VERTEX
  8
87
 10
17.309448
 20
1523.462036
 30
0.0
 70
0
  0
VERTEX
  8
87
 10
22.900269
 20
1524.54187
 30
0.0
 70
0
  0
VERTEX
  8
87
 10
28.725464
 20
1525.958862
 30
0.0
 70
0
  0
VERTEX
  8
87
 10
34.438354
 20
1527.746704
 30
0.0
 70
0
  0
VERTEX
  8
87
 10
40.326904
 20
1530.120972
 30
0.0
 70
0
  0
VERTEX
  8
87
 10
46.030151
 20
1532.915405
 30
0.0
 70
0
  0
VERTEX
  8
87
 10
51.186279
 20
1535.958618
 30
0.0
 70
0
  0
VERTEX
  8
87
 10
56.127686
 20
1539.360962
 30
0.0
 70
0
  0
VERTEX
  8
87
 10
60.8396
 20
1543.036255
 30
0.0
 70
0
  0
VERTEX
  8
87
 10
65.292847
 20
1547.022339
 30
0.0
 70
0
  0
VERTEX
  8
87
 10
69.643433
 20
1551.511353
 30
0.0
 70
0
  0
VERTEX
  8
87
 10
73.66687
 20
1556.293579
 30
0.0
 70
0
  0
VERTEX
  8
87
 10
77.187378
 20
1561.203003
 30
0.0
 70
0
  0
VERTEX
  8
87
 10
80.375854
 20
1566.342163
 30
0.0
 70
0
  0
VERTEX
  8
87
 10
83.178589
 20
1571.526245
 30
0.0
 70
0
  0
VERTEX
  8
87
 10
85.697998
 20
1576.855103
 30
0.0
 70
0
  0
VERTEX
  8
87
 10
87.685303
 20
1581.607788
 30
0.0
 70
0
  0
VERTEX
  8
87
 10
89.457886
 20
1586.447632
 30
0.0
 70
0
  0
VERTEX
  8
87
 10
91.379326
 20
1592.230103
 30
0.0
 70
0
  0
VERTEX
  8
87
 10
93.100464
 20
1598.073608
 30
0.0
 70
0
  0
VERTEX
  8
87
 10
94.315773
 20
1602.832031
 30
0.0
 70
0
  0
VERTEX
  8
87
 10
95.395386
 20
1607.624634
 30
0.0
 70
0
  0
VERTEX
  8
87
 10
96.457901
 20
1613.010376
 30
0.0
 70
0
  0
VERTEX
  8
87
 10
97.314331
 20
1618.430054
 30
0.0
 70
0
  0
VERTEX
  8
87
 10
97.866089
 20
1623.053101
 30
0.0
 70
0
  0
VERTEX
  8
87
 10
233.281128
 20
1568.915405
 30
0.0
 70
0
  0
VERTEX
  8
87
 10
229.819092
 20
1559.159058
 30
0.0
 70
0
  0
VERTEX
  8
87
 10
228.246246
 20
1554.238281
 30
0.0
 70
0
  0
VERTEX
  8
87
 10
226.79187
 20
1549.280396
 30
0.0
 70
0
  0
VERTEX
  8
87
 10
224.194092
 20
1539.267456
 30
0.0
 70
0
  0
VERTEX
  8
87
 10
222.026245
 20
1529.152466
 30
0.0
 70
0
  0
VERTEX
  8
87
 10
220.307495
 20
1518.9552
 30
0.0
 70
0
  0
VERTEX
  8
87
 10
218.935303
 20
1508.699097
 30
0.0
 70
0
  0
VERTEX
  8
87
 10
217.826904
 20
1498.414673
 30
0.0
 70
0
  0
VERTEX
  8
87
 10
217.011597
 20
1488.103149
 30
0.0
 70
0
  0
VERTEX
  8
87
 10
216.47937
 20
1477.772583
 30
0.0
 70
0
  0
VERTEX
  8
87
 10
216.220581
 20
1467.431274
 30
0.0
 70
0
  0
VERTEX
  8
87
 10
216.205933
 20
1457.087769
 30
0.0
 70
0
  0
VERTEX
  8
87
 10
216.298584
 20
1451.231079
 30
0.0
 70
0
  0
VERTEX
  8
87
 10
216.420776
 20
1446.745483
 30
0.0
 70
0
  0
VERTEX
  8
87
 10
216.840698
 20
1436.423706
 30
0.0
 70
0
  0
VERTEX
  8
87
 10
217.470581
 20
1426.113892
 30
0.0
 70
0
  0
VERTEX
  8
87
 10
218.285889
 20
1415.784302
 30
0.0
 70
0
  0
VERTEX
  8
87
 10
219.433472
 20
1405.492554
 30
0.0
 70
0
  0
VERTEX
  8
87
 10
220.162048
 20
1400.369873
 30
0.0
 70
0
  0
VERTEX
  8
87
 10
221.010498
 20
1395.265991
 30
0.0
 70
0
  0
VERTEX
  8
87
 10
221.98909
 20
1390.189819
 30
0.0
 70
0
  0
VERTEX
  8
87
 10
223.095581
 20
1385.139526
 30
0.0
 70
0
  0
VERTEX
  8
87
 10
224.332474
 20
1380.110596
 30
0.0
 70
0
  0
VERTEX
  8
87
 10
225.727295
 20
1375.123657
 30
0.0
 70
0
  0
VERTEX
  8
87
 10
227.308716
 20
1370.206177
 30
0.0
 70
0
  0
VERTEX
  8
87
 10
229.10144
 20
1365.36145
 30
0.0
 70
0
  0
VERTEX
  8
87
 10
230.426056
 20
1362.172119
 30
0.0
 70
0
  0
VERTEX
  8
87
 10
231.855484
 20
1359.029541
 30
0.0
 70
0
  0
VERTEX
  8
87
 10
233.393433
 20
1355.937622
 30
0.0
 70
0
  0
VERTEX
  8
87
 10
235.037094
 20
1352.910156
 30
0.0
 70
0
  0
VERTEX
  8
87
 10
236.788605
 20
1349.944824
 30
0.0
 70
0
  0
VERTEX
  8
87
 10
238.647339
 20
1347.044067
 30
0.0
 70
0
  0
VERTEX
  8
87
 10
240.61969
 20
1344.203003
 30
0.0
 70
0
  0
VERTEX
  8
87
 10
242.702393
 20
1341.443359
 30
0.0
 70
0
  0
VERTEX
  8
87
 10
244.9021
 20
1338.773804
 30
0.0
 70
0
  0
VERTEX
  8
87
 10
247.208618
 20
1336.222778
 30
0.0
 70
0
  0
VERTEX
  8
87
 10
249.639664
 20
1333.792236
 30
0.0
 70
0
  0
VERTEX
  8
87
 10
252.201904
 20
1331.500488
 30
0.0
 70
0
  0
VERTEX
  8
87
 10
254.902267
 20
1329.360107
 30
0.0
 70
0
  0
VERTEX
  8
87
 10
257.722595
 20
1327.380127
 30
0.0
 70
0
  0
VERTEX
  8
87
 10
260.649292
 20
1325.559326
 30
0.0
 70
0
  0
VERTEX
  8
87
 10
263.668549
 20
1323.897461
 30
0.0
 70
0
  0
VERTEX
  8
87
 10
266.76947
 20
1322.395996
 30
0.0
 70
0
  0
VERTEX
  8
87
 10
269.946167
 20
1321.053223
 30
0.0
 70
0
  0
VERTEX
  8
87
 10
273.148865
 20
1319.887573
 30
0.0
 70
0
  0
VERTEX
  8
87
 10
276.407898
 20
1318.901245
 30
0.0
 70
0
  0
VERTEX
  8
87
 10
279.716675
 20
1318.117188
 30
0.0
 70
0
  0
VERTEX
  8
87
 10
283.153564
 20
1317.530273
 30
0.0
 70
0
  0
VERTEX
  8
87
 10
286.61792
 20
1317.102905
 30
0.0
 70
0
  0
VERTEX
  8
87
 10
290.097534
 20
1316.754395
 30
0.0
 70
0
  0
VERTEX
  8
87
 10
269.999878
 20
904.464539
 30
0.0
 70
0
  0
VERTEX
  8
87
 10
-0.000122
 20
904.464539
 30
0.0
 70
0
  0
VERTEX
  8
87
 10
-270.0
 20
904.464539
 30
0.0
 70
0
  0
VERTEX
  8
87
 10
-290.097656
 20
1316.754395
 30
0.0
 70
0
  0
VERTEX
  8
87
 10
-286.618042
 20
1317.102905
 30
0.0
 70
0
  0
VERTEX
  8
87
 10
-283.153687
 20
1317.530273
 30
0.0
 70
0
  0
VERTEX
  8
87
 10
-279.716797
 20
1318.117188
 30
0.0
 70
0
  0
VERTEX
  8
87
 10
-276.40802
 20
1318.901245
 30
0.0
 70
0
  0
VERTEX
  8
87
 10
-273.148987
 20
1319.887573
 30
0.0
 70
0
  0
VERTEX
  8
87
 10
-269.946289
 20
1321.053223
 30
0.0
 70
0
  0
VERTEX
  8
87
 10
-266.769592
 20
1322.395874
 30
0.0
 70
0
  0
VERTEX
  8
87
 10
-263.668671
 20
1323.897461
 30
0.0
 70
0
  0
VERTEX
  8
87
 10
-260.649414
 20
1325.559204
 30
0.0
 70
0
  0
VERTEX
  8
87
 10
-257.722717
 20
1327.380005
 30
0.0
 70
0
  0
VERTEX
  8
87
 10
-254.902374
 20
1329.360107
 30
0.0
 70
0
  0
VERTEX
  8
87
 10
-252.202026
 20
1331.500488
 30
0.0
 70
0
  0
VERTEX
  8
87
 10
-249.639847
 20
1333.792358
 30
0.0
 70
0
  0
VERTEX
  8
87
 10
-247.208832
 20
1336.2229
 30
0.0
 70
0
  0
VERTEX
  8
87
 10
-244.902344
 20
1338.773926
 30
0.0
 70
0
  0
VERTEX
  8
87
 10
-242.702591
 20
1341.443481
 30
0.0
 70
0
  0
VERTEX
  8
87
 10
-240.619873
 20
1344.203125
 30
0.0
 70
0
  0
VERTEX
  8
87
 10
-238.647461
 20
1347.044067
 30
0.0
 70
0
  0
VERTEX
  8
87
 10
-236.788712
 20
1349.944946
 30
0.0
 70
0
  0
VERTEX
  8
87
 10
-235.037216
 20
1352.910278
 30
0.0
 70
0
  0
VERTEX
  8
87
 10
-233.393555
 20
1355.937744
 30
0.0
 70
0
  0
VERTEX
  8
87
 10
-231.855606
 20
1359.029663
 30
0.0
 70
0
  0
VERTEX
  8
87
 10
-230.426178
 20
1362.172119
 30
0.0
 70
0
  0
VERTEX
  8
87
 10
-229.101562
 20
1365.36145
 30
0.0
 70
0
  0
VERTEX
  8
87
 10
-227.308899
 20
1370.206177
 30
0.0
 70
0
  0
VERTEX
  8
87
 10
-225.727539
 20
1375.123779
 30
0.0
 70
0
  0
VERTEX
  8
87
 10
-224.332657
 20
1380.110596
 30
0.0
 70
0
  0
VERTEX
  8
87
 10
-223.095703
 20
1385.139404
 30
0.0
 70
0
  0
VERTEX
  8
87
 10
-221.989273
 20
1390.189819
 30
0.0
 70
0
  0
VERTEX
  8
87
 10
-221.010742
 20
1395.265991
 30
0.0
 70
0
  0
VERTEX
  8
87
 10
-220.162231
 20
1400.369873
 30
0.0
 70
0
  0
VERTEX
  8
87
 10
-219.433594
 20
1405.492554
 30
0.0
 70
0
  0
VERTEX
  8
87
 10
-218.286133
 20
1415.784424
 30
0.0
 70
0
  0
VERTEX
  8
87
 10
-217.470703
 20
1426.113892
 30
0.0
 70
0
  0
VERTEX
  8
87
 10
-216.84082
 20
1436.423706
 30
0.0
 70
0
  0
VERTEX
  8
87
 10
-216.420898
 20
1446.745483
 30
0.0
 70
0
  0
VERTEX
  8
87
 10
-216.298828
 20
1451.231079
 30
0.0
 70
0
  0
VERTEX
  8
87
 10
-216.206055
 20
1457.087769
 30
0.0
 70
0
  0
VERTEX
  8
87
 10
-216.220703
 20
1467.431274
 30
0.0
 70
0
  0
VERTEX
  8
87
 10
-216.479492
 20
1477.772583
 30
0.0
 70
0
  0
VERTEX
  8
87
 10
-217.011719
 20
1488.103149
 30
0.0
 70
0
  0
VERTEX
  8
87
 10
-217.827148
 20
1498.414673
 30
0.0
 70
0
  0
VERTEX
  8
87
 10
-218.935547
 20
1508.699097
 30
0.0
 70
0
  0
VERTEX
  8
87
 10
-220.307617
 20
1518.9552
 30
0.0
 70
0
  0
VERTEX
  8
87
 10
-222.026367
 20
1529.152466
 30
0.0
 70
0
  0
VERTEX
  8
87
 10
-224.194336
 20
1539.267456
 30
0.0
 70
0
  0
VERTEX
  8
87
 10
-226.791992
 20
1549.280518
 30
0.0
 70
0
  0
VERTEX
  8
87
 10
-228.246414
 20
1554.238281
 30
0.0
 70
0
  0
VERTEX
  8
87
 10
-229.819336
 20
1559.159058
 30
0.0
 70
0
  0
VERTEX
  8
87
 10
-233.28125
 20
1568.915405
 30
0.0
 70
0
  0
VERTEX
  8
87
 10
-97.866211
 20
1623.053101
 30
0.0
 70
0
  0
VERTEX
  8
87
 10
-97.314453
 20
1618.430054
 30
0.0
 70
0
  0
VERTEX
  8
87
 10
-96.458015
 20
1613.010376
 30
0.0
 70
0
  0
VERTEX
  8
87
 10
-95.395508
 20
1607.624634
 30
0.0
 70
0
  0
VERTEX
  8
87
 10
-94.31591
 20
1602.832031
 30
0.0
 70
0
  0
VERTEX
  8
87
 10
-93.100586
 20
1598.073608
 30
0.0
 70
0
  0
VERTEX
  8
87
 10
-91.379402
 20
1592.230225
 30
0.0
 70
0
  0
VERTEX
  8
87
 10
-89.458008
 20
1586.447754
 30
0.0
 70
0
  0
VERTEX
  8
87
 10
-87.685547
 20
1581.607788
 30
0.0
 70
0
  0
VERTEX
  8
87
 10
-85.698242
 20
1576.855225
 30
0.0
 70
0
  0
VERTEX
  8
87
 10
-83.178711
 20
1571.526367
 30
0.0
 70
0
  0
VERTEX
  8
87
 10
-80.376099
 20
1566.342285
 30
0.0
 70
0
  0
VERTEX
  8
87
 10
-77.187622
 20
1561.203125
 30
0.0
 70
0
  0
VERTEX
  8
87
 10
-73.667114
 20
1556.293579
 30
0.0
 70
0
  0
VERTEX
  8
87
 10
-69.643677
 20
1551.511353
 30
0.0
 70
0
  0
VERTEX
  8
87
 10
-65.293091
 20
1547.022339
 30
0.0
 70
0
  0
VERTEX
  8
87
 10
-60.839966
 20
1543.036377
 30
0.0
 70
0
  0
VERTEX
  8
87
 10
-56.128052
 20
1539.360962
 30
0.0
 70
0
  0
VERTEX
  8
87
 10
-51.186646
 20
1535.958618
 30
0.0
 70
0
  0
VERTEX
  8
87
 10
-46.030396
 20
1532.915527
 30
0.0
 70
0
  0
VERTEX
  8
87
 10
-40.327271
 20
1530.120972
 30
0.0
 70
0
  0
VERTEX
  8
87
 10
-34.438721
 20
1527.746826
 30
0.0
 70
0
  0
VERTEX
  8
87
 10
-28.72583
 20
1525.958984
 30
0.0
 70
0
  0
VERTEX
  8
87
 10
-22.900635
 20
1524.54187
 30
0.0
 70
0
  0
VERTEX
  8
87
 10
-17.309814
 20
1523.46228
 30
0.0
 70
0
  0
VERTEX
  8
87
 10
-11.670166
 20
1522.679321
 30
0.0
 70
0
  0
VERTEX
  8
87
 10
-6.025635
 20
1522.179688
 30
0.0
 70
0
  0
VERTEX
  8
87
 10
-0.000122
 20
1521.960815
 30
0.0
 70
0
  0
SEQEND
  8
0
  0
POLYLINE
  8
8
 66
1
 10
0.0
 20
0.0
 30
0.0
 70
0
  0
VERTEX
  8
8
 10
269.999878
 20
919.464539
 30
0.0
 70
0
  0
VERTEX
  8
8
 10
-0.000122
 20
919.464539
 30
0.0
 70
0
  0
SEQEND
  8
0
  0
TEXT
  8
8
 10
269.999878
 20
919.464539
 30
0.0
 40
0.25
  1
# 9
  7
STANDARD
  0
TEXT
  8
8
 10
-0.000122
 20
919.464539
 30
0.0
 40
0.25
  1
# 10
  7
STANDARD
  0
POINT
  8
2
 10
269.999878
 20
919.464539
 30
0.0
  0
POINT
  8
2
 10
-0.000122
 20
919.464539
 30
0.0
  0
POLYLINE
  8
85
 66
1
 10
0.0
 20
0.0
 30
0.0
 70
0
  0
VERTEX
  8
85
 10
-0.000122
 20
919.464539
 30
0.0
 70
0
  0
SEQEND
  8
0
  0
POLYLINE
  8
8
 66
1
 10
0.0
 20
0.0
 30
0.0
 70
0
  0
VERTEX
  8
8
 10
269.999878
 20
924.464539
 30
0.0
 70
0
  0
VERTEX
  8
8
 10
-0.000122
 20
924.464539
 30
0.0
 70
0
  0
SEQEND
  8
0
  0
TEXT
  8
8
 10
269.999878
 20
924.464539
 30
0.0
 40
0.25
  1
# 11
  7
STANDARD
  0
TEXT
  8
8
 10
-0.000122
 20
924.464539
 30
0.0
 40
0.25
  1
# 12
  7
STANDARD
  0
POINT
  8
2
 10
269.999878
 20
924.464539
 30
0.0
  0
POINT
  8
2
 10
-0.000122
 20
924.464539
 30
0.0
  0
POLYLINE
  8
85
 66
1
 10
0.0
 20
0.0
 30
0.0
 70
0
  0
VERTEX
  8
85
 10
-0.000122
 20
924.464539
 30
0.0
 70
0
  0
SEQEND
  8
0
  0
POLYLINE
  8
8
 66
1
 10
0.0
 20
0.0
 30
0.0
 70
0
  0
VERTEX
  8
8
 10
290.097412
 20
1316.754272
 30
0.0
 70
0
  0
VERTEX
  8
8
 10
-0.000122
 20
1316.754395
 30
0.0
 70
0
  0
SEQEND
  8
0
  0
TEXT
  8
8
 10
290.097412
 20
1316.754272
 30
0.0
 40
0.25
  1
# 6
  7
STANDARD
  0
TEXT
  8
8
 10
-0.000122
 20
1316.754395
 30
0.0
 40
0.25
  1
# 14
  7
STANDARD
  0
POINT
  8
2
 10
290.097412
 20
1316.754272
 30
0.0
  0
POINT
  8
2
 10
-0.000122
 20
1316.754395
 30
0.0
  0
POLYLINE
  8
85
 66
1
 10
0.0
 20
0.0
 30
0.0
 70
0
  0
VERTEX
  8
85
 10
-0.000122
 20
1316.754395
 30
0.0
 70
0
  0
SEQEND
  8
0
  0
POLYLINE
  8
8
 66
1
 10
0.0
 20
0.0
 30
0.0
 70
0
  0
VERTEX
  8
8
 10
-0.000122
 20
904.464539
 30
0.0
 70
0
  0
VERTEX
  8
8
 10
-0.000122
 20
1521.960815
 30
0.0
 70
0
  0
SEQEND
  8
0
  0
TEXT
  8
8
 10
-0.000122
 20
904.464539
 30
0.0
 40
0.25
  1
# 1
  7
STANDARD
  0
TEXT
  8
8
 10
-0.000122
 20
1521.960815
 30
0.0
 40
0.25
  1
# 2
  7
STANDARD
  0
POINT
  8
2
 10
-0.000122
 20
904.464539
 30
0.0
  0
POINT
  8
2
 10
-0.000122
 20
1521.960815
 30
0.0
  0
POLYLINE
  8
85
 66
1
 10
0.0
 20
0.0
 30
0.0
 70
0
  0
VERTEX
  8
85
 10
-0.000122
 20
1521.960815
 30
0.0
 70
0
  0
SEQEND
  8
0
  0
POLYLINE
  8
8
 66
1
 10
0.0
 20
0.0
 30
0.0
 70
0
  0
VERTEX
  8
8
 10
-270.000122
 20
919.464539
 30
0.0
 70
0
  0
VERTEX
  8
8
 10
-0.000122
 20
919.464539
 30
0.0
 70
0
  0
SEQEND
  8
0
  0
TEXT
  8
8
 10
-270.000122
 20
919.464539
 30
0.0
 40
0.25
  1
# 9
  7
STANDARD
  0
TEXT
  8
8
 10
-0.000122
 20
919.464539
 30
0.0
 40
0.25
  1
# 10
  7
STANDARD
  0
POINT
  8
2
 10
-270.000122
 20
919.464539
 30
0.0
  0
POINT
  8
2
 10
-0.000122
 20
919.464539
 30
0.0
  0
POLYLINE
  8
85
 66
1
 10
0.0
 20
0.0
 30
0.0
 70
0
  0
VERTEX
  8
85
 10
-0.000122
 20
919.464539
 30
0.0
 70
0
  0
SEQEND
  8
0
  0
POLYLINE
  8
8
 66
1
 10
0.0
 20
0.0
 30
0.0
 70
0
  0
VERTEX
  8
8
 10
-270.000122
 20
924.464539
 30
0.0
 70
0
  0
VERTEX
  8
8
 10
-0.000122
 20
924.464539
 30
0.0
 70
0
  0
SEQEND
  8
0
  0
TEXT
  8
8
 10
-270.000122
 20
924.464539
 30
0.0
 40
0.25
  1
# 11
  7
STANDARD
  0
TEXT
  8
8
 10
-0.000122
 20
924.464539
 30
0.0
 40
0.25
  1
# 12
  7
STANDARD
  0
POINT
  8
2
 10
-270.000122
 20
924.464539
 30
0.0
  0
POINT
  8
2
 10
-0.000122
 20
924.464539
 30
0.0
  0
POLYLINE
  8
85
 66
1
 10
0.0
 20
0.0
 30
0.0
 70
0
  0
VERTEX
  8
85
 10
-0.000122
 20
924.464539
 30
0.0
 70
0
  0
SEQEND
  8
0
  0
POLYLINE
  8
8
 66
1
 10
0.0
 20
0.0
 30
0.0
 70
0
  0
VERTEX
  8
8
 10
-290.097656
 20
1316.754272
 30
0.0
 70
0
  0
VERTEX
  8
8
 10
-0.000122
 20
1316.754395
 30
0.0
 70
0
  0
SEQEND
  8
0
  0
TEXT
  8
8
 10
-290.097656
 20
1316.754272
 30
0.0
 40
0.25
  1
# 6
  7
STANDARD
  0
TEXT
  8
8
 10
-0.000122
 20
1316.754395
 30
0.0
 40
0.25
  1
# 14
  7
STANDARD
  0
POINT
  8
2
 10
-290.097656
 20
1316.754272
 30
0.0
  0
POINT
  8
2
 10
-0.000122
 20
1316.754395
 30
0.0
  0
POLYLINE
  8
85
 66
1
 10
0.0
 20
0.0
 30
0.0
 70
0
  0
VERTEX
  8
85
 10
-0.000122
 20
1316.754395
 30
0.0
 70
0
  0
SEQEND
  8
0
  0
POLYLINE
  8
8
 66
1
 10
0.0
 20
0.0
 30
0.0
 70
0
  0
VERTEX
  8
8
 10
-0.000122
 20
904.464539
 30
0.0
 70
0
  0
VERTEX
  8
8
 10
-0.000122
 20
1521.960815
 30
0.0
 70
0
  0
SEQEND
  8
0
  0
TEXT
  8
8
 10
-0.000122
 20
904.464539
 30
0.0
 40
0.25
  1
# 1
  7
STANDARD
  0
TEXT
  8
8
 10
-0.000122
 20
1521.960815
 30
0.0
 40
0.25
  1
# 2
  7
STANDARD
  0
POINT
  8
2
 10
-0.000122
 20
904.464539
 30
0.0
  0
POINT
  8
2
 10
-0.000122
 20
1521.960815
 30
0.0
  0
POLYLINE
  8
85
 66
1
 10
0.0
 20
0.0
 30
0.0
 70
0
  0
VERTEX
  8
85
 10
-0.000122
 20
1521.960815
 30
0.0
 70
0
  0
SEQEND
  8
0
  0
TEXT
  8
1
 10
-6.1e-05
 20
1263.758789
 30
0.0
 40
2.5
  1
PIECE NAME: 1
  7
STANDARD
  0
TEXT
  8
1
 10
-6.1e-05
 20
1258.758789
 30
0.0
 40
2.5
  1
SIZE: M
  7
STANDARD
  0
TEXT
  8
1
 10
-6.1e-05
 20
1248.758789
 30
0.0
 40
2.5
  1
QUANTITY: 1
  7
STANDARD
  0
ENDBLK
  8
0
  0
ENDSEC
  0
SECTION
  2
ENTITIES
  0
INSERT
  8
1
  2
1_M
 10
0.0
 20
0.0
 30
0.0
  0
TEXT
  8
1
 10
0.0
 20
0.0
 30
0.0
 40
0.25
  1
STYLE NAME: front_panel
  7
STANDARD
  0
TEXT
  8
1
 10
0.0
 20
0.0
 30
0.0
 40
0.25
  1
CREATION DATE: 01-06-2026
  7
STANDARD
  0
TEXT
  8
1
 10
0.0
 20
0.0
 30
0.0
 40
0.25
  1
CREATION TIME: 13:08
  7
STANDARD
  0
TEXT
  8
1
 10
0.0
 20
0.0
 30
0.0
 40
0.25
  1
AUTHOR: CLO Virtual Fashion Inc.
  7
STANDARD
  0
TEXT
  8
1
 10
0.0
 20
0.0
 30
0.0
 40
0.25
  1
PRODUCT: CLO Standalone OnlineAuth 2026.0.300
  7
STANDARD
  0
TEXT
  8
1
 10
0.0
 20
0.0
 30
0.0
 40
0.25
  1
VERSION: 3
  7
STANDARD
  0
TEXT
  8
1
 10
0.0
 20
0.0
 30
0.0
 40
0.25
  1
SAMPLE SIZE: M
  7
STANDARD
  0
TEXT
  8
1
 10
0.0
 20
0.0
 30
0.0
 40
0.25
  1
UNITS: METRIC
  7
STANDARD
  0
ENDSEC
  0
EOF
