  0
SECTION
  2
HEADER
  9
$ACADVER
  1
AC1009
  9
$DWGCODEPAGE
  3
ANSI_1252
  9
$EXTMIN
 10
1e+20
 20
1e+20
 30
1e+20
  9
$EXTMAX
 10
-1e+20
 20
-1e+20
 30
-1e+20
  9
$LIMMIN
 10
0.0
 20
0.0
  9
$LIMMAX
 10
420.0
 20
297.0
  9
$TDCREATE
 40
2461236.985775463
  9
$TDUPDATE
 40
2461236.985775463
  9
$PEXTMIN
 10
1e+20
 20
1e+20
 30
1e+20
  9
$PEXTMAX
 10
-1e+20
 20
-1e+20
 30
-1e+20
  9
$PLIMMIN
 10
0.0
 20
0.0
  9
$PLIMMAX
 10
420.0
 20
297.0
  0
ENDSEC
  0
SECTION
  2
TABLES
  0
TABLE
  2
VPORT
 70
1
  0
VPORT
  2
*Active
 70
0
 10
0.0
 20
0.0
 11
1.0
 21
1.0
 12
0.0
 22
0.0
 13
0.0
 23
0.0
 14
0.5
 24
0.5
 15
0.5
 25
0.5
 16
0.0
 26
0.0
 36
1.0
 17
0.0
 27
0.0
 37
0.0
 40
1000.0
 41
1.34
 42
50.0
 43
0.0
 44
0.0
 50
0.0
 51
0.0
 71
0
 72
1000
 73
1
 74
3
 75
0
 76
0
 77
0
 78
0
  0
ENDTAB
  0
TABLE
  2
LTYPE
 70
3
  0
LTYPE
  2
ByBlock
 70
0
  3

 72
65
 73
0
 40
0.0
  0
LTYPE
  2
ByLayer
 70
0
  3

 72
65
 73
0
 40
0.0
  0
LTYPE
  2
Continuous
 70
0
  3

 72
65
 73
0
 40
0.0
  0
ENDTAB
  0
TABLE
  2
LAYER
 70
2
  0
LAYER
  2
0
 70
0
 62
7
  6
Continuous
  0
LAYER
  2
Defpoints
 70
0
 62
7
  6
Continuous
  0
ENDTAB
  0
TABLE
  2
STYLE
 70
1
  0
STYLE
  2
Standard
 70
0
 40
0.0
 41
1.0
 50
0.0
 71
0
 42
2.5
  3
txt
  4

  0
ENDTAB
  0
TABLE
  2
VIEW
 70
0
  0
ENDTAB
  0
TABLE
  2
UCS
 70
0
  0
ENDTAB
  0
TABLE
  2
APPID
 70
3
  0
APPID
  2
ACAD
 70
0
  0
APPID
  2
HATCHBACKGROUNDCOLOR
 70
0
  0
APPID
  2
EZDXF
 70
0
  0
ENDTAB
  0
TABLE
  2
DIMSTYLE
 70
1
  0
DIMSTYLE
  2
Standard
 70
0
  3

  4

  5

  6

  7

 40
1.0
 41
2.5
 42
0.625
 43
3.75
 44
1.25
 45
0.0
 46
0.0
 47
0.0
 48
0.0
140
2.5
141
2.5
142
0.0
143
0.03937007874
144
1.0
145
0.0
146
1.0
147
0.625
 71
0
 72
0
 73
0
 74
0
 75
0
 76
0
 77
1
 78
8
170
0
171
3
172
1
173
0
174
0
175
0
176
0
177
0
178
0
  0
ENDTAB
  0
ENDSEC
  0
SECTION
  2
BLOCKS
  0
BLOCK
  8
0
  2
$Model_Space
 70
0
 10
0.0
 20
0.0
 30
0.0
  3
$Model_Space
  1

1001
EZDXF
1000
WRITTEN_BY_EZDXF
1000
1.4.3 @ 2026-07-14T18:09:31.454968+00:00
  0
ENDBLK
  8
0
  0
BLOCK
  8
0
  2
$Paper_Space
 70
0
 10
0.0
 20
0.0
 30
0.0
  3
$Paper_Space
  1

  0
ENDBLK
  8
0
  0
BLOCK
  8
1
  2
7_M
 70
64
 10
0.0
 20
0.0
 30
0.0
  3
7_M
  1

  0
POLYLINE
  8
1
 66
1
 10
0.0
 20
0.0
 30
0.0
 70
1
  0
VERTEX
  8
1
 10
-456.471008
 20
1213.211548
 30
0.0
 70
0
  0
VERTEX
  8
1
 10
-454.088196
 20
1223.335938
 30
0.0
 70
0
  0
VERTEX
  8
1
 10
-451.23172
 20
1233.335693
 30
0.0
 70
0
  0
VERTEX
  8
1
 10
-447.979797
 20
1243.216553
 30
0.0
 70
0
  0
VERTEX
  8
1
 10
-444.117493
 20
1252.871948
 30
0.0
 70
0
  0
VERTEX
  8
1
 10
-439.986603
 20
1262.412964
 30
0.0
 70
0
  0
VERTEX
  8
1
 10
-435.601807
 20
1271.844971
 30
0.0
 70
0
  0
VERTEX
  8
1
 10
-430.948517
 20
1281.14624
 30
0.0
 70
0
  0
VERTEX
  8
1
 10
-421.114502
 20
1299.471436
 30
0.0
 70
0
  0
VERTEX
  8
1
 10
-416.124329
 20
1308.605103
 30
0.0
 70
0
  0
VERTEX
  8
1
 10
-411.241516
 20
1317.782959
 30
0.0
 70
0
  0
VERTEX
  8
1
 10
-406.251221
 20
1326.907227
 30
0.0
 70
0
  0
VERTEX
  8
1
 10
-402.735596
 20
1333.103027
 30
0.0
 70
0
  0
VERTEX
  8
1
 10
-399.444611
 20
1338.819214
 30
0.0
 70
0
  0
VERTEX
  8
1
 10
-409.234619
 20
1341.529053
 30
0.0
 70
0
  0
VERTEX
  8
1
 10
-418.922119
 20
1344.544922
 30
0.0
 70
0
  0
VERTEX
  8
1
 10
-428.507111
 20
1347.884888
 30
0.0
 70
0
  0
VERTEX
  8
1
 10
-437.999329
 20
1351.494507
 30
0.0
 70
0
  0
VERTEX
  8
1
 10
-447.408508
 20
1355.328613
 30
0.0
 70
0
  0
VERTEX
  8
1
 10
-456.724915
 20
1359.380859
 30
0.0
 70
0
  0
VERTEX
  8
1
 10
-465.938721
 20
1363.626953
 30
0.0
 70
0
  0
VERTEX
  8
1
 10
-475.064697
 20
1368.073364
 30
0.0
 70
0
  0
VERTEX
  8
1
 10
-484.093018
 20
1372.718872
 30
0.0
 70
0
  0
VERTEX
  8
1
 10
-493.023712
 20
1377.556519
 30
0.0
 70
0
  0
VERTEX
  8
1
 10
-501.817627
 20
1382.552979
 30
0.0
 70
0
  0
VERTEX
  8
1
 10
-510.494415
 20
1387.751221
 30
0.0
 70
0
  0
VERTEX
  8
1
 10
-527.56958
 20
1398.89209
 30
0.0
 70
0
  0
VERTEX
  8
1
 10
-544.381104
 20
1410.285034
 30
0.0
 70
0
  0
VERTEX
  8
1
 10
-550.631104
 20
1414.499756
 30
0.0
 70
0
  0
VERTEX
  8
1
 10
-561.270813
 20
1421.562012
 30
0.0
 70
0
  0
VERTEX
  8
1
 10
-569.815674
 20
1427.055298
 30
0.0
 70
0
  0
VERTEX
  8
1
 10
-578.4729
 20
1432.357422
 30
0.0
 70
0
  0
VERTEX
  8
1
 10
-587.281494
 20
1437.402344
 30
0.0
 70
0
  0
VERTEX
  8
1
 10
-596.275696
 20
1442.099731
 30
0.0
 70
0
  0
VERTEX
  8
1
 10
-605.489502
 20
1446.372314
 30
0.0
 70
0
  0
VERTEX
  8
1
 10
-614.927979
 20
1450.116699
 30
0.0
 70
0
  0
VERTEX
  8
1
 10
-624.596008
 20
1453.213989
 30
0.0
 70
0
  0
VERTEX
  8
1
 10
-634.44458
 20
1455.643921
 30
0.0
 70
0
  0
VERTEX
  8
1
 10
-644.430054
 20
1457.347534
 30
0.0
 70
0
  0
VERTEX
  8
1
 10
-654.561768
 20
1458.337524
 30
0.0
 70
0
  0
VERTEX
  8
1
 10
-664.063721
 20
1457.534546
 30
0.0
 70
0
  0
VERTEX
  8
1
 10
-673.4729
 20
1456.143677
 30
0.0
 70
0
  0
VERTEX
  8
1
 10
-682.794189
 20
1454.154541
 30
0.0
 70
0
  0
VERTEX
  8
1
 10
-691.983704
 20
1451.609009
 30
0.0
 70
0
  0
VERTEX
  8
1
 10
-701.00708
 20
1448.541138
 30
0.0
 70
0
  0
VERTEX
  8
1
 10
-709.844971
 20
1444.977173
 30
0.0
 70
0
  0
VERTEX
  8
1
 10
-718.468018
 20
1440.908691
 30
0.0
 70
0
  0
VERTEX
  8
1
 10
-726.9104
 20
1436.479736
 30
0.0
 70
0
  0
VERTEX
  8
1
 10
-735.235596
 20
1431.840942
 30
0.0
 70
0
  0
VERTEX
  8
1
 10
-736.202393
 20
1431.276855
 30
0.0
 70
0
  0
VERTEX
  8
1
 10
-743.424072
 20
1426.967529
 30
0.0
 70
0
  0
VERTEX
  8
1
 10
-744.771729
 20
1426.135498
 30
0.0
 70
0
  0
VERTEX
  8
1
 10
-751.485596
 20
1421.876831
 30
0.0
 70
0
  0
VERTEX
  8
1
 10
-759.42511
 20
1416.590332
 30
0.0
 70
0
  0
VERTEX
  8
1
 10
-774.937805
 20
1405.511597
 30
0.0
 70
0
  0
VERTEX
  8
1
 10
-790.264893
 20
1394.187134
 30
0.0
 70
0
  0
VERTEX
  8
1
 10
-805.709229
 20
1383.001465
 30
0.0
 70
0
  0
VERTEX
  8
1
 10
-821.554016
 20
1372.398193
 30
0.0
 70
0
  0
VERTEX
  8
1
 10
-829.561768
 20
1367.231934
 30
0.0
 70
0
  0
VERTEX
  8
1
 10
-837.691711
 20
1362.251953
 30
0.0
 70
0
  0
VERTEX
  8
1
 10
-845.98761
 20
1357.557251
 30
0.0
 70
0
  0
VERTEX
  8
1
 10
-854.434814
 20
1353.138794
 30
0.0
 70
0
  0
VERTEX
  8
1
 10
-863.018799
 20
1349.000488
 30
0.0
 70
0
  0
VERTEX
  8
1
 10
-871.759155
 20
1345.203491
 30
0.0
 70
0
  0
VERTEX
  8
1
 10
-880.6604
 20
1341.815552
 30
0.0
 70
0
  0
VERTEX
  8
1
 10
-889.718018
 20
1338.816528
 30
0.0
 70
0
  0
VERTEX
  8
1
 10
-885.587158
 20
1330.598511
 30
0.0
 70
0
  0
VERTEX
  8
1
 10
-881.339111
 20
1321.874268
 30
0.0
 70
0
  0
VERTEX
  8
1
 10
-877.208313
 20
1313.092041
 30
0.0
 70
0
  0
VERTEX
  8
1
 10
-873.101807
 20
1304.301147
 30
0.0
 70
0
  0
VERTEX
  8
1
 10
-868.941711
 20
1295.533691
 30
0.0
 70
0
  0
VERTEX
  8
1
 10
-864.815674
 20
1286.750732
 30
0.0
 70
0
  0
VERTEX
  8
1
 10
-860.777588
 20
1277.929565
 30
0.0
 70
0
  0
VERTEX
  8
1
 10
-856.988525
 20
1268.993774
 30
0.0
 70
0
  0
VERTEX
  8
1
 10
-853.453369
 20
1259.958008
 30
0.0
 70
0
  0
VERTEX
  8
1
 10
-850.133118
 20
1250.840088
 30
0.0
 70
0
  0
VERTEX
  8
1
 10
-847.105713
 20
1241.620728
 30
0.0
 70
0
  0
VERTEX
  8
1
 10
-844.644775
 20
1232.234741
 30
0.0
 70
0
  0
VERTEX
  8
1
 10
-842.515869
 20
1222.768555
 30
0.0
 70
0
  0
VERTEX
  8
1
 10
-840.821655
 20
1213.212769
 30
0.0
 70
0
  0
VERTEX
  8
1
 10
-813.424072
 20
1215.342529
 30
0.0
 70
0
  0
VERTEX
  8
1
 10
-786.00708
 20
1217.20874
 30
0.0
 70
0
  0
VERTEX
  8
1
 10
-758.551025
 20
1218.390381
 30
0.0
 70
0
  0
VERTEX
  8
1
 10
-731.085205
 20
1219.035645
 30
0.0
 70
0
  0
VERTEX
  8
1
 10
-703.604797
 20
1219.476562
 30
0.0
 70
0
  0
VERTEX
  8
1
 10
-676.129211
 20
1219.658691
 30
0.0
 70
0
  0
VERTEX
  8
1
 10
-648.648682
 20
1219.706421
 30
0.0
 70
0
  0
VERTEX
  8
1
 10
-621.163391
 20
1219.67395
 30
0.0
 70
0
  0
VERTEX
  8
1
 10
-593.687805
 20
1219.348999
 30
0.0
 70
0
  0
VERTEX
  8
1
 10
-538.741516
 20
1218.388916
 30
0.0
 70
0
  0
VERTEX
  8
1
 10
-511.280518
 20
1217.230957
 30
0.0
 70
0
  0
VERTEX
  8
1
 10
-483.868408
 20
1215.353149
 30
0.0
 70
0
  0
SEQEND
  8
0
  0
TEXT
  8
1
 10
-456.471008
 20
1213.211548
 30
0.0
 40
0.25
  1
# 33
  7
STANDARD
  0
TEXT
  8
1
 10
-454.088196
 20
1223.335938
 30
0.0
 40
0.25
  1
# -1
  7
STANDARD
  0
TEXT
  8
1
 10
-451.23172
 20
1233.335693
 30
0.0
 40
0.25
  1
# -1
  7
STANDARD
  0
TEXT
  8
1
 10
-447.979797
 20
1243.216553
 30
0.0
 40
0.25
  1
# -1
  7
STANDARD
  0
TEXT
  8
1
 10
-444.117493
 20
1252.871948
 30
0.0
 40
0.25
  1
# -1
  7
STANDARD
  0
TEXT
  8
1
 10
-439.986603
 20
1262.412964
 30
0.0
 40
0.25
  1
# -1
  7
STANDARD
  0
TEXT
  8
1
 10
-435.601807
 20
1271.844971
 30
0.0
 40
0.25
  1
# -1
  7
STANDARD
  0
TEXT
  8
1
 10
-430.948517
 20
1281.14624
 30
0.0
 40
0.25
  1
# -1
  7
STANDARD
  0
TEXT
  8
1
 10
-421.114502
 20
1299.471436
 30
0.0
 40
0.25
  1
# -1
  7
STANDARD
  0
TEXT
  8
1
 10
-416.124329
 20
1308.605103
 30
0.0
 40
0.25
  1
# -1
  7
STANDARD
  0
TEXT
  8
1
 10
-411.241516
 20
1317.782959
 30
0.0
 40
0.25
  1
# -1
  7
STANDARD
  0
TEXT
  8
1
 10
-406.251221
 20
1326.907227
 30
0.0
 40
0.25
  1
# -1
  7
STANDARD
  0
TEXT
  8
1
 10
-402.735596
 20
1333.103027
 30
0.0
 40
0.25
  1
# -1
  7
STANDARD
  0
TEXT
  8
1
 10
-399.444611
 20
1338.819214
 30
0.0
 40
0.25
  1
# 34
  7
STANDARD
  0
TEXT
  8
1
 10
-409.234619
 20
1341.529053
 30
0.0
 40
0.25
  1
# -1
  7
STANDARD
  0
TEXT
  8
1
 10
-418.922119
 20
1344.544922
 30
0.0
 40
0.25
  1
# -1
  7
STANDARD
  0
TEXT
  8
1
 10
-428.507111
 20
1347.884888
 30
0.0
 40
0.25
  1
# -1
  7
STANDARD
  0
TEXT
  8
1
 10
-437.999329
 20
1351.494507
 30
0.0
 40
0.25
  1
# -1
  7
STANDARD
  0
TEXT
  8
1
 10
-447.408508
 20
1355.328613
 30
0.0
 40
0.25
  1
# -1
  7
STANDARD
  0
TEXT
  8
1
 10
-456.724915
 20
1359.380859
 30
0.0
 40
0.25
  1
# -1
  7
STANDARD
  0
TEXT
  8
1
 10
-465.938721
 20
1363.626953
 30
0.0
 40
0.25
  1
# -1
  7
STANDARD
  0
TEXT
  8
1
 10
-475.064697
 20
1368.073364
 30
0.0
 40
0.25
  1
# -1
  7
STANDARD
  0
TEXT
  8
1
 10
-484.093018
 20
1372.718872
 30
0.0
 40
0.25
  1
# -1
  7
STANDARD
  0
TEXT
  8
1
 10
-493.023712
 20
1377.556519
 30
0.0
 40
0.25
  1
# -1
  7
STANDARD
  0
TEXT
  8
1
 10
-501.817627
 20
1382.552979
 30
0.0
 40
0.25
  1
# -1
  7
STANDARD
  0
TEXT
  8
1
 10
-510.494415
 20
1387.751221
 30
0.0
 40
0.25
  1
# -1
  7
STANDARD
  0
TEXT
  8
1
 10
-527.56958
 20
1398.89209
 30
0.0
 40
0.25
  1
# -1
  7
STANDARD
  0
TEXT
  8
1
 10
-544.381104
 20
1410.285034
 30
0.0
 40
0.25
  1
# -1
  7
STANDARD
  0
TEXT
  8
1
 10
-550.631104
 20
1414.499756
 30
0.0
 40
0.25
  1
# -1
  7
STANDARD
  0
TEXT
  8
1
 10
-561.270813
 20
1421.562012
 30
0.0
 40
0.25
  1
# -1
  7
STANDARD
  0
TEXT
  8
1
 10
-569.815674
 20
1427.055298
 30
0.0
 40
0.25
  1
# -1
  7
STANDARD
  0
TEXT
  8
1
 10
-578.4729
 20
1432.357422
 30
0.0
 40
0.25
  1
# -1
  7
STANDARD
  0
TEXT
  8
1
 10
-587.281494
 20
1437.402344
 30
0.0
 40
0.25
  1
# -1
  7
STANDARD
  0
TEXT
  8
1
 10
-596.275696
 20
1442.099731
 30
0.0
 40
0.25
  1
# -1
  7
STANDARD
  0
TEXT
  8
1
 10
-605.489502
 20
1446.372314
 30
0.0
 40
0.25
  1
# -1
  7
STANDARD
  0
TEXT
  8
1
 10
-614.927979
 20
1450.116699
 30
0.0
 40
0.25
  1
# -1
  7
STANDARD
  0
TEXT
  8
1
 10
-624.596008
 20
1453.213989
 30
0.0
 40
0.25
  1
# -1
  7
STANDARD
  0
TEXT
  8
1
 10
-634.44458
 20
1455.643921
 30
0.0
 40
0.25
  1
# -1
  7
STANDARD
  0
TEXT
  8
1
 10
-644.430054
 20
1457.347534
 30
0.0
 40
0.25
  1
# -1
  7
STANDARD
  0
TEXT
  8
1
 10
-654.561768
 20
1458.337524
 30
0.0
 40
0.25
  1
# 36
  7
STANDARD
  0
TEXT
  8
1
 10
-664.063721
 20
1457.534546
 30
0.0
 40
0.25
  1
# -1
  7
STANDARD
  0
TEXT
  8
1
 10
-673.4729
 20
1456.143677
 30
0.0
 40
0.25
  1
# -1
  7
STANDARD
  0
TEXT
  8
1
 10
-682.794189
 20
1454.154541
 30
0.0
 40
0.25
  1
# -1
  7
STANDARD
  0
TEXT
  8
1
 10
-691.983704
 20
1451.609009
 30
0.0
 40
0.25
  1
# -1
  7
STANDARD
  0
TEXT
  8
1
 10
-701.00708
 20
1448.541138
 30
0.0
 40
0.25
  1
# -1
  7
STANDARD
  0
TEXT
  8
1
 10
-709.844971
 20
1444.977173
 30
0.0
 40
0.25
  1
# -1
  7
STANDARD
  0
TEXT
  8
1
 10
-718.468018
 20
1440.908691
 30
0.0
 40
0.25
  1
# -1
  7
STANDARD
  0
TEXT
  8
1
 10
-726.9104
 20
1436.479736
 30
0.0
 40
0.25
  1
# -1
  7
STANDARD
  0
TEXT
  8
1
 10
-735.235596
 20
1431.840942
 30
0.0
 40
0.25
  1
# -1
  7
STANDARD
  0
TEXT
  8
1
 10
-736.202393
 20
1431.276855
 30
0.0
 40
0.25
  1
# -1
  7
STANDARD
  0
TEXT
  8
1
 10
-743.424072
 20
1426.967529
 30
0.0
 40
0.25
  1
# -1
  7
STANDARD
  0
TEXT
  8
1
 10
-744.771729
 20
1426.135498
 30
0.0
 40
0.25
  1
# -1
  7
STANDARD
  0
TEXT
  8
1
 10
-751.485596
 20
1421.876831
 30
0.0
 40
0.25
  1
# -1
  7
STANDARD
  0
TEXT
  8
1
 10
-759.42511
 20
1416.590332
 30
0.0
 40
0.25
  1
# -1
  7
STANDARD
  0
TEXT
  8
1
 10
-774.937805
 20
1405.511597
 30
0.0
 40
0.25
  1
# -1
  7
STANDARD
  0
TEXT
  8
1
 10
-790.264893
 20
1394.187134
 30
0.0
 40
0.25
  1
# -1
  7
STANDARD
  0
TEXT
  8
1
 10
-805.709229
 20
1383.001465
 30
0.0
 40
0.25
  1
# -1
  7
STANDARD
  0
TEXT
  8
1
 10
-821.554016
 20
1372.398193
 30
0.0
 40
0.25
  1
# -1
  7
STANDARD
  0
TEXT
  8
1
 10
-829.561768
 20
1367.231934
 30
0.0
 40
0.25
  1
# -1
  7
STANDARD
  0
TEXT
  8
1
 10
-837.691711
 20
1362.251953
 30
0.0
 40
0.25
  1
# -1
  7
STANDARD
  0
TEXT
  8
1
 10
-845.98761
 20
1357.557251
 30
0.0
 40
0.25
  1
# -1
  7
STANDARD
  0
TEXT
  8
1
 10
-854.434814
 20
1353.138794
 30
0.0
 40
0.25
  1
# -1
  7
STANDARD
  0
TEXT
  8
1
 10
-863.018799
 20
1349.000488
 30
0.0
 40
0.25
  1
# -1
  7
STANDARD
  0
TEXT
  8
1
 10
-871.759155
 20
1345.203491
 30
0.0
 40
0.25
  1
# -1
  7
STANDARD
  0
TEXT
  8
1
 10
-880.6604
 20
1341.815552
 30
0.0
 40
0.25
  1
# -1
  7
STANDARD
  0
TEXT
  8
1
 10
-889.718018
 20
1338.816528
 30
0.0
 40
0.25
  1
# 39
  7
STANDARD
  0
TEXT
  8
1
 10
-885.587158
 20
1330.598511
 30
0.0
 40
0.25
  1
# -1
  7
STANDARD
  0
TEXT
  8
1
 10
-881.339111
 20
1321.874268
 30
0.0
 40
0.25
  1
# -1
  7
STANDARD
  0
TEXT
  8
1
 10
-877.208313
 20
1313.092041
 30
0.0
 40
0.25
  1
# -1
  7
STANDARD
  0
TEXT
  8
1
 10
-873.101807
 20
1304.301147
 30
0.0
 40
0.25
  1
# -1
  7
STANDARD
  0
TEXT
  8
1
 10
-868.941711
 20
1295.533691
 30
0.0
 40
0.25
  1
# -1
  7
STANDARD
  0
TEXT
  8
1
 10
-864.815674
 20
1286.750732
 30
0.0
 40
0.25
  1
# -1
  7
STANDARD
  0
TEXT
  8
1
 10
-860.777588
 20
1277.929565
 30
0.0
 40
0.25
  1
# -1
  7
STANDARD
  0
TEXT
  8
1
 10
-856.988525
 20
1268.993774
 30
0.0
 40
0.25
  1
# -1
  7
STANDARD
  0
TEXT
  8
1
 10
-853.453369
 20
1259.958008
 30
0.0
 40
0.25
  1
# -1
  7
STANDARD
  0
TEXT
  8
1
 10
-850.133118
 20
1250.840088
 30
0.0
 40
0.25
  1
# -1
  7
STANDARD
  0
TEXT
  8
1
 10
-847.105713
 20
1241.620728
 30
0.0
 40
0.25
  1
# -1
  7
STANDARD
  0
TEXT
  8
1
 10
-844.644775
 20
1232.234741
 30
0.0
 40
0.25
  1
# -1
  7
STANDARD
  0
TEXT
  8
1
 10
-842.515869
 20
1222.768555
 30
0.0
 40
0.25
  1
# -1
  7
STANDARD
  0
TEXT
  8
1
 10
-840.821655
 20
1213.212769
 30
0.0
 40
0.25
  1
# 40
  7
STANDARD
  0
TEXT
  8
1
 10
-813.424072
 20
1215.342529
 30
0.0
 40
0.25
  1
# -1
  7
STANDARD
  0
TEXT
  8
1
 10
-786.00708
 20
1217.20874
 30
0.0
 40
0.25
  1
# -1
  7
STANDARD
  0
TEXT
  8
1
 10
-758.551025
 20
1218.390381
 30
0.0
 40
0.25
  1
# -1
  7
STANDARD
  0
TEXT
  8
1
 10
-731.085205
 20
1219.035645
 30
0.0
 40
0.25
  1
# -1
  7
STANDARD
  0
TEXT
  8
1
 10
-703.604797
 20
1219.476562
 30
0.0
 40
0.25
  1
# -1
  7
STANDARD
  0
TEXT
  8
1
 10
-676.129211
 20
1219.658691
 30
0.0
 40
0.25
  1
# -1
  7
STANDARD
  0
TEXT
  8
1
 10
-648.648682
 20
1219.706421
 30
0.0
 40
0.25
  1
# -1
  7
STANDARD
  0
TEXT
  8
1
 10
-621.163391
 20
1219.67395
 30
0.0
 40
0.25
  1
# -1
  7
STANDARD
  0
TEXT
  8
1
 10
-593.687805
 20
1219.348999
 30
0.0
 40
0.25
  1
# -1
  7
STANDARD
  0
TEXT
  8
1
 10
-538.741516
 20
1218.388916
 30
0.0
 40
0.25
  1
# -1
  7
STANDARD
  0
TEXT
  8
1
 10
-511.280518
 20
1217.230957
 30
0.0
 40
0.25
  1
# -1
  7
STANDARD
  0
TEXT
  8
1
 10
-483.868408
 20
1215.353149
 30
0.0
 40
0.25
  1
# -1
  7
STANDARD
  0
POINT
  8
2
 10
-456.471008
 20
1213.211548
 30
0.0
  0
POINT
  8
2
 10
-399.444611
 20
1338.819214
 30
0.0
  0
POINT
  8
2
 10
-654.561768
 20
1458.337524
 30
0.0
  0
POINT
  8
2
 10
-889.718018
 20
1338.816528
 30
0.0
  0
POINT
  8
2
 10
-840.821655
 20
1213.212769
 30
0.0
  0
POINT
  8
3
 10
-454.088196
 20
1223.335938
 30
0.0
  0
POINT
  8
3
 10
-451.23172
 20
1233.335693
 30
0.0
  0
POINT
  8
3
 10
-447.979797
 20
1243.216553
 30
0.0
  0
POINT
  8
3
 10
-444.117493
 20
1252.871948
 30
0.0
  0
POINT
  8
3
 10
-439.986603
 20
1262.412964
 30
0.0
  0
POINT
  8
3
 10
-435.601807
 20
1271.844971
 30
0.0
  0
POINT
  8
3
 10
-430.948517
 20
1281.14624
 30
0.0
  0
POINT
  8
3
 10
-421.114502
 20
1299.471436
 30
0.0
  0
POINT
  8
3
 10
-416.124329
 20
1308.605103
 30
0.0
  0
POINT
  8
3
 10
-411.241516
 20
1317.782959
 30
0.0
  0
POINT
  8
3
 10
-406.251221
 20
1326.907227
 30
0.0
  0
POINT
  8
3
 10
-402.735596
 20
1333.103027
 30
0.0
  0
POINT
  8
3
 10
-409.234619
 20
1341.529053
 30
0.0
  0
POINT
  8
3
 10
-418.922119
 20
1344.544922
 30
0.0
  0
POINT
  8
3
 10
-428.507111
 20
1347.884888
 30
0.0
  0
POINT
  8
3
 10
-437.999329
 20
1351.494507
 30
0.0
  0
POINT
  8
3
 10
-447.408508
 20
1355.328613
 30
0.0
  0
POINT
  8
3
 10
-456.724915
 20
1359.380859
 30
0.0
  0
POINT
  8
3
 10
-465.938721
 20
1363.626953
 30
0.0
  0
POINT
  8
3
 10
-475.064697
 20
1368.073364
 30
0.0
  0
POINT
  8
3
 10
-484.093018
 20
1372.718872
 30
0.0
  0
POINT
  8
3
 10
-493.023712
 20
1377.556519
 30
0.0
  0
POINT
  8
3
 10
-501.817627
 20
1382.552979
 30
0.0
  0
POINT
  8
3
 10
-510.494415
 20
1387.751221
 30
0.0
  0
POINT
  8
3
 10
-527.56958
 20
1398.89209
 30
0.0
  0
POINT
  8
3
 10
-544.381104
 20
1410.285034
 30
0.0
  0
POINT
  8
3
 10
-550.631104
 20
1414.499756
 30
0.0
  0
POINT
  8
3
 10
-561.270813
 20
1421.562012
 30
0.0
  0
POINT
  8
3
 10
-569.815674
 20
1427.055298
 30
0.0
  0
POINT
  8
3
 10
-578.4729
 20
1432.357422
 30
0.0
  0
POINT
  8
3
 10
-587.281494
 20
1437.402344
 30
0.0
  0
POINT
  8
3
 10
-596.275696
 20
1442.099731
 30
0.0
  0
POINT
  8
3
 10
-605.489502
 20
1446.372314
 30
0.0
  0
POINT
  8
3
 10
-614.927979
 20
1450.116699
 30
0.0
  0
POINT
  8
3
 10
-624.596008
 20
1453.213989
 30
0.0
  0
POINT
  8
3
 10
-634.44458
 20
1455.643921
 30
0.0
  0
POINT
  8
3
 10
-644.430054
 20
1457.347534
 30
0.0
  0
POINT
  8
3
 10
-664.063721
 20
1457.534546
 30
0.0
  0
POINT
  8
3
 10
-673.4729
 20
1456.143677
 30
0.0
  0
POINT
  8
3
 10
-682.794189
 20
1454.154541
 30
0.0
  0
POINT
  8
3
 10
-691.983704
 20
1451.609009
 30
0.0
  0
POINT
  8
3
 10
-701.00708
 20
1448.541138
 30
0.0
  0
POINT
  8
3
 10
-709.844971
 20
1444.977173
 30
0.0
  0
POINT
  8
3
 10
-718.468018
 20
1440.908691
 30
0.0
  0
POINT
  8
3
 10
-726.9104
 20
1436.479736
 30
0.0
  0
POINT
  8
3
 10
-735.235596
 20
1431.840942
 30
0.0
  0
POINT
  8
3
 10
-736.202393
 20
1431.276855
 30
0.0
  0
POINT
  8
3
 10
-743.424072
 20
1426.967529
 30
0.0
  0
POINT
  8
3
 10
-744.771729
 20
1426.135498
 30
0.0
  0
POINT
  8
3
 10
-751.485596
 20
1421.876831
 30
0.0
  0
POINT
  8
3
 10
-759.42511
 20
1416.590332
 30
0.0
  0
POINT
  8
3
 10
-774.937805
 20
1405.511597
 30
0.0
  0
POINT
  8
3
 10
-790.264893
 20
1394.187134
 30
0.0
  0
POINT
  8
3
 10
-805.709229
 20
1383.001465
 30
0.0
  0
POINT
  8
3
 10
-821.554016
 20
1372.398193
 30
0.0
  0
POINT
  8
3
 10
-829.561768
 20
1367.231934
 30
0.0
  0
POINT
  8
3
 10
-837.691711
 20
1362.251953
 30
0.0
  0
POINT
  8
3
 10
-845.98761
 20
1357.557251
 30
0.0
  0
POINT
  8
3
 10
-854.434814
 20
1353.138794
 30
0.0
  0
POINT
  8
3
 10
-863.018799
 20
1349.000488
 30
0.0
  0
POINT
  8
3
 10
-871.759155
 20
1345.203491
 30
0.0
  0
POINT
  8
3
 10
-880.6604
 20
1341.815552
 30
0.0
  0
POINT
  8
3
 10
-885.587158
 20
1330.598511
 30
0.0
  0
POINT
  8
3
 10
-881.339111
 20
1321.874268
 30
0.0
  0
POINT
  8
3
 10
-877.208313
 20
1313.092041
 30
0.0
  0
POINT
  8
3
 10
-873.101807
 20
1304.301147
 30
0.0
  0
POINT
  8
3
 10
-868.941711
 20
1295.533691
 30
0.0
  0
POINT
  8
3
 10
-864.815674
 20
1286.750732
 30
0.0
  0
POINT
  8
3
 10
-860.777588
 20
1277.929565
 30
0.0
  0
POINT
  8
3
 10
-856.988525
 20
1268.993774
 30
0.0
  0
POINT
  8
3
 10
-853.453369
 20
1259.958008
 30
0.0
  0
POINT
  8
3
 10
-850.133118
 20
1250.840088
 30
0.0
  0
POINT
  8
3
 10
-847.105713
 20
1241.620728
 30
0.0
  0
POINT
  8
3
 10
-844.644775
 20
1232.234741
 30
0.0
  0
POINT
  8
3
 10
-842.515869
 20
1222.768555
 30
0.0
  0
POINT
  8
3
 10
-813.424072
 20
1215.342529
 30
0.0
  0
POINT
  8
3
 10
-786.00708
 20
1217.20874
 30
0.0
  0
POINT
  8
3
 10
-758.551025
 20
1218.390381
 30
0.0
  0
POINT
  8
3
 10
-731.085205
 20
1219.035645
 30
0.0
  0
POINT
  8
3
 10
-703.604797
 20
1219.476562
 30
0.0
  0
POINT
  8
3
 10
-676.129211
 20
1219.658691
 30
0.0
  0
POINT
  8
3
 10
-648.648682
 20
1219.706421
 30
0.0
  0
POINT
  8
3
 10
-621.163391
 20
1219.67395
 30
0.0
  0
POINT
  8
3
 10
-593.687805
 20
1219.348999
 30
0.0
  0
POINT
  8
3
 10
-538.741516
 20
1218.388916
 30
0.0
  0
POINT
  8
3
 10
-511.280518
 20
1217.230957
 30
0.0
  0
POINT
  8
3
 10
-483.868408
 20
1215.353149
 30
0.0
  0
POINT
  8
4
 10
-550.631104
 20
1414.499756
 30
7.0
 50
234.459076
  0
POINT
  8
4
 10
-654.561768
 20
1458.337524
 30
7.0
 39
14.9176
 50
265.926331
  0
POINT
  8
4
 10
-736.202393
 20
1431.276855
 30
7.0
 50
300.151733
  0
POINT
  8
4
 10
-744.771729
 20
1426.135498
 30
7.0
 50
301.742218
  0
POLYLINE
  8
84
 66
1
 10
0.0
 20
0.0
 30
0.0
 70
1
  0
VERTEX
  8
84
 10
-454.088196
 20
1223.335938
 30
0.0
 70
0
  0
VERTEX
  8
84
 10
-451.23172
 20
1233.335693
 30
0.0
 70
0
  0
VERTEX
  8
84
 10
-449.671448
 20
1238.29895
 30
0.0
 70
0
  0
VERTEX
  8
84
 10
-447.979797
 20
1243.216553
 30
0.0
 70
0
  0
VERTEX
  8
84
 10
-446.108521
 20
1248.067017
 30
0.0
 70
0
  0
VERTEX
  8
84
 10
-444.117493
 20
1252.871948
 30
0.0
 70
0
  0
VERTEX
  8
84
 10
-439.986603
 20
1262.412964
 30
0.0
 70
0
  0
VERTEX
  8
84
 10
-435.601807
 20
1271.844971
 30
0.0
 70
0
  0
VERTEX
  8
84
 10
-430.948517
 20
1281.14624
 30
0.0
 70
0
  0
VERTEX
  8
84
 10
-427.727722
 20
1287.285645
 30
0.0
 70
0
  0
VERTEX
  8
84
 10
-424.441833
 20
1293.388428
 30
0.0
 70
0
  0
VERTEX
  8
84
 10
-421.114502
 20
1299.471436
 30
0.0
 70
0
  0
VERTEX
  8
84
 10
-416.124329
 20
1308.605103
 30
0.0
 70
0
  0
VERTEX
  8
84
 10
-411.241516
 20
1317.782959
 30
0.0
 70
0
  0
VERTEX
  8
84
 10
-406.251221
 20
1326.907227
 30
0.0
 70
0
  0
VERTEX
  8
84
 10
-402.735596
 20
1333.103027
 30
0.0
 70
0
  0
VERTEX
  8
84
 10
-399.444611
 20
1338.819214
 30
0.0
 70
0
  0
VERTEX
  8
84
 10
-409.234619
 20
1341.529053
 30
0.0
 70
0
  0
VERTEX
  8
84
 10
-418.922119
 20
1344.544922
 30
0.0
 70
0
  0
VERTEX
  8
84
 10
-428.507111
 20
1347.884888
 30
0.0
 70
0
  0
VERTEX
  8
84
 10
-437.999329
 20
1351.494507
 30
0.0
 70
0
  0
VERTEX
  8
84
 10
-447.408508
 20
1355.328613
 30
0.0
 70
0
  0
VERTEX
  8
84
 10
-456.724915
 20
1359.380859
 30
0.0
 70
0
  0
VERTEX
  8
84
 10
-465.938721
 20
1363.626953
 30
0.0
 70
0
  0
VERTEX
  8
84
 10
-475.064697
 20
1368.073364
 30
0.0
 70
0
  0
VERTEX
  8
84
 10
-484.093018
 20
1372.718872
 30
0.0
 70
0
  0
VERTEX
  8
84
 10
-493.023712
 20
1377.556519
 30
0.0
 70
0
  0
VERTEX
  8
84
 10
-501.817627
 20
1382.552979
 30
0.0
 70
0
  0
VERTEX
  8
84
 10
-510.494415
 20
1387.751221
 30
0.0
 70
0
  0
VERTEX
  8
84
 10
-516.237671
 20
1391.385498
 30
0.0
 70
0
  0
VERTEX
  8
84
 10
-521.921082
 20
1395.109985
 30
0.0
 70
0
  0
VERTEX
  8
84
 10
-527.56958
 20
1398.89209
 30
0.0
 70
0
  0
VERTEX
  8
84
 10
-544.381104
 20
1410.285034
 30
0.0
 70
0
  0
VERTEX
  8
84
 10
-550.631104
 20
1414.499756
 30
0.0
 70
0
  0
VERTEX
  8
84
 10
-561.270813
 20
1421.562012
 30
0.0
 70
0
  0
VERTEX
  8
84
 10
-569.815674
 20
1427.055298
 30
0.0
 70
0
  0
VERTEX
  8
84
 10
-578.4729
 20
1432.357422
 30
0.0
 70
0
  0
VERTEX
  8
84
 10
-587.281494
 20
1437.402344
 30
0.0
 70
0
  0
VERTEX
  8
84
 10
-596.275696
 20
1442.099731
 30
0.0
 70
0
  0
VERTEX
  8
84
 10
-600.855225
 20
1444.294922
 30
0.0
 70
0
  0
VERTEX
  8
84
 10
-605.489502
 20
1446.372314
 30
0.0
 70
0
  0
VERTEX
  8
84
 10
-610.179321
 20
1448.31897
 30
0.0
 70
0
  0
VERTEX
  8
84
 10
-614.927979
 20
1450.116699
 30
0.0
 70
0
  0
VERTEX
  8
84
 10
-619.735229
 20
1451.748657
 30
0.0
 70
0
  0
VERTEX
  8
84
 10
-624.596008
 20
1453.213989
 30
0.0
 70
0
  0
VERTEX
  8
84
 10
-629.499268
 20
1454.513428
 30
0.0
 70
0
  0
VERTEX
  8
84
 10
-634.44458
 20
1455.643921
 30
0.0
 70
0
  0
VERTEX
  8
84
 10
-639.421082
 20
1456.595459
 30
0.0
 70
0
  0
VERTEX
  8
84
 10
-644.430054
 20
1457.347534
 30
0.0
 70
0
  0
VERTEX
  8
84
 10
-654.561768
 20
1458.337524
 30
0.0
 70
0
  0
VERTEX
  8
84
 10
-664.063721
 20
1457.534546
 30
0.0
 70
0
  0
VERTEX
  8
84
 10
-668.779785
 20
1456.920898
 30
0.0
 70
0
  0
VERTEX
  8
84
 10
-673.4729
 20
1456.143677
 30
0.0
 70
0
  0
VERTEX
  8
84
 10
-678.148804
 20
1455.219604
 30
0.0
 70
0
  0
VERTEX
  8
84
 10
-682.794189
 20
1454.154541
 30
0.0
 70
0
  0
VERTEX
  8
84
 10
-687.407715
 20
1452.949707
 30
0.0
 70
0
  0
VERTEX
  8
84
 10
-691.983704
 20
1451.609009
 30
0.0
 70
0
  0
VERTEX
  8
84
 10
-696.516663
 20
1450.137817
 30
0.0
 70
0
  0
VERTEX
  8
84
 10
-701.00708
 20
1448.541138
 30
0.0
 70
0
  0
VERTEX
  8
84
 10
-705.451904
 20
1446.822876
 30
0.0
 70
0
  0
VERTEX
  8
84
 10
-709.844971
 20
1444.977173
 30
0.0
 70
0
  0
VERTEX
  8
84
 10
-714.183411
 20
1443.000122
 30
0.0
 70
0
  0
VERTEX
  8
84
 10
-718.468018
 20
1440.908691
 30
0.0
 70
0
  0
VERTEX
  8
84
 10
-726.9104
 20
1436.479736
 30
0.0
 70
0
  0
VERTEX
  8
84
 10
-735.235596
 20
1431.840942
 30
0.0
 70
0
  0
VERTEX
  8
84
 10
-736.202393
 20
1431.276855
 30
0.0
 70
0
  0
VERTEX
  8
84
 10
-743.424072
 20
1426.967529
 30
0.0
 70
0
  0
VERTEX
  8
84
 10
-744.771729
 20
1426.135498
 30
0.0
 70
0
  0
VERTEX
  8
84
 10
-751.485596
 20
1421.876831
 30
0.0
 70
0
  0
VERTEX
  8
84
 10
-759.42511
 20
1416.590332
 30
0.0
 70
0
  0
VERTEX
  8
84
 10
-764.639343
 20
1412.957886
 30
0.0
 70
0
  0
VERTEX
  8
84
 10
-769.803589
 20
1409.257446
 30
0.0
 70
0
  0
VERTEX
  8
84
 10
-774.937805
 20
1405.511597
 30
0.0
 70
0
  0
VERTEX
  8
84
 10
-790.264893
 20
1394.187134
 30
0.0
 70
0
  0
VERTEX
  8
84
 10
-797.947937
 20
1388.539185
 30
0.0
 70
0
  0
VERTEX
  8
84
 10
-805.709229
 20
1383.001465
 30
0.0
 70
0
  0
VERTEX
  8
84
 10
-810.952209
 20
1379.409546
 30
0.0
 70
0
  0
VERTEX
  8
84
 10
-816.238831
 20
1375.884399
 30
0.0
 70
0
  0
VERTEX
  8
84
 10
-821.554016
 20
1372.398193
 30
0.0
 70
0
  0
VERTEX
  8
84
 10
-829.561768
 20
1367.231934
 30
0.0
 70
0
  0
VERTEX
  8
84
 10
-837.691711
 20
1362.251953
 30
0.0
 70
0
  0
VERTEX
  8
84
 10
-845.98761
 20
1357.557251
 30
0.0
 70
0
  0
VERTEX
  8
84
 10
-854.434814
 20
1353.138794
 30
0.0
 70
0
  0
VERTEX
  8
84
 10
-863.018799
 20
1349.000488
 30
0.0
 70
0
  0
VERTEX
  8
84
 10
-871.759155
 20
1345.203491
 30
0.0
 70
0
  0
VERTEX
  8
84
 10
-880.6604
 20
1341.815552
 30
0.0
 70
0
  0
VERTEX
  8
84
 10
-889.718018
 20
1338.816528
 30
0.0
 70
0
  0
VERTEX
  8
84
 10
-885.587158
 20
1330.598511
 30
0.0
 70
0
  0
VERTEX
  8
84
 10
-881.339111
 20
1321.874268
 30
0.0
 70
0
  0
VERTEX
  8
84
 10
-877.208313
 20
1313.092041
 30
0.0
 70
0
  0
VERTEX
  8
84
 10
-873.101807
 20
1304.301147
 30
0.0
 70
0
  0
VERTEX
  8
84
 10
-868.941711
 20
1295.533691
 30
0.0
 70
0
  0
VERTEX
  8
84
 10
-864.815674
 20
1286.750732
 30
0.0
 70
0
  0
VERTEX
  8
84
 10
-860.777588
 20
1277.929565
 30
0.0
 70
0
  0
VERTEX
  8
84
 10
-856.988525
 20
1268.993774
 30
0.0
 70
0
  0
VERTEX
  8
84
 10
-853.453369
 20
1259.958008
 30
0.0
 70
0
  0
VERTEX
  8
84
 10
-850.133118
 20
1250.840088
 30
0.0
 70
0
  0
VERTEX
  8
84
 10
-848.559509
 20
1246.249146
 30
0.0
 70
0
  0
VERTEX
  8
84
 10
-847.105713
 20
1241.620728
 30
0.0
 70
0
  0
VERTEX
  8
84
 10
-844.644775
 20
1232.234741
 30
0.0
 70
0
  0
VERTEX
  8
84
 10
-842.515869
 20
1222.768555
 30
0.0
 70
0
  0
VERTEX
  8
84
 10
-840.821655
 20
1213.212769
 30
0.0
 70
0
  0
VERTEX
  8
84
 10
-813.424072
 20
1215.342529
 30
0.0
 70
0
  0
VERTEX
  8
84
 10
-804.287598
 20
1216.017578
 30
0.0
 70
0
  0
VERTEX
  8
84
 10
-795.15094
 20
1216.647461
 30
0.0
 70
0
  0
VERTEX
  8
84
 10
-786.00708
 20
1217.20874
 30
0.0
 70
0
  0
VERTEX
  8
84
 10
-779.145081
 20
1217.57251
 30
0.0
 70
0
  0
VERTEX
  8
84
 10
-772.28302
 20
1217.887817
 30
0.0
 70
0
  0
VERTEX
  8
84
 10
-765.419006
 20
1218.15918
 30
0.0
 70
0
  0
VERTEX
  8
84
 10
-758.551025
 20
1218.390381
 30
0.0
 70
0
  0
VERTEX
  8
84
 10
-744.819092
 20
1218.753906
 30
0.0
 70
0
  0
VERTEX
  8
84
 10
-731.085205
 20
1219.035645
 30
0.0
 70
0
  0
VERTEX
  8
84
 10
-717.345337
 20
1219.282104
 30
0.0
 70
0
  0
VERTEX
  8
84
 10
-703.604797
 20
1219.476562
 30
0.0
 70
0
  0
VERTEX
  8
84
 10
-689.867249
 20
1219.596558
 30
0.0
 70
0
  0
VERTEX
  8
84
 10
-676.129211
 20
1219.658691
 30
0.0
 70
0
  0
VERTEX
  8
84
 10
-648.648682
 20
1219.706421
 30
0.0
 70
0
  0
VERTEX
  8
84
 10
-634.905884
 20
1219.718018
 30
0.0
 70
0
  0
VERTEX
  8
84
 10
-621.163391
 20
1219.67395
 30
0.0
 70
0
  0
VERTEX
  8
84
 10
-607.425537
 20
1219.53418
 30
0.0
 70
0
  0
VERTEX
  8
84
 10
-593.687805
 20
1219.348999
 30
0.0
 70
0
  0
VERTEX
  8
84
 10
-584.526672
 20
1219.230957
 30
0.0
 70
0
  0
VERTEX
  8
84
 10
-575.368591
 20
1219.112915
 30
0.0
 70
0
  0
VERTEX
  8
84
 10
-566.212219
 20
1218.9823
 30
0.0
 70
0
  0
VERTEX
  8
84
 10
-557.056396
 20
1218.826538
 30
0.0
 70
0
  0
VERTEX
  8
84
 10
-547.899902
 20
1218.632935
 30
0.0
 70
0
  0
VERTEX
  8
84
 10
-538.741516
 20
1218.388916
 30
0.0
 70
0
  0
VERTEX
  8
84
 10
-531.872314
 20
1218.165283
 30
0.0
 70
0
  0
VERTEX
  8
84
 10
-525.006958
 20
1217.901245
 30
0.0
 70
0
  0
VERTEX
  8
84
 10
-518.143677
 20
1217.591553
 30
0.0
 70
0
  0
VERTEX
  8
84
 10
-511.280518
 20
1217.230957
 30
0.0
 70
0
  0
VERTEX
  8
84
 10
-502.138123
 20
1216.668701
 30
0.0
 70
0
  0
VERTEX
  8
84
 10
-493.003174
 20
1216.033936
 30
0.0
 70
0
  0
VERTEX
  8
84
 10
-483.868408
 20
1215.353149
 30
0.0
 70
0
  0
VERTEX
  8
84
 10
-456.471008
 20
1213.211548
 30
0.0
 70
0
  0
SEQEND
  8
0
  0
LINE
  8
7
 10
-644.581299
 20
1245.774536
 30
0.0
 11
-644.581299
 21
1425.774536
 31
0.0
  0
POLYLINE
  8
14
 66
1
 10
0.0
 20
0.0
 30
0.0
 70
1
  0
VERTEX
  8
14
 10
-456.471008
 20
1213.211548
 30
0.0
 70
0
  0
VERTEX
  8
14
 10
-454.088196
 20
1223.335938
 30
0.0
 70
0
  0
VERTEX
  8
14
 10
-451.23172
 20
1233.335693
 30
0.0
 70
0
  0
VERTEX
  8
14
 10
-447.979797
 20
1243.216553
 30
0.0
 70
0
  0
VERTEX
  8
14
 10
-444.117493
 20
1252.871948
 30
0.0
 70
0
  0
VERTEX
  8
14
 10
-439.986603
 20
1262.412964
 30
0.0
 70
0
  0
VERTEX
  8
14
 10
-435.601807
 20
1271.844971
 30
0.0
 70
0
  0
VERTEX
  8
14
 10
-430.948517
 20
1281.14624
 30
0.0
 70
0
  0
VERTEX
  8
14
 10
-421.114502
 20
1299.471436
 30
0.0
 70
0
  0
VERTEX
  8
14
 10
-416.124329
 20
1308.605103
 30
0.0
 70
0
  0
VERTEX
  8
14
 10
-411.241516
 20
1317.782959
 30
0.0
 70
0
  0
VERTEX
  8
14
 10
-406.251221
 20
1326.907227
 30
0.0
 70
0
  0
VERTEX
  8
14
 10
-402.735596
 20
1333.103027
 30
0.0
 70
0
  0
VERTEX
  8
14
 10
-399.444611
 20
1338.819214
 30
0.0
 70
0
  0
VERTEX
  8
14
 10
-409.234619
 20
1341.529053
 30
0.0
 70
0
  0
VERTEX
  8
14
 10
-418.922119
 20
1344.544922
 30
0.0
 70
0
  0
VERTEX
  8
14
 10
-428.507111
 20
1347.884888
 30
0.0
 70
0
  0
VERTEX
  8
14
 10
-437.999329
 20
1351.494507
 30
0.0
 70
0
  0
VERTEX
  8
14
 10
-447.408508
 20
1355.328613
 30
0.0
 70
0
  0
VERTEX
  8
14
 10
-456.724915
 20
1359.380859
 30
0.0
 70
0
  0
VERTEX
  8
14
 10
-465.938721
 20
1363.626953
 30
0.0
 70
0
  0
VERTEX
  8
14
 10
-475.064697
 20
1368.073364
 30
0.0
 70
0
  0
VERTEX
  8
14
 10
-484.093018
 20
1372.718872
 30
0.0
 70
0
  0
VERTEX
  8
14
 10
-493.023712
 20
1377.556519
 30
0.0
 70
0
  0
VERTEX
  8
14
 10
-501.817627
 20
1382.552979
 30
0.0
 70
0
  0
VERTEX
  8
14
 10
-510.494415
 20
1387.751221
 30
0.0
 70
0
  0
VERTEX
  8
14
 10
-527.56958
 20
1398.89209
 30
0.0
 70
0
  0
VERTEX
  8
14
 10
-544.381104
 20
1410.285034
 30
0.0
 70
0
  0
VERTEX
  8
14
 10
-550.631104
 20
1414.499756
 30
0.0
 70
0
  0
VERTEX
  8
14
 10
-561.270813
 20
1421.562012
 30
0.0
 70
0
  0
VERTEX
  8
14
 10
-569.815674
 20
1427.055298
 30
0.0
 70
0
  0
VERTEX
  8
14
 10
-578.4729
 20
1432.357422
 30
0.0
 70
0
  0
VERTEX
  8
14
 10
-587.281494
 20
1437.402344
 30
0.0
 70
0
  0
VERTEX
  8
14
 10
-596.275696
 20
1442.099731
 30
0.0
 70
0
  0
VERTEX
  8
14
 10
-605.489502
 20
1446.372314
 30
0.0
 70
0
  0
VERTEX
  8
14
 10
-614.927979
 20
1450.116699
 30
0.0
 70
0
  0
VERTEX
  8
14
 10
-624.596008
 20
1453.213989
 30
0.0
 70
0
  0
VERTEX
  8
14
 10
-634.44458
 20
1455.643921
 30
0.0
 70
0
  0
VERTEX
  8
14
 10
-644.430054
 20
1457.347534
 30
0.0
 70
0
  0
VERTEX
  8
14
 10
-654.561768
 20
1458.337524
 30
0.0
 70
0
  0
VERTEX
  8
14
 10
-664.063721
 20
1457.534546
 30
0.0
 70
0
  0
VERTEX
  8
14
 10
-673.4729
 20
1456.143677
 30
0.0
 70
0
  0
VERTEX
  8
14
 10
-682.794189
 20
1454.154541
 30
0.0
 70
0
  0
VERTEX
  8
14
 10
-691.983704
 20
1451.609009
 30
0.0
 70
0
  0
VERTEX
  8
14
 10
-701.00708
 20
1448.541138
 30
0.0
 70
0
  0
VERTEX
  8
14
 10
-709.844971
 20
1444.977173
 30
0.0
 70
0
  0
VERTEX
  8
14
 10
-718.468018
 20
1440.908691
 30
0.0
 70
0
  0
VERTEX
  8
14
 10
-726.9104
 20
1436.479736
 30
0.0
 70
0
  0
VERTEX
  8
14
 10
-735.235596
 20
1431.840942
 30
0.0
 70
0
  0
VERTEX
  8
14
 10
-736.202393
 20
1431.276855
 30
0.0
 70
0
  0
VERTEX
  8
14
 10
-743.424072
 20
1426.967529
 30
0.0
 70
0
  0
VERTEX
  8
14
 10
-744.771729
 20
1426.135498
 30
0.0
 70
0
  0
VERTEX
  8
14
 10
-751.485596
 20
1421.876831
 30
0.0
 70
0
  0
VERTEX
  8
14
 10
-759.42511
 20
1416.590332
 30
0.0
 70
0
  0
VERTEX
  8
14
 10
-774.937805
 20
1405.511597
 30
0.0
 70
0
  0
VERTEX
  8
14
 10
-790.264893
 20
1394.187134
 30
0.0
 70
0
  0
VERTEX
  8
14
 10
-805.709229
 20
1383.001465
 30
0.0
 70
0
  0
VERTEX
  8
14
 10
-821.554016
 20
1372.398193
 30
0.0
 70
0
  0
VERTEX
  8
14
 10
-829.561768
 20
1367.231934
 30
0.0
 70
0
  0
VERTEX
  8
14
 10
-837.691711
 20
1362.251953
 30
0.0
 70
0
  0
VERTEX
  8
14
 10
-845.98761
 20
1357.557251
 30
0.0
 70
0
  0
VERTEX
  8
14
 10
-854.434814
 20
1353.138794
 30
0.0
 70
0
  0
VERTEX
  8
14
 10
-863.018799
 20
1349.000488
 30
0.0
 70
0
  0
VERTEX
  8
14
 10
-871.759155
 20
1345.203491
 30
0.0
 70
0
  0
VERTEX
  8
14
 10
-880.6604
 20
1341.815552
 30
0.0
 70
0
  0
VERTEX
  8
14
 10
-889.718018
 20
1338.816528
 30
0.0
 70
0
  0
VERTEX
  8
14
 10
-885.587158
 20
1330.598511
 30
0.0
 70
0
  0
VERTEX
  8
14
 10
-881.339111
 20
1321.874268
 30
0.0
 70
0
  0
VERTEX
  8
14
 10
-877.208313
 20
1313.092041
 30
0.0
 70
0
  0
VERTEX
  8
14
 10
-873.101807
 20
1304.301147
 30
0.0
 70
0
  0
VERTEX
  8
14
 10
-868.941711
 20
1295.533691
 30
0.0
 70
0
  0
VERTEX
  8
14
 10
-864.815674
 20
1286.750732
 30
0.0
 70
0
  0
VERTEX
  8
14
 10
-860.777588
 20
1277.929565
 30
0.0
 70
0
  0
VERTEX
  8
14
 10
-856.988525
 20
1268.993774
 30
0.0
 70
0
  0
VERTEX
  8
14
 10
-853.453369
 20
1259.958008
 30
0.0
 70
0
  0
VERTEX
  8
14
 10
-850.133118
 20
1250.840088
 30
0.0
 70
0
  0
VERTEX
  8
14
 10
-847.105713
 20
1241.620728
 30
0.0
 70
0
  0
VERTEX
  8
14
 10
-844.644775
 20
1232.234741
 30
0.0
 70
0
  0
VERTEX
  8
14
 10
-842.515869
 20
1222.768555
 30
0.0
 70
0
  0
VERTEX
  8
14
 10
-840.821655
 20
1213.212769
 30
0.0
 70
0
  0
VERTEX
  8
14
 10
-813.424072
 20
1215.342529
 30
0.0
 70
0
  0
VERTEX
  8
14
 10
-786.00708
 20
1217.20874
 30
0.0
 70
0
  0
VERTEX
  8
14
 10
-758.551025
 20
1218.390381
 30
0.0
 70
0
  0
VERTEX
  8
14
 10
-731.085205
 20
1219.035645
 30
0.0
 70
0
  0
VERTEX
  8
14
 10
-703.604797
 20
1219.476562
 30
0.0
 70
0
  0
VERTEX
  8
14
 10
-676.129211
 20
1219.658691
 30
0.0
 70
0
  0
VERTEX
  8
14
 10
-648.648682
 20
1219.706421
 30
0.0
 70
0
  0
VERTEX
  8
14
 10
-621.163391
 20
1219.67395
 30
0.0
 70
0
  0
VERTEX
  8
14
 10
-593.687805
 20
1219.348999
 30
0.0
 70
0
  0
VERTEX
  8
14
 10
-538.741516
 20
1218.388916
 30
0.0
 70
0
  0
VERTEX
  8
14
 10
-511.280518
 20
1217.230957
 30
0.0
 70
0
  0
VERTEX
  8
14
 10
-483.868408
 20
1215.353149
 30
0.0
 70
0
  0
SEQEND
  8
0
  0
TEXT
  8
14
 10
-456.471008
 20
1213.211548
 30
0.0
 40
0.25
  1
# 33
  7
STANDARD
  0
TEXT
  8
14
 10
-454.088196
 20
1223.335938
 30
0.0
 40
0.25
  1
# -1
  7
STANDARD
  0
TEXT
  8
14
 10
-451.23172
 20
1233.335693
 30
0.0
 40
0.25
  1
# -1
  7
STANDARD
  0
TEXT
  8
14
 10
-447.979797
 20
1243.216553
 30
0.0
 40
0.25
  1
# -1
  7
STANDARD
  0
TEXT
  8
14
 10
-444.117493
 20
1252.871948
 30
0.0
 40
0.25
  1
# -1
  7
STANDARD
  0
TEXT
  8
14
 10
-439.986603
 20
1262.412964
 30
0.0
 40
0.25
  1
# -1
  7
STANDARD
  0
TEXT
  8
14
 10
-435.601807
 20
1271.844971
 30
0.0
 40
0.25
  1
# -1
  7
STANDARD
  0
TEXT
  8
14
 10
-430.948517
 20
1281.14624
 30
0.0
 40
0.25
  1
# -1
  7
STANDARD
  0
TEXT
  8
14
 10
-421.114502
 20
1299.471436
 30
0.0
 40
0.25
  1
# -1
  7
STANDARD
  0
TEXT
  8
14
 10
-416.124329
 20
1308.605103
 30
0.0
 40
0.25
  1
# -1
  7
STANDARD
  0
TEXT
  8
14
 10
-411.241516
 20
1317.782959
 30
0.0
 40
0.25
  1
# -1
  7
STANDARD
  0
TEXT
  8
14
 10
-406.251221
 20
1326.907227
 30
0.0
 40
0.25
  1
# -1
  7
STANDARD
  0
TEXT
  8
14
 10
-402.735596
 20
1333.103027
 30
0.0
 40
0.25
  1
# -1
  7
STANDARD
  0
TEXT
  8
14
 10
-399.444611
 20
1338.819214
 30
0.0
 40
0.25
  1
# 34
  7
STANDARD
  0
TEXT
  8
14
 10
-409.234619
 20
1341.529053
 30
0.0
 40
0.25
  1
# -1
  7
STANDARD
  0
TEXT
  8
14
 10
-418.922119
 20
1344.544922
 30
0.0
 40
0.25
  1
# -1
  7
STANDARD
  0
TEXT
  8
14
 10
-428.507111
 20
1347.884888
 30
0.0
 40
0.25
  1
# -1
  7
STANDARD
  0
TEXT
  8
14
 10
-437.999329
 20
1351.494507
 30
0.0
 40
0.25
  1
# -1
  7
STANDARD
  0
TEXT
  8
14
 10
-447.408508
 20
1355.328613
 30
0.0
 40
0.25
  1
# -1
  7
STANDARD
  0
TEXT
  8
14
 10
-456.724915
 20
1359.380859
 30
0.0
 40
0.25
  1
# -1
  7
STANDARD
  0
TEXT
  8
14
 10
-465.938721
 20
1363.626953
 30
0.0
 40
0.25
  1
# -1
  7
STANDARD
  0
TEXT
  8
14
 10
-475.064697
 20
1368.073364
 30
0.0
 40
0.25
  1
# -1
  7
STANDARD
  0
TEXT
  8
14
 10
-484.093018
 20
1372.718872
 30
0.0
 40
0.25
  1
# -1
  7
STANDARD
  0
TEXT
  8
14
 10
-493.023712
 20
1377.556519
 30
0.0
 40
0.25
  1
# -1
  7
STANDARD
  0
TEXT
  8
14
 10
-501.817627
 20
1382.552979
 30
0.0
 40
0.25
  1
# -1
  7
STANDARD
  0
TEXT
  8
14
 10
-510.494415
 20
1387.751221
 30
0.0
 40
0.25
  1
# -1
  7
STANDARD
  0
TEXT
  8
14
 10
-527.56958
 20
1398.89209
 30
0.0
 40
0.25
  1
# -1
  7
STANDARD
  0
TEXT
  8
14
 10
-544.381104
 20
1410.285034
 30
0.0
 40
0.25
  1
# -1
  7
STANDARD
  0
TEXT
  8
14
 10
-550.631104
 20
1414.499756
 30
0.0
 40
0.25
  1
# -1
  7
STANDARD
  0
TEXT
  8
14
 10
-561.270813
 20
1421.562012
 30
0.0
 40
0.25
  1
# -1
  7
STANDARD
  0
TEXT
  8
14
 10
-569.815674
 20
1427.055298
 30
0.0
 40
0.25
  1
# -1
  7
STANDARD
  0
TEXT
  8
14
 10
-578.4729
 20
1432.357422
 30
0.0
 40
0.25
  1
# -1
  7
STANDARD
  0
TEXT
  8
14
 10
-587.281494
 20
1437.402344
 30
0.0
 40
0.25
  1
# -1
  7
STANDARD
  0
TEXT
  8
14
 10
-596.275696
 20
1442.099731
 30
0.0
 40
0.25
  1
# -1
  7
STANDARD
  0
TEXT
  8
14
 10
-605.489502
 20
1446.372314
 30
0.0
 40
0.25
  1
# -1
  7
STANDARD
  0
TEXT
  8
14
 10
-614.927979
 20
1450.116699
 30
0.0
 40
0.25
  1
# -1
  7
STANDARD
  0
TEXT
  8
14
 10
-624.596008
 20
1453.213989
 30
0.0
 40
0.25
  1
# -1
  7
STANDARD
  0
TEXT
  8
14
 10
-634.44458
 20
1455.643921
 30
0.0
 40
0.25
  1
# -1
  7
STANDARD
  0
TEXT
  8
14
 10
-644.430054
 20
1457.347534
 30
0.0
 40
0.25
  1
# -1
  7
STANDARD
  0
TEXT
  8
14
 10
-654.561768
 20
1458.337524
 30
0.0
 40
0.25
  1
# 36
  7
STANDARD
  0
TEXT
  8
14
 10
-664.063721
 20
1457.534546
 30
0.0
 40
0.25
  1
# -1
  7
STANDARD
  0
TEXT
  8
14
 10
-673.4729
 20
1456.143677
 30
0.0
 40
0.25
  1
# -1
  7
STANDARD
  0
TEXT
  8
14
 10
-682.794189
 20
1454.154541
 30
0.0
 40
0.25
  1
# -1
  7
STANDARD
  0
TEXT
  8
14
 10
-691.983704
 20
1451.609009
 30
0.0
 40
0.25
  1
# -1
  7
STANDARD
  0
TEXT
  8
14
 10
-701.00708
 20
1448.541138
 30
0.0
 40
0.25
  1
# -1
  7
STANDARD
  0
TEXT
  8
14
 10
-709.844971
 20
1444.977173
 30
0.0
 40
0.25
  1
# -1
  7
STANDARD
  0
TEXT
  8
14
 10
-718.468018
 20
1440.908691
 30
0.0
 40
0.25
  1
# -1
  7
STANDARD
  0
TEXT
  8
14
 10
-726.9104
 20
1436.479736
 30
0.0
 40
0.25
  1
# -1
  7
STANDARD
  0
TEXT
  8
14
 10
-735.235596
 20
1431.840942
 30
0.0
 40
0.25
  1
# -1
  7
STANDARD
  0
TEXT
  8
14
 10
-736.202393
 20
1431.276855
 30
0.0
 40
0.25
  1
# -1
  7
STANDARD
  0
TEXT
  8
14
 10
-743.424072
 20
1426.967529
 30
0.0
 40
0.25
  1
# -1
  7
STANDARD
  0
TEXT
  8
14
 10
-744.771729
 20
1426.135498
 30
0.0
 40
0.25
  1
# -1
  7
STANDARD
  0
TEXT
  8
14
 10
-751.485596
 20
1421.876831
 30
0.0
 40
0.25
  1
# -1
  7
STANDARD
  0
TEXT
  8
14
 10
-759.42511
 20
1416.590332
 30
0.0
 40
0.25
  1
# -1
  7
STANDARD
  0
TEXT
  8
14
 10
-774.937805
 20
1405.511597
 30
0.0
 40
0.25
  1
# -1
  7
STANDARD
  0
TEXT
  8
14
 10
-790.264893
 20
1394.187134
 30
0.0
 40
0.25
  1
# -1
  7
STANDARD
  0
TEXT
  8
14
 10
-805.709229
 20
1383.001465
 30
0.0
 40
0.25
  1
# -1
  7
STANDARD
  0
TEXT
  8
14
 10
-821.554016
 20
1372.398193
 30
0.0
 40
0.25
  1
# -1
  7
STANDARD
  0
TEXT
  8
14
 10
-829.561768
 20
1367.231934
 30
0.0
 40
0.25
  1
# -1
  7
STANDARD
  0
TEXT
  8
14
 10
-837.691711
 20
1362.251953
 30
0.0
 40
0.25
  1
# -1
  7
STANDARD
  0
TEXT
  8
14
 10
-845.98761
 20
1357.557251
 30
0.0
 40
0.25
  1
# -1
  7
STANDARD
  0
TEXT
  8
14
 10
-854.434814
 20
1353.138794
 30
0.0
 40
0.25
  1
# -1
  7
STANDARD
  0
TEXT
  8
14
 10
-863.018799
 20
1349.000488
 30
0.0
 40
0.25
  1
# -1
  7
STANDARD
  0
TEXT
  8
14
 10
-871.759155
 20
1345.203491
 30
0.0
 40
0.25
  1
# -1
  7
STANDARD
  0
TEXT
  8
14
 10
-880.6604
 20
1341.815552
 30
0.0
 40
0.25
  1
# -1
  7
STANDARD
  0
TEXT
  8
14
 10
-889.718018
 20
1338.816528
 30
0.0
 40
0.25
  1
# 39
  7
STANDARD
  0
TEXT
  8
14
 10
-885.587158
 20
1330.598511
 30
0.0
 40
0.25
  1
# -1
  7
STANDARD
  0
TEXT
  8
14
 10
-881.339111
 20
1321.874268
 30
0.0
 40
0.25
  1
# -1
  7
STANDARD
  0
TEXT
  8
14
 10
-877.208313
 20
1313.092041
 30
0.0
 40
0.25
  1
# -1
  7
STANDARD
  0
TEXT
  8
14
 10
-873.101807
 20
1304.301147
 30
0.0
 40
0.25
  1
# -1
  7
STANDARD
  0
TEXT
  8
14
 10
-868.941711
 20
1295.533691
 30
0.0
 40
0.25
  1
# -1
  7
STANDARD
  0
TEXT
  8
14
 10
-864.815674
 20
1286.750732
 30
0.0
 40
0.25
  1
# -1
  7
STANDARD
  0
TEXT
  8
14
 10
-860.777588
 20
1277.929565
 30
0.0
 40
0.25
  1
# -1
  7
STANDARD
  0
TEXT
  8
14
 10
-856.988525
 20
1268.993774
 30
0.0
 40
0.25
  1
# -1
  7
STANDARD
  0
TEXT
  8
14
 10
-853.453369
 20
1259.958008
 30
0.0
 40
0.25
  1
# -1
  7
STANDARD
  0
TEXT
  8
14
 10
-850.133118
 20
1250.840088
 30
0.0
 40
0.25
  1
# -1
  7
STANDARD
  0
TEXT
  8
14
 10
-847.105713
 20
1241.620728
 30
0.0
 40
0.25
  1
# -1
  7
STANDARD
  0
TEXT
  8
14
 10
-844.644775
 20
1232.234741
 30
0.0
 40
0.25
  1
# -1
  7
STANDARD
  0
TEXT
  8
14
 10
-842.515869
 20
1222.768555
 30
0.0
 40
0.25
  1
# -1
  7
STANDARD
  0
TEXT
  8
14
 10
-840.821655
 20
1213.212769
 30
0.0
 40
0.25
  1
# 40
  7
STANDARD
  0
TEXT
  8
14
 10
-813.424072
 20
1215.342529
 30
0.0
 40
0.25
  1
# -1
  7
STANDARD
  0
TEXT
  8
14
 10
-786.00708
 20
1217.20874
 30
0.0
 40
0.25
  1
# -1
  7
STANDARD
  0
TEXT
  8
14
 10
-758.551025
 20
1218.390381
 30
0.0
 40
0.25
  1
# -1
  7
STANDARD
  0
TEXT
  8
14
 10
-731.085205
 20
1219.035645
 30
0.0
 40
0.25
  1
# -1
  7
STANDARD
  0
TEXT
  8
14
 10
-703.604797
 20
1219.476562
 30
0.0
 40
0.25
  1
# -1
  7
STANDARD
  0
TEXT
  8
14
 10
-676.129211
 20
1219.658691
 30
0.0
 40
0.25
  1
# -1
  7
STANDARD
  0
TEXT
  8
14
 10
-648.648682
 20
1219.706421
 30
0.0
 40
0.25
  1
# -1
  7
STANDARD
  0
TEXT
  8
14
 10
-621.163391
 20
1219.67395
 30
0.0
 40
0.25
  1
# -1
  7
STANDARD
  0
TEXT
  8
14
 10
-593.687805
 20
1219.348999
 30
0.0
 40
0.25
  1
# -1
  7
STANDARD
  0
TEXT
  8
14
 10
-538.741516
 20
1218.388916
 30
0.0
 40
0.25
  1
# -1
  7
STANDARD
  0
TEXT
  8
14
 10
-511.280518
 20
1217.230957
 30
0.0
 40
0.25
  1
# -1
  7
STANDARD
  0
TEXT
  8
14
 10
-483.868408
 20
1215.353149
 30
0.0
 40
0.25
  1
# -1
  7
STANDARD
  0
POINT
  8
2
 10
-456.471008
 20
1213.211548
 30
0.0
  0
POINT
  8
2
 10
-399.444611
 20
1338.819214
 30
0.0
  0
POINT
  8
2
 10
-654.561768
 20
1458.337524
 30
0.0
  0
POINT
  8
2
 10
-889.718018
 20
1338.816528
 30
0.0
  0
POINT
  8
2
 10
-840.821655
 20
1213.212769
 30
0.0
  0
POINT
  8
3
 10
-454.088196
 20
1223.335938
 30
0.0
  0
POINT
  8
3
 10
-451.23172
 20
1233.335693
 30
0.0
  0
POINT
  8
3
 10
-447.979797
 20
1243.216553
 30
0.0
  0
POINT
  8
3
 10
-444.117493
 20
1252.871948
 30
0.0
  0
POINT
  8
3
 10
-439.986603
 20
1262.412964
 30
0.0
  0
POINT
  8
3
 10
-435.601807
 20
1271.844971
 30
0.0
  0
POINT
  8
3
 10
-430.948517
 20
1281.14624
 30
0.0
  0
POINT
  8
3
 10
-421.114502
 20
1299.471436
 30
0.0
  0
POINT
  8
3
 10
-416.124329
 20
1308.605103
 30
0.0
  0
POINT
  8
3
 10
-411.241516
 20
1317.782959
 30
0.0
  0
POINT
  8
3
 10
-406.251221
 20
1326.907227
 30
0.0
  0
POINT
  8
3
 10
-402.735596
 20
1333.103027
 30
0.0
  0
POINT
  8
3
 10
-409.234619
 20
1341.529053
 30
0.0
  0
POINT
  8
3
 10
-418.922119
 20
1344.544922
 30
0.0
  0
POINT
  8
3
 10
-428.507111
 20
1347.884888
 30
0.0
  0
POINT
  8
3
 10
-437.999329
 20
1351.494507
 30
0.0
  0
POINT
  8
3
 10
-447.408508
 20
1355.328613
 30
0.0
  0
POINT
  8
3
 10
-456.724915
 20
1359.380859
 30
0.0
  0
POINT
  8
3
 10
-465.938721
 20
1363.626953
 30
0.0
  0
POINT
  8
3
 10
-475.064697
 20
1368.073364
 30
0.0
  0
POINT
  8
3
 10
-484.093018
 20
1372.718872
 30
0.0
  0
POINT
  8
3
 10
-493.023712
 20
1377.556519
 30
0.0
  0
POINT
  8
3
 10
-501.817627
 20
1382.552979
 30
0.0
  0
POINT
  8
3
 10
-510.494415
 20
1387.751221
 30
0.0
  0
POINT
  8
3
 10
-527.56958
 20
1398.89209
 30
0.0
  0
POINT
  8
3
 10
-544.381104
 20
1410.285034
 30
0.0
  0
POINT
  8
3
 10
-550.631104
 20
1414.499756
 30
0.0
  0
POINT
  8
3
 10
-561.270813
 20
1421.562012
 30
0.0
  0
POINT
  8
3
 10
-569.815674
 20
1427.055298
 30
0.0
  0
POINT
  8
3
 10
-578.4729
 20
1432.357422
 30
0.0
  0
POINT
  8
3
 10
-587.281494
 20
1437.402344
 30
0.0
  0
POINT
  8
3
 10
-596.275696
 20
1442.099731
 30
0.0
  0
POINT
  8
3
 10
-605.489502
 20
1446.372314
 30
0.0
  0
POINT
  8
3
 10
-614.927979
 20
1450.116699
 30
0.0
  0
POINT
  8
3
 10
-624.596008
 20
1453.213989
 30
0.0
  0
POINT
  8
3
 10
-634.44458
 20
1455.643921
 30
0.0
  0
POINT
  8
3
 10
-644.430054
 20
1457.347534
 30
0.0
  0
POINT
  8
3
 10
-664.063721
 20
1457.534546
 30
0.0
  0
POINT
  8
3
 10
-673.4729
 20
1456.143677
 30
0.0
  0
POINT
  8
3
 10
-682.794189
 20
1454.154541
 30
0.0
  0
POINT
  8
3
 10
-691.983704
 20
1451.609009
 30
0.0
  0
POINT
  8
3
 10
-701.00708
 20
1448.541138
 30
0.0
  0
POINT
  8
3
 10
-709.844971
 20
1444.977173
 30
0.0
  0
POINT
  8
3
 10
-718.468018
 20
1440.908691
 30
0.0
  0
POINT
  8
3
 10
-726.9104
 20
1436.479736
 30
0.0
  0
POINT
  8
3
 10
-735.235596
 20
1431.840942
 30
0.0
  0
POINT
  8
3
 10
-736.202393
 20
1431.276855
 30
0.0
  0
POINT
  8
3
 10
-743.424072
 20
1426.967529
 30
0.0
  0
POINT
  8
3
 10
-744.771729
 20
1426.135498
 30
0.0
  0
POINT
  8
3
 10
-751.485596
 20
1421.876831
 30
0.0
  0
POINT
  8
3
 10
-759.42511
 20
1416.590332
 30
0.0
  0
POINT
  8
3
 10
-774.937805
 20
1405.511597
 30
0.0
  0
POINT
  8
3
 10
-790.264893
 20
1394.187134
 30
0.0
  0
POINT
  8
3
 10
-805.709229
 20
1383.001465
 30
0.0
  0
POINT
  8
3
 10
-821.554016
 20
1372.398193
 30
0.0
  0
POINT
  8
3
 10
-829.561768
 20
1367.231934
 30
0.0
  0
POINT
  8
3
 10
-837.691711
 20
1362.251953
 30
0.0
  0
POINT
  8
3
 10
-845.98761
 20
1357.557251
 30
0.0
  0
POINT
  8
3
 10
-854.434814
 20
1353.138794
 30
0.0
  0
POINT
  8
3
 10
-863.018799
 20
1349.000488
 30
0.0
  0
POINT
  8
3
 10
-871.759155
 20
1345.203491
 30
0.0
  0
POINT
  8
3
 10
-880.6604
 20
1341.815552
 30
0.0
  0
POINT
  8
3
 10
-885.587158
 20
1330.598511
 30
0.0
  0
POINT
  8
3
 10
-881.339111
 20
1321.874268
 30
0.0
  0
POINT
  8
3
 10
-877.208313
 20
1313.092041
 30
0.0
  0
POINT
  8
3
 10
-873.101807
 20
1304.301147
 30
0.0
  0
POINT
  8
3
 10
-868.941711
 20
1295.533691
 30
0.0
  0
POINT
  8
3
 10
-864.815674
 20
1286.750732
 30
0.0
  0
POINT
  8
3
 10
-860.777588
 20
1277.929565
 30
0.0
  0
POINT
  8
3
 10
-856.988525
 20
1268.993774
 30
0.0
  0
POINT
  8
3
 10
-853.453369
 20
1259.958008
 30
0.0
  0
POINT
  8
3
 10
-850.133118
 20
1250.840088
 30
0.0
  0
POINT
  8
3
 10
-847.105713
 20
1241.620728
 30
0.0
  0
POINT
  8
3
 10
-844.644775
 20
1232.234741
 30
0.0
  0
POINT
  8
3
 10
-842.515869
 20
1222.768555
 30
0.0
  0
POINT
  8
3
 10
-813.424072
 20
1215.342529
 30
0.0
  0
POINT
  8
3
 10
-786.00708
 20
1217.20874
 30
0.0
  0
POINT
  8
3
 10
-758.551025
 20
1218.390381
 30
0.0
  0
POINT
  8
3
 10
-731.085205
 20
1219.035645
 30
0.0
  0
POINT
  8
3
 10
-703.604797
 20
1219.476562
 30
0.0
  0
POINT
  8
3
 10
-676.129211
 20
1219.658691
 30
0.0
  0
POINT
  8
3
 10
-648.648682
 20
1219.706421
 30
0.0
  0
POINT
  8
3
 10
-621.163391
 20
1219.67395
 30
0.0
  0
POINT
  8
3
 10
-593.687805
 20
1219.348999
 30
0.0
  0
POINT
  8
3
 10
-538.741516
 20
1218.388916
 30
0.0
  0
POINT
  8
3
 10
-511.280518
 20
1217.230957
 30
0.0
  0
POINT
  8
3
 10
-483.868408
 20
1215.353149
 30
0.0
  0
POINT
  8
4
 10
-550.631104
 20
1414.499756
 30
7.0
 50
234.459076
  0
POINT
  8
4
 10
-654.561768
 20
1458.337524
 30
7.0
 39
14.9176
 50
265.926331
  0
POINT
  8
4
 10
-736.202393
 20
1431.276855
 30
7.0
 50
300.151733
  0
POINT
  8
4
 10
-744.771729
 20
1426.135498
 30
7.0
 50
301.742218
  0
POLYLINE
  8
87
 66
1
 10
0.0
 20
0.0
 30
0.0
 70
1
  0
VERTEX
  8
87
 10
-454.088196
 20
1223.335938
 30
0.0
 70
0
  0
VERTEX
  8
87
 10
-451.23172
 20
1233.335693
 30
0.0
 70
0
  0
VERTEX
  8
87
 10
-449.671448
 20
1238.29895
 30
0.0
 70
0
  0
VERTEX
  8
87
 10
-447.979797
 20
1243.216553
 30
0.0
 70
0
  0
VERTEX
  8
87
 10
-446.108521
 20
1248.067017
 30
0.0
 70
0
  0
VERTEX
  8
87
 10
-444.117493
 20
1252.871948
 30
0.0
 70
0
  0
VERTEX
  8
87
 10
-439.986603
 20
1262.412964
 30
0.0
 70
0
  0
VERTEX
  8
87
 10
-435.601807
 20
1271.844971
 30
0.0
 70
0
  0
VERTEX
  8
87
 10
-430.948517
 20
1281.14624
 30
0.0
 70
0
  0
VERTEX
  8
87
 10
-427.727722
 20
1287.285645
 30
0.0
 70
0
  0
VERTEX
  8
87
 10
-424.441833
 20
1293.388428
 30
0.0
 70
0
  0
VERTEX
  8
87
 10
-421.114502
 20
1299.471436
 30
0.0
 70
0
  0
VERTEX
  8
87
 10
-416.124329
 20
1308.605103
 30
0.0
 70
0
  0
VERTEX
  8
87
 10
-411.241516
 20
1317.782959
 30
0.0
 70
0
  0
VERTEX
  8
87
 10
-406.251221
 20
1326.907227
 30
0.0
 70
0
  0
VERTEX
  8
87
 10
-402.735596
 20
1333.103027
 30
0.0
 70
0
  0
VERTEX
  8
87
 10
-399.444611
 20
1338.819214
 30
0.0
 70
0
  0
VERTEX
  8
87
 10
-409.234619
 20
1341.529053
 30
0.0
 70
0
  0
VERTEX
  8
87
 10
-418.922119
 20
1344.544922
 30
0.0
 70
0
  0
VERTEX
  8
87
 10
-428.507111
 20
1347.884888
 30
0.0
 70
0
  0
VERTEX
  8
87
 10
-437.999329
 20
1351.494507
 30
0.0
 70
0
  0
VERTEX
  8
87
 10
-447.408508
 20
1355.328613
 30
0.0
 70
0
  0
VERTEX
  8
87
 10
-456.724915
 20
1359.380859
 30
0.0
 70
0
  0
VERTEX
  8
87
 10
-465.938721
 20
1363.626953
 30
0.0
 70
0
  0
VERTEX
  8
87
 10
-475.064697
 20
1368.073364
 30
0.0
 70
0
  0
VERTEX
  8
87
 10
-484.093018
 20
1372.718872
 30
0.0
 70
0
  0
VERTEX
  8
87
 10
-493.023712
 20
1377.556519
 30
0.0
 70
0
  0
VERTEX
  8
87
 10
-501.817627
 20
1382.552979
 30
0.0
 70
0
  0
VERTEX
  8
87
 10
-510.494415
 20
1387.751221
 30
0.0
 70
0
  0
VERTEX
  8
87
 10
-516.237671
 20
1391.385498
 30
0.0
 70
0
  0
VERTEX
  8
87
 10
-521.921082
 20
1395.109985
 30
0.0
 70
0
  0
VERTEX
  8
87
 10
-527.56958
 20
1398.89209
 30
0.0
 70
0
  0
VERTEX
  8
87
 10
-544.381104
 20
1410.285034
 30
0.0
 70
0
  0
VERTEX
  8
87
 10
-550.631104
 20
1414.499756
 30
0.0
 70
0
  0
VERTEX
  8
87
 10
-561.270813
 20
1421.562012
 30
0.0
 70
0
  0
VERTEX
  8
87
 10
-569.815674
 20
1427.055298
 30
0.0
 70
0
  0
VERTEX
  8
87
 10
-578.4729
 20
1432.357422
 30
0.0
 70
0
  0
VERTEX
  8
87
 10
-587.281494
 20
1437.402344
 30
0.0
 70
0
  0
VERTEX
  8
87
 10
-596.275696
 20
1442.099731
 30
0.0
 70
0
  0
VERTEX
  8
87
 10
-600.855225
 20
1444.294922
 30
0.0
 70
0
  0
VERTEX
  8
87
 10
-605.489502
 20
1446.372314
 30
0.0
 70
0
  0
VERTEX
  8
87
 10
-610.179321
 20
1448.31897
 30
0.0
 70
0
  0
VERTEX
  8
87
 10
-614.927979
 20
1450.116699
 30
0.0
 70
0
  0
VERTEX
  8
87
 10
-619.735229
 20
1451.748657
 30
0.0
 70
0
  0
VERTEX
  8
87
 10
-624.596008
 20
1453.213989
 30
0.0
 70
0
  0
VERTEX
  8
87
 10
-629.499268
 20
1454.513428
 30
0.0
 70
0
  0
VERTEX
  8
87
 10
-634.44458
 20
1455.643921
 30
0.0
 70
0
  0
VERTEX
  8
87
 10
-639.421082
 20
1456.595459
 30
0.0
 70
0
  0
VERTEX
  8
87
 10
-644.430054
 20
1457.347534
 30
0.0
 70
0
  0
VERTEX
  8
87
 10
-654.561768
 20
1458.337524
 30
0.0
 70
0
  0
VERTEX
  8
87
 10
-664.063721
 20
1457.534546
 30
0.0
 70
0
  0
VERTEX
  8
87
 10
-668.779785
 20
1456.920898
 30
0.0
 70
0
  0
VERTEX
  8
87
 10
-673.4729
 20
1456.143677
 30
0.0
 70
0
  0
VERTEX
  8
87
 10
-678.148804
 20
1455.219604
 30
0.0
 70
0
  0
VERTEX
  8
87
 10
-682.794189
 20
1454.154541
 30
0.0
 70
0
  0
VERTEX
  8
87
 10
-687.407715
 20
1452.949707
 30
0.0
 70
0
  0
VERTEX
  8
87
 10
-691.983704
 20
1451.609009
 30
0.0
 70
0
  0
VERTEX
  8
87
 10
-696.516663
 20
1450.137817
 30
0.0
 70
0
  0
VERTEX
  8
87
 10
-701.00708
 20
1448.541138
 30
0.0
 70
0
  0
VERTEX
  8
87
 10
-705.451904
 20
1446.822876
 30
0.0
 70
0
  0
VERTEX
  8
87
 10
-709.844971
 20
1444.977173
 30
0.0
 70
0
  0
VERTEX
  8
87
 10
-714.183411
 20
1443.000122
 30
0.0
 70
0
  0
VERTEX
  8
87
 10
-718.468018
 20
1440.908691
 30
0.0
 70
0
  0
VERTEX
  8
87
 10
-726.9104
 20
1436.479736
 30
0.0
 70
0
  0
VERTEX
  8
87
 10
-735.235596
 20
1431.840942
 30
0.0
 70
0
  0
VERTEX
  8
87
 10
-736.202393
 20
1431.276855
 30
0.0
 70
0
  0
VERTEX
  8
87
 10
-743.424072
 20
1426.967529
 30
0.0
 70
0
  0
VERTEX
  8
87
 10
-744.771729
 20
1426.135498
 30
0.0
 70
0
  0
VERTEX
  8
87
 10
-751.485596
 20
1421.876831
 30
0.0
 70
0
  0
VERTEX
  8
87
 10
-759.42511
 20
1416.590332
 30
0.0
 70
0
  0
VERTEX
  8
87
 10
-764.639343
 20
1412.957886
 30
0.0
 70
0
  0
VERTEX
  8
87
 10
-769.803589
 20
1409.257446
 30
0.0
 70
0
  0
VERTEX
  8
87
 10
-774.937805
 20
1405.511597
 30
0.0
 70
0
  0
VERTEX
  8
87
 10
-790.264893
 20
1394.187134
 30
0.0
 70
0
  0
VERTEX
  8
87
 10
-797.947937
 20
1388.539185
 30
0.0
 70
0
  0
VERTEX
  8
87
 10
-805.709229
 20
1383.001465
 30
0.0
 70
0
  0
VERTEX
  8
87
 10
-810.952209
 20
1379.409546
 30
0.0
 70
0
  0
VERTEX
  8
87
 10
-816.238831
 20
1375.884399
 30
0.0
 70
0
  0
VERTEX
  8
87
 10
-821.554016
 20
1372.398193
 30
0.0
 70
0
  0
VERTEX
  8
87
 10
-829.561768
 20
1367.231934
 30
0.0
 70
0
  0
VERTEX
  8
87
 10
-837.691711
 20
1362.251953
 30
0.0
 70
0
  0
VERTEX
  8
87
 10
-845.98761
 20
1357.557251
 30
0.0
 70
0
  0
VERTEX
  8
87
 10
-854.434814
 20
1353.138794
 30
0.0
 70
0
  0
VERTEX
  8
87
 10
-863.018799
 20
1349.000488
 30
0.0
 70
0
  0
VERTEX
  8
87
 10
-871.759155
 20
1345.203491
 30
0.0
 70
0
  0
VERTEX
  8
87
 10
-880.6604
 20
1341.815552
 30
0.0
 70
0
  0
VERTEX
  8
87
 10
-889.718018
 20
1338.816528
 30
0.0
 70
0
  0
VERTEX
  8
87
 10
-885.587158
 20
1330.598511
 30
0.0
 70
0
  0
VERTEX
  8
87
 10
-881.339111
 20
1321.874268
 30
0.0
 70
0
  0
VERTEX
  8
87
 10
-877.208313
 20
1313.092041
 30
0.0
 70
0
  0
VERTEX
  8
87
 10
-873.101807
 20
1304.301147
 30
0.0
 70
0
  0
VERTEX
  8
87
 10
-868.941711
 20
1295.533691
 30
0.0
 70
0
  0
VERTEX
  8
87
 10
-864.815674
 20
1286.750732
 30
0.0
 70
0
  0
VERTEX
  8
87
 10
-860.777588
 20
1277.929565
 30
0.0
 70
0
  0
VERTEX
  8
87
 10
-856.988525
 20
1268.993774
 30
0.0
 70
0
  0
VERTEX
  8
87
 10
-853.453369
 20
1259.958008
 30
0.0
 70
0
  0
VERTEX
  8
87
 10
-850.133118
 20
1250.840088
 30
0.0
 70
0
  0
VERTEX
  8
87
 10
-848.559509
 20
1246.249146
 30
0.0
 70
0
  0
VERTEX
  8
87
 10
-847.105713
 20
1241.620728
 30
0.0
 70
0
  0
VERTEX
  8
87
 10
-844.644775
 20
1232.234741
 30
0.0
 70
0
  0
VERTEX
  8
87
 10
-842.515869
 20
1222.768555
 30
0.0
 70
0
  0
VERTEX
  8
87
 10
-840.821655
 20
1213.212769
 30
0.0
 70
0
  0
VERTEX
  8
87
 10
-813.424072
 20
1215.342529
 30
0.0
 70
0
  0
VERTEX
  8
87
 10
-804.287598
 20
1216.017578
 30
0.0
 70
0
  0
VERTEX
  8
87
 10
-795.15094
 20
1216.647461
 30
0.0
 70
0
  0
VERTEX
  8
87
 10
-786.00708
 20
1217.20874
 30
0.0
 70
0
  0
VERTEX
  8
87
 10
-779.145081
 20
1217.57251
 30
0.0
 70
0
  0
VERTEX
  8
87
 10
-772.28302
 20
1217.887817
 30
0.0
 70
0
  0
VERTEX
  8
87
 10
-765.419006
 20
1218.15918
 30
0.0
 70
0
  0
VERTEX
  8
87
 10
-758.551025
 20
1218.390381
 30
0.0
 70
0
  0
VERTEX
  8
87
 10
-744.819092
 20
1218.753906
 30
0.0
 70
0
  0
VERTEX
  8
87
 10
-731.085205
 20
1219.035645
 30
0.0
 70
0
  0
VERTEX
  8
87
 10
-717.345337
 20
1219.282104
 30
0.0
 70
0
  0
VERTEX
  8
87
 10
-703.604797
 20
1219.476562
 30
0.0
 70
0
  0
VERTEX
  8
87
 10
-689.867249
 20
1219.596558
 30
0.0
 70
0
  0
VERTEX
  8
87
 10
-676.129211
 20
1219.658691
 30
0.0
 70
0
  0
VERTEX
  8
87
 10
-648.648682
 20
1219.706421
 30
0.0
 70
0
  0
VERTEX
  8
87
 10
-634.905884
 20
1219.718018
 30
0.0
 70
0
  0
VERTEX
  8
87
 10
-621.163391
 20
1219.67395
 30
0.0
 70
0
  0
VERTEX
  8
87
 10
-607.425537
 20
1219.53418
 30
0.0
 70
0
  0
VERTEX
  8
87
 10
-593.687805
 20
1219.348999
 30
0.0
 70
0
  0
VERTEX
  8
87
 10
-584.526672
 20
1219.230957
 30
0.0
 70
0
  0
VERTEX
  8
87
 10
-575.368591
 20
1219.112915
 30
0.0
 70
0
  0
VERTEX
  8
87
 10
-566.212219
 20
1218.9823
 30
0.0
 70
0
  0
VERTEX
  8
87
 10
-557.056396
 20
1218.826538
 30
0.0
 70
0
  0
VERTEX
  8
87
 10
-547.899902
 20
1218.632935
 30
0.0
 70
0
  0
VERTEX
  8
87
 10
-538.741516
 20
1218.388916
 30
0.0
 70
0
  0
VERTEX
  8
87
 10
-531.872314
 20
1218.165283
 30
0.0
 70
0
  0
VERTEX
  8
87
 10
-525.006958
 20
1217.901245
 30
0.0
 70
0
  0
VERTEX
  8
87
 10
-518.143677
 20
1217.591553
 30
0.0
 70
0
  0
VERTEX
  8
87
 10
-511.280518
 20
1217.230957
 30
0.0
 70
0
  0
VERTEX
  8
87
 10
-502.138123
 20
1216.668701
 30
0.0
 70
0
  0
VERTEX
  8
87
 10
-493.003174
 20
1216.033936
 30
0.0
 70
0
  0
VERTEX
  8
87
 10
-483.868408
 20
1215.353149
 30
0.0
 70
0
  0
VERTEX
  8
87
 10
-456.471008
 20
1213.211548
 30
0.0
 70
0
  0
SEQEND
  8
0
  0
POLYLINE
  8
8
 66
1
 10
0.0
 20
0.0
 30
0.0
 70
0
  0
VERTEX
  8
8
 10
-654.556885
 20
1458.336426
 30
0.0
 70
0
  0
VERTEX
  8
8
 10
-654.556885
 20
1220.04126
 30
0.0
 70
0
  0
SEQEND
  8
0
  0
TEXT
  8
8
 10
-654.556885
 20
1458.336426
 30
0.0
 40
0.25
  1
# -1
  7
STANDARD
  0
TEXT
  8
8
 10
-654.556885
 20
1220.04126
 30
0.0
 40
0.25
  1
# -1
  7
STANDARD
  0
POINT
  8
2
 10
-654.556885
 20
1458.336426
 30
0.0
  0
POINT
  8
2
 10
-654.556885
 20
1220.04126
 30
0.0
  0
POLYLINE
  8
85
 66
1
 10
0.0
 20
0.0
 30
0.0
 70
0
  0
VERTEX
  8
85
 10
-654.556885
 20
1220.04126
 30
0.0
 70
0
  0
SEQEND
  8
0
  0
POLYLINE
  8
8
 66
1
 10
0.0
 20
0.0
 30
0.0
 70
0
  0
VERTEX
  8
8
 10
-399.444611
 20
1338.819214
 30
0.0
 70
0
  0
VERTEX
  8
8
 10
-889.718018
 20
1338.815796
 30
0.0
 70
0
  0
SEQEND
  8
0
  0
TEXT
  8
8
 10
-399.444611
 20
1338.819214
 30
0.0
 40
0.25
  1
# -1
  7
STANDARD
  0
TEXT
  8
8
 10
-889.718018
 20
1338.815796
 30
0.0
 40
0.25
  1
# -1
  7
STANDARD
  0
POINT
  8
2
 10
-399.444611
 20
1338.819214
 30
0.0
  0
POINT
  8
2
 10
-889.718018
 20
1338.815796
 30
0.0
  0
POLYLINE
  8
85
 66
1
 10
0.0
 20
0.0
 30
0.0
 70
0
  0
VERTEX
  8
85
 10
-889.718018
 20
1338.815796
 30
0.0
 70
0
  0
SEQEND
  8
0
  0
POLYLINE
  8
8
 66
1
 10
0.0
 20
0.0
 30
0.0
 70
0
  0
VERTEX
  8
8
 10
-845.216125
 20
1239.943481
 30
0.0
 70
0
  0
VERTEX
  8
8
 10
-815.509155
 20
1242.26123
 30
0.0
 70
0
  0
VERTEX
  8
8
 10
-787.608704
 20
1244.15979
 30
0.0
 70
0
  0
VERTEX
  8
8
 10
-759.591125
 20
1245.367432
 30
0.0
 70
0
  0
VERTEX
  8
8
 10
-731.656494
 20
1246.024658
 30
0.0
 70
0
  0
VERTEX
  8
8
 10
-703.775696
 20
1246.470703
 30
0.0
 70
0
  0
VERTEX
  8
8
 10
-676.260986
 20
1246.653076
 30
0.0
 70
0
  0
VERTEX
  8
8
 10
-648.673096
 20
1246.700439
 30
0.0
 70
0
  0
VERTEX
  8
8
 10
-621.065674
 20
1246.668335
 30
0.0
 70
0
  0
VERTEX
  8
8
 10
-593.111633
 20
1246.338013
 30
0.0
 70
0
  0
VERTEX
  8
8
 10
-537.911377
 20
1245.372437
 30
0.0
 70
0
  0
VERTEX
  8
8
 10
-509.781494
 20
1244.187134
 30
0.0
 70
0
  0
VERTEX
  8
8
 10
-481.783508
 20
1242.271729
 30
0.0
 70
0
  0
VERTEX
  8
8
 10
-452.354797
 20
1239.967285
 30
0.0
 70
0
  0
SEQEND
  8
0
  0
TEXT
  8
8
 10
-845.216125
 20
1239.943481
 30
0.0
 40
0.25
  1
# 46
  7
STANDARD
  0
TEXT
  8
8
 10
-815.509155
 20
1242.26123
 30
0.0
 40
0.25
  1
# -1
  7
STANDARD
  0
TEXT
  8
8
 10
-787.608704
 20
1244.15979
 30
0.0
 40
0.25
  1
# -1
  7
STANDARD
  0
TEXT
  8
8
 10
-759.591125
 20
1245.367432
 30
0.0
 40
0.25
  1
# -1
  7
STANDARD
  0
TEXT
  8
8
 10
-731.656494
 20
1246.024658
 30
0.0
 40
0.25
  1
# -1
  7
STANDARD
  0
TEXT
  8
8
 10
-703.775696
 20
1246.470703
 30
0.0
 40
0.25
  1
# -1
  7
STANDARD
  0
TEXT
  8
8
 10
-676.260986
 20
1246.653076
 30
0.0
 40
0.25
  1
# -1
  7
STANDARD
  0
TEXT
  8
8
 10
-648.673096
 20
1246.700439
 30
0.0
 40
0.25
  1
# -1
  7
STANDARD
  0
TEXT
  8
8
 10
-621.065674
 20
1246.668335
 30
0.0
 40
0.25
  1
# -1
  7
STANDARD
  0
TEXT
  8
8
 10
-593.111633
 20
1246.338013
 30
0.0
 40
0.25
  1
# -1
  7
STANDARD
  0
TEXT
  8
8
 10
-537.911377
 20
1245.372437
 30
0.0
 40
0.25
  1
# -1
  7
STANDARD
  0
TEXT
  8
8
 10
-509.781494
 20
1244.187134
 30
0.0
 40
0.25
  1
# -1
  7
STANDARD
  0
TEXT
  8
8
 10
-481.783508
 20
1242.271729
 30
0.0
 40
0.25
  1
# -1
  7
STANDARD
  0
TEXT
  8
8
 10
-452.354797
 20
1239.967285
 30
0.0
 40
0.25
  1
# 47
  7
STANDARD
  0
POINT
  8
2
 10
-845.216125
 20
1239.943481
 30
0.0
  0
POINT
  8
2
 10
-452.354797
 20
1239.967285
 30
0.0
  0
POINT
  8
3
 10
-815.509155
 20
1242.26123
 30
0.0
  0
POINT
  8
3
 10
-787.608704
 20
1244.15979
 30
0.0
  0
POINT
  8
3
 10
-759.591125
 20
1245.367432
 30
0.0
  0
POINT
  8
3
 10
-731.656494
 20
1246.024658
 30
0.0
  0
POINT
  8
3
 10
-703.775696
 20
1246.470703
 30
0.0
  0
POINT
  8
3
 10
-676.260986
 20
1246.653076
 30
0.0
  0
POINT
  8
3
 10
-648.673096
 20
1246.700439
 30
0.0
  0
POINT
  8
3
 10
-621.065674
 20
1246.668335
 30
0.0
  0
POINT
  8
3
 10
-593.111633
 20
1246.338013
 30
0.0
  0
POINT
  8
3
 10
-537.911377
 20
1245.372437
 30
0.0
  0
POINT
  8
3
 10
-509.781494
 20
1244.187134
 30
0.0
  0
POINT
  8
3
 10
-481.783508
 20
1242.271729
 30
0.0
  0
POLYLINE
  8
85
 66
1
 10
0.0
 20
0.0
 30
0.0
 70
0
  0
VERTEX
  8
85
 10
-815.509155
 20
1242.26123
 30
0.0
 70
0
  0
VERTEX
  8
85
 10
-806.211487
 20
1242.947998
 30
0.0
 70
0
  0
VERTEX
  8
85
 10
-796.913818
 20
1243.588745
 30
0.0
 70
0
  0
VERTEX
  8
85
 10
-787.608704
 20
1244.15979
 30
0.0
 70
0
  0
VERTEX
  8
85
 10
-780.606323
 20
1244.53125
 30
0.0
 70
0
  0
VERTEX
  8
85
 10
-773.603943
 20
1244.853516
 30
0.0
 70
0
  0
VERTEX
  8
85
 10
-766.599548
 20
1245.130859
 30
0.0
 70
0
  0
VERTEX
  8
85
 10
-759.591125
 20
1245.367432
 30
0.0
 70
0
  0
VERTEX
  8
85
 10
-745.624817
 20
1245.737915
 30
0.0
 70
0
  0
VERTEX
  8
85
 10
-731.656494
 20
1246.024658
 30
0.0
 70
0
  0
VERTEX
  8
85
 10
-717.716492
 20
1246.27417
 30
0.0
 70
0
  0
VERTEX
  8
85
 10
-703.775696
 20
1246.470703
 30
0.0
 70
0
  0
VERTEX
  8
85
 10
-690.018555
 20
1246.590576
 30
0.0
 70
0
  0
VERTEX
  8
85
 10
-676.260986
 20
1246.653076
 30
0.0
 70
0
  0
VERTEX
  8
85
 10
-648.673096
 20
1246.700439
 30
0.0
 70
0
  0
VERTEX
  8
85
 10
-634.869263
 20
1246.712036
 30
0.0
 70
0
  0
VERTEX
  8
85
 10
-621.065674
 20
1246.668335
 30
0.0
 70
0
  0
VERTEX
  8
85
 10
-607.088562
 20
1246.526489
 30
0.0
 70
0
  0
VERTEX
  8
85
 10
-593.111633
 20
1246.338013
 30
0.0
 70
0
  0
VERTEX
  8
85
 10
-583.908203
 20
1246.219116
 30
0.0
 70
0
  0
VERTEX
  8
85
 10
-574.707764
 20
1246.100098
 30
0.0
 70
0
  0
VERTEX
  8
85
 10
-565.509033
 20
1245.968384
 30
0.0
 70
0
  0
VERTEX
  8
85
 10
-556.310913
 20
1245.811523
 30
0.0
 70
0
  0
VERTEX
  8
85
 10
-547.112122
 20
1245.617065
 30
0.0
 70
0
  0
VERTEX
  8
85
 10
-537.911377
 20
1245.372437
 30
0.0
 70
0
  0
VERTEX
  8
85
 10
-530.874878
 20
1245.143799
 30
0.0
 70
0
  0
VERTEX
  8
85
 10
-523.842285
 20
1244.873535
 30
0.0
 70
0
  0
VERTEX
  8
85
 10
-516.811829
 20
1244.556274
 30
0.0
 70
0
  0
VERTEX
  8
85
 10
-509.781494
 20
1244.187134
 30
0.0
 70
0
  0
VERTEX
  8
85
 10
-500.443726
 20
1243.613647
 30
0.0
 70
0
  0
VERTEX
  8
85
 10
-491.113525
 20
1242.966309
 30
0.0
 70
0
  0
VERTEX
  8
85
 10
-481.783508
 20
1242.271729
 30
0.0
 70
0
  0
VERTEX
  8
85
 10
-452.354797
 20
1239.967285
 30
0.0
 70
0
  0
SEQEND
  8
0
  0
POLYLINE
  8
8
 66
1
 10
0.0
 20
0.0
 30
0.0
 70
0
  0
VERTEX
  8
8
 10
-844.805908
 20
1234.959961
 30
0.0
 70
0
  0
VERTEX
  8
8
 10
-815.138
 20
1237.275269
 30
0.0
 70
0
  0
VERTEX
  8
8
 10
-787.344971
 20
1239.16626
 30
0.0
 70
0
  0
VERTEX
  8
8
 10
-759.342102
 20
1240.372559
 30
0.0
 70
0
  0
VERTEX
  8
8
 10
-731.563721
 20
1241.025635
 30
0.0
 70
0
  0
VERTEX
  8
8
 10
-703.834229
 20
1241.470093
 30
0.0
 70
0
  0
VERTEX
  8
8
 10
-676.241516
 20
1241.653076
 30
0.0
 70
0
  0
VERTEX
  8
8
 10
-648.668213
 20
1241.700684
 30
0.0
 70
0
  0
VERTEX
  8
8
 10
-621.00708
 20
1241.668335
 30
0.0
 70
0
  0
VERTEX
  8
8
 10
-593.243408
 20
1241.339844
 30
0.0
 70
0
  0
VERTEX
  8
8
 10
-538.043213
 20
1240.37439
 30
0.0
 70
0
  0
VERTEX
  8
8
 10
-510.045227
 20
1239.194092
 30
0.0
 70
0
  0
VERTEX
  8
8
 10
-482.149719
 20
1237.285522
 30
0.0
 70
0
  0
VERTEX
  8
8
 10
-452.764893
 20
1234.984375
 30
0.0
 70
0
  0
SEQEND
  8
0
  0
TEXT
  8
8
 10
-844.805908
 20
1234.959961
 30
0.0
 40
0.25
  1
# 48
  7
STANDARD
  0
TEXT
  8
8
 10
-815.138
 20
1237.275269
 30
0.0
 40
0.25
  1
# -1
  7
STANDARD
  0
TEXT
  8
8
 10
-787.344971
 20
1239.16626
 30
0.0
 40
0.25
  1
# -1
  7
STANDARD
  0
TEXT
  8
8
 10
-759.342102
 20
1240.372559
 30
0.0
 40
0.25
  1
# -1
  7
STANDARD
  0
TEXT
  8
8
 10
-731.563721
 20
1241.025635
 30
0.0
 40
0.25
  1
# -1
  7
STANDARD
  0
TEXT
  8
8
 10
-703.834229
 20
1241.470093
 30
0.0
 40
0.25
  1
# -1
  7
STANDARD
  0
TEXT
  8
8
 10
-676.241516
 20
1241.653076
 30
0.0
 40
0.25
  1
# -1
  7
STANDARD
  0
TEXT
  8
8
 10
-648.668213
 20
1241.700684
 30
0.0
 40
0.25
  1
# -1
  7
STANDARD
  0
TEXT
  8
8
 10
-621.00708
 20
1241.668335
 30
0.0
 40
0.25
  1
# -1
  7
STANDARD
  0
TEXT
  8
8
 10
-593.243408
 20
1241.339844
 30
0.0
 40
0.25
  1
# -1
  7
STANDARD
  0
TEXT
  8
8
 10
-538.043213
 20
1240.37439
 30
0.0
 40
0.25
  1
# -1
  7
STANDARD
  0
TEXT
  8
8
 10
-510.045227
 20
1239.194092
 30
0.0
 40
0.25
  1
# -1
  7
STANDARD
  0
TEXT
  8
8
 10
-482.149719
 20
1237.285522
 30
0.0
 40
0.25
  1
# -1
  7
STANDARD
  0
TEXT
  8
8
 10
-452.764893
 20
1234.984375
 30
0.0
 40
0.25
  1
# 49
  7
STANDARD
  0
POINT
  8
2
 10
-844.805908
 20
1234.959961
 30
0.0
  0
POINT
  8
2
 10
-452.764893
 20
1234.984375
 30
0.0
  0
POINT
  8
3
 10
-815.138
 20
1237.275269
 30
0.0
  0
POINT
  8
3
 10
-787.344971
 20
1239.16626
 30
0.0
  0
POINT
  8
3
 10
-759.342102
 20
1240.372559
 30
0.0
  0
POINT
  8
3
 10
-731.563721
 20
1241.025635
 30
0.0
  0
POINT
  8
3
 10
-703.834229
 20
1241.470093
 30
0.0
  0
POINT
  8
3
 10
-676.241516
 20
1241.653076
 30
0.0
  0
POINT
  8
3
 10
-648.668213
 20
1241.700684
 30
0.0
  0
POINT
  8
3
 10
-621.00708
 20
1241.668335
 30
0.0
  0
POINT
  8
3
 10
-593.243408
 20
1241.339844
 30
0.0
  0
POINT
  8
3
 10
-538.043213
 20
1240.37439
 30
0.0
  0
POINT
  8
3
 10
-510.045227
 20
1239.194092
 30
0.0
  0
POINT
  8
3
 10
-482.149719
 20
1237.285522
 30
0.0
  0
POLYLINE
  8
85
 66
1
 10
0.0
 20
0.0
 30
0.0
 70
0
  0
VERTEX
  8
85
 10
-815.138
 20
1237.275269
 30
0.0
 70
0
  0
VERTEX
  8
85
 10
-805.87616
 20
1237.959351
 30
0.0
 70
0
  0
VERTEX
  8
85
 10
-796.614258
 20
1238.597412
 30
0.0
 70
0
  0
VERTEX
  8
85
 10
-787.344971
 20
1239.16626
 30
0.0
 70
0
  0
VERTEX
  8
85
 10
-780.346313
 20
1239.537354
 30
0.0
 70
0
  0
VERTEX
  8
85
 10
-773.347595
 20
1239.859375
 30
0.0
 70
0
  0
VERTEX
  8
85
 10
-766.346863
 20
1240.136353
 30
0.0
 70
0
  0
VERTEX
  8
85
 10
-759.342102
 20
1240.372559
 30
0.0
 70
0
  0
VERTEX
  8
85
 10
-745.453918
 20
1240.740479
 30
0.0
 70
0
  0
VERTEX
  8
85
 10
-731.563721
 20
1241.025635
 30
0.0
 70
0
  0
VERTEX
  8
85
 10
-717.699341
 20
1241.27417
 30
0.0
 70
0
  0
VERTEX
  8
85
 10
-703.834229
 20
1241.470093
 30
0.0
 70
0
  0
VERTEX
  8
85
 10
-690.038086
 20
1241.590576
 30
0.0
 70
0
  0
VERTEX
  8
85
 10
-676.241516
 20
1241.653076
 30
0.0
 70
0
  0
VERTEX
  8
85
 10
-648.668213
 20
1241.700684
 30
0.0
 70
0
  0
VERTEX
  8
85
 10
-634.837524
 20
1241.712402
 30
0.0
 70
0
  0
VERTEX
  8
85
 10
-621.00708
 20
1241.668335
 30
0.0
 70
0
  0
VERTEX
  8
85
 10
-607.125183
 20
1241.5271
 30
0.0
 70
0
  0
VERTEX
  8
85
 10
-593.243408
 20
1241.339844
 30
0.0
 70
0
  0
VERTEX
  8
85
 10
-584.039978
 20
1241.220947
 30
0.0
 70
0
  0
VERTEX
  8
85
 10
-574.839539
 20
1241.102051
 30
0.0
 70
0
  0
VERTEX
  8
85
 10
-565.640869
 20
1240.970459
 30
0.0
 70
0
  0
VERTEX
  8
85
 10
-556.442749
 20
1240.813721
 30
0.0
 70
0
  0
VERTEX
  8
85
 10
-547.243896
 20
1240.619263
 30
0.0
 70
0
  0
VERTEX
  8
85
 10
-538.043213
 20
1240.37439
 30
0.0
 70
0
  0
VERTEX
  8
85
 10
-531.039673
 20
1240.146606
 30
0.0
 70
0
  0
VERTEX
  8
85
 10
-524.0401
 20
1239.877441
 30
0.0
 70
0
  0
VERTEX
  8
85
 10
-517.042542
 20
1239.561646
 30
0.0
 70
0
  0
VERTEX
  8
85
 10
-510.045227
 20
1239.194092
 30
0.0
 70
0
  0
VERTEX
  8
85
 10
-500.741608
 20
1238.622681
 30
0.0
 70
0
  0
VERTEX
  8
85
 10
-491.445557
 20
1237.977539
 30
0.0
 70
0
  0
VERTEX
  8
85
 10
-482.149719
 20
1237.285522
 30
0.0
 70
0
  0
VERTEX
  8
85
 10
-452.764893
 20
1234.984375
 30
0.0
 70
0
  0
SEQEND
  8
0
  0
TEXT
  8
1
 10
-644.581299
 20
1335.774536
 30
0.0
 40
2.5
  1
PIECE NAME: 7
  7
STANDARD
  0
TEXT
  8
1
 10
-644.581299
 20
1330.774536
 30
0.0
 40
2.5
  1
SIZE: M
  7
STANDARD
  0
TEXT
  8
1
 10
-644.581299
 20
1320.774536
 30
0.0
 40
2.5
  1
QUANTITY: 1
  7
STANDARD
  0
ENDBLK
  8
0
  0
ENDSEC
  0
SECTION
  2
ENTITIES
  0
INSERT
  8
1
  2
7_M
 10
0.0
 20
0.0
 30
0.0
  0
TEXT
  8
1
 10
0.0
 20
0.0
 30
0.0
 40
0.25
  1
STYLE NAME: sleeve_right
  7
STANDARD
  0
TEXT
  8
1
 10
0.0
 20
0.0
 30
0.0
 40
0.25
  1
CREATION DATE: 01-06-2026
  7
STANDARD
  0
TEXT
  8
1
 10
0.0
 20
0.0
 30
0.0
 40
0.25
  1
CREATION TIME: 13:07
  7
STANDARD
  0
TEXT
  8
1
 10
0.0
 20
0.0
 30
0.0
 40
0.25
  1
AUTHOR: CLO Virtual Fashion Inc.
  7
STANDARD
  0
TEXT
  8
1
 10
0.0
 20
0.0
 30
0.0
 40
0.25
  1
PRODUCT: CLO Standalone OnlineAuth 2026.0.300
  7
STANDARD
  0
TEXT
  8
1
 10
0.0
 20
0.0
 30
0.0
 40
0.25
  1
VERSION: 3
  7
STANDARD
  0
TEXT
  8
1
 10
0.0
 20
0.0
 30
0.0
 40
0.25
  1
SAMPLE SIZE: M
  7
STANDARD
  0
TEXT
  8
1
 10
0.0
 20
0.0
 30
0.0
 40
0.25
  1
UNITS: METRIC
  7
STANDARD
  0
ENDSEC
  0
EOF
