  0
SECTION
  2
HEADER
  9
$ACADVER
  1
AC1009
  9
$DWGCODEPAGE
  3
ANSI_1252
  9
$EXTMIN
 10
1e+20
 20
1e+20
 30
1e+20
  9
$EXTMAX
 10
-1e+20
 20
-1e+20
 30
-1e+20
  9
$LIMMIN
 10
0.0
 20
0.0
  9
$LIMMAX
 10
420.0
 20
297.0
  9
$TDCREATE
 40
2461236.985775463
  9
$TDUPDATE
 40
2461236.985775463
  9
$PEXTMIN
 10
1e+20
 20
1e+20
 30
1e+20
  9
$PEXTMAX
 10
-1e+20
 20
-1e+20
 30
-1e+20
  9
$PLIMMIN
 10
0.0
 20
0.0
  9
$PLIMMAX
 10
420.0
 20
297.0
  0
ENDSEC
  0
SECTION
  2
TABLES
  0
TABLE
  2
VPORT
 70
1
  0
VPORT
  2
*Active
 70
0
 10
0.0
 20
0.0
 11
1.0
 21
1.0
 12
0.0
 22
0.0
 13
0.0
 23
0.0
 14
0.5
 24
0.5
 15
0.5
 25
0.5
 16
0.0
 26
0.0
 36
1.0
 17
0.0
 27
0.0
 37
0.0
 40
1000.0
 41
1.34
 42
50.0
 43
0.0
 44
0.0
 50
0.0
 51
0.0
 71
0
 72
1000
 73
1
 74
3
 75
0
 76
0
 77
0
 78
0
  0
ENDTAB
  0
TABLE
  2
LTYPE
 70
3
  0
LTYPE
  2
ByBlock
 70
0
  3

 72
65
 73
0
 40
0.0
  0
LTYPE
  2
ByLayer
 70
0
  3

 72
65
 73
0
 40
0.0
  0
LTYPE
  2
Continuous
 70
0
  3

 72
65
 73
0
 40
0.0
  0
ENDTAB
  0
TABLE
  2
LAYER
 70
2
  0
LAYER
  2
0
 70
0
 62
7
  6
Continuous
  0
LAYER
  2
Defpoints
 70
0
 62
7
  6
Continuous
  0
ENDTAB
  0
TABLE
  2
STYLE
 70
1
  0
STYLE
  2
Standard
 70
0
 40
0.0
 41
1.0
 50
0.0
 71
0
 42
2.5
  3
txt
  4

  0
ENDTAB
  0
TABLE
  2
VIEW
 70
0
  0
ENDTAB
  0
TABLE
  2
UCS
 70
0
  0
ENDTAB
  0
TABLE
  2
APPID
 70
3
  0
APPID
  2
ACAD
 70
0
  0
APPID
  2
HATCHBACKGROUNDCOLOR
 70
0
  0
APPID
  2
EZDXF
 70
0
  0
ENDTAB
  0
TABLE
  2
DIMSTYLE
 70
1
  0
DIMSTYLE
  2
Standard
 70
0
  3

  4

  5

  6

  7

 40
1.0
 41
2.5
 42
0.625
 43
3.75
 44
1.25
 45
0.0
 46
0.0
 47
0.0
 48
0.0
140
2.5
141
2.5
142
0.0
143
0.03937007874
144
1.0
145
0.0
146
1.0
147
0.625
 71
0
 72
0
 73
0
 74
0
 75
0
 76
0
 77
1
 78
8
170
0
171
3
172
1
173
0
174
0
175
0
176
0
177
0
178
0
  0
ENDTAB
  0
ENDSEC
  0
SECTION
  2
BLOCKS
  0
BLOCK
  8
0
  2
$Model_Space
 70
0
 10
0.0
 20
0.0
 30
0.0
  3
$Model_Space
  1

1001
EZDXF
1000
WRITTEN_BY_EZDXF
1000
1.4.3 @ 2026-07-14T18:09:31.368253+00:00
  0
ENDBLK
  8
0
  0
BLOCK
  8
0
  2
$Paper_Space
 70
0
 10
0.0
 20
0.0
 30
0.0
  3
$Paper_Space
  1

  0
ENDBLK
  8
0
  0
BLOCK
  8
1
  2
3_M
 70
64
 10
0.0
 20
0.0
 30
0.0
  3
3_M
  1

  0
POLYLINE
  8
1
 66
1
 10
0.0
 20
0.0
 30
0.0
 70
1
  0
VERTEX
  8
1
 10
465.95636
 20
1213.212646
 30
0.0
 70
0
  0
VERTEX
  8
1
 10
463.573547
 20
1223.337158
 30
0.0
 70
0
  0
VERTEX
  8
1
 10
460.717072
 20
1233.336792
 30
0.0
 70
0
  0
VERTEX
  8
1
 10
457.465149
 20
1243.217529
 30
0.0
 70
0
  0
VERTEX
  8
1
 10
453.602844
 20
1252.873047
 30
0.0
 70
0
  0
VERTEX
  8
1
 10
449.471954
 20
1262.414062
 30
0.0
 70
0
  0
VERTEX
  8
1
 10
445.087158
 20
1271.846069
 30
0.0
 70
0
  0
VERTEX
  8
1
 10
440.433868
 20
1281.147339
 30
0.0
 70
0
  0
VERTEX
  8
1
 10
430.599854
 20
1299.472534
 30
0.0
 70
0
  0
VERTEX
  8
1
 10
425.60968
 20
1308.606201
 30
0.0
 70
0
  0
VERTEX
  8
1
 10
420.726868
 20
1317.784058
 30
0.0
 70
0
  0
VERTEX
  8
1
 10
415.736572
 20
1326.908447
 30
0.0
 70
0
  0
VERTEX
  8
1
 10
412.220947
 20
1333.104126
 30
0.0
 70
0
  0
VERTEX
  8
1
 10
408.929962
 20
1338.820312
 30
0.0
 70
0
  0
VERTEX
  8
1
 10
418.719971
 20
1341.530029
 30
0.0
 70
0
  0
VERTEX
  8
1
 10
428.407471
 20
1344.546021
 30
0.0
 70
0
  0
VERTEX
  8
1
 10
437.992462
 20
1347.885986
 30
0.0
 70
0
  0
VERTEX
  8
1
 10
447.48468
 20
1351.495605
 30
0.0
 70
0
  0
VERTEX
  8
1
 10
456.89386
 20
1355.329712
 30
0.0
 70
0
  0
VERTEX
  8
1
 10
466.210266
 20
1359.381958
 30
0.0
 70
0
  0
VERTEX
  8
1
 10
475.424072
 20
1363.62793
 30
0.0
 70
0
  0
VERTEX
  8
1
 10
484.550049
 20
1368.074463
 30
0.0
 70
0
  0
VERTEX
  8
1
 10
493.578369
 20
1372.719971
 30
0.0
 70
0
  0
VERTEX
  8
1
 10
502.509064
 20
1377.557617
 30
0.0
 70
0
  0
VERTEX
  8
1
 10
511.302979
 20
1382.554077
 30
0.0
 70
0
  0
VERTEX
  8
1
 10
519.979736
 20
1387.752319
 30
0.0
 70
0
  0
VERTEX
  8
1
 10
537.054932
 20
1398.893188
 30
0.0
 70
0
  0
VERTEX
  8
1
 10
553.866455
 20
1410.286133
 30
0.0
 70
0
  0
VERTEX
  8
1
 10
560.116455
 20
1414.500732
 30
0.0
 70
0
  0
VERTEX
  8
1
 10
570.756165
 20
1421.56311
 30
0.0
 70
0
  0
VERTEX
  8
1
 10
579.301025
 20
1427.056396
 30
0.0
 70
0
  0
VERTEX
  8
1
 10
587.958252
 20
1432.358521
 30
0.0
 70
0
  0
VERTEX
  8
1
 10
596.766846
 20
1437.403442
 30
0.0
 70
0
  0
VERTEX
  8
1
 10
605.761047
 20
1442.10083
 30
0.0
 70
0
  0
VERTEX
  8
1
 10
614.974854
 20
1446.373413
 30
0.0
 70
0
  0
VERTEX
  8
1
 10
624.41333
 20
1450.117798
 30
0.0
 70
0
  0
VERTEX
  8
1
 10
634.08136
 20
1453.215088
 30
0.0
 70
0
  0
VERTEX
  8
1
 10
643.929932
 20
1455.64502
 30
0.0
 70
0
  0
VERTEX
  8
1
 10
653.915405
 20
1457.348633
 30
0.0
 70
0
  0
VERTEX
  8
1
 10
664.047119
 20
1458.338623
 30
0.0
 70
0
  0
VERTEX
  8
1
 10
673.549072
 20
1457.535645
 30
0.0
 70
0
  0
VERTEX
  8
1
 10
682.958252
 20
1456.144775
 30
0.0
 70
0
  0
VERTEX
  8
1
 10
692.279541
 20
1454.15564
 30
0.0
 70
0
  0
VERTEX
  8
1
 10
701.469055
 20
1451.610107
 30
0.0
 70
0
  0
VERTEX
  8
1
 10
710.492432
 20
1448.542236
 30
0.0
 70
0
  0
VERTEX
  8
1
 10
719.330322
 20
1444.978271
 30
0.0
 70
0
  0
VERTEX
  8
1
 10
727.953369
 20
1440.90979
 30
0.0
 70
0
  0
VERTEX
  8
1
 10
736.395752
 20
1436.480835
 30
0.0
 70
0
  0
VERTEX
  8
1
 10
744.720947
 20
1431.842041
 30
0.0
 70
0
  0
VERTEX
  8
1
 10
745.687744
 20
1431.277832
 30
0.0
 70
0
  0
VERTEX
  8
1
 10
752.909424
 20
1426.96875
 30
0.0
 70
0
  0
VERTEX
  8
1
 10
754.25708
 20
1426.136597
 30
0.0
 70
0
  0
VERTEX
  8
1
 10
760.970947
 20
1421.87793
 30
0.0
 70
0
  0
VERTEX
  8
1
 10
768.910461
 20
1416.591553
 30
0.0
 70
0
  0
VERTEX
  8
1
 10
784.423157
 20
1405.512695
 30
0.0
 70
0
  0
VERTEX
  8
1
 10
799.750244
 20
1394.188232
 30
0.0
 70
0
  0
VERTEX
  8
1
 10
815.19458
 20
1383.002563
 30
0.0
 70
0
  0
VERTEX
  8
1
 10
831.039368
 20
1372.399292
 30
0.0
 70
0
  0
VERTEX
  8
1
 10
839.047119
 20
1367.233154
 30
0.0
 70
0
  0
VERTEX
  8
1
 10
847.177063
 20
1362.253052
 30
0.0
 70
0
  0
VERTEX
  8
1
 10
855.472961
 20
1357.55835
 30
0.0
 70
0
  0
VERTEX
  8
1
 10
863.920166
 20
1353.139893
 30
0.0
 70
0
  0
VERTEX
  8
1
 10
872.50415
 20
1349.001587
 30
0.0
 70
0
  0
VERTEX
  8
1
 10
881.244507
 20
1345.20459
 30
0.0
 70
0
  0
VERTEX
  8
1
 10
890.145752
 20
1341.81665
 30
0.0
 70
0
  0
VERTEX
  8
1
 10
899.203369
 20
1338.817627
 30
0.0
 70
0
  0
VERTEX
  8
1
 10
895.07251
 20
1330.599609
 30
0.0
 70
0
  0
VERTEX
  8
1
 10
890.824463
 20
1321.875366
 30
0.0
 70
0
  0
VERTEX
  8
1
 10
886.693665
 20
1313.09314
 30
0.0
 70
0
  0
VERTEX
  8
1
 10
882.587158
 20
1304.302246
 30
0.0
 70
0
  0
VERTEX
  8
1
 10
878.427063
 20
1295.53479
 30
0.0
 70
0
  0
VERTEX
  8
1
 10
874.301025
 20
1286.751831
 30
0.0
 70
0
  0
VERTEX
  8
1
 10
870.262939
 20
1277.930664
 30
0.0
 70
0
  0
VERTEX
  8
1
 10
866.473877
 20
1268.994873
 30
0.0
 70
0
  0
VERTEX
  8
1
 10
862.938721
 20
1259.959106
 30
0.0
 70
0
  0
VERTEX
  8
1
 10
859.618469
 20
1250.841187
 30
0.0
 70
0
  0
VERTEX
  8
1
 10
856.591064
 20
1241.621826
 30
0.0
 70
0
  0
VERTEX
  8
1
 10
854.130127
 20
1232.23584
 30
0.0
 70
0
  0
VERTEX
  8
1
 10
852.001221
 20
1222.769531
 30
0.0
 70
0
  0
VERTEX
  8
1
 10
850.307007
 20
1213.213867
 30
0.0
 70
0
  0
VERTEX
  8
1
 10
822.909424
 20
1215.34375
 30
0.0
 70
0
  0
VERTEX
  8
1
 10
795.492432
 20
1217.209839
 30
0.0
 70
0
  0
VERTEX
  8
1
 10
768.036377
 20
1218.391479
 30
0.0
 70
0
  0
VERTEX
  8
1
 10
740.570557
 20
1219.036743
 30
0.0
 70
0
  0
VERTEX
  8
1
 10
713.090149
 20
1219.477661
 30
0.0
 70
0
  0
VERTEX
  8
1
 10
685.614563
 20
1219.65979
 30
0.0
 70
0
  0
VERTEX
  8
1
 10
658.134033
 20
1219.70752
 30
0.0
 70
0
  0
VERTEX
  8
1
 10
630.648743
 20
1219.675049
 30
0.0
 70
0
  0
VERTEX
  8
1
 10
603.173157
 20
1219.350098
 30
0.0
 70
0
  0
VERTEX
  8
1
 10
548.226868
 20
1218.390015
 30
0.0
 70
0
  0
VERTEX
  8
1
 10
520.765869
 20
1217.231934
 30
0.0
 70
0
  0
VERTEX
  8
1
 10
493.35376
 20
1215.354248
 30
0.0
 70
0
  0
SEQEND
  8
0
  0
TEXT
  8
1
 10
465.95636
 20
1213.212646
 30
0.0
 40
0.25
  1
# 33
  7
STANDARD
  0
TEXT
  8
1
 10
463.573547
 20
1223.337158
 30
0.0
 40
0.25
  1
# -1
  7
STANDARD
  0
TEXT
  8
1
 10
460.717072
 20
1233.336792
 30
0.0
 40
0.25
  1
# -1
  7
STANDARD
  0
TEXT
  8
1
 10
457.465149
 20
1243.217529
 30
0.0
 40
0.25
  1
# -1
  7
STANDARD
  0
TEXT
  8
1
 10
453.602844
 20
1252.873047
 30
0.0
 40
0.25
  1
# -1
  7
STANDARD
  0
TEXT
  8
1
 10
449.471954
 20
1262.414062
 30
0.0
 40
0.25
  1
# -1
  7
STANDARD
  0
TEXT
  8
1
 10
445.087158
 20
1271.846069
 30
0.0
 40
0.25
  1
# -1
  7
STANDARD
  0
TEXT
  8
1
 10
440.433868
 20
1281.147339
 30
0.0
 40
0.25
  1
# -1
  7
STANDARD
  0
TEXT
  8
1
 10
430.599854
 20
1299.472534
 30
0.0
 40
0.25
  1
# -1
  7
STANDARD
  0
TEXT
  8
1
 10
425.60968
 20
1308.606201
 30
0.0
 40
0.25
  1
# -1
  7
STANDARD
  0
TEXT
  8
1
 10
420.726868
 20
1317.784058
 30
0.0
 40
0.25
  1
# -1
  7
STANDARD
  0
TEXT
  8
1
 10
415.736572
 20
1326.908447
 30
0.0
 40
0.25
  1
# -1
  7
STANDARD
  0
TEXT
  8
1
 10
412.220947
 20
1333.104126
 30
0.0
 40
0.25
  1
# -1
  7
STANDARD
  0
TEXT
  8
1
 10
408.929962
 20
1338.820312
 30
0.0
 40
0.25
  1
# 34
  7
STANDARD
  0
TEXT
  8
1
 10
418.719971
 20
1341.530029
 30
0.0
 40
0.25
  1
# -1
  7
STANDARD
  0
TEXT
  8
1
 10
428.407471
 20
1344.546021
 30
0.0
 40
0.25
  1
# -1
  7
STANDARD
  0
TEXT
  8
1
 10
437.992462
 20
1347.885986
 30
0.0
 40
0.25
  1
# -1
  7
STANDARD
  0
TEXT
  8
1
 10
447.48468
 20
1351.495605
 30
0.0
 40
0.25
  1
# -1
  7
STANDARD
  0
TEXT
  8
1
 10
456.89386
 20
1355.329712
 30
0.0
 40
0.25
  1
# -1
  7
STANDARD
  0
TEXT
  8
1
 10
466.210266
 20
1359.381958
 30
0.0
 40
0.25
  1
# -1
  7
STANDARD
  0
TEXT
  8
1
 10
475.424072
 20
1363.62793
 30
0.0
 40
0.25
  1
# -1
  7
STANDARD
  0
TEXT
  8
1
 10
484.550049
 20
1368.074463
 30
0.0
 40
0.25
  1
# -1
  7
STANDARD
  0
TEXT
  8
1
 10
493.578369
 20
1372.719971
 30
0.0
 40
0.25
  1
# -1
  7
STANDARD
  0
TEXT
  8
1
 10
502.509064
 20
1377.557617
 30
0.0
 40
0.25
  1
# -1
  7
STANDARD
  0
TEXT
  8
1
 10
511.302979
 20
1382.554077
 30
0.0
 40
0.25
  1
# -1
  7
STANDARD
  0
TEXT
  8
1
 10
519.979736
 20
1387.752319
 30
0.0
 40
0.25
  1
# -1
  7
STANDARD
  0
TEXT
  8
1
 10
537.054932
 20
1398.893188
 30
0.0
 40
0.25
  1
# -1
  7
STANDARD
  0
TEXT
  8
1
 10
553.866455
 20
1410.286133
 30
0.0
 40
0.25
  1
# -1
  7
STANDARD
  0
TEXT
  8
1
 10
560.116455
 20
1414.500732
 30
0.0
 40
0.25
  1
# -1
  7
STANDARD
  0
TEXT
  8
1
 10
570.756165
 20
1421.56311
 30
0.0
 40
0.25
  1
# -1
  7
STANDARD
  0
TEXT
  8
1
 10
579.301025
 20
1427.056396
 30
0.0
 40
0.25
  1
# -1
  7
STANDARD
  0
TEXT
  8
1
 10
587.958252
 20
1432.358521
 30
0.0
 40
0.25
  1
# -1
  7
STANDARD
  0
TEXT
  8
1
 10
596.766846
 20
1437.403442
 30
0.0
 40
0.25
  1
# -1
  7
STANDARD
  0
TEXT
  8
1
 10
605.761047
 20
1442.10083
 30
0.0
 40
0.25
  1
# -1
  7
STANDARD
  0
TEXT
  8
1
 10
614.974854
 20
1446.373413
 30
0.0
 40
0.25
  1
# -1
  7
STANDARD
  0
TEXT
  8
1
 10
624.41333
 20
1450.117798
 30
0.0
 40
0.25
  1
# -1
  7
STANDARD
  0
TEXT
  8
1
 10
634.08136
 20
1453.215088
 30
0.0
 40
0.25
  1
# -1
  7
STANDARD
  0
TEXT
  8
1
 10
643.929932
 20
1455.64502
 30
0.0
 40
0.25
  1
# -1
  7
STANDARD
  0
TEXT
  8
1
 10
653.915405
 20
1457.348633
 30
0.0
 40
0.25
  1
# -1
  7
STANDARD
  0
TEXT
  8
1
 10
664.047119
 20
1458.338623
 30
0.0
 40
0.25
  1
# 36
  7
STANDARD
  0
TEXT
  8
1
 10
673.549072
 20
1457.535645
 30
0.0
 40
0.25
  1
# -1
  7
STANDARD
  0
TEXT
  8
1
 10
682.958252
 20
1456.144775
 30
0.0
 40
0.25
  1
# -1
  7
STANDARD
  0
TEXT
  8
1
 10
692.279541
 20
1454.15564
 30
0.0
 40
0.25
  1
# -1
  7
STANDARD
  0
TEXT
  8
1
 10
701.469055
 20
1451.610107
 30
0.0
 40
0.25
  1
# -1
  7
STANDARD
  0
TEXT
  8
1
 10
710.492432
 20
1448.542236
 30
0.0
 40
0.25
  1
# -1
  7
STANDARD
  0
TEXT
  8
1
 10
719.330322
 20
1444.978271
 30
0.0
 40
0.25
  1
# -1
  7
STANDARD
  0
TEXT
  8
1
 10
727.953369
 20
1440.90979
 30
0.0
 40
0.25
  1
# -1
  7
STANDARD
  0
TEXT
  8
1
 10
736.395752
 20
1436.480835
 30
0.0
 40
0.25
  1
# -1
  7
STANDARD
  0
TEXT
  8
1
 10
744.720947
 20
1431.842041
 30
0.0
 40
0.25
  1
# -1
  7
STANDARD
  0
TEXT
  8
1
 10
745.687744
 20
1431.277832
 30
0.0
 40
0.25
  1
# -1
  7
STANDARD
  0
TEXT
  8
1
 10
752.909424
 20
1426.96875
 30
0.0
 40
0.25
  1
# -1
  7
STANDARD
  0
TEXT
  8
1
 10
754.25708
 20
1426.136597
 30
0.0
 40
0.25
  1
# -1
  7
STANDARD
  0
TEXT
  8
1
 10
760.970947
 20
1421.87793
 30
0.0
 40
0.25
  1
# -1
  7
STANDARD
  0
TEXT
  8
1
 10
768.910461
 20
1416.591553
 30
0.0
 40
0.25
  1
# -1
  7
STANDARD
  0
TEXT
  8
1
 10
784.423157
 20
1405.512695
 30
0.0
 40
0.25
  1
# -1
  7
STANDARD
  0
TEXT
  8
1
 10
799.750244
 20
1394.188232
 30
0.0
 40
0.25
  1
# -1
  7
STANDARD
  0
TEXT
  8
1
 10
815.19458
 20
1383.002563
 30
0.0
 40
0.25
  1
# -1
  7
STANDARD
  0
TEXT
  8
1
 10
831.039368
 20
1372.399292
 30
0.0
 40
0.25
  1
# -1
  7
STANDARD
  0
TEXT
  8
1
 10
839.047119
 20
1367.233154
 30
0.0
 40
0.25
  1
# -1
  7
STANDARD
  0
TEXT
  8
1
 10
847.177063
 20
1362.253052
 30
0.0
 40
0.25
  1
# -1
  7
STANDARD
  0
TEXT
  8
1
 10
855.472961
 20
1357.55835
 30
0.0
 40
0.25
  1
# -1
  7
STANDARD
  0
TEXT
  8
1
 10
863.920166
 20
1353.139893
 30
0.0
 40
0.25
  1
# -1
  7
STANDARD
  0
TEXT
  8
1
 10
872.50415
 20
1349.001587
 30
0.0
 40
0.25
  1
# -1
  7
STANDARD
  0
TEXT
  8
1
 10
881.244507
 20
1345.20459
 30
0.0
 40
0.25
  1
# -1
  7
STANDARD
  0
TEXT
  8
1
 10
890.145752
 20
1341.81665
 30
0.0
 40
0.25
  1
# -1
  7
STANDARD
  0
TEXT
  8
1
 10
899.203369
 20
1338.817627
 30
0.0
 40
0.25
  1
# 39
  7
STANDARD
  0
TEXT
  8
1
 10
895.07251
 20
1330.599609
 30
0.0
 40
0.25
  1
# -1
  7
STANDARD
  0
TEXT
  8
1
 10
890.824463
 20
1321.875366
 30
0.0
 40
0.25
  1
# -1
  7
STANDARD
  0
TEXT
  8
1
 10
886.693665
 20
1313.09314
 30
0.0
 40
0.25
  1
# -1
  7
STANDARD
  0
TEXT
  8
1
 10
882.587158
 20
1304.302246
 30
0.0
 40
0.25
  1
# -1
  7
STANDARD
  0
TEXT
  8
1
 10
878.427063
 20
1295.53479
 30
0.0
 40
0.25
  1
# -1
  7
STANDARD
  0
TEXT
  8
1
 10
874.301025
 20
1286.751831
 30
0.0
 40
0.25
  1
# -1
  7
STANDARD
  0
TEXT
  8
1
 10
870.262939
 20
1277.930664
 30
0.0
 40
0.25
  1
# -1
  7
STANDARD
  0
TEXT
  8
1
 10
866.473877
 20
1268.994873
 30
0.0
 40
0.25
  1
# -1
  7
STANDARD
  0
TEXT
  8
1
 10
862.938721
 20
1259.959106
 30
0.0
 40
0.25
  1
# -1
  7
STANDARD
  0
TEXT
  8
1
 10
859.618469
 20
1250.841187
 30
0.0
 40
0.25
  1
# -1
  7
STANDARD
  0
TEXT
  8
1
 10
856.591064
 20
1241.621826
 30
0.0
 40
0.25
  1
# -1
  7
STANDARD
  0
TEXT
  8
1
 10
854.130127
 20
1232.23584
 30
0.0
 40
0.25
  1
# -1
  7
STANDARD
  0
TEXT
  8
1
 10
852.001221
 20
1222.769531
 30
0.0
 40
0.25
  1
# -1
  7
STANDARD
  0
TEXT
  8
1
 10
850.307007
 20
1213.213867
 30
0.0
 40
0.25
  1
# 40
  7
STANDARD
  0
TEXT
  8
1
 10
822.909424
 20
1215.34375
 30
0.0
 40
0.25
  1
# -1
  7
STANDARD
  0
TEXT
  8
1
 10
795.492432
 20
1217.209839
 30
0.0
 40
0.25
  1
# -1
  7
STANDARD
  0
TEXT
  8
1
 10
768.036377
 20
1218.391479
 30
0.0
 40
0.25
  1
# -1
  7
STANDARD
  0
TEXT
  8
1
 10
740.570557
 20
1219.036743
 30
0.0
 40
0.25
  1
# -1
  7
STANDARD
  0
TEXT
  8
1
 10
713.090149
 20
1219.477661
 30
0.0
 40
0.25
  1
# -1
  7
STANDARD
  0
TEXT
  8
1
 10
685.614563
 20
1219.65979
 30
0.0
 40
0.25
  1
# -1
  7
STANDARD
  0
TEXT
  8
1
 10
658.134033
 20
1219.70752
 30
0.0
 40
0.25
  1
# -1
  7
STANDARD
  0
TEXT
  8
1
 10
630.648743
 20
1219.675049
 30
0.0
 40
0.25
  1
# -1
  7
STANDARD
  0
TEXT
  8
1
 10
603.173157
 20
1219.350098
 30
0.0
 40
0.25
  1
# -1
  7
STANDARD
  0
TEXT
  8
1
 10
548.226868
 20
1218.390015
 30
0.0
 40
0.25
  1
# -1
  7
STANDARD
  0
TEXT
  8
1
 10
520.765869
 20
1217.231934
 30
0.0
 40
0.25
  1
# -1
  7
STANDARD
  0
TEXT
  8
1
 10
493.35376
 20
1215.354248
 30
0.0
 40
0.25
  1
# -1
  7
STANDARD
  0
POINT
  8
2
 10
465.95636
 20
1213.212646
 30
0.0
  0
POINT
  8
2
 10
408.929962
 20
1338.820312
 30
0.0
  0
POINT
  8
2
 10
664.047119
 20
1458.338623
 30
0.0
  0
POINT
  8
2
 10
899.203369
 20
1338.817627
 30
0.0
  0
POINT
  8
2
 10
850.307007
 20
1213.213867
 30
0.0
  0
POINT
  8
3
 10
463.573547
 20
1223.337158
 30
0.0
  0
POINT
  8
3
 10
460.717072
 20
1233.336792
 30
0.0
  0
POINT
  8
3
 10
457.465149
 20
1243.217529
 30
0.0
  0
POINT
  8
3
 10
453.602844
 20
1252.873047
 30
0.0
  0
POINT
  8
3
 10
449.471954
 20
1262.414062
 30
0.0
  0
POINT
  8
3
 10
445.087158
 20
1271.846069
 30
0.0
  0
POINT
  8
3
 10
440.433868
 20
1281.147339
 30
0.0
  0
POINT
  8
3
 10
430.599854
 20
1299.472534
 30
0.0
  0
POINT
  8
3
 10
425.60968
 20
1308.606201
 30
0.0
  0
POINT
  8
3
 10
420.726868
 20
1317.784058
 30
0.0
  0
POINT
  8
3
 10
415.736572
 20
1326.908447
 30
0.0
  0
POINT
  8
3
 10
412.220947
 20
1333.104126
 30
0.0
  0
POINT
  8
3
 10
418.719971
 20
1341.530029
 30
0.0
  0
POINT
  8
3
 10
428.407471
 20
1344.546021
 30
0.0
  0
POINT
  8
3
 10
437.992462
 20
1347.885986
 30
0.0
  0
POINT
  8
3
 10
447.48468
 20
1351.495605
 30
0.0
  0
POINT
  8
3
 10
456.89386
 20
1355.329712
 30
0.0
  0
POINT
  8
3
 10
466.210266
 20
1359.381958
 30
0.0
  0
POINT
  8
3
 10
475.424072
 20
1363.62793
 30
0.0
  0
POINT
  8
3
 10
484.550049
 20
1368.074463
 30
0.0
  0
POINT
  8
3
 10
493.578369
 20
1372.719971
 30
0.0
  0
POINT
  8
3
 10
502.509064
 20
1377.557617
 30
0.0
  0
POINT
  8
3
 10
511.302979
 20
1382.554077
 30
0.0
  0
POINT
  8
3
 10
519.979736
 20
1387.752319
 30
0.0
  0
POINT
  8
3
 10
537.054932
 20
1398.893188
 30
0.0
  0
POINT
  8
3
 10
553.866455
 20
1410.286133
 30
0.0
  0
POINT
  8
3
 10
560.116455
 20
1414.500732
 30
0.0
  0
POINT
  8
3
 10
570.756165
 20
1421.56311
 30
0.0
  0
POINT
  8
3
 10
579.301025
 20
1427.056396
 30
0.0
  0
POINT
  8
3
 10
587.958252
 20
1432.358521
 30
0.0
  0
POINT
  8
3
 10
596.766846
 20
1437.403442
 30
0.0
  0
POINT
  8
3
 10
605.761047
 20
1442.10083
 30
0.0
  0
POINT
  8
3
 10
614.974854
 20
1446.373413
 30
0.0
  0
POINT
  8
3
 10
624.41333
 20
1450.117798
 30
0.0
  0
POINT
  8
3
 10
634.08136
 20
1453.215088
 30
0.0
  0
POINT
  8
3
 10
643.929932
 20
1455.64502
 30
0.0
  0
POINT
  8
3
 10
653.915405
 20
1457.348633
 30
0.0
  0
POINT
  8
3
 10
673.549072
 20
1457.535645
 30
0.0
  0
POINT
  8
3
 10
682.958252
 20
1456.144775
 30
0.0
  0
POINT
  8
3
 10
692.279541
 20
1454.15564
 30
0.0
  0
POINT
  8
3
 10
701.469055
 20
1451.610107
 30
0.0
  0
POINT
  8
3
 10
710.492432
 20
1448.542236
 30
0.0
  0
POINT
  8
3
 10
719.330322
 20
1444.978271
 30
0.0
  0
POINT
  8
3
 10
727.953369
 20
1440.90979
 30
0.0
  0
POINT
  8
3
 10
736.395752
 20
1436.480835
 30
0.0
  0
POINT
  8
3
 10
744.720947
 20
1431.842041
 30
0.0
  0
POINT
  8
3
 10
745.687744
 20
1431.277832
 30
0.0
  0
POINT
  8
3
 10
752.909424
 20
1426.96875
 30
0.0
  0
POINT
  8
3
 10
754.25708
 20
1426.136597
 30
0.0
  0
POINT
  8
3
 10
760.970947
 20
1421.87793
 30
0.0
  0
POINT
  8
3
 10
768.910461
 20
1416.591553
 30
0.0
  0
POINT
  8
3
 10
784.423157
 20
1405.512695
 30
0.0
  0
POINT
  8
3
 10
799.750244
 20
1394.188232
 30
0.0
  0
POINT
  8
3
 10
815.19458
 20
1383.002563
 30
0.0
  0
POINT
  8
3
 10
831.039368
 20
1372.399292
 30
0.0
  0
POINT
  8
3
 10
839.047119
 20
1367.233154
 30
0.0
  0
POINT
  8
3
 10
847.177063
 20
1362.253052
 30
0.0
  0
POINT
  8
3
 10
855.472961
 20
1357.55835
 30
0.0
  0
POINT
  8
3
 10
863.920166
 20
1353.139893
 30
0.0
  0
POINT
  8
3
 10
872.50415
 20
1349.001587
 30
0.0
  0
POINT
  8
3
 10
881.244507
 20
1345.20459
 30
0.0
  0
POINT
  8
3
 10
890.145752
 20
1341.81665
 30
0.0
  0
POINT
  8
3
 10
895.07251
 20
1330.599609
 30
0.0
  0
POINT
  8
3
 10
890.824463
 20
1321.875366
 30
0.0
  0
POINT
  8
3
 10
886.693665
 20
1313.09314
 30
0.0
  0
POINT
  8
3
 10
882.587158
 20
1304.302246
 30
0.0
  0
POINT
  8
3
 10
878.427063
 20
1295.53479
 30
0.0
  0
POINT
  8
3
 10
874.301025
 20
1286.751831
 30
0.0
  0
POINT
  8
3
 10
870.262939
 20
1277.930664
 30
0.0
  0
POINT
  8
3
 10
866.473877
 20
1268.994873
 30
0.0
  0
POINT
  8
3
 10
862.938721
 20
1259.959106
 30
0.0
  0
POINT
  8
3
 10
859.618469
 20
1250.841187
 30
0.0
  0
POINT
  8
3
 10
856.591064
 20
1241.621826
 30
0.0
  0
POINT
  8
3
 10
854.130127
 20
1232.23584
 30
0.0
  0
POINT
  8
3
 10
852.001221
 20
1222.769531
 30
0.0
  0
POINT
  8
3
 10
822.909424
 20
1215.34375
 30
0.0
  0
POINT
  8
3
 10
795.492432
 20
1217.209839
 30
0.0
  0
POINT
  8
3
 10
768.036377
 20
1218.391479
 30
0.0
  0
POINT
  8
3
 10
740.570557
 20
1219.036743
 30
0.0
  0
POINT
  8
3
 10
713.090149
 20
1219.477661
 30
0.0
  0
POINT
  8
3
 10
685.614563
 20
1219.65979
 30
0.0
  0
POINT
  8
3
 10
658.134033
 20
1219.70752
 30
0.0
  0
POINT
  8
3
 10
630.648743
 20
1219.675049
 30
0.0
  0
POINT
  8
3
 10
603.173157
 20
1219.350098
 30
0.0
  0
POINT
  8
3
 10
548.226868
 20
1218.390015
 30
0.0
  0
POINT
  8
3
 10
520.765869
 20
1217.231934
 30
0.0
  0
POINT
  8
3
 10
493.35376
 20
1215.354248
 30
0.0
  0
POINT
  8
4
 10
560.116455
 20
1414.500732
 30
7.0
 50
305.544983
  0
POINT
  8
4
 10
664.047119
 20
1458.338623
 30
7.0
 39
14.9176
 50
274.073669
  0
POINT
  8
4
 10
745.687744
 20
1431.277832
 30
7.0
 50
239.844757
  0
POINT
  8
4
 10
754.25708
 20
1426.136597
 30
7.0
 50
238.257782
  0
POLYLINE
  8
84
 66
1
 10
0.0
 20
0.0
 30
0.0
 70
1
  0
VERTEX
  8
84
 10
463.573547
 20
1223.337158
 30
0.0
 70
0
  0
VERTEX
  8
84
 10
460.717072
 20
1233.336792
 30
0.0
 70
0
  0
VERTEX
  8
84
 10
459.156799
 20
1238.300049
 30
0.0
 70
0
  0
VERTEX
  8
84
 10
457.465149
 20
1243.217529
 30
0.0
 70
0
  0
VERTEX
  8
84
 10
455.593872
 20
1248.068115
 30
0.0
 70
0
  0
VERTEX
  8
84
 10
453.602844
 20
1252.873047
 30
0.0
 70
0
  0
VERTEX
  8
84
 10
449.471954
 20
1262.414062
 30
0.0
 70
0
  0
VERTEX
  8
84
 10
445.087158
 20
1271.846069
 30
0.0
 70
0
  0
VERTEX
  8
84
 10
440.433868
 20
1281.147339
 30
0.0
 70
0
  0
VERTEX
  8
84
 10
437.213074
 20
1287.286743
 30
0.0
 70
0
  0
VERTEX
  8
84
 10
433.927185
 20
1293.389526
 30
0.0
 70
0
  0
VERTEX
  8
84
 10
430.599854
 20
1299.472534
 30
0.0
 70
0
  0
VERTEX
  8
84
 10
425.60968
 20
1308.606201
 30
0.0
 70
0
  0
VERTEX
  8
84
 10
420.726868
 20
1317.784058
 30
0.0
 70
0
  0
VERTEX
  8
84
 10
415.736572
 20
1326.908447
 30
0.0
 70
0
  0
VERTEX
  8
84
 10
412.220947
 20
1333.104126
 30
0.0
 70
0
  0
VERTEX
  8
84
 10
408.929962
 20
1338.820312
 30
0.0
 70
0
  0
VERTEX
  8
84
 10
418.719971
 20
1341.530029
 30
0.0
 70
0
  0
VERTEX
  8
84
 10
428.407471
 20
1344.546021
 30
0.0
 70
0
  0
VERTEX
  8
84
 10
437.992462
 20
1347.885986
 30
0.0
 70
0
  0
VERTEX
  8
84
 10
447.48468
 20
1351.495605
 30
0.0
 70
0
  0
VERTEX
  8
84
 10
456.89386
 20
1355.329712
 30
0.0
 70
0
  0
VERTEX
  8
84
 10
466.210266
 20
1359.381958
 30
0.0
 70
0
  0
VERTEX
  8
84
 10
475.424072
 20
1363.62793
 30
0.0
 70
0
  0
VERTEX
  8
84
 10
484.550049
 20
1368.074463
 30
0.0
 70
0
  0
VERTEX
  8
84
 10
493.578369
 20
1372.719971
 30
0.0
 70
0
  0
VERTEX
  8
84
 10
502.509064
 20
1377.557617
 30
0.0
 70
0
  0
VERTEX
  8
84
 10
511.302979
 20
1382.554077
 30
0.0
 70
0
  0
VERTEX
  8
84
 10
519.979736
 20
1387.752319
 30
0.0
 70
0
  0
VERTEX
  8
84
 10
525.723022
 20
1391.386475
 30
0.0
 70
0
  0
VERTEX
  8
84
 10
531.406433
 20
1395.111084
 30
0.0
 70
0
  0
VERTEX
  8
84
 10
537.054932
 20
1398.893188
 30
0.0
 70
0
  0
VERTEX
  8
84
 10
553.866455
 20
1410.286133
 30
0.0
 70
0
  0
VERTEX
  8
84
 10
560.116455
 20
1414.500732
 30
0.0
 70
0
  0
VERTEX
  8
84
 10
570.756165
 20
1421.56311
 30
0.0
 70
0
  0
VERTEX
  8
84
 10
579.301025
 20
1427.056396
 30
0.0
 70
0
  0
VERTEX
  8
84
 10
587.958252
 20
1432.358521
 30
0.0
 70
0
  0
VERTEX
  8
84
 10
596.766846
 20
1437.403442
 30
0.0
 70
0
  0
VERTEX
  8
84
 10
605.761047
 20
1442.10083
 30
0.0
 70
0
  0
VERTEX
  8
84
 10
610.340576
 20
1444.296021
 30
0.0
 70
0
  0
VERTEX
  8
84
 10
614.974854
 20
1446.373413
 30
0.0
 70
0
  0
VERTEX
  8
84
 10
619.664673
 20
1448.320068
 30
0.0
 70
0
  0
VERTEX
  8
84
 10
624.41333
 20
1450.117798
 30
0.0
 70
0
  0
VERTEX
  8
84
 10
629.220581
 20
1451.749756
 30
0.0
 70
0
  0
VERTEX
  8
84
 10
634.08136
 20
1453.215088
 30
0.0
 70
0
  0
VERTEX
  8
84
 10
638.984619
 20
1454.514526
 30
0.0
 70
0
  0
VERTEX
  8
84
 10
643.929932
 20
1455.64502
 30
0.0
 70
0
  0
VERTEX
  8
84
 10
648.906433
 20
1456.596558
 30
0.0
 70
0
  0
VERTEX
  8
84
 10
653.915405
 20
1457.348633
 30
0.0
 70
0
  0
VERTEX
  8
84
 10
664.047119
 20
1458.338623
 30
0.0
 70
0
  0
VERTEX
  8
84
 10
673.549072
 20
1457.535645
 30
0.0
 70
0
  0
VERTEX
  8
84
 10
678.265137
 20
1456.921997
 30
0.0
 70
0
  0
VERTEX
  8
84
 10
682.958252
 20
1456.144775
 30
0.0
 70
0
  0
VERTEX
  8
84
 10
687.634155
 20
1455.220703
 30
0.0
 70
0
  0
VERTEX
  8
84
 10
692.279541
 20
1454.15564
 30
0.0
 70
0
  0
VERTEX
  8
84
 10
696.893066
 20
1452.950806
 30
0.0
 70
0
  0
VERTEX
  8
84
 10
701.469055
 20
1451.610107
 30
0.0
 70
0
  0
VERTEX
  8
84
 10
706.002014
 20
1450.138916
 30
0.0
 70
0
  0
VERTEX
  8
84
 10
710.492432
 20
1448.542236
 30
0.0
 70
0
  0
VERTEX
  8
84
 10
714.937256
 20
1446.823975
 30
0.0
 70
0
  0
VERTEX
  8
84
 10
719.330322
 20
1444.978271
 30
0.0
 70
0
  0
VERTEX
  8
84
 10
723.668762
 20
1443.001221
 30
0.0
 70
0
  0
VERTEX
  8
84
 10
727.953369
 20
1440.90979
 30
0.0
 70
0
  0
VERTEX
  8
84
 10
736.395752
 20
1436.480835
 30
0.0
 70
0
  0
VERTEX
  8
84
 10
744.720947
 20
1431.842041
 30
0.0
 70
0
  0
VERTEX
  8
84
 10
745.687744
 20
1431.277832
 30
0.0
 70
0
  0
VERTEX
  8
84
 10
752.909424
 20
1426.96875
 30
0.0
 70
0
  0
VERTEX
  8
84
 10
754.25708
 20
1426.136597
 30
0.0
 70
0
  0
VERTEX
  8
84
 10
760.970947
 20
1421.87793
 30
0.0
 70
0
  0
VERTEX
  8
84
 10
768.910461
 20
1416.591553
 30
0.0
 70
0
  0
VERTEX
  8
84
 10
774.124695
 20
1412.958984
 30
0.0
 70
0
  0
VERTEX
  8
84
 10
779.28894
 20
1409.258545
 30
0.0
 70
0
  0
VERTEX
  8
84
 10
784.423157
 20
1405.512695
 30
0.0
 70
0
  0
VERTEX
  8
84
 10
799.750244
 20
1394.188232
 30
0.0
 70
0
  0
VERTEX
  8
84
 10
807.433289
 20
1388.540283
 30
0.0
 70
0
  0
VERTEX
  8
84
 10
815.19458
 20
1383.002563
 30
0.0
 70
0
  0
VERTEX
  8
84
 10
820.437561
 20
1379.410645
 30
0.0
 70
0
  0
VERTEX
  8
84
 10
825.724182
 20
1375.885498
 30
0.0
 70
0
  0
VERTEX
  8
84
 10
831.039368
 20
1372.399292
 30
0.0
 70
0
  0
VERTEX
  8
84
 10
839.047119
 20
1367.233154
 30
0.0
 70
0
  0
VERTEX
  8
84
 10
847.177063
 20
1362.253052
 30
0.0
 70
0
  0
VERTEX
  8
84
 10
855.472961
 20
1357.55835
 30
0.0
 70
0
  0
VERTEX
  8
84
 10
863.920166
 20
1353.139893
 30
0.0
 70
0
  0
VERTEX
  8
84
 10
872.50415
 20
1349.001587
 30
0.0
 70
0
  0
VERTEX
  8
84
 10
881.244507
 20
1345.20459
 30
0.0
 70
0
  0
VERTEX
  8
84
 10
890.145752
 20
1341.81665
 30
0.0
 70
0
  0
VERTEX
  8
84
 10
899.203369
 20
1338.817627
 30
0.0
 70
0
  0
VERTEX
  8
84
 10
895.07251
 20
1330.599609
 30
0.0
 70
0
  0
VERTEX
  8
84
 10
890.824463
 20
1321.875366
 30
0.0
 70
0
  0
VERTEX
  8
84
 10
886.693665
 20
1313.09314
 30
0.0
 70
0
  0
VERTEX
  8
84
 10
882.587158
 20
1304.302246
 30
0.0
 70
0
  0
VERTEX
  8
84
 10
878.427063
 20
1295.53479
 30
0.0
 70
0
  0
VERTEX
  8
84
 10
874.301025
 20
1286.751831
 30
0.0
 70
0
  0
VERTEX
  8
84
 10
870.262939
 20
1277.930664
 30
0.0
 70
0
  0
VERTEX
  8
84
 10
866.473877
 20
1268.994873
 30
0.0
 70
0
  0
VERTEX
  8
84
 10
862.938721
 20
1259.959106
 30
0.0
 70
0
  0
VERTEX
  8
84
 10
859.618469
 20
1250.841187
 30
0.0
 70
0
  0
VERTEX
  8
84
 10
858.044861
 20
1246.250244
 30
0.0
 70
0
  0
VERTEX
  8
84
 10
856.591064
 20
1241.621826
 30
0.0
 70
0
  0
VERTEX
  8
84
 10
854.130127
 20
1232.23584
 30
0.0
 70
0
  0
VERTEX
  8
84
 10
852.001221
 20
1222.769531
 30
0.0
 70
0
  0
VERTEX
  8
84
 10
850.307007
 20
1213.213867
 30
0.0
 70
0
  0
VERTEX
  8
84
 10
822.909424
 20
1215.34375
 30
0.0
 70
0
  0
VERTEX
  8
84
 10
813.772949
 20
1216.018555
 30
0.0
 70
0
  0
VERTEX
  8
84
 10
804.636292
 20
1216.648682
 30
0.0
 70
0
  0
VERTEX
  8
84
 10
795.492432
 20
1217.209839
 30
0.0
 70
0
  0
VERTEX
  8
84
 10
788.630432
 20
1217.573608
 30
0.0
 70
0
  0
VERTEX
  8
84
 10
781.768372
 20
1217.888916
 30
0.0
 70
0
  0
VERTEX
  8
84
 10
774.904358
 20
1218.160156
 30
0.0
 70
0
  0
VERTEX
  8
84
 10
768.036377
 20
1218.391479
 30
0.0
 70
0
  0
VERTEX
  8
84
 10
754.304443
 20
1218.755005
 30
0.0
 70
0
  0
VERTEX
  8
84
 10
740.570557
 20
1219.036743
 30
0.0
 70
0
  0
VERTEX
  8
84
 10
726.830688
 20
1219.283203
 30
0.0
 70
0
  0
VERTEX
  8
84
 10
713.090149
 20
1219.477661
 30
0.0
 70
0
  0
VERTEX
  8
84
 10
699.3526
 20
1219.597656
 30
0.0
 70
0
  0
VERTEX
  8
84
 10
685.614563
 20
1219.65979
 30
0.0
 70
0
  0
VERTEX
  8
84
 10
658.134033
 20
1219.70752
 30
0.0
 70
0
  0
VERTEX
  8
84
 10
644.391235
 20
1219.719116
 30
0.0
 70
0
  0
VERTEX
  8
84
 10
630.648743
 20
1219.675049
 30
0.0
 70
0
  0
VERTEX
  8
84
 10
616.910889
 20
1219.535278
 30
0.0
 70
0
  0
VERTEX
  8
84
 10
603.173157
 20
1219.350098
 30
0.0
 70
0
  0
VERTEX
  8
84
 10
594.012024
 20
1219.232056
 30
0.0
 70
0
  0
VERTEX
  8
84
 10
584.853943
 20
1219.114014
 30
0.0
 70
0
  0
VERTEX
  8
84
 10
575.697571
 20
1218.983398
 30
0.0
 70
0
  0
VERTEX
  8
84
 10
566.541748
 20
1218.827637
 30
0.0
 70
0
  0
VERTEX
  8
84
 10
557.385254
 20
1218.634033
 30
0.0
 70
0
  0
VERTEX
  8
84
 10
548.226868
 20
1218.390015
 30
0.0
 70
0
  0
VERTEX
  8
84
 10
541.357666
 20
1218.166382
 30
0.0
 70
0
  0
VERTEX
  8
84
 10
534.49231
 20
1217.902344
 30
0.0
 70
0
  0
VERTEX
  8
84
 10
527.629028
 20
1217.592651
 30
0.0
 70
0
  0
VERTEX
  8
84
 10
520.765869
 20
1217.231934
 30
0.0
 70
0
  0
VERTEX
  8
84
 10
511.623474
 20
1216.6698
 30
0.0
 70
0
  0
VERTEX
  8
84
 10
502.488525
 20
1216.035034
 30
0.0
 70
0
  0
VERTEX
  8
84
 10
493.35376
 20
1215.354248
 30
0.0
 70
0
  0
VERTEX
  8
84
 10
465.95636
 20
1213.212646
 30
0.0
 70
0
  0
SEQEND
  8
0
  0
LINE
  8
7
 10
654.06665
 20
1245.775635
 30
0.0
 11
654.06665
 21
1425.775635
 31
0.0
  0
POLYLINE
  8
14
 66
1
 10
0.0
 20
0.0
 30
0.0
 70
1
  0
VERTEX
  8
14
 10
465.95636
 20
1213.212646
 30
0.0
 70
0
  0
VERTEX
  8
14
 10
463.573547
 20
1223.337158
 30
0.0
 70
0
  0
VERTEX
  8
14
 10
460.717072
 20
1233.336792
 30
0.0
 70
0
  0
VERTEX
  8
14
 10
457.465149
 20
1243.217529
 30
0.0
 70
0
  0
VERTEX
  8
14
 10
453.602844
 20
1252.873047
 30
0.0
 70
0
  0
VERTEX
  8
14
 10
449.471954
 20
1262.414062
 30
0.0
 70
0
  0
VERTEX
  8
14
 10
445.087158
 20
1271.846069
 30
0.0
 70
0
  0
VERTEX
  8
14
 10
440.433868
 20
1281.147339
 30
0.0
 70
0
  0
VERTEX
  8
14
 10
430.599854
 20
1299.472534
 30
0.0
 70
0
  0
VERTEX
  8
14
 10
425.60968
 20
1308.606201
 30
0.0
 70
0
  0
VERTEX
  8
14
 10
420.726868
 20
1317.784058
 30
0.0
 70
0
  0
VERTEX
  8
14
 10
415.736572
 20
1326.908447
 30
0.0
 70
0
  0
VERTEX
  8
14
 10
412.220947
 20
1333.104126
 30
0.0
 70
0
  0
VERTEX
  8
14
 10
408.929962
 20
1338.820312
 30
0.0
 70
0
  0
VERTEX
  8
14
 10
418.719971
 20
1341.530029
 30
0.0
 70
0
  0
VERTEX
  8
14
 10
428.407471
 20
1344.546021
 30
0.0
 70
0
  0
VERTEX
  8
14
 10
437.992462
 20
1347.885986
 30
0.0
 70
0
  0
VERTEX
  8
14
 10
447.48468
 20
1351.495605
 30
0.0
 70
0
  0
VERTEX
  8
14
 10
456.89386
 20
1355.329712
 30
0.0
 70
0
  0
VERTEX
  8
14
 10
466.210266
 20
1359.381958
 30
0.0
 70
0
  0
VERTEX
  8
14
 10
475.424072
 20
1363.62793
 30
0.0
 70
0
  0
VERTEX
  8
14
 10
484.550049
 20
1368.074463
 30
0.0
 70
0
  0
VERTEX
  8
14
 10
493.578369
 20
1372.719971
 30
0.0
 70
0
  0
VERTEX
  8
14
 10
502.509064
 20
1377.557617
 30
0.0
 70
0
  0
VERTEX
  8
14
 10
511.302979
 20
1382.554077
 30
0.0
 70
0
  0
VERTEX
  8
14
 10
519.979736
 20
1387.752319
 30
0.0
 70
0
  0
VERTEX
  8
14
 10
537.054932
 20
1398.893188
 30
0.0
 70
0
  0
VERTEX
  8
14
 10
553.866455
 20
1410.286133
 30
0.0
 70
0
  0
VERTEX
  8
14
 10
560.116455
 20
1414.500732
 30
0.0
 70
0
  0
VERTEX
  8
14
 10
570.756165
 20
1421.56311
 30
0.0
 70
0
  0
VERTEX
  8
14
 10
579.301025
 20
1427.056396
 30
0.0
 70
0
  0
VERTEX
  8
14
 10
587.958252
 20
1432.358521
 30
0.0
 70
0
  0
VERTEX
  8
14
 10
596.766846
 20
1437.403442
 30
0.0
 70
0
  0
VERTEX
  8
14
 10
605.761047
 20
1442.10083
 30
0.0
 70
0
  0
VERTEX
  8
14
 10
614.974854
 20
1446.373413
 30
0.0
 70
0
  0
VERTEX
  8
14
 10
624.41333
 20
1450.117798
 30
0.0
 70
0
  0
VERTEX
  8
14
 10
634.08136
 20
1453.215088
 30
0.0
 70
0
  0
VERTEX
  8
14
 10
643.929932
 20
1455.64502
 30
0.0
 70
0
  0
VERTEX
  8
14
 10
653.915405
 20
1457.348633
 30
0.0
 70
0
  0
VERTEX
  8
14
 10
664.047119
 20
1458.338623
 30
0.0
 70
0
  0
VERTEX
  8
14
 10
673.549072
 20
1457.535645
 30
0.0
 70
0
  0
VERTEX
  8
14
 10
682.958252
 20
1456.144775
 30
0.0
 70
0
  0
VERTEX
  8
14
 10
692.279541
 20
1454.15564
 30
0.0
 70
0
  0
VERTEX
  8
14
 10
701.469055
 20
1451.610107
 30
0.0
 70
0
  0
VERTEX
  8
14
 10
710.492432
 20
1448.542236
 30
0.0
 70
0
  0
VERTEX
  8
14
 10
719.330322
 20
1444.978271
 30
0.0
 70
0
  0
VERTEX
  8
14
 10
727.953369
 20
1440.90979
 30
0.0
 70
0
  0
VERTEX
  8
14
 10
736.395752
 20
1436.480835
 30
0.0
 70
0
  0
VERTEX
  8
14
 10
744.720947
 20
1431.842041
 30
0.0
 70
0
  0
VERTEX
  8
14
 10
745.687744
 20
1431.277832
 30
0.0
 70
0
  0
VERTEX
  8
14
 10
752.909424
 20
1426.96875
 30
0.0
 70
0
  0
VERTEX
  8
14
 10
754.25708
 20
1426.136597
 30
0.0
 70
0
  0
VERTEX
  8
14
 10
760.970947
 20
1421.87793
 30
0.0
 70
0
  0
VERTEX
  8
14
 10
768.910461
 20
1416.591553
 30
0.0
 70
0
  0
VERTEX
  8
14
 10
784.423157
 20
1405.512695
 30
0.0
 70
0
  0
VERTEX
  8
14
 10
799.750244
 20
1394.188232
 30
0.0
 70
0
  0
VERTEX
  8
14
 10
815.19458
 20
1383.002563
 30
0.0
 70
0
  0
VERTEX
  8
14
 10
831.039368
 20
1372.399292
 30
0.0
 70
0
  0
VERTEX
  8
14
 10
839.047119
 20
1367.233154
 30
0.0
 70
0
  0
VERTEX
  8
14
 10
847.177063
 20
1362.253052
 30
0.0
 70
0
  0
VERTEX
  8
14
 10
855.472961
 20
1357.55835
 30
0.0
 70
0
  0
VERTEX
  8
14
 10
863.920166
 20
1353.139893
 30
0.0
 70
0
  0
VERTEX
  8
14
 10
872.50415
 20
1349.001587
 30
0.0
 70
0
  0
VERTEX
  8
14
 10
881.244507
 20
1345.20459
 30
0.0
 70
0
  0
VERTEX
  8
14
 10
890.145752
 20
1341.81665
 30
0.0
 70
0
  0
VERTEX
  8
14
 10
899.203369
 20
1338.817627
 30
0.0
 70
0
  0
VERTEX
  8
14
 10
895.07251
 20
1330.599609
 30
0.0
 70
0
  0
VERTEX
  8
14
 10
890.824463
 20
1321.875366
 30
0.0
 70
0
  0
VERTEX
  8
14
 10
886.693665
 20
1313.09314
 30
0.0
 70
0
  0
VERTEX
  8
14
 10
882.587158
 20
1304.302246
 30
0.0
 70
0
  0
VERTEX
  8
14
 10
878.427063
 20
1295.53479
 30
0.0
 70
0
  0
VERTEX
  8
14
 10
874.301025
 20
1286.751831
 30
0.0
 70
0
  0
VERTEX
  8
14
 10
870.262939
 20
1277.930664
 30
0.0
 70
0
  0
VERTEX
  8
14
 10
866.473877
 20
1268.994873
 30
0.0
 70
0
  0
VERTEX
  8
14
 10
862.938721
 20
1259.959106
 30
0.0
 70
0
  0
VERTEX
  8
14
 10
859.618469
 20
1250.841187
 30
0.0
 70
0
  0
VERTEX
  8
14
 10
856.591064
 20
1241.621826
 30
0.0
 70
0
  0
VERTEX
  8
14
 10
854.130127
 20
1232.23584
 30
0.0
 70
0
  0
VERTEX
  8
14
 10
852.001221
 20
1222.769531
 30
0.0
 70
0
  0
VERTEX
  8
14
 10
850.307007
 20
1213.213867
 30
0.0
 70
0
  0
VERTEX
  8
14
 10
822.909424
 20
1215.34375
 30
0.0
 70
0
  0
VERTEX
  8
14
 10
795.492432
 20
1217.209839
 30
0.0
 70
0
  0
VERTEX
  8
14
 10
768.036377
 20
1218.391479
 30
0.0
 70
0
  0
VERTEX
  8
14
 10
740.570557
 20
1219.036743
 30
0.0
 70
0
  0
VERTEX
  8
14
 10
713.090149
 20
1219.477661
 30
0.0
 70
0
  0
VERTEX
  8
14
 10
685.614563
 20
1219.65979
 30
0.0
 70
0
  0
VERTEX
  8
14
 10
658.134033
 20
1219.70752
 30
0.0
 70
0
  0
VERTEX
  8
14
 10
630.648743
 20
1219.675049
 30
0.0
 70
0
  0
VERTEX
  8
14
 10
603.173157
 20
1219.350098
 30
0.0
 70
0
  0
VERTEX
  8
14
 10
548.226868
 20
1218.390015
 30
0.0
 70
0
  0
VERTEX
  8
14
 10
520.765869
 20
1217.231934
 30
0.0
 70
0
  0
VERTEX
  8
14
 10
493.35376
 20
1215.354248
 30
0.0
 70
0
  0
SEQEND
  8
0
  0
TEXT
  8
14
 10
465.95636
 20
1213.212646
 30
0.0
 40
0.25
  1
# 33
  7
STANDARD
  0
TEXT
  8
14
 10
463.573547
 20
1223.337158
 30
0.0
 40
0.25
  1
# -1
  7
STANDARD
  0
TEXT
  8
14
 10
460.717072
 20
1233.336792
 30
0.0
 40
0.25
  1
# -1
  7
STANDARD
  0
TEXT
  8
14
 10
457.465149
 20
1243.217529
 30
0.0
 40
0.25
  1
# -1
  7
STANDARD
  0
TEXT
  8
14
 10
453.602844
 20
1252.873047
 30
0.0
 40
0.25
  1
# -1
  7
STANDARD
  0
TEXT
  8
14
 10
449.471954
 20
1262.414062
 30
0.0
 40
0.25
  1
# -1
  7
STANDARD
  0
TEXT
  8
14
 10
445.087158
 20
1271.846069
 30
0.0
 40
0.25
  1
# -1
  7
STANDARD
  0
TEXT
  8
14
 10
440.433868
 20
1281.147339
 30
0.0
 40
0.25
  1
# -1
  7
STANDARD
  0
TEXT
  8
14
 10
430.599854
 20
1299.472534
 30
0.0
 40
0.25
  1
# -1
  7
STANDARD
  0
TEXT
  8
14
 10
425.60968
 20
1308.606201
 30
0.0
 40
0.25
  1
# -1
  7
STANDARD
  0
TEXT
  8
14
 10
420.726868
 20
1317.784058
 30
0.0
 40
0.25
  1
# -1
  7
STANDARD
  0
TEXT
  8
14
 10
415.736572
 20
1326.908447
 30
0.0
 40
0.25
  1
# -1
  7
STANDARD
  0
TEXT
  8
14
 10
412.220947
 20
1333.104126
 30
0.0
 40
0.25
  1
# -1
  7
STANDARD
  0
TEXT
  8
14
 10
408.929962
 20
1338.820312
 30
0.0
 40
0.25
  1
# 34
  7
STANDARD
  0
TEXT
  8
14
 10
418.719971
 20
1341.530029
 30
0.0
 40
0.25
  1
# -1
  7
STANDARD
  0
TEXT
  8
14
 10
428.407471
 20
1344.546021
 30
0.0
 40
0.25
  1
# -1
  7
STANDARD
  0
TEXT
  8
14
 10
437.992462
 20
1347.885986
 30
0.0
 40
0.25
  1
# -1
  7
STANDARD
  0
TEXT
  8
14
 10
447.48468
 20
1351.495605
 30
0.0
 40
0.25
  1
# -1
  7
STANDARD
  0
TEXT
  8
14
 10
456.89386
 20
1355.329712
 30
0.0
 40
0.25
  1
# -1
  7
STANDARD
  0
TEXT
  8
14
 10
466.210266
 20
1359.381958
 30
0.0
 40
0.25
  1
# -1
  7
STANDARD
  0
TEXT
  8
14
 10
475.424072
 20
1363.62793
 30
0.0
 40
0.25
  1
# -1
  7
STANDARD
  0
TEXT
  8
14
 10
484.550049
 20
1368.074463
 30
0.0
 40
0.25
  1
# -1
  7
STANDARD
  0
TEXT
  8
14
 10
493.578369
 20
1372.719971
 30
0.0
 40
0.25
  1
# -1
  7
STANDARD
  0
TEXT
  8
14
 10
502.509064
 20
1377.557617
 30
0.0
 40
0.25
  1
# -1
  7
STANDARD
  0
TEXT
  8
14
 10
511.302979
 20
1382.554077
 30
0.0
 40
0.25
  1
# -1
  7
STANDARD
  0
TEXT
  8
14
 10
519.979736
 20
1387.752319
 30
0.0
 40
0.25
  1
# -1
  7
STANDARD
  0
TEXT
  8
14
 10
537.054932
 20
1398.893188
 30
0.0
 40
0.25
  1
# -1
  7
STANDARD
  0
TEXT
  8
14
 10
553.866455
 20
1410.286133
 30
0.0
 40
0.25
  1
# -1
  7
STANDARD
  0
TEXT
  8
14
 10
560.116455
 20
1414.500732
 30
0.0
 40
0.25
  1
# -1
  7
STANDARD
  0
TEXT
  8
14
 10
570.756165
 20
1421.56311
 30
0.0
 40
0.25
  1
# -1
  7
STANDARD
  0
TEXT
  8
14
 10
579.301025
 20
1427.056396
 30
0.0
 40
0.25
  1
# -1
  7
STANDARD
  0
TEXT
  8
14
 10
587.958252
 20
1432.358521
 30
0.0
 40
0.25
  1
# -1
  7
STANDARD
  0
TEXT
  8
14
 10
596.766846
 20
1437.403442
 30
0.0
 40
0.25
  1
# -1
  7
STANDARD
  0
TEXT
  8
14
 10
605.761047
 20
1442.10083
 30
0.0
 40
0.25
  1
# -1
  7
STANDARD
  0
TEXT
  8
14
 10
614.974854
 20
1446.373413
 30
0.0
 40
0.25
  1
# -1
  7
STANDARD
  0
TEXT
  8
14
 10
624.41333
 20
1450.117798
 30
0.0
 40
0.25
  1
# -1
  7
STANDARD
  0
TEXT
  8
14
 10
634.08136
 20
1453.215088
 30
0.0
 40
0.25
  1
# -1
  7
STANDARD
  0
TEXT
  8
14
 10
643.929932
 20
1455.64502
 30
0.0
 40
0.25
  1
# -1
  7
STANDARD
  0
TEXT
  8
14
 10
653.915405
 20
1457.348633
 30
0.0
 40
0.25
  1
# -1
  7
STANDARD
  0
TEXT
  8
14
 10
664.047119
 20
1458.338623
 30
0.0
 40
0.25
  1
# 36
  7
STANDARD
  0
TEXT
  8
14
 10
673.549072
 20
1457.535645
 30
0.0
 40
0.25
  1
# -1
  7
STANDARD
  0
TEXT
  8
14
 10
682.958252
 20
1456.144775
 30
0.0
 40
0.25
  1
# -1
  7
STANDARD
  0
TEXT
  8
14
 10
692.279541
 20
1454.15564
 30
0.0
 40
0.25
  1
# -1
  7
STANDARD
  0
TEXT
  8
14
 10
701.469055
 20
1451.610107
 30
0.0
 40
0.25
  1
# -1
  7
STANDARD
  0
TEXT
  8
14
 10
710.492432
 20
1448.542236
 30
0.0
 40
0.25
  1
# -1
  7
STANDARD
  0
TEXT
  8
14
 10
719.330322
 20
1444.978271
 30
0.0
 40
0.25
  1
# -1
  7
STANDARD
  0
TEXT
  8
14
 10
727.953369
 20
1440.90979
 30
0.0
 40
0.25
  1
# -1
  7
STANDARD
  0
TEXT
  8
14
 10
736.395752
 20
1436.480835
 30
0.0
 40
0.25
  1
# -1
  7
STANDARD
  0
TEXT
  8
14
 10
744.720947
 20
1431.842041
 30
0.0
 40
0.25
  1
# -1
  7
STANDARD
  0
TEXT
  8
14
 10
745.687744
 20
1431.277832
 30
0.0
 40
0.25
  1
# -1
  7
STANDARD
  0
TEXT
  8
14
 10
752.909424
 20
1426.96875
 30
0.0
 40
0.25
  1
# -1
  7
STANDARD
  0
TEXT
  8
14
 10
754.25708
 20
1426.136597
 30
0.0
 40
0.25
  1
# -1
  7
STANDARD
  0
TEXT
  8
14
 10
760.970947
 20
1421.87793
 30
0.0
 40
0.25
  1
# -1
  7
STANDARD
  0
TEXT
  8
14
 10
768.910461
 20
1416.591553
 30
0.0
 40
0.25
  1
# -1
  7
STANDARD
  0
TEXT
  8
14
 10
784.423157
 20
1405.512695
 30
0.0
 40
0.25
  1
# -1
  7
STANDARD
  0
TEXT
  8
14
 10
799.750244
 20
1394.188232
 30
0.0
 40
0.25
  1
# -1
  7
STANDARD
  0
TEXT
  8
14
 10
815.19458
 20
1383.002563
 30
0.0
 40
0.25
  1
# -1
  7
STANDARD
  0
TEXT
  8
14
 10
831.039368
 20
1372.399292
 30
0.0
 40
0.25
  1
# -1
  7
STANDARD
  0
TEXT
  8
14
 10
839.047119
 20
1367.233154
 30
0.0
 40
0.25
  1
# -1
  7
STANDARD
  0
TEXT
  8
14
 10
847.177063
 20
1362.253052
 30
0.0
 40
0.25
  1
# -1
  7
STANDARD
  0
TEXT
  8
14
 10
855.472961
 20
1357.55835
 30
0.0
 40
0.25
  1
# -1
  7
STANDARD
  0
TEXT
  8
14
 10
863.920166
 20
1353.139893
 30
0.0
 40
0.25
  1
# -1
  7
STANDARD
  0
TEXT
  8
14
 10
872.50415
 20
1349.001587
 30
0.0
 40
0.25
  1
# -1
  7
STANDARD
  0
TEXT
  8
14
 10
881.244507
 20
1345.20459
 30
0.0
 40
0.25
  1
# -1
  7
STANDARD
  0
TEXT
  8
14
 10
890.145752
 20
1341.81665
 30
0.0
 40
0.25
  1
# -1
  7
STANDARD
  0
TEXT
  8
14
 10
899.203369
 20
1338.817627
 30
0.0
 40
0.25
  1
# 39
  7
STANDARD
  0
TEXT
  8
14
 10
895.07251
 20
1330.599609
 30
0.0
 40
0.25
  1
# -1
  7
STANDARD
  0
TEXT
  8
14
 10
890.824463
 20
1321.875366
 30
0.0
 40
0.25
  1
# -1
  7
STANDARD
  0
TEXT
  8
14
 10
886.693665
 20
1313.09314
 30
0.0
 40
0.25
  1
# -1
  7
STANDARD
  0
TEXT
  8
14
 10
882.587158
 20
1304.302246
 30
0.0
 40
0.25
  1
# -1
  7
STANDARD
  0
TEXT
  8
14
 10
878.427063
 20
1295.53479
 30
0.0
 40
0.25
  1
# -1
  7
STANDARD
  0
TEXT
  8
14
 10
874.301025
 20
1286.751831
 30
0.0
 40
0.25
  1
# -1
  7
STANDARD
  0
TEXT
  8
14
 10
870.262939
 20
1277.930664
 30
0.0
 40
0.25
  1
# -1
  7
STANDARD
  0
TEXT
  8
14
 10
866.473877
 20
1268.994873
 30
0.0
 40
0.25
  1
# -1
  7
STANDARD
  0
TEXT
  8
14
 10
862.938721
 20
1259.959106
 30
0.0
 40
0.25
  1
# -1
  7
STANDARD
  0
TEXT
  8
14
 10
859.618469
 20
1250.841187
 30
0.0
 40
0.25
  1
# -1
  7
STANDARD
  0
TEXT
  8
14
 10
856.591064
 20
1241.621826
 30
0.0
 40
0.25
  1
# -1
  7
STANDARD
  0
TEXT
  8
14
 10
854.130127
 20
1232.23584
 30
0.0
 40
0.25
  1
# -1
  7
STANDARD
  0
TEXT
  8
14
 10
852.001221
 20
1222.769531
 30
0.0
 40
0.25
  1
# -1
  7
STANDARD
  0
TEXT
  8
14
 10
850.307007
 20
1213.213867
 30
0.0
 40
0.25
  1
# 40
  7
STANDARD
  0
TEXT
  8
14
 10
822.909424
 20
1215.34375
 30
0.0
 40
0.25
  1
# -1
  7
STANDARD
  0
TEXT
  8
14
 10
795.492432
 20
1217.209839
 30
0.0
 40
0.25
  1
# -1
  7
STANDARD
  0
TEXT
  8
14
 10
768.036377
 20
1218.391479
 30
0.0
 40
0.25
  1
# -1
  7
STANDARD
  0
TEXT
  8
14
 10
740.570557
 20
1219.036743
 30
0.0
 40
0.25
  1
# -1
  7
STANDARD
  0
TEXT
  8
14
 10
713.090149
 20
1219.477661
 30
0.0
 40
0.25
  1
# -1
  7
STANDARD
  0
TEXT
  8
14
 10
685.614563
 20
1219.65979
 30
0.0
 40
0.25
  1
# -1
  7
STANDARD
  0
TEXT
  8
14
 10
658.134033
 20
1219.70752
 30
0.0
 40
0.25
  1
# -1
  7
STANDARD
  0
TEXT
  8
14
 10
630.648743
 20
1219.675049
 30
0.0
 40
0.25
  1
# -1
  7
STANDARD
  0
TEXT
  8
14
 10
603.173157
 20
1219.350098
 30
0.0
 40
0.25
  1
# -1
  7
STANDARD
  0
TEXT
  8
14
 10
548.226868
 20
1218.390015
 30
0.0
 40
0.25
  1
# -1
  7
STANDARD
  0
TEXT
  8
14
 10
520.765869
 20
1217.231934
 30
0.0
 40
0.25
  1
# -1
  7
STANDARD
  0
TEXT
  8
14
 10
493.35376
 20
1215.354248
 30
0.0
 40
0.25
  1
# -1
  7
STANDARD
  0
POINT
  8
2
 10
465.95636
 20
1213.212646
 30
0.0
  0
POINT
  8
2
 10
408.929962
 20
1338.820312
 30
0.0
  0
POINT
  8
2
 10
664.047119
 20
1458.338623
 30
0.0
  0
POINT
  8
2
 10
899.203369
 20
1338.817627
 30
0.0
  0
POINT
  8
2
 10
850.307007
 20
1213.213867
 30
0.0
  0
POINT
  8
3
 10
463.573547
 20
1223.337158
 30
0.0
  0
POINT
  8
3
 10
460.717072
 20
1233.336792
 30
0.0
  0
POINT
  8
3
 10
457.465149
 20
1243.217529
 30
0.0
  0
POINT
  8
3
 10
453.602844
 20
1252.873047
 30
0.0
  0
POINT
  8
3
 10
449.471954
 20
1262.414062
 30
0.0
  0
POINT
  8
3
 10
445.087158
 20
1271.846069
 30
0.0
  0
POINT
  8
3
 10
440.433868
 20
1281.147339
 30
0.0
  0
POINT
  8
3
 10
430.599854
 20
1299.472534
 30
0.0
  0
POINT
  8
3
 10
425.60968
 20
1308.606201
 30
0.0
  0
POINT
  8
3
 10
420.726868
 20
1317.784058
 30
0.0
  0
POINT
  8
3
 10
415.736572
 20
1326.908447
 30
0.0
  0
POINT
  8
3
 10
412.220947
 20
1333.104126
 30
0.0
  0
POINT
  8
3
 10
418.719971
 20
1341.530029
 30
0.0
  0
POINT
  8
3
 10
428.407471
 20
1344.546021
 30
0.0
  0
POINT
  8
3
 10
437.992462
 20
1347.885986
 30
0.0
  0
POINT
  8
3
 10
447.48468
 20
1351.495605
 30
0.0
  0
POINT
  8
3
 10
456.89386
 20
1355.329712
 30
0.0
  0
POINT
  8
3
 10
466.210266
 20
1359.381958
 30
0.0
  0
POINT
  8
3
 10
475.424072
 20
1363.62793
 30
0.0
  0
POINT
  8
3
 10
484.550049
 20
1368.074463
 30
0.0
  0
POINT
  8
3
 10
493.578369
 20
1372.719971
 30
0.0
  0
POINT
  8
3
 10
502.509064
 20
1377.557617
 30
0.0
  0
POINT
  8
3
 10
511.302979
 20
1382.554077
 30
0.0
  0
POINT
  8
3
 10
519.979736
 20
1387.752319
 30
0.0
  0
POINT
  8
3
 10
537.054932
 20
1398.893188
 30
0.0
  0
POINT
  8
3
 10
553.866455
 20
1410.286133
 30
0.0
  0
POINT
  8
3
 10
560.116455
 20
1414.500732
 30
0.0
  0
POINT
  8
3
 10
570.756165
 20
1421.56311
 30
0.0
  0
POINT
  8
3
 10
579.301025
 20
1427.056396
 30
0.0
  0
POINT
  8
3
 10
587.958252
 20
1432.358521
 30
0.0
  0
POINT
  8
3
 10
596.766846
 20
1437.403442
 30
0.0
  0
POINT
  8
3
 10
605.761047
 20
1442.10083
 30
0.0
  0
POINT
  8
3
 10
614.974854
 20
1446.373413
 30
0.0
  0
POINT
  8
3
 10
624.41333
 20
1450.117798
 30
0.0
  0
POINT
  8
3
 10
634.08136
 20
1453.215088
 30
0.0
  0
POINT
  8
3
 10
643.929932
 20
1455.64502
 30
0.0
  0
POINT
  8
3
 10
653.915405
 20
1457.348633
 30
0.0
  0
POINT
  8
3
 10
673.549072
 20
1457.535645
 30
0.0
  0
POINT
  8
3
 10
682.958252
 20
1456.144775
 30
0.0
  0
POINT
  8
3
 10
692.279541
 20
1454.15564
 30
0.0
  0
POINT
  8
3
 10
701.469055
 20
1451.610107
 30
0.0
  0
POINT
  8
3
 10
710.492432
 20
1448.542236
 30
0.0
  0
POINT
  8
3
 10
719.330322
 20
1444.978271
 30
0.0
  0
POINT
  8
3
 10
727.953369
 20
1440.90979
 30
0.0
  0
POINT
  8
3
 10
736.395752
 20
1436.480835
 30
0.0
  0
POINT
  8
3
 10
744.720947
 20
1431.842041
 30
0.0
  0
POINT
  8
3
 10
745.687744
 20
1431.277832
 30
0.0
  0
POINT
  8
3
 10
752.909424
 20
1426.96875
 30
0.0
  0
POINT
  8
3
 10
754.25708
 20
1426.136597
 30
0.0
  0
POINT
  8
3
 10
760.970947
 20
1421.87793
 30
0.0
  0
POINT
  8
3
 10
768.910461
 20
1416.591553
 30
0.0
  0
POINT
  8
3
 10
784.423157
 20
1405.512695
 30
0.0
  0
POINT
  8
3
 10
799.750244
 20
1394.188232
 30
0.0
  0
POINT
  8
3
 10
815.19458
 20
1383.002563
 30
0.0
  0
POINT
  8
3
 10
831.039368
 20
1372.399292
 30
0.0
  0
POINT
  8
3
 10
839.047119
 20
1367.233154
 30
0.0
  0
POINT
  8
3
 10
847.177063
 20
1362.253052
 30
0.0
  0
POINT
  8
3
 10
855.472961
 20
1357.55835
 30
0.0
  0
POINT
  8
3
 10
863.920166
 20
1353.139893
 30
0.0
  0
POINT
  8
3
 10
872.50415
 20
1349.001587
 30
0.0
  0
POINT
  8
3
 10
881.244507
 20
1345.20459
 30
0.0
  0
POINT
  8
3
 10
890.145752
 20
1341.81665
 30
0.0
  0
POINT
  8
3
 10
895.07251
 20
1330.599609
 30
0.0
  0
POINT
  8
3
 10
890.824463
 20
1321.875366
 30
0.0
  0
POINT
  8
3
 10
886.693665
 20
1313.09314
 30
0.0
  0
POINT
  8
3
 10
882.587158
 20
1304.302246
 30
0.0
  0
POINT
  8
3
 10
878.427063
 20
1295.53479
 30
0.0
  0
POINT
  8
3
 10
874.301025
 20
1286.751831
 30
0.0
  0
POINT
  8
3
 10
870.262939
 20
1277.930664
 30
0.0
  0
POINT
  8
3
 10
866.473877
 20
1268.994873
 30
0.0
  0
POINT
  8
3
 10
862.938721
 20
1259.959106
 30
0.0
  0
POINT
  8
3
 10
859.618469
 20
1250.841187
 30
0.0
  0
POINT
  8
3
 10
856.591064
 20
1241.621826
 30
0.0
  0
POINT
  8
3
 10
854.130127
 20
1232.23584
 30
0.0
  0
POINT
  8
3
 10
852.001221
 20
1222.769531
 30
0.0
  0
POINT
  8
3
 10
822.909424
 20
1215.34375
 30
0.0
  0
POINT
  8
3
 10
795.492432
 20
1217.209839
 30
0.0
  0
POINT
  8
3
 10
768.036377
 20
1218.391479
 30
0.0
  0
POINT
  8
3
 10
740.570557
 20
1219.036743
 30
0.0
  0
POINT
  8
3
 10
713.090149
 20
1219.477661
 30
0.0
  0
POINT
  8
3
 10
685.614563
 20
1219.65979
 30
0.0
  0
POINT
  8
3
 10
658.134033
 20
1219.70752
 30
0.0
  0
POINT
  8
3
 10
630.648743
 20
1219.675049
 30
0.0
  0
POINT
  8
3
 10
603.173157
 20
1219.350098
 30
0.0
  0
POINT
  8
3
 10
548.226868
 20
1218.390015
 30
0.0
  0
POINT
  8
3
 10
520.765869
 20
1217.231934
 30
0.0
  0
POINT
  8
3
 10
493.35376
 20
1215.354248
 30
0.0
  0
POINT
  8
4
 10
560.116455
 20
1414.500732
 30
7.0
 50
305.544983
  0
POINT
  8
4
 10
664.047119
 20
1458.338623
 30
7.0
 39
14.9176
 50
274.073669
  0
POINT
  8
4
 10
745.687744
 20
1431.277832
 30
7.0
 50
239.844757
  0
POINT
  8
4
 10
754.25708
 20
1426.136597
 30
7.0
 50
238.257782
  0
POLYLINE
  8
87
 66
1
 10
0.0
 20
0.0
 30
0.0
 70
1
  0
VERTEX
  8
87
 10
463.573547
 20
1223.337158
 30
0.0
 70
0
  0
VERTEX
  8
87
 10
460.717072
 20
1233.336792
 30
0.0
 70
0
  0
VERTEX
  8
87
 10
459.156799
 20
1238.300049
 30
0.0
 70
0
  0
VERTEX
  8
87
 10
457.465149
 20
1243.217529
 30
0.0
 70
0
  0
VERTEX
  8
87
 10
455.593872
 20
1248.068115
 30
0.0
 70
0
  0
VERTEX
  8
87
 10
453.602844
 20
1252.873047
 30
0.0
 70
0
  0
VERTEX
  8
87
 10
449.471954
 20
1262.414062
 30
0.0
 70
0
  0
VERTEX
  8
87
 10
445.087158
 20
1271.846069
 30
0.0
 70
0
  0
VERTEX
  8
87
 10
440.433868
 20
1281.147339
 30
0.0
 70
0
  0
VERTEX
  8
87
 10
437.213074
 20
1287.286743
 30
0.0
 70
0
  0
VERTEX
  8
87
 10
433.927185
 20
1293.389526
 30
0.0
 70
0
  0
VERTEX
  8
87
 10
430.599854
 20
1299.472534
 30
0.0
 70
0
  0
VERTEX
  8
87
 10
425.60968
 20
1308.606201
 30
0.0
 70
0
  0
VERTEX
  8
87
 10
420.726868
 20
1317.784058
 30
0.0
 70
0
  0
VERTEX
  8
87
 10
415.736572
 20
1326.908447
 30
0.0
 70
0
  0
VERTEX
  8
87
 10
412.220947
 20
1333.104126
 30
0.0
 70
0
  0
VERTEX
  8
87
 10
408.929962
 20
1338.820312
 30
0.0
 70
0
  0
VERTEX
  8
87
 10
418.719971
 20
1341.530029
 30
0.0
 70
0
  0
VERTEX
  8
87
 10
428.407471
 20
1344.546021
 30
0.0
 70
0
  0
VERTEX
  8
87
 10
437.992462
 20
1347.885986
 30
0.0
 70
0
  0
VERTEX
  8
87
 10
447.48468
 20
1351.495605
 30
0.0
 70
0
  0
VERTEX
  8
87
 10
456.89386
 20
1355.329712
 30
0.0
 70
0
  0
VERTEX
  8
87
 10
466.210266
 20
1359.381958
 30
0.0
 70
0
  0
VERTEX
  8
87
 10
475.424072
 20
1363.62793
 30
0.0
 70
0
  0
VERTEX
  8
87
 10
484.550049
 20
1368.074463
 30
0.0
 70
0
  0
VERTEX
  8
87
 10
493.578369
 20
1372.719971
 30
0.0
 70
0
  0
VERTEX
  8
87
 10
502.509064
 20
1377.557617
 30
0.0
 70
0
  0
VERTEX
  8
87
 10
511.302979
 20
1382.554077
 30
0.0
 70
0
  0
VERTEX
  8
87
 10
519.979736
 20
1387.752319
 30
0.0
 70
0
  0
VERTEX
  8
87
 10
525.723022
 20
1391.386475
 30
0.0
 70
0
  0
VERTEX
  8
87
 10
531.406433
 20
1395.111084
 30
0.0
 70
0
  0
VERTEX
  8
87
 10
537.054932
 20
1398.893188
 30
0.0
 70
0
  0
VERTEX
  8
87
 10
553.866455
 20
1410.286133
 30
0.0
 70
0
  0
VERTEX
  8
87
 10
560.116455
 20
1414.500732
 30
0.0
 70
0
  0
VERTEX
  8
87
 10
570.756165
 20
1421.56311
 30
0.0
 70
0
  0
VERTEX
  8
87
 10
579.301025
 20
1427.056396
 30
0.0
 70
0
  0
VERTEX
  8
87
 10
587.958252
 20
1432.358521
 30
0.0
 70
0
  0
VERTEX
  8
87
 10
596.766846
 20
1437.403442
 30
0.0
 70
0
  0
VERTEX
  8
87
 10
605.761047
 20
1442.10083
 30
0.0
 70
0
  0
VERTEX
  8
87
 10
610.340576
 20
1444.296021
 30
0.0
 70
0
  0
VERTEX
  8
87
 10
614.974854
 20
1446.373413
 30
0.0
 70
0
  0
VERTEX
  8
87
 10
619.664673
 20
1448.320068
 30
0.0
 70
0
  0
VERTEX
  8
87
 10
624.41333
 20
1450.117798
 30
0.0
 70
0
  0
VERTEX
  8
87
 10
629.220581
 20
1451.749756
 30
0.0
 70
0
  0
VERTEX
  8
87
 10
634.08136
 20
1453.215088
 30
0.0
 70
0
  0
VERTEX
  8
87
 10
638.984619
 20
1454.514526
 30
0.0
 70
0
  0
VERTEX
  8
87
 10
643.929932
 20
1455.64502
 30
0.0
 70
0
  0
VERTEX
  8
87
 10
648.906433
 20
1456.596558
 30
0.0
 70
0
  0
VERTEX
  8
87
 10
653.915405
 20
1457.348633
 30
0.0
 70
0
  0
VERTEX
  8
87
 10
664.047119
 20
1458.338623
 30
0.0
 70
0
  0
VERTEX
  8
87
 10
673.549072
 20
1457.535645
 30
0.0
 70
0
  0
VERTEX
  8
87
 10
678.265137
 20
1456.921997
 30
0.0
 70
0
  0
VERTEX
  8
87
 10
682.958252
 20
1456.144775
 30
0.0
 70
0
  0
VERTEX
  8
87
 10
687.634155
 20
1455.220703
 30
0.0
 70
0
  0
VERTEX
  8
87
 10
692.279541
 20
1454.15564
 30
0.0
 70
0
  0
VERTEX
  8
87
 10
696.893066
 20
1452.950806
 30
0.0
 70
0
  0
VERTEX
  8
87
 10
701.469055
 20
1451.610107
 30
0.0
 70
0
  0
VERTEX
  8
87
 10
706.002014
 20
1450.138916
 30
0.0
 70
0
  0
VERTEX
  8
87
 10
710.492432
 20
1448.542236
 30
0.0
 70
0
  0
VERTEX
  8
87
 10
714.937256
 20
1446.823975
 30
0.0
 70
0
  0
VERTEX
  8
87
 10
719.330322
 20
1444.978271
 30
0.0
 70
0
  0
VERTEX
  8
87
 10
723.668762
 20
1443.001221
 30
0.0
 70
0
  0
VERTEX
  8
87
 10
727.953369
 20
1440.90979
 30
0.0
 70
0
  0
VERTEX
  8
87
 10
736.395752
 20
1436.480835
 30
0.0
 70
0
  0
VERTEX
  8
87
 10
744.720947
 20
1431.842041
 30
0.0
 70
0
  0
VERTEX
  8
87
 10
745.687744
 20
1431.277832
 30
0.0
 70
0
  0
VERTEX
  8
87
 10
752.909424
 20
1426.96875
 30
0.0
 70
0
  0
VERTEX
  8
87
 10
754.25708
 20
1426.136597
 30
0.0
 70
0
  0
VERTEX
  8
87
 10
760.970947
 20
1421.87793
 30
0.0
 70
0
  0
VERTEX
  8
87
 10
768.910461
 20
1416.591553
 30
0.0
 70
0
  0
VERTEX
  8
87
 10
774.124695
 20
1412.958984
 30
0.0
 70
0
  0
VERTEX
  8
87
 10
779.28894
 20
1409.258545
 30
0.0
 70
0
  0
VERTEX
  8
87
 10
784.423157
 20
1405.512695
 30
0.0
 70
0
  0
VERTEX
  8
87
 10
799.750244
 20
1394.188232
 30
0.0
 70
0
  0
VERTEX
  8
87
 10
807.433289
 20
1388.540283
 30
0.0
 70
0
  0
VERTEX
  8
87
 10
815.19458
 20
1383.002563
 30
0.0
 70
0
  0
VERTEX
  8
87
 10
820.437561
 20
1379.410645
 30
0.0
 70
0
  0
VERTEX
  8
87
 10
825.724182
 20
1375.885498
 30
0.0
 70
0
  0
VERTEX
  8
87
 10
831.039368
 20
1372.399292
 30
0.0
 70
0
  0
VERTEX
  8
87
 10
839.047119
 20
1367.233154
 30
0.0
 70
0
  0
VERTEX
  8
87
 10
847.177063
 20
1362.253052
 30
0.0
 70
0
  0
VERTEX
  8
87
 10
855.472961
 20
1357.55835
 30
0.0
 70
0
  0
VERTEX
  8
87
 10
863.920166
 20
1353.139893
 30
0.0
 70
0
  0
VERTEX
  8
87
 10
872.50415
 20
1349.001587
 30
0.0
 70
0
  0
VERTEX
  8
87
 10
881.244507
 20
1345.20459
 30
0.0
 70
0
  0
VERTEX
  8
87
 10
890.145752
 20
1341.81665
 30
0.0
 70
0
  0
VERTEX
  8
87
 10
899.203369
 20
1338.817627
 30
0.0
 70
0
  0
VERTEX
  8
87
 10
895.07251
 20
1330.599609
 30
0.0
 70
0
  0
VERTEX
  8
87
 10
890.824463
 20
1321.875366
 30
0.0
 70
0
  0
VERTEX
  8
87
 10
886.693665
 20
1313.09314
 30
0.0
 70
0
  0
VERTEX
  8
87
 10
882.587158
 20
1304.302246
 30
0.0
 70
0
  0
VERTEX
  8
87
 10
878.427063
 20
1295.53479
 30
0.0
 70
0
  0
VERTEX
  8
87
 10
874.301025
 20
1286.751831
 30
0.0
 70
0
  0
VERTEX
  8
87
 10
870.262939
 20
1277.930664
 30
0.0
 70
0
  0
VERTEX
  8
87
 10
866.473877
 20
1268.994873
 30
0.0
 70
0
  0
VERTEX
  8
87
 10
862.938721
 20
1259.959106
 30
0.0
 70
0
  0
VERTEX
  8
87
 10
859.618469
 20
1250.841187
 30
0.0
 70
0
  0
VERTEX
  8
87
 10
858.044861
 20
1246.250244
 30
0.0
 70
0
  0
VERTEX
  8
87
 10
856.591064
 20
1241.621826
 30
0.0
 70
0
  0
VERTEX
  8
87
 10
854.130127
 20
1232.23584
 30
0.0
 70
0
  0
VERTEX
  8
87
 10
852.001221
 20
1222.769531
 30
0.0
 70
0
  0
VERTEX
  8
87
 10
850.307007
 20
1213.213867
 30
0.0
 70
0
  0
VERTEX
  8
87
 10
822.909424
 20
1215.34375
 30
0.0
 70
0
  0
VERTEX
  8
87
 10
813.772949
 20
1216.018555
 30
0.0
 70
0
  0
VERTEX
  8
87
 10
804.636292
 20
1216.648682
 30
0.0
 70
0
  0
VERTEX
  8
87
 10
795.492432
 20
1217.209839
 30
0.0
 70
0
  0
VERTEX
  8
87
 10
788.630432
 20
1217.573608
 30
0.0
 70
0
  0
VERTEX
  8
87
 10
781.768372
 20
1217.888916
 30
0.0
 70
0
  0
VERTEX
  8
87
 10
774.904358
 20
1218.160156
 30
0.0
 70
0
  0
VERTEX
  8
87
 10
768.036377
 20
1218.391479
 30
0.0
 70
0
  0
VERTEX
  8
87
 10
754.304443
 20
1218.755005
 30
0.0
 70
0
  0
VERTEX
  8
87
 10
740.570557
 20
1219.036743
 30
0.0
 70
0
  0
VERTEX
  8
87
 10
726.830688
 20
1219.283203
 30
0.0
 70
0
  0
VERTEX
  8
87
 10
713.090149
 20
1219.477661
 30
0.0
 70
0
  0
VERTEX
  8
87
 10
699.3526
 20
1219.597656
 30
0.0
 70
0
  0
VERTEX
  8
87
 10
685.614563
 20
1219.65979
 30
0.0
 70
0
  0
VERTEX
  8
87
 10
658.134033
 20
1219.70752
 30
0.0
 70
0
  0
VERTEX
  8
87
 10
644.391235
 20
1219.719116
 30
0.0
 70
0
  0
VERTEX
  8
87
 10
630.648743
 20
1219.675049
 30
0.0
 70
0
  0
VERTEX
  8
87
 10
616.910889
 20
1219.535278
 30
0.0
 70
0
  0
VERTEX
  8
87
 10
603.173157
 20
1219.350098
 30
0.0
 70
0
  0
VERTEX
  8
87
 10
594.012024
 20
1219.232056
 30
0.0
 70
0
  0
VERTEX
  8
87
 10
584.853943
 20
1219.114014
 30
0.0
 70
0
  0
VERTEX
  8
87
 10
575.697571
 20
1218.983398
 30
0.0
 70
0
  0
VERTEX
  8
87
 10
566.541748
 20
1218.827637
 30
0.0
 70
0
  0
VERTEX
  8
87
 10
557.385254
 20
1218.634033
 30
0.0
 70
0
  0
VERTEX
  8
87
 10
548.226868
 20
1218.390015
 30
0.0
 70
0
  0
VERTEX
  8
87
 10
541.357666
 20
1218.166382
 30
0.0
 70
0
  0
VERTEX
  8
87
 10
534.49231
 20
1217.902344
 30
0.0
 70
0
  0
VERTEX
  8
87
 10
527.629028
 20
1217.592651
 30
0.0
 70
0
  0
VERTEX
  8
87
 10
520.765869
 20
1217.231934
 30
0.0
 70
0
  0
VERTEX
  8
87
 10
511.623474
 20
1216.6698
 30
0.0
 70
0
  0
VERTEX
  8
87
 10
502.488525
 20
1216.035034
 30
0.0
 70
0
  0
VERTEX
  8
87
 10
493.35376
 20
1215.354248
 30
0.0
 70
0
  0
VERTEX
  8
87
 10
465.95636
 20
1213.212646
 30
0.0
 70
0
  0
SEQEND
  8
0
  0
POLYLINE
  8
8
 66
1
 10
0.0
 20
0.0
 30
0.0
 70
0
  0
VERTEX
  8
8
 10
664.042236
 20
1458.337524
 30
0.0
 70
0
  0
VERTEX
  8
8
 10
664.042236
 20
1220.042358
 30
0.0
 70
0
  0
SEQEND
  8
0
  0
TEXT
  8
8
 10
664.042236
 20
1458.337524
 30
0.0
 40
0.25
  1
# -1
  7
STANDARD
  0
TEXT
  8
8
 10
664.042236
 20
1220.042358
 30
0.0
 40
0.25
  1
# -1
  7
STANDARD
  0
POINT
  8
2
 10
664.042236
 20
1458.337524
 30
0.0
  0
POINT
  8
2
 10
664.042236
 20
1220.042358
 30
0.0
  0
POLYLINE
  8
85
 66
1
 10
0.0
 20
0.0
 30
0.0
 70
0
  0
VERTEX
  8
85
 10
664.042236
 20
1220.042358
 30
0.0
 70
0
  0
SEQEND
  8
0
  0
POLYLINE
  8
8
 66
1
 10
0.0
 20
0.0
 30
0.0
 70
0
  0
VERTEX
  8
8
 10
408.929962
 20
1338.820312
 30
0.0
 70
0
  0
VERTEX
  8
8
 10
899.203369
 20
1338.816895
 30
0.0
 70
0
  0
SEQEND
  8
0
  0
TEXT
  8
8
 10
408.929962
 20
1338.820312
 30
0.0
 40
0.25
  1
# -1
  7
STANDARD
  0
TEXT
  8
8
 10
899.203369
 20
1338.816895
 30
0.0
 40
0.25
  1
# -1
  7
STANDARD
  0
POINT
  8
2
 10
408.929962
 20
1338.820312
 30
0.0
  0
POINT
  8
2
 10
899.203369
 20
1338.816895
 30
0.0
  0
POLYLINE
  8
85
 66
1
 10
0.0
 20
0.0
 30
0.0
 70
0
  0
VERTEX
  8
85
 10
899.203369
 20
1338.816895
 30
0.0
 70
0
  0
SEQEND
  8
0
  0
POLYLINE
  8
8
 66
1
 10
0.0
 20
0.0
 30
0.0
 70
0
  0
VERTEX
  8
8
 10
854.701477
 20
1239.94458
 30
0.0
 70
0
  0
VERTEX
  8
8
 10
824.994507
 20
1242.262451
 30
0.0
 70
0
  0
VERTEX
  8
8
 10
797.094055
 20
1244.160889
 30
0.0
 70
0
  0
VERTEX
  8
8
 10
769.076477
 20
1245.36853
 30
0.0
 70
0
  0
VERTEX
  8
8
 10
741.141846
 20
1246.025757
 30
0.0
 70
0
  0
VERTEX
  8
8
 10
713.261047
 20
1246.471802
 30
0.0
 70
0
  0
VERTEX
  8
8
 10
685.746338
 20
1246.654175
 30
0.0
 70
0
  0
VERTEX
  8
8
 10
658.158447
 20
1246.701538
 30
0.0
 70
0
  0
VERTEX
  8
8
 10
630.551025
 20
1246.669434
 30
0.0
 70
0
  0
VERTEX
  8
8
 10
602.596985
 20
1246.339111
 30
0.0
 70
0
  0
VERTEX
  8
8
 10
547.396729
 20
1245.373535
 30
0.0
 70
0
  0
VERTEX
  8
8
 10
519.266846
 20
1244.188232
 30
0.0
 70
0
  0
VERTEX
  8
8
 10
491.26886
 20
1242.272949
 30
0.0
 70
0
  0
VERTEX
  8
8
 10
461.840149
 20
1239.968384
 30
0.0
 70
0
  0
SEQEND
  8
0
  0
TEXT
  8
8
 10
854.701477
 20
1239.94458
 30
0.0
 40
0.25
  1
# 46
  7
STANDARD
  0
TEXT
  8
8
 10
824.994507
 20
1242.262451
 30
0.0
 40
0.25
  1
# -1
  7
STANDARD
  0
TEXT
  8
8
 10
797.094055
 20
1244.160889
 30
0.0
 40
0.25
  1
# -1
  7
STANDARD
  0
TEXT
  8
8
 10
769.076477
 20
1245.36853
 30
0.0
 40
0.25
  1
# -1
  7
STANDARD
  0
TEXT
  8
8
 10
741.141846
 20
1246.025757
 30
0.0
 40
0.25
  1
# -1
  7
STANDARD
  0
TEXT
  8
8
 10
713.261047
 20
1246.471802
 30
0.0
 40
0.25
  1
# -1
  7
STANDARD
  0
TEXT
  8
8
 10
685.746338
 20
1246.654175
 30
0.0
 40
0.25
  1
# -1
  7
STANDARD
  0
TEXT
  8
8
 10
658.158447
 20
1246.701538
 30
0.0
 40
0.25
  1
# -1
  7
STANDARD
  0
TEXT
  8
8
 10
630.551025
 20
1246.669434
 30
0.0
 40
0.25
  1
# -1
  7
STANDARD
  0
TEXT
  8
8
 10
602.596985
 20
1246.339111
 30
0.0
 40
0.25
  1
# -1
  7
STANDARD
  0
TEXT
  8
8
 10
547.396729
 20
1245.373535
 30
0.0
 40
0.25
  1
# -1
  7
STANDARD
  0
TEXT
  8
8
 10
519.266846
 20
1244.188232
 30
0.0
 40
0.25
  1
# -1
  7
STANDARD
  0
TEXT
  8
8
 10
491.26886
 20
1242.272949
 30
0.0
 40
0.25
  1
# -1
  7
STANDARD
  0
TEXT
  8
8
 10
461.840149
 20
1239.968384
 30
0.0
 40
0.25
  1
# 47
  7
STANDARD
  0
POINT
  8
2
 10
854.701477
 20
1239.94458
 30
0.0
  0
POINT
  8
2
 10
461.840149
 20
1239.968384
 30
0.0
  0
POINT
  8
3
 10
824.994507
 20
1242.262451
 30
0.0
  0
POINT
  8
3
 10
797.094055
 20
1244.160889
 30
0.0
  0
POINT
  8
3
 10
769.076477
 20
1245.36853
 30
0.0
  0
POINT
  8
3
 10
741.141846
 20
1246.025757
 30
0.0
  0
POINT
  8
3
 10
713.261047
 20
1246.471802
 30
0.0
  0
POINT
  8
3
 10
685.746338
 20
1246.654175
 30
0.0
  0
POINT
  8
3
 10
658.158447
 20
1246.701538
 30
0.0
  0
POINT
  8
3
 10
630.551025
 20
1246.669434
 30
0.0
  0
POINT
  8
3
 10
602.596985
 20
1246.339111
 30
0.0
  0
POINT
  8
3
 10
547.396729
 20
1245.373535
 30
0.0
  0
POINT
  8
3
 10
519.266846
 20
1244.188232
 30
0.0
  0
POINT
  8
3
 10
491.26886
 20
1242.272949
 30
0.0
  0
POLYLINE
  8
85
 66
1
 10
0.0
 20
0.0
 30
0.0
 70
0
  0
VERTEX
  8
85
 10
824.994507
 20
1242.262451
 30
0.0
 70
0
  0
VERTEX
  8
85
 10
815.696838
 20
1242.949097
 30
0.0
 70
0
  0
VERTEX
  8
85
 10
806.39917
 20
1243.589844
 30
0.0
 70
0
  0
VERTEX
  8
85
 10
797.094055
 20
1244.160889
 30
0.0
 70
0
  0
VERTEX
  8
85
 10
790.091675
 20
1244.532227
 30
0.0
 70
0
  0
VERTEX
  8
85
 10
783.089294
 20
1244.854614
 30
0.0
 70
0
  0
VERTEX
  8
85
 10
776.0849
 20
1245.131958
 30
0.0
 70
0
  0
VERTEX
  8
85
 10
769.076477
 20
1245.36853
 30
0.0
 70
0
  0
VERTEX
  8
85
 10
755.110168
 20
1245.739014
 30
0.0
 70
0
  0
VERTEX
  8
85
 10
741.141846
 20
1246.025757
 30
0.0
 70
0
  0
VERTEX
  8
85
 10
727.201843
 20
1246.275391
 30
0.0
 70
0
  0
VERTEX
  8
85
 10
713.261047
 20
1246.471802
 30
0.0
 70
0
  0
VERTEX
  8
85
 10
699.503906
 20
1246.591675
 30
0.0
 70
0
  0
VERTEX
  8
85
 10
685.746338
 20
1246.654175
 30
0.0
 70
0
  0
VERTEX
  8
85
 10
658.158447
 20
1246.701538
 30
0.0
 70
0
  0
VERTEX
  8
85
 10
644.354614
 20
1246.713135
 30
0.0
 70
0
  0
VERTEX
  8
85
 10
630.551025
 20
1246.669434
 30
0.0
 70
0
  0
VERTEX
  8
85
 10
616.573914
 20
1246.527588
 30
0.0
 70
0
  0
VERTEX
  8
85
 10
602.596985
 20
1246.339111
 30
0.0
 70
0
  0
VERTEX
  8
85
 10
593.393555
 20
1246.220215
 30
0.0
 70
0
  0
VERTEX
  8
85
 10
584.193115
 20
1246.101196
 30
0.0
 70
0
  0
VERTEX
  8
85
 10
574.994385
 20
1245.969482
 30
0.0
 70
0
  0
VERTEX
  8
85
 10
565.796265
 20
1245.812622
 30
0.0
 70
0
  0
VERTEX
  8
85
 10
556.597473
 20
1245.618164
 30
0.0
 70
0
  0
VERTEX
  8
85
 10
547.396729
 20
1245.373535
 30
0.0
 70
0
  0
VERTEX
  8
85
 10
540.360229
 20
1245.144897
 30
0.0
 70
0
  0
VERTEX
  8
85
 10
533.327637
 20
1244.874634
 30
0.0
 70
0
  0
VERTEX
  8
85
 10
526.29718
 20
1244.557373
 30
0.0
 70
0
  0
VERTEX
  8
85
 10
519.266846
 20
1244.188232
 30
0.0
 70
0
  0
VERTEX
  8
85
 10
509.929077
 20
1243.614746
 30
0.0
 70
0
  0
VERTEX
  8
85
 10
500.598877
 20
1242.967407
 30
0.0
 70
0
  0
VERTEX
  8
85
 10
491.26886
 20
1242.272949
 30
0.0
 70
0
  0
VERTEX
  8
85
 10
461.840149
 20
1239.968384
 30
0.0
 70
0
  0
SEQEND
  8
0
  0
POLYLINE
  8
8
 66
1
 10
0.0
 20
0.0
 30
0.0
 70
0
  0
VERTEX
  8
8
 10
854.29126
 20
1234.96106
 30
0.0
 70
0
  0
VERTEX
  8
8
 10
824.623352
 20
1237.276367
 30
0.0
 70
0
  0
VERTEX
  8
8
 10
796.830322
 20
1239.167236
 30
0.0
 70
0
  0
VERTEX
  8
8
 10
768.827454
 20
1240.373535
 30
0.0
 70
0
  0
VERTEX
  8
8
 10
741.049072
 20
1241.026733
 30
0.0
 70
0
  0
VERTEX
  8
8
 10
713.31958
 20
1241.471191
 30
0.0
 70
0
  0
VERTEX
  8
8
 10
685.726868
 20
1241.654175
 30
0.0
 70
0
  0
VERTEX
  8
8
 10
658.153564
 20
1241.701782
 30
0.0
 70
0
  0
VERTEX
  8
8
 10
630.492432
 20
1241.669434
 30
0.0
 70
0
  0
VERTEX
  8
8
 10
602.72876
 20
1241.340942
 30
0.0
 70
0
  0
VERTEX
  8
8
 10
547.528564
 20
1240.375488
 30
0.0
 70
0
  0
VERTEX
  8
8
 10
519.530579
 20
1239.19519
 30
0.0
 70
0
  0
VERTEX
  8
8
 10
491.635071
 20
1237.286621
 30
0.0
 70
0
  0
VERTEX
  8
8
 10
462.250244
 20
1234.985474
 30
0.0
 70
0
  0
SEQEND
  8
0
  0
TEXT
  8
8
 10
854.29126
 20
1234.96106
 30
0.0
 40
0.25
  1
# 48
  7
STANDARD
  0
TEXT
  8
8
 10
824.623352
 20
1237.276367
 30
0.0
 40
0.25
  1
# -1
  7
STANDARD
  0
TEXT
  8
8
 10
796.830322
 20
1239.167236
 30
0.0
 40
0.25
  1
# -1
  7
STANDARD
  0
TEXT
  8
8
 10
768.827454
 20
1240.373535
 30
0.0
 40
0.25
  1
# -1
  7
STANDARD
  0
TEXT
  8
8
 10
741.049072
 20
1241.026733
 30
0.0
 40
0.25
  1
# -1
  7
STANDARD
  0
TEXT
  8
8
 10
713.31958
 20
1241.471191
 30
0.0
 40
0.25
  1
# -1
  7
STANDARD
  0
TEXT
  8
8
 10
685.726868
 20
1241.654175
 30
0.0
 40
0.25
  1
# -1
  7
STANDARD
  0
TEXT
  8
8
 10
658.153564
 20
1241.701782
 30
0.0
 40
0.25
  1
# -1
  7
STANDARD
  0
TEXT
  8
8
 10
630.492432
 20
1241.669434
 30
0.0
 40
0.25
  1
# -1
  7
STANDARD
  0
TEXT
  8
8
 10
602.72876
 20
1241.340942
 30
0.0
 40
0.25
  1
# -1
  7
STANDARD
  0
TEXT
  8
8
 10
547.528564
 20
1240.375488
 30
0.0
 40
0.25
  1
# -1
  7
STANDARD
  0
TEXT
  8
8
 10
519.530579
 20
1239.19519
 30
0.0
 40
0.25
  1
# -1
  7
STANDARD
  0
TEXT
  8
8
 10
491.635071
 20
1237.286621
 30
0.0
 40
0.25
  1
# -1
  7
STANDARD
  0
TEXT
  8
8
 10
462.250244
 20
1234.985474
 30
0.0
 40
0.25
  1
# 49
  7
STANDARD
  0
POINT
  8
2
 10
854.29126
 20
1234.96106
 30
0.0
  0
POINT
  8
2
 10
462.250244
 20
1234.985474
 30
0.0
  0
POINT
  8
3
 10
824.623352
 20
1237.276367
 30
0.0
  0
POINT
  8
3
 10
796.830322
 20
1239.167236
 30
0.0
  0
POINT
  8
3
 10
768.827454
 20
1240.373535
 30
0.0
  0
POINT
  8
3
 10
741.049072
 20
1241.026733
 30
0.0
  0
POINT
  8
3
 10
713.31958
 20
1241.471191
 30
0.0
  0
POINT
  8
3
 10
685.726868
 20
1241.654175
 30
0.0
  0
POINT
  8
3
 10
658.153564
 20
1241.701782
 30
0.0
  0
POINT
  8
3
 10
630.492432
 20
1241.669434
 30
0.0
  0
POINT
  8
3
 10
602.72876
 20
1241.340942
 30
0.0
  0
POINT
  8
3
 10
547.528564
 20
1240.375488
 30
0.0
  0
POINT
  8
3
 10
519.530579
 20
1239.19519
 30
0.0
  0
POINT
  8
3
 10
491.635071
 20
1237.286621
 30
0.0
  0
POLYLINE
  8
85
 66
1
 10
0.0
 20
0.0
 30
0.0
 70
0
  0
VERTEX
  8
85
 10
824.623352
 20
1237.276367
 30
0.0
 70
0
  0
VERTEX
  8
85
 10
815.361511
 20
1237.960449
 30
0.0
 70
0
  0
VERTEX
  8
85
 10
806.099609
 20
1238.598511
 30
0.0
 70
0
  0
VERTEX
  8
85
 10
796.830322
 20
1239.167236
 30
0.0
 70
0
  0
VERTEX
  8
85
 10
789.831665
 20
1239.538452
 30
0.0
 70
0
  0
VERTEX
  8
85
 10
782.832947
 20
1239.860474
 30
0.0
 70
0
  0
VERTEX
  8
85
 10
775.832214
 20
1240.137451
 30
0.0
 70
0
  0
VERTEX
  8
85
 10
768.827454
 20
1240.373535
 30
0.0
 70
0
  0
VERTEX
  8
85
 10
754.93927
 20
1240.741577
 30
0.0
 70
0
  0
VERTEX
  8
85
 10
741.049072
 20
1241.026733
 30
0.0
 70
0
  0
VERTEX
  8
85
 10
727.184692
 20
1241.275269
 30
0.0
 70
0
  0
VERTEX
  8
85
 10
713.31958
 20
1241.471191
 30
0.0
 70
0
  0
VERTEX
  8
85
 10
699.523438
 20
1241.591675
 30
0.0
 70
0
  0
VERTEX
  8
85
 10
685.726868
 20
1241.654175
 30
0.0
 70
0
  0
VERTEX
  8
85
 10
658.153564
 20
1241.701782
 30
0.0
 70
0
  0
VERTEX
  8
85
 10
644.322876
 20
1241.713501
 30
0.0
 70
0
  0
VERTEX
  8
85
 10
630.492432
 20
1241.669434
 30
0.0
 70
0
  0
VERTEX
  8
85
 10
616.610535
 20
1241.528198
 30
0.0
 70
0
  0
VERTEX
  8
85
 10
602.72876
 20
1241.340942
 30
0.0
 70
0
  0
VERTEX
  8
85
 10
593.52533
 20
1241.222046
 30
0.0
 70
0
  0
VERTEX
  8
85
 10
584.32489
 20
1241.103149
 30
0.0
 70
0
  0
VERTEX
  8
85
 10
575.126221
 20
1240.971558
 30
0.0
 70
0
  0
VERTEX
  8
85
 10
565.928101
 20
1240.814819
 30
0.0
 70
0
  0
VERTEX
  8
85
 10
556.729248
 20
1240.620361
 30
0.0
 70
0
  0
VERTEX
  8
85
 10
547.528564
 20
1240.375488
 30
0.0
 70
0
  0
VERTEX
  8
85
 10
540.525024
 20
1240.147705
 30
0.0
 70
0
  0
VERTEX
  8
85
 10
533.525452
 20
1239.87854
 30
0.0
 70
0
  0
VERTEX
  8
85
 10
526.527893
 20
1239.562744
 30
0.0
 70
0
  0
VERTEX
  8
85
 10
519.530579
 20
1239.19519
 30
0.0
 70
0
  0
VERTEX
  8
85
 10
510.226959
 20
1238.623779
 30
0.0
 70
0
  0
VERTEX
  8
85
 10
500.930908
 20
1237.978638
 30
0.0
 70
0
  0
VERTEX
  8
85
 10
491.635071
 20
1237.286621
 30
0.0
 70
0
  0
VERTEX
  8
85
 10
462.250244
 20
1234.985474
 30
0.0
 70
0
  0
SEQEND
  8
0
  0
TEXT
  8
1
 10
654.06665
 20
1335.775635
 30
0.0
 40
2.5
  1
PIECE NAME: 3
  7
STANDARD
  0
TEXT
  8
1
 10
654.06665
 20
1330.775635
 30
0.0
 40
2.5
  1
SIZE: M
  7
STANDARD
  0
TEXT
  8
1
 10
654.06665
 20
1320.775635
 30
0.0
 40
2.5
  1
QUANTITY: 1
  7
STANDARD
  0
ENDBLK
  8
0
  0
ENDSEC
  0
SECTION
  2
ENTITIES
  0
INSERT
  8
1
  2
3_M
 10
0.0
 20
0.0
 30
0.0
  0
TEXT
  8
1
 10
0.0
 20
0.0
 30
0.0
 40
0.25
  1
STYLE NAME: sleeve_left
  7
STANDARD
  0
TEXT
  8
1
 10
0.0
 20
0.0
 30
0.0
 40
0.25
  1
CREATION DATE: 01-06-2026
  7
STANDARD
  0
TEXT
  8
1
 10
0.0
 20
0.0
 30
0.0
 40
0.25
  1
CREATION TIME: 13:07
  7
STANDARD
  0
TEXT
  8
1
 10
0.0
 20
0.0
 30
0.0
 40
0.25
  1
AUTHOR: CLO Virtual Fashion Inc.
  7
STANDARD
  0
TEXT
  8
1
 10
0.0
 20
0.0
 30
0.0
 40
0.25
  1
PRODUCT: CLO Standalone OnlineAuth 2026.0.300
  7
STANDARD
  0
TEXT
  8
1
 10
0.0
 20
0.0
 30
0.0
 40
0.25
  1
VERSION: 3
  7
STANDARD
  0
TEXT
  8
1
 10
0.0
 20
0.0
 30
0.0
 40
0.25
  1
SAMPLE SIZE: M
  7
STANDARD
  0
TEXT
  8
1
 10
0.0
 20
0.0
 30
0.0
 40
0.25
  1
UNITS: METRIC
  7
STANDARD
  0
ENDSEC
  0
EOF
