<svg width="62" height="24" viewBox="0 0 62 24" fill="none" xmlns="http://www.w3.org/2000/svg">
<path d="M0.329814 0.00641231C1.62674 -0.00754901 2.92428 0.00842052 4.22113 0.00549953C6.42926 0.000523953 8.47831 -0.0773277 10.6176 0.558374C11.9634 0.957883 13.0944 1.87684 13.7607 3.11201C15.1891 5.76284 14.8725 9.74203 12.2679 11.5682C11.9402 11.798 11.5088 12.0049 11.153 12.1952C11.4085 12.547 11.8417 13.4786 12.0992 13.9038C12.7562 14.9888 13.367 16.1434 13.9875 17.2524C14.3733 17.942 14.7336 18.5176 15.0755 19.2412C14.0853 19.2524 13.0951 19.2574 12.1048 19.256C11.4264 19.2569 10.6913 19.2725 10.021 19.2393C9.8324 18.7712 9.5828 18.4079 9.35404 17.9673C8.50592 16.334 7.5861 14.7395 6.74058 13.1041C6.48111 12.6022 6.18409 12.1184 5.92673 11.6112C5.81197 11.3377 5.62881 11.0512 5.47858 10.7912C5.32953 10.5332 5.23121 10.2118 5.01576 10.0158C6.14521 9.94112 8.06647 10.1139 8.92038 9.37131C10.49 8.00643 10.229 5.24771 8.12801 4.54716C6.81398 4.10898 6.10618 4.3926 4.90126 4.26469C4.93447 7.4865 4.90287 10.7545 4.90231 13.9786L4.90624 17.3376C4.90708 17.8933 4.929 18.7197 4.88659 19.2608C4.46386 19.2251 3.5298 19.2538 3.06766 19.2542C2.06294 19.2551 1.00092 19.2403 0 19.2684C0.0345062 18.6156 0.0084912 17.7012 0.00859645 17.0312L0.00590644 0.0359997L0.329814 0.00641231Z" fill="white"/>
<path d="M21.3503 4.33635C21.7648 4.30136 22.3339 4.30996 22.7469 4.35102C24.6994 4.53949 26.4989 5.48943 27.7556 6.99498C29.4182 9.02478 29.703 11.0117 29.4505 13.5424L18.6583 13.5435C18.9663 14.482 19.1255 14.9969 20.0381 15.5564C21.5083 16.458 23.6952 16.2924 24.647 14.7519C25.1352 14.7066 25.9033 14.726 26.4028 14.7274C27.1581 14.7295 27.9691 14.7115 28.7164 14.7452C28.8149 14.7434 28.9204 14.7281 28.9943 14.7891C29.0738 15.0894 27.9471 16.7109 27.6938 17.0156C23.2743 22.3318 14.8429 19.289 14.3913 12.5351C14.1204 8.48493 17.2392 4.60537 21.3503 4.33635ZM18.7269 10.2505L22.244 10.2497C23.2138 10.2504 24.2642 10.2308 25.2277 10.2615C25.191 10.1418 25.155 10.0176 25.1129 9.90006C24.6228 8.53208 23.0738 7.8183 21.6977 7.95472C20.1561 8.14477 19.2334 8.7359 18.7269 10.2505Z" fill="white"/>
<path d="M34.6994 4.33558C37.1545 4.20962 39.8235 5.10219 40.5897 7.72557C40.6924 8.07825 40.7293 8.49468 40.7912 8.86126C39.5458 8.93731 37.8718 8.87348 36.5859 8.88081C36.5289 8.5621 36.5422 8.41856 36.3206 8.14444C35.9092 7.63577 34.6629 7.65814 34.2459 8.12476C33.1315 9.42184 35.8652 10.09 36.6543 10.3119C38.9834 10.9672 41.1989 11.7746 41.2187 14.5994C41.2431 18.0613 38.4887 19.7194 35.335 19.7401C32.5397 19.7324 30.0199 18.3071 29.5401 15.371C29.52 15.2479 29.4994 15.1242 29.4797 15.001C30.0134 14.995 33.4659 14.9215 33.7324 15.0403C33.7705 15.0573 34.0209 15.7192 34.2834 15.9441C34.6412 16.2502 35.1436 16.3298 35.6006 16.294C36.0262 16.2606 36.372 16.1383 36.6521 15.8074C36.8304 15.597 36.9864 15.3545 36.9592 15.0656C36.9304 14.7619 36.7094 14.4985 36.4698 14.3261C36.0129 13.9972 35.3786 13.8254 34.8514 13.6329C34.5106 13.5084 34.1775 13.3629 33.8364 13.2404C33.3823 13.0774 32.9201 12.9362 32.4753 12.7487C31.9518 12.5282 31.4107 12.2165 30.9724 11.8541C30.2619 11.2665 29.7705 10.4502 29.6847 9.52049C29.5934 8.53029 29.9375 7.19555 30.5848 6.42378C31.6435 5.16126 33.0647 4.47693 34.6994 4.33558Z" fill="white"/>
<path d="M49.2083 4.33522C53.7115 4.10856 55.6657 6.86611 55.1506 11.4515C55.0846 12.0396 53.3279 13.6462 52.8385 14.164C52.5611 14.4577 52.3061 14.7719 52.0758 15.1039C51.7554 15.5724 51.3387 16.2482 51.1876 16.7915C51.0926 17.133 51.0313 17.5825 50.9004 17.9024C51.0041 16.7672 50.9152 15.2108 50.94 14.0339C50.9059 12.9736 51.0044 11.8748 50.914 10.8192C50.8239 9.7681 50.5781 8.84492 49.5018 8.49375C48.7725 8.25735 47.9788 8.32276 47.2981 8.67536C46.7712 8.94638 46.4873 9.4319 46.3137 9.97792C46.1044 10.6014 46.1604 11.7795 46.1555 12.4613C46.1391 14.7256 46.1765 16.9954 46.1518 19.2598C45.7707 19.2321 45.099 19.2536 44.7012 19.2537L41.8313 19.2561C41.8821 18.9617 41.8694 18.3784 41.8715 18.0544C41.8765 17.2948 41.8765 16.5353 41.8715 15.7758L41.8734 8.18931C41.8737 7.61607 41.8722 7.04678 41.8641 6.4736C41.8573 6.00083 41.814 5.36502 41.8542 4.89908C41.8576 4.89642 41.861 4.89364 41.8644 4.89113C42.1179 4.71327 45.39 4.76714 45.8955 4.85793C45.8899 4.9519 45.8738 6.21644 45.88 6.2441C45.9277 6.24008 45.9852 6.23469 46.0159 6.19088C46.8266 5.036 47.7868 4.5395 49.2083 4.33522Z" fill="white"/>
<path d="M57.1825 11.5807C57.2893 11.6693 57.2754 12.0234 57.3416 12.1489C57.5063 12.4604 57.6837 12.8306 57.8874 13.1146C59.199 14.9578 61.5228 16.1876 61.5538 18.719C61.5844 21.2322 59.7107 23.1302 57.2132 23.1957C56.9147 23.1979 56.6166 23.1718 56.3232 23.1177C55.3007 22.9267 54.2393 22.2409 53.6517 21.378C53.1527 20.6447 52.8376 19.767 52.8295 18.8746C52.7986 15.4448 56.6355 14.4592 57.1825 11.5807Z" fill="white"/>
</svg>
