# Blender 5.0.1
# www.blender.org
mtllib TShirt_Garment_Static.mtl
o TShirt_Garment_Static
v 0.222069 0.678524 -0.013282
v -0.249165 0.730164 -0.705002
v 0.000000 0.730164 -0.708748
v 0.130001 0.730164 0.010000
v -0.119167 0.730164 0.006667
v -0.140833 0.730164 -0.345001
v 0.140833 0.730164 -0.525002
v -0.119167 0.730164 -0.195000
v -0.054167 0.730164 0.006667
v -0.251873 0.730164 -0.449997
v -0.065001 0.730164 -0.449997
v -0.048750 0.730164 -0.090000
v 0.205833 0.730164 -0.105000
v -0.195000 0.730164 0.005000
v 0.170664 0.735748 -0.092822
v 0.010833 0.730164 -0.435005
v 0.010833 0.730164 -0.105000
v 0.205833 0.730164 -0.195000
v 0.195000 0.730164 -0.292500
v -0.119167 0.730164 -0.645004
v 0.140833 0.730164 -0.645004
v 0.065001 0.730164 -0.112499
v 0.140833 0.730164 -0.105000
v -0.195002 0.730164 -0.090000
v -0.130001 0.730164 -0.090000
v 0.073126 0.730164 -0.449997
v 0.140833 0.730164 -0.435005
v 0.259706 0.724347 -0.675118
v -0.261253 0.730164 -0.039166
v 0.242902 0.707493 -0.312293
v 0.016250 0.730164 -0.314999
v -0.227501 0.730164 -0.360001
v -0.016250 0.730164 -0.045000
v 0.227501 0.730164 -0.022500
v 0.257887 0.717012 -0.471774
v -0.086667 0.730164 -0.705002
v 0.162500 0.730164 -0.720001
v -0.260002 0.730164 -0.607498
v 0.173334 0.730164 -0.375000
v 0.097500 0.730164 -0.584999
v -0.162500 0.730164 -0.584999
v 0.140833 0.730164 -0.330002
v 0.227501 0.730164 -0.247501
v -0.032500 0.730164 -0.180000
v 0.238335 0.730164 -0.555000
v 0.032500 0.730164 -0.157499
v 0.097500 0.730164 -0.180000
v -0.130001 0.730164 -0.495003
v 0.259647 0.725046 -0.607485
v -0.146252 0.730164 -0.720001
v -0.273335 0.730164 -0.136665
v 0.113750 0.730164 -0.720001
v 0.000000 0.730164 -0.584999
v 0.000000 0.730164 -0.224998
v 0.097500 0.730164 -0.382500
v -0.081250 0.730164 -0.134998
v 0.162500 0.730164 -0.157499
v 0.032500 0.730164 -0.000833
v 0.251952 0.708927 -0.404062
v -0.251873 0.730164 -0.314999
v 0.243752 0.730164 -0.720001
v -0.021667 0.730164 -0.375000
v 0.227501 0.730164 -0.382500
v -0.097500 0.730164 -0.540001
v 0.097500 0.730164 -0.045000
v -0.146252 0.730164 -0.045000
v -0.227501 0.730164 -0.180000
v -0.227501 0.730164 -0.540001
v 0.032500 0.730164 -0.540001
v 0.032500 0.730164 -0.629997
v 0.097500 0.730164 -0.495003
v 0.032500 0.730164 -0.382500
v -0.227501 0.730164 -0.629997
v -0.184166 0.730164 -0.479996
v -0.151667 0.730164 -0.435005
v -0.205833 0.730164 -0.389999
v -0.195000 0.730164 -0.224998
v -0.211248 0.730164 -0.269997
v -0.151667 0.730164 -0.150000
v 0.054167 0.730164 -0.239998
v 0.032500 0.730164 -0.269997
v 0.195000 0.730164 -0.674995
v 0.227501 0.730164 -0.629997
v 0.178749 0.730164 -0.584999
v 0.065001 0.730164 -0.674995
v -0.065001 0.730164 -0.674995
v -0.032500 0.730164 -0.629997
v -0.065001 0.730164 -0.584999
v -0.195002 0.730164 -0.674995
v -0.054167 0.730164 -0.330002
v -0.016250 0.730164 -0.269997
v -0.089375 0.730164 -0.269997
v -0.065001 0.730164 -0.224998
v -0.178749 0.730164 -0.314999
v -0.151667 0.730164 -0.255001
v 0.151667 0.730164 -0.239998
v 0.075833 0.730164 -0.330002
v 0.113750 0.730164 -0.269997
v 0.227501 0.730164 -0.134998
v -0.032500 0.730164 -0.495003
v 0.195000 0.730164 -0.495003
v 0.227501 0.730164 -0.449997
v 0.173334 0.730164 -0.030000
v -0.086667 0.730164 -0.059999
v -0.097500 0.730164 -0.404999
v 0.195000 0.730164 -0.404999
v -0.260002 0.730164 0.739998
v 0.229497 0.674961 0.739863
v -0.260002 0.730164 0.020000
v 0.000000 0.730164 0.739998
v 0.224609 0.671766 0.378774
v -0.260002 0.730164 0.380001
v 0.000000 0.730164 0.380001
v 0.130001 0.730164 0.739998
v 0.224696 0.670493 0.195169
v -0.260002 0.730164 0.559998
v -0.130001 0.730164 0.739998
v 0.227731 0.673800 0.559662
v -0.260002 0.730164 0.200001
v 0.000000 0.730164 0.200001
v 0.000000 0.730164 0.559998
v -0.130001 0.730164 0.380001
v 0.130001 0.730164 0.380001
v 0.130001 0.730164 0.200001
v -0.130001 0.730164 0.200001
v -0.130001 0.730164 0.559998
v 0.130001 0.730164 0.559998
v 0.195000 0.730164 0.739998
v 0.225487 0.670034 0.100381
v -0.260002 0.730164 0.650002
v -0.065001 0.730164 0.739998
v 0.225589 0.672502 0.469379
v -0.260002 0.730164 0.290001
v 0.000000 0.730164 0.110001
v 0.000000 0.730164 0.470001
v -0.195000 0.730164 0.380001
v 0.065001 0.730164 0.380001
v 0.195000 0.730164 0.290001
v -0.065001 0.730164 0.290001
v -0.065001 0.730164 0.650002
v 0.195000 0.730164 0.650002
v 0.065001 0.730164 0.739998
v 0.224231 0.671121 0.287566
v -0.260002 0.730164 0.470001
v -0.195000 0.730164 0.739998
v 0.229333 0.674815 0.649799
v 0.195000 0.730164 0.010000
v -0.260002 0.730164 0.110001
v 0.000000 0.730164 0.290001
v 0.000000 0.730164 0.650002
v -0.065001 0.730164 0.380001
v 0.195000 0.730164 0.380001
v 0.065001 0.730164 0.110001
v -0.195000 0.730164 0.110001
v -0.195000 0.730164 0.470001
v 0.065001 0.730164 0.470001
v 0.130001 0.730164 0.470001
v 0.195000 0.730164 0.559998
v 0.195000 0.730164 0.470001
v -0.130001 0.730164 0.470001
v -0.065001 0.730164 0.559998
v -0.065001 0.730164 0.470001
v -0.130001 0.730164 0.110001
v -0.065001 0.730164 0.200001
v -0.065001 0.730164 0.110001
v 0.130001 0.730164 0.110001
v 0.195000 0.730164 0.200001
v 0.195000 0.730164 0.110001
v 0.065001 0.730164 0.650002
v 0.130001 0.730164 0.650002
v 0.065001 0.730164 0.559998
v -0.195000 0.730164 0.650002
v -0.130001 0.730164 0.650002
v -0.195000 0.730164 0.559998
v -0.195000 0.730164 0.290001
v -0.130001 0.730164 0.290001
v -0.195000 0.730164 0.200001
v 0.065001 0.730164 0.290001
v 0.130001 0.730164 0.290001
v 0.065001 0.730164 0.200001
v -0.367938 0.453580 -0.120395
v -0.268719 0.719356 -0.222344
v -0.311009 0.385753 -0.162472
v -0.324511 0.584109 -0.087164
v -0.263187 0.544231 -0.189346
v -0.376479 0.439241 -0.167063
v -0.306156 0.564957 -0.092145
v -0.254522 0.622396 -0.060114
v -0.278225 0.461944 -0.177338
v -0.328889 0.465396 -0.157343
v -0.387249 0.535249 -0.114583
v -0.266645 0.627044 -0.203870
v -0.349579 0.408612 -0.129920
v -0.275178 0.553724 -0.136290
v -0.309120 0.593055 -0.139268
v -0.360719 0.508318 -0.121469
v -0.310939 0.645531 -0.116320
v -0.268141 0.636309 -0.149679
v -0.320958 0.485032 -0.151377
v -0.368109 0.539549 -0.166082
v -0.257143 0.651240 -0.106948
v 0.425056 0.659685 -0.137211
v 0.356063 0.640301 -0.177600
v 0.169448 0.730312 -0.224951
v 0.365382 0.785974 -0.042615
v 0.333686 0.675075 -0.075607
v 0.338481 0.797387 -0.234851
v 0.322113 0.833129 -0.131977
vn -0.0000 1.0000 -0.0000
vn 0.6927 0.7168 0.0795
vn 0.7559 -0.1913 -0.6261
vn 0.0895 0.9959 -0.0102
vn -0.0000 -1.0000 -0.0000
vn 0.1618 0.9799 0.1168
vn 0.2690 0.9433 -0.1943
vn -0.0772 -0.9966 0.0279
vn -0.0382 -0.9984 0.0414
vn -0.2049 -0.9675 -0.1480
vn -0.0031 -1.0000 -0.0013
vn 0.0414 0.9534 0.2988
vn 0.3906 0.9148 -0.1026
vn 0.3324 0.9121 -0.2401
vn 0.0893 0.9913 0.0967
vn 0.2994 0.9293 -0.2162
vn -0.3060 0.9504 0.0552
vn 0.1743 0.9844 -0.0252
vn 0.1358 -0.9246 0.3558
vn -0.1439 -0.9889 0.0378
vn 0.6557 0.7550 -0.0000
vn 0.4789 0.8658 0.1453
vn 0.8919 0.4522 -0.0000
vn 0.8480 0.5300 -0.0000
vn 0.8960 0.4439 -0.0069
vn 0.8498 0.5271 -0.0024
vn 0.8829 0.4687 -0.0277
vn 0.8922 0.4515 0.0053
vn 0.8871 0.4615 0.0078
vn 0.8953 0.4455 -0.0000
vn 0.8834 0.4686 -0.0000
vn 0.8917 0.4524 -0.0133
vn 0.8648 0.5022 -0.0000
vn 0.8498 0.5271 -0.0000
vn 0.8645 0.5022 -0.0210
vn 0.8962 0.4437 -0.0000
vn 0.8953 0.4454 0.0015
vn -0.6026 0.0768 -0.7943
vn -0.2193 0.6068 -0.7640
vn -0.5683 0.8102 -0.1436
vn -0.9977 -0.0654 0.0156
vn -0.6193 0.5383 -0.5716
vn -0.6544 0.7535 -0.0639
vn -0.1931 0.2714 0.9429
vn -0.0624 -0.6521 0.7555
vn -0.8980 0.4257 0.1113
vn 0.9731 -0.0791 -0.2165
vn 0.6982 -0.5270 -0.4845
vn 0.7575 -0.5387 -0.3689
vn -0.5002 0.0465 -0.8647
vn -0.3105 0.3967 -0.8639
vn -0.9601 0.1401 -0.2421
vn -0.9988 -0.0452 -0.0199
vn -0.9984 -0.0527 -0.0186
vn -0.9982 -0.0324 -0.0497
vn -0.4823 0.8760 0.0079
vn -0.7865 0.5053 0.3552
vn 0.7867 -0.5072 -0.3519
vn -0.6665 -0.1051 -0.7380
vn -0.8135 -0.4706 -0.3416
vn -0.2040 0.0075 0.9789
vn 0.8527 0.1380 -0.5038
vn -0.6009 0.0006 -0.7993
vn -0.6371 0.0223 -0.7705
vn -0.8248 -0.2068 -0.5262
vn -0.6229 -0.0732 -0.7789
vn -0.9726 0.0459 -0.2280
vn 0.9865 0.1141 0.1173
vn -0.5460 0.8373 -0.0294
vn -0.3425 0.6436 0.6844
vn 0.8492 0.5083 -0.1430
vn 0.9735 0.1662 0.1569
vn -0.3625 0.8610 -0.3568
vn -0.3395 0.7541 0.5623
vn -0.5666 -0.3133 -0.7621
s 0
f 58//1 33//1 9//1
f 30//2 59//2 63//2
f 1//3 15//3 34//3
f 47//1 57//1 96//1
f 69//1 53//1 87//1
f 5//1 66//1 14//1
f 8//1 95//1 79//1
f 6//1 105//1 75//1
f 42//1 27//1 55//1
f 27//1 7//1 71//1
f 97//1 26//1 72//1
f 26//1 69//1 16//1
f 75//1 48//1 74//1
f 74//1 68//1 10//1
f 14//1 24//1 29//1
f 47//1 80//1 46//1
f 80//1 31//1 81//1
f 22//1 46//1 17//1
f 49//4 28//4 82//4
f 101//1 45//1 84//1
f 87//5 86//5 36//5
f 64//1 100//1 88//1
f 92//1 91//1 90//1
f 91//1 31//1 90//1
f 95//1 92//1 6//1
f 78//1 94//1 60//1
f 78//1 95//1 94//1
f 95//1 6//1 94//1
f 98//1 96//1 42//1
f 80//1 97//1 31//1
f 80//1 98//1 97//1
f 98//1 42//1 97//1
f 11//1 100//1 64//1
f 13//1 57//1 23//1
f 9//1 104//1 5//1
f 12//1 56//1 104//1
f 11//1 64//1 105//1
f 27//1 101//1 7//1
f 39//1 106//1 27//1
f 106//1 101//1 27//1
f 39//1 27//1 42//1
f 105//1 48//1 75//1
f 105//1 64//1 48//1
f 104//1 79//1 25//1
f 104//1 56//1 79//1
f 56//1 8//1 79//1
f 5//1 104//1 66//1
f 104//1 25//1 66//1
f 57//1 47//1 23//1
f 103//1 13//1 23//1
f 103//1 65//1 4//1
f 103//1 23//1 65//1
f 101//6 35//6 45//6
f 102//7 35//7 101//7
f 56//1 12//1 44//1
f 12//1 17//1 44//1
f 56//1 44//1 8//1
f 99//8 15//8 18//8
f 15//9 204//9 18//9
f 13//1 99//1 18//1
f 13//10 15//10 99//10
f 13//1 18//1 57//1
f 97//1 42//1 55//1
f 31//1 72//1 62//1
f 31//1 97//1 72//1
f 18//1 43//1 19//1
f 18//11 204//11 43//11
f 96//1 18//1 19//1
f 96//1 19//1 42//1
f 30//12 63//12 39//12
f 19//13 30//13 39//13
f 19//14 43//14 30//14
f 42//1 19//1 39//1
f 94//1 6//1 76//1
f 60//1 94//1 32//1
f 94//1 76//1 32//1
f 93//1 44//1 92//1
f 90//1 31//1 62//1
f 92//1 105//1 6//1
f 92//1 90//1 105//1
f 89//1 20//1 50//1
f 41//1 20//1 89//1
f 88//1 100//1 87//1
f 100//1 69//1 87//1
f 20//1 88//1 87//1
f 20//1 64//1 88//1
f 20//1 36//1 50//1
f 20//1 87//1 36//1
f 87//1 3//1 36//1
f 85//1 21//1 52//1
f 40//1 21//1 85//1
f 84//1 45//1 82//1
f 21//1 84//1 82//1
f 21//1 82//1 52//1
f 82//15 28//15 61//15
f 83//16 49//16 82//16
f 82//1 37//1 52//1
f 46//1 44//1 17//1
f 58//1 65//1 17//1
f 65//1 22//1 17//1
f 58//1 17//1 33//1
f 22//1 65//1 47//1
f 65//1 23//1 47//1
f 22//1 47//1 46//1
f 81//1 31//1 91//1
f 80//1 81//1 91//1
f 46//1 54//1 44//1
f 46//1 80//1 54//1
f 80//1 91//1 54//1
f 24//1 51//1 29//1
f 24//1 67//1 51//1
f 24//1 79//1 67//1
f 24//1 25//1 79//1
f 67//1 78//1 60//1
f 67//1 77//1 78//1
f 67//17 60//17 182//17
f 76//1 74//1 10//1
f 32//1 10//1 60//1
f 32//1 76//1 10//1
f 74//1 41//1 68//1
f 74//1 48//1 41//1
f 48//1 64//1 41//1
f 73//1 2//1 38//1
f 73//1 89//1 2//1
f 68//1 73//1 38//1
f 68//1 41//1 73//1
f 41//1 89//1 73//1
f 16//1 69//1 100//1
f 72//1 26//1 16//1
f 72//1 16//1 62//1
f 71//1 40//1 69//1
f 71//1 7//1 40//1
f 26//1 71//1 69//1
f 26//1 27//1 71//1
f 70//1 3//1 87//1
f 70//1 85//1 3//1
f 69//1 70//1 87//1
f 69//1 40//1 70//1
f 40//1 85//1 70//1
f 55//1 27//1 26//1
f 55//1 26//1 97//1
f 6//1 75//1 76//1
f 75//1 74//1 76//1
f 79//1 77//1 67//1
f 79//1 95//1 77//1
f 95//1 78//1 77//1
f 66//1 25//1 24//1
f 14//1 66//1 24//1
f 45//1 83//1 82//1
f 45//18 49//18 83//18
f 40//1 84//1 21//1
f 40//1 7//1 84//1
f 7//1 101//1 84//1
f 41//1 64//1 20//1
f 44//1 91//1 92//1
f 44//1 54//1 91//1
f 8//1 92//1 95//1
f 8//1 44//1 92//1
f 204//19 30//19 43//19
f 57//1 18//1 96//1
f 47//1 98//1 80//1
f 47//1 96//1 98//1
f 34//20 15//20 13//20
f 33//1 17//1 12//1
f 62//1 100//1 11//1
f 62//1 16//1 100//1
f 63//1 102//1 101//1
f 63//21 59//21 102//21
f 59//22 35//22 102//22
f 34//1 103//1 147//1
f 34//1 13//1 103//1
f 9//1 33//1 104//1
f 33//1 12//1 104//1
f 62//1 105//1 90//1
f 62//1 11//1 105//1
f 63//1 106//1 39//1
f 63//1 101//1 106//1
f 111//23 138//23 152//23
f 113//1 139//1 151//1
f 110//1 140//1 131//1
f 108//24 141//24 128//24
f 111//25 143//25 138//25
f 113//1 149//1 139//1
f 110//1 150//1 140//1
f 108//26 146//26 141//26
f 127//1 157//1 156//1
f 127//1 158//1 157//1
f 118//27 132//27 159//27
f 126//1 160//1 155//1
f 126//1 161//1 160//1
f 121//1 135//1 162//1
f 125//1 163//1 154//1
f 125//1 164//1 163//1
f 120//1 134//1 165//1
f 124//1 166//1 153//1
f 124//1 167//1 166//1
f 115//28 129//28 168//28
f 114//1 169//1 142//1
f 114//1 170//1 169//1
f 127//1 156//1 171//1
f 117//1 172//1 145//1
f 117//1 173//1 172//1
f 126//1 155//1 174//1
f 122//1 175//1 136//1
f 122//1 176//1 175//1
f 125//1 154//1 177//1
f 123//1 178//1 137//1
f 123//1 179//1 178//1
f 124//1 153//1 180//1
f 180//1 134//1 120//1
f 180//1 153//1 134//1
f 153//1 58//1 134//1
f 178//1 180//1 120//1
f 178//1 179//1 180//1
f 179//1 124//1 180//1
f 137//1 149//1 113//1
f 137//1 178//1 149//1
f 178//1 120//1 149//1
f 177//1 148//1 119//1
f 177//1 154//1 148//1
f 154//1 109//1 148//1
f 175//1 177//1 119//1
f 175//1 176//1 177//1
f 176//1 125//1 177//1
f 136//1 133//1 112//1
f 136//1 175//1 133//1
f 175//1 119//1 133//1
f 174//1 144//1 116//1
f 174//1 155//1 144//1
f 155//1 112//1 144//1
f 172//1 174//1 116//1
f 172//1 173//1 174//1
f 173//1 126//1 174//1
f 145//1 130//1 107//1
f 145//1 172//1 130//1
f 172//1 116//1 130//1
f 171//1 135//1 121//1
f 171//1 156//1 135//1
f 156//1 113//1 135//1
f 169//1 171//1 121//1
f 169//1 170//1 171//1
f 170//1 127//1 171//1
f 142//1 150//1 110//1
f 142//1 169//1 150//1
f 169//1 121//1 150//1
f 168//1 147//1 4//1
f 168//23 129//23 147//23
f 129//29 1//29 147//29
f 166//1 168//1 4//1
f 166//1 167//1 168//1
f 167//30 115//30 168//30
f 153//1 166//1 58//1
f 166//1 4//1 58//1
f 165//1 9//1 5//1
f 165//1 134//1 9//1
f 134//1 58//1 9//1
f 163//1 165//1 5//1
f 163//1 164//1 165//1
f 164//1 120//1 165//1
f 154//1 14//1 109//1
f 154//1 163//1 14//1
f 163//1 5//1 14//1
f 162//1 151//1 122//1
f 162//1 135//1 151//1
f 135//1 113//1 151//1
f 160//1 162//1 122//1
f 160//1 161//1 162//1
f 161//1 121//1 162//1
f 155//1 136//1 112//1
f 155//1 160//1 136//1
f 160//1 122//1 136//1
f 159//1 152//1 123//1
f 159//31 132//31 152//31
f 132//32 111//32 152//32
f 157//1 159//1 123//1
f 157//1 158//1 159//1
f 158//33 118//33 159//33
f 156//1 137//1 113//1
f 156//1 157//1 137//1
f 157//1 123//1 137//1
f 141//1 158//1 127//1
f 141//34 146//34 158//34
f 146//35 118//35 158//35
f 140//1 161//1 126//1
f 140//1 150//1 161//1
f 150//1 121//1 161//1
f 139//1 164//1 125//1
f 139//1 149//1 164//1
f 149//1 120//1 164//1
f 138//1 167//1 124//1
f 138//36 143//36 167//36
f 143//37 115//37 167//37
f 128//1 170//1 114//1
f 128//1 141//1 170//1
f 141//1 127//1 170//1
f 131//1 173//1 117//1
f 131//1 140//1 173//1
f 140//1 126//1 173//1
f 151//1 176//1 122//1
f 151//1 139//1 176//1
f 139//1 125//1 176//1
f 152//1 179//1 123//1
f 152//1 138//1 179//1
f 138//1 124//1 179//1
f 51//38 198//38 197//38
f 187//39 199//39 196//39
f 184//40 200//40 191//40
f 29//41 201//41 188//41
f 187//42 194//42 199//42
f 184//43 195//43 200//43
f 201//44 197//44 187//44
f 201//45 29//45 197//45
f 29//46 51//46 197//46
f 200//47 196//47 186//47
f 200//48 195//48 196//48
f 195//49 187//49 196//49
f 199//50 189//50 183//50
f 199//51 194//51 189//51
f 194//52 185//52 189//52
f 198//53 192//53 185//53
f 198//54 51//54 192//54
f 51//55 182//55 192//55
f 188//56 195//56 184//56
f 188//57 201//57 195//57
f 201//58 187//58 195//58
f 191//59 190//59 181//59
f 191//60 200//60 190//60
f 200//61 186//61 190//61
f 196//62 193//62 186//62
f 196//63 199//63 193//63
f 199//64 183//64 193//64
f 197//65 194//65 187//65
f 197//66 198//66 194//66
f 198//67 185//67 194//67
f 206//68 207//68 208//68
f 208//69 204//69 15//69
f 205//70 15//70 1//70
f 202//71 208//71 205//71
f 206//72 203//72 207//72
f 208//73 207//73 204//73
f 205//74 208//74 15//74
f 202//75 206//75 208//75
