# https://github.com/mikedh/trimesh
mtllib material.mtl
usemtl material_0
v 0.00000000 0.00000000 0.00000000
v 1.00000000 0.00000000 0.00000000
v 1.00000000 1.00000000 0.00000000
v 0.00000000 1.00000000 0.00000000
v 0.00000000 0.00000000 1.00000000
v 1.00000000 0.00000000 1.00000000
v 1.00000000 1.00000000 1.00000000
v 0.00000000 1.00000000 1.00000000
vn 0.57735027 -0.57735027 0.57735027
vn 0.57735027 -0.57735027 0.57735027
vn 0.57735027 0.57735027 0.57735027
vn 0.57735027 0.57735027 0.57735027
vn 0.57735027 -0.57735027 0.57735027
vn 0.57735027 -0.57735027 0.57735027
vn 0.57735027 0.57735027 0.57735027
vn 0.57735027 0.57735027 0.57735027
vt 0.12500000 0.69591327
vt 0.37500000 0.69591327
vt 0.37500000 0.30408673
vt 0.12500000 0.30408673
vt 0.87500000 0.69591327
vt 0.62500000 0.69591327
vt 0.62500000 0.30408673
vt 0.87500000 0.30408673
f 1/1/1 2/2/2 3/3/3
f 1/1/1 3/3/3 4/4/4
f 5/5/5 6/6/6 7/7/7
f 5/5/5 7/7/7 8/8/8
f 1/1/1 2/2/2 6/6/6
f 1/1/1 6/6/6 5/5/5
f 3/3/3 4/4/4 8/8/8
f 3/3/3 8/8/8 7/7/7
f 1/1/1 4/4/4 8/8/8
f 1/1/1 8/8/8 5/5/5
f 2/2/2 3/3/3 7/7/7
f 2/2/2 7/7/7 6/6/6

