<?xml version="1.0" encoding="UTF-8"?>
<svg xmlns="http://www.w3.org/2000/svg"
     width="352.64000000000004px"
     height="810.0px"
     viewBox="0 0 35.26 81.00">
  <rect width="100%" height="100%" fill="white"/>
  <text x="17.632" y="2" text-anchor="middle" font-size="1.5" font-family="Arial">Front Panel</text>
  <path d="M 4.80,13.97 L 5.52,13.80 L 6.36,13.35 L 7.06,12.76 L 7.70,12.09 L 8.30,11.35 L 8.89,10.57 L 9.47,9.77 L 10.03,8.97 L 10.58,8.20 L 11.11,7.50 L 11.60,6.90 L 12.05,6.42 L 12.40,6.12 L 12.58,6.01 L 12.60,6.00 L 26.57,7.67 L 26.39,7.81 L 26.68,8.62 L 26.97,9.45 L 27.24,10.31 L 27.51,11.20 L 27.77,12.12 L 28.01,13.07 L 28.24,14.05 L 28.45,15.06 L 28.65,16.10 L 28.82,17.18 L 28.96,18.28 L 29.08,19.42 L 29.17,20.59 L 29.24,21.80 L 29.26,23.04 L 29.26,24.31 L 29.21,25.62 L 29.13,26.96 L 29.00,28.43 L 29.44,75.44 L 5.56,75.44 L 6.00,12.50 Z" fill="none" stroke="#999" stroke-width="0.1" stroke-dasharray="0.5,0.3"/>
  <path d="M 4.50,12.50 L 4.99,12.40 L 5.51,12.11 L 6.03,11.67 L 6.57,11.10 L 7.12,10.43 L 7.68,9.68 L 8.24,8.90 L 8.81,8.10 L 9.37,7.32 L 9.93,6.57 L 10.48,5.90 L 11.02,5.33 L 11.54,4.89 L 12.06,4.60 L 12.55,4.50 L 27.50,6.50 L 27.80,7.30 L 28.10,8.12 L 28.39,8.98 L 28.68,9.86 L 28.95,10.78 L 29.22,11.73 L 29.47,12.71 L 29.71,13.73 L 29.93,14.77 L 30.12,15.85 L 30.30,16.96 L 30.45,18.11 L 30.58,19.28 L 30.67,20.50 L 30.73,21.74 L 30.76,23.02 L 30.76,24.34 L 30.71,25.69 L 30.63,27.08 L 30.50,28.50 L 30.50,76.50 L 4.50,76.50 L 4.50,12.50 Z" fill="none" stroke="black" stroke-width="0.15"/>
  <line x1="4.5" y1="4.5" x2="4.5" y2="76.5"
        stroke="blue" stroke-width="0.1" stroke-dasharray="1,0.5"/>
  <text x="5.0" y="40.5" font-size="0.8" fill="blue">FOLD</text>
  <line x1="17.5" y1="18.9" x2="17.5" y2="62.1"
        stroke="red" stroke-width="0.1" marker-end="url(#arrow)"/>
  <text x="18.0" y="18.9" font-size="0.6" fill="red">GRAIN</text>
  <defs>
    <marker id="arrow" viewBox="0 0 10 10" refX="5" refY="5" markerWidth="4" markerHeight="4" orient="auto-start-reverse">
      <path d="M 0 0 L 10 5 L 0 10 z" fill="red"/>
    </marker>
  </defs>
  <text x="1" y="80.0" font-size="0.6" fill="#666">Cut 1 on fold. Grainline parallel to fold.</text>
  <text x="34.264" y="80.0" text-anchor="end" font-size="0.5" fill="#666">W:26.0cm H:72.0cm</text>
</svg>