<?xml version="1.0" encoding="UTF-8"?>
<svg xmlns="http://www.w3.org/2000/svg"
     width="342.64000000000004px"
     height="790.0px"
     viewBox="0 0 34.26 79.00">
  <rect width="100%" height="100%" fill="white"/>
  <text x="17.132" y="2" text-anchor="middle" font-size="1.5" font-family="Arial">Front Panel</text>
  <path d="M 4.82,13.97 L 5.52,13.80 L 6.34,13.33 L 7.02,12.74 L 7.63,12.06 L 8.21,11.33 L 8.77,10.55 L 9.32,9.74 L 9.86,8.94 L 10.38,8.18 L 10.89,7.48 L 11.36,6.87 L 11.79,6.40 L 12.12,6.10 L 12.27,6.00 L 12.26,6.00 L 25.59,7.69 L 25.41,7.78 L 25.70,8.49 L 25.98,9.23 L 26.26,9.99 L 26.53,10.79 L 26.78,11.61 L 27.02,12.47 L 27.25,13.35 L 27.46,14.26 L 27.65,15.20 L 27.82,16.17 L 27.96,17.18 L 28.08,18.21 L 28.17,19.27 L 28.24,20.37 L 28.26,21.50 L 28.26,22.66 L 28.21,23.85 L 28.13,25.07 L 28.00,26.43 L 28.44,73.44 L 5.56,73.44 L 6.00,12.50 Z" fill="none" stroke="#999" stroke-width="0.1" stroke-dasharray="0.5,0.3"/>
  <path d="M 4.50,12.50 L 4.97,12.40 L 5.46,12.11 L 5.97,11.67 L 6.48,11.10 L 7.01,10.43 L 7.54,9.68 L 8.08,8.90 L 8.62,8.10 L 9.16,7.32 L 9.69,6.57 L 10.22,5.90 L 10.73,5.33 L 11.24,4.89 L 11.73,4.60 L 12.20,4.50 L 26.50,6.50 L 26.80,7.21 L 27.10,7.94 L 27.39,8.71 L 27.68,9.50 L 27.95,10.33 L 28.22,11.19 L 28.47,12.07 L 28.71,12.99 L 28.93,13.94 L 29.12,14.92 L 29.30,15.94 L 29.45,16.98 L 29.58,18.06 L 29.67,19.17 L 29.73,20.31 L 29.76,21.48 L 29.76,22.69 L 29.71,23.93 L 29.63,25.20 L 29.50,26.50 L 29.50,74.50 L 4.50,74.50 L 4.50,12.50 Z" fill="none" stroke="black" stroke-width="0.15"/>
  <line x1="4.5" y1="4.5" x2="4.5" y2="74.5"
        stroke="blue" stroke-width="0.1" stroke-dasharray="1,0.5"/>
  <text x="5.0" y="39.5" font-size="0.8" fill="blue">FOLD</text>
  <line x1="17.0" y1="18.5" x2="17.0" y2="60.5"
        stroke="red" stroke-width="0.1" marker-end="url(#arrow)"/>
  <text x="17.5" y="18.5" font-size="0.6" fill="red">GRAIN</text>
  <defs>
    <marker id="arrow" viewBox="0 0 10 10" refX="5" refY="5" markerWidth="4" markerHeight="4" orient="auto-start-reverse">
      <path d="M 0 0 L 10 5 L 0 10 z" fill="red"/>
    </marker>
  </defs>
  <text x="1" y="78.0" font-size="0.6" fill="#666">Cut 1 on fold. Grainline parallel to fold.</text>
  <text x="33.264" y="78.0" text-anchor="end" font-size="0.5" fill="#666">W:25.0cm H:70.0cm</text>
</svg>