<?xml version="1.0" encoding="UTF-8"?>
<svg xmlns="http://www.w3.org/2000/svg"
     width="398.0px"
     height="310.0px"
     viewBox="0 0 39.80 31.00">
  <rect width="100%" height="100%" fill="white"/>
  <text x="19.9" y="2" text-anchor="middle" font-size="1.5" font-family="Arial">Sleeve</text>
  <path d="M 19.53,3.05 L 18.55,3.29 L 17.48,3.63 L 16.40,4.05 L 15.30,4.53 L 14.19,5.07 L 13.07,5.68 L 11.95,6.35 L 10.83,7.07 L 9.71,7.84 L 8.61,8.66 L 7.52,9.53 L 6.44,10.44 L 5.40,11.38 L 4.38,12.36 L 3.11,13.84 L 3.44,27.56 L 36.36,27.56 L 36.69,13.84 L 35.42,12.36 L 34.40,11.38 L 33.36,10.44 L 32.28,9.53 L 31.19,8.66 L 30.09,7.84 L 28.97,7.07 L 27.85,6.35 L 26.73,5.68 L 25.61,5.07 L 24.50,4.53 L 23.40,4.05 L 22.32,3.63 L 21.25,3.29 L 20.27,3.05 Z" fill="none" stroke="#999" stroke-width="0.1" stroke-dasharray="0.5,0.3"/>
  <path d="M 19.90,4.50 L 18.96,4.74 L 17.98,5.05 L 16.97,5.43 L 15.93,5.89 L 14.88,6.41 L 13.81,6.99 L 12.74,7.63 L 11.66,8.32 L 10.59,9.06 L 9.52,9.85 L 8.47,10.69 L 7.43,11.56 L 6.42,12.48 L 5.44,13.42 L 4.50,14.40 L 4.50,26.50 L 35.30,26.50 L 35.30,14.40 L 34.36,13.42 L 33.38,12.48 L 32.37,11.56 L 31.33,10.69 L 30.28,9.85 L 29.21,9.06 L 28.14,8.32 L 27.06,7.63 L 25.99,6.99 L 24.92,6.41 L 23.87,5.89 L 22.83,5.43 L 21.82,5.05 L 20.84,4.74 L 19.90,4.50 Z" fill="none" stroke="black" stroke-width="0.15"/>
  <line x1="19.9" y1="19.4" x2="19.9" y2="21.5"
        stroke="red" stroke-width="0.1" marker-end="url(#arrow)"/>
  <text x="20.4" y="19.4" font-size="0.6" fill="red">GRAIN</text>
  <defs>
    <marker id="arrow" viewBox="0 0 10 10" refX="5" refY="5" markerWidth="4" markerHeight="4" orient="auto-start-reverse">
      <path d="M 0 0 L 10 5 L 0 10 z" fill="red"/>
    </marker>
  </defs>
  <text x="1" y="30.0" font-size="0.6" fill="#666">Cut 2 (mirror for left/right). Grainline runs vertically.</text>
  <text x="38.8" y="30.0" text-anchor="end" font-size="0.5" fill="#666">W:30.8cm H:22.0cm</text>
</svg>