<?xml version="1.0" encoding="UTF-8"?>
<svg xmlns="http://www.w3.org/2000/svg"
     width="425.99999999999994px"
     height="310.0px"
     viewBox="0 0 42.60 31.00">
  <rect width="100%" height="100%" fill="white"/>
  <text x="21.299999999999997" y="2" text-anchor="middle" font-size="1.5" font-family="Arial">Sleeve</text>
  <path d="M 20.93,3.05 L 19.86,3.32 L 18.71,3.68 L 17.53,4.13 L 16.34,4.65 L 15.13,5.25 L 13.92,5.91 L 12.70,6.63 L 11.48,7.42 L 10.27,8.26 L 9.06,9.15 L 7.88,10.09 L 6.71,11.08 L 5.57,12.11 L 4.47,13.17 L 3.11,14.74 L 3.44,27.56 L 39.16,27.56 L 39.49,14.74 L 38.13,13.17 L 37.03,12.11 L 35.89,11.08 L 34.72,10.09 L 33.54,9.15 L 32.33,8.26 L 31.12,7.42 L 29.90,6.63 L 28.68,5.91 L 27.47,5.25 L 26.26,4.65 L 25.07,4.13 L 23.89,3.68 L 22.74,3.32 L 21.67,3.05 Z" fill="none" stroke="#999" stroke-width="0.1" stroke-dasharray="0.5,0.3"/>
  <path d="M 21.30,4.50 L 20.27,4.76 L 19.20,5.10 L 18.10,5.52 L 16.97,6.01 L 15.82,6.58 L 14.66,7.21 L 13.49,7.91 L 12.31,8.67 L 11.14,9.48 L 9.98,10.34 L 8.83,11.25 L 7.70,12.21 L 6.60,13.20 L 5.53,14.24 L 4.50,15.30 L 4.50,26.50 L 38.10,26.50 L 38.10,15.30 L 37.07,14.24 L 36.00,13.20 L 34.90,12.21 L 33.77,11.25 L 32.62,10.34 L 31.46,9.48 L 30.29,8.67 L 29.11,7.91 L 27.94,7.21 L 26.78,6.58 L 25.63,6.01 L 24.50,5.52 L 23.40,5.10 L 22.33,4.76 L 21.30,4.50 Z" fill="none" stroke="black" stroke-width="0.15"/>
  <line x1="21.299999999999997" y1="20.3" x2="21.299999999999997" y2="21.5"
        stroke="red" stroke-width="0.1" marker-end="url(#arrow)"/>
  <text x="21.799999999999997" y="20.3" font-size="0.6" fill="red">GRAIN</text>
  <defs>
    <marker id="arrow" viewBox="0 0 10 10" refX="5" refY="5" markerWidth="4" markerHeight="4" orient="auto-start-reverse">
      <path d="M 0 0 L 10 5 L 0 10 z" fill="red"/>
    </marker>
  </defs>
  <text x="1" y="30.0" font-size="0.6" fill="#666">Cut 2 (mirror for left/right). Grainline runs vertically.</text>
  <text x="41.599999999999994" y="30.0" text-anchor="end" font-size="0.5" fill="#666">W:33.6cm H:22.0cm</text>
</svg>